<?xml version="1.0" encoding="iso-8859-1"?>
<!-- Generator: Adobe Illustrator 22.0.1, SVG Export Plug-In . SVG Version: 6.00 Build 0)  -->
<svg version="1.1" id="&#x421;&#x43B;&#x43E;&#x439;_1"
	 xmlns="http://www.w3.org/2000/svg" xmlns:xlink="http://www.w3.org/1999/xlink" x="0px" y="0px" viewBox="0 0 340 366"
	 style="enable-background:new 0 0 340 366;" xml:space="preserve">
<path style="fill-rule:evenodd;clip-rule:evenodd;fill:#BDBFBD;" d="M111.303,191.342c-0.326,0.315-0.662,0.621-1.007,0.916
	l-0.025,0.023l0-0.001c-3.843,3.275-8.825,5.252-14.269,5.252c-12.157,0-22.012-9.855-22.012-22.012
	c0-8.627,4.964-16.094,12.191-19.703l-0.001-0.001l78.713-40.797l-6.324,33.321L111.303,191.342z"/>
<path style="fill:none;stroke:#000000;stroke-width:1.0001;stroke-miterlimit:22.9256;" d="M111.303,191.342
	c-0.326,0.315-0.662,0.621-1.007,0.916l-0.025,0.023l0-0.001c-3.843,3.275-8.825,5.252-14.269,5.252
	c-12.157,0-22.012-9.855-22.012-22.012c0-8.627,4.964-16.094,12.191-19.703l-0.001-0.001l78.713-40.797l-6.324,33.321
	L111.303,191.342z"/>
<polygon style="fill-rule:evenodd;clip-rule:evenodd;fill:#00E0FF;" points="171.684,264.938 232.184,264.813 251.809,245.438 
	230.184,239.188 "/>
<polygon style="fill:none;stroke:#2B2929;stroke-width:1.0001;stroke-miterlimit:22.9256;" points="171.684,264.938 
	232.184,264.813 251.809,245.438 230.184,239.188 "/>
<path style="fill-rule:evenodd;clip-rule:evenodd;fill:#CCCCC9;" d="M81.063,68.919c8.963,0,17.174,3.213,23.549,8.548l-2.702,0.924
	l5.519,4.931l2.13-0.839c5.14,6.318,8.224,14.377,8.224,23.157c0,20.28-16.44,36.72-36.72,36.72c-6.153,0-11.952-1.516-17.047-4.191
	l0.772-2.518l-7.445-4.391l-0.976,1.556c-7.387-6.717-12.024-16.404-12.024-27.175C44.343,85.359,60.784,68.919,81.063,68.919z"/>
<path style="fill:none;stroke:#000000;stroke-width:1.0001;stroke-miterlimit:22.9256;" d="M81.063,68.919
	c8.963,0,17.174,3.213,23.549,8.548l-2.702,0.924l5.519,4.931l2.13-0.839c5.14,6.318,8.224,14.377,8.224,23.157
	c0,20.28-16.44,36.72-36.72,36.72c-6.153,0-11.952-1.516-17.047-4.191l0.772-2.518l-7.445-4.391l-0.976,1.556
	c-7.387-6.717-12.024-16.404-12.024-27.175C44.343,85.359,60.784,68.919,81.063,68.919z"/>
<circle style="fill-rule:evenodd;clip-rule:evenodd;fill:#696B6B;" cx="82.164" cy="103.775" r="14.542"/>
<circle style="fill:none;stroke:#000000;stroke-width:1.0001;stroke-miterlimit:22.9256;" cx="82.164" cy="103.775" r="14.542"/>
<path style="fill-rule:evenodd;clip-rule:evenodd;fill:#CCCCC9;" d="M74.176,154.38c15.636-1.719,30.132,5.998,37.814,18.596
	l0.002-0.002l0.166,0.277l0.166,0.28l47.112,75.513c5.444,8.725,2.947,19.685-8.071,20.677
	c-22.751,2.048-106.421-39.918-111.906-72.044C35.071,171.982,52.633,156.749,74.176,154.38z"/>
<path style="fill:none;stroke:#000000;stroke-width:1.0001;stroke-miterlimit:22.9256;" d="M74.176,154.38
	c15.636-1.719,30.132,5.998,37.814,18.596l0.002-0.002l0.166,0.277l0.166,0.28l47.112,75.513c5.444,8.725,2.947,19.685-8.071,20.677
	c-22.751,2.048-106.421-39.918-111.906-72.044C35.071,171.982,52.633,156.749,74.176,154.38z"/>
<path style="fill-rule:evenodd;clip-rule:evenodd;fill:#FFFFFF;" d="M56.816,168.815c-6.064,2.021-11.134,10.762-12.563,19.615
	c-0.92,5.695,0.546,11.803,1.303,14.982c0.691,2.903,5.456,9.344,6.38,9.011c1.813-0.654,0.896-12.787,1.318-16.858
	C54.249,185.953,67.816,169.69,56.816,168.815"/>
<path style="fill-rule:evenodd;clip-rule:evenodd;fill:#BDBFBD;" d="M142.691,226.439c24.625,39.875,7.75,40.75,0.375,38.875
	c-7.375-1.875-54.75-29.25-54.75-29.25s42.75,18.625,48.5,18.125C142.566,253.689,148.065,249.939,142.691,226.439"/>
<polygon style="fill-rule:evenodd;clip-rule:evenodd;fill:#00E0FF;" points="179.509,156.436 181.415,150.177 223.463,137.858 
	217.525,153.673 "/>
<polygon style="fill:none;stroke:#000000;stroke-width:1.0001;stroke-miterlimit:22.9256;" points="179.509,156.436 
	181.415,150.177 223.463,137.858 217.525,153.673 "/>
<polygon style="fill-rule:evenodd;clip-rule:evenodd;fill:#00E0FF;" points="167.143,170.226 170.166,164.424 213.762,160.039 
	205.019,174.494 "/>
<polygon style="fill:none;stroke:#000000;stroke-width:1.0001;stroke-miterlimit:22.9256;" points="167.143,170.226 
	170.166,164.424 213.762,160.039 205.019,174.494 "/>
<polygon style="fill-rule:evenodd;clip-rule:evenodd;fill:#00E0FF;" points="156.066,179.878 160.566,175.128 203.691,182.878 
	191.316,194.378 "/>
<polygon style="fill:none;stroke:#000000;stroke-width:1.0001;stroke-miterlimit:22.9256;" points="156.066,179.878 
	160.566,175.128 203.691,182.878 191.316,194.378 "/>
<path style="fill:none;stroke:#000000;stroke-width:1.0001;stroke-miterlimit:22.9256;" d="M78.281,208.454
	c0,0,5.818-12.283,15.678-13.929"/>
<path style="fill:none;stroke:#000000;stroke-width:1.0001;stroke-miterlimit:22.9256;" d="M88.002,227.128
	c0,0,34.24,11.674,63.871,9.795"/>
<path style="fill-rule:evenodd;clip-rule:evenodd;fill:#00E0FF;" d="M82.878,227.128c0-9.596-7.779-17.375-17.375-17.375
	c-6.183,0-11.612,3.23-14.691,8.093c6.888,7.532,16.303,15.007,26.698,21.841c1.152-1.102,2.152-2.36,2.967-3.741
	C82.003,233.361,82.878,230.346,82.878,227.128z"/>
<path style="fill:none;stroke:#2B2929;stroke-width:1.0001;stroke-miterlimit:22.9256;" d="M82.878,227.128
	c0-9.596-7.779-17.375-17.375-17.375c-6.183,0-11.612,3.23-14.691,8.093c6.888,7.532,16.303,15.007,26.698,21.841
	c1.152-1.102,2.152-2.36,2.967-3.741C82.003,233.361,82.878,230.346,82.878,227.128z"/>
<path style="fill:none;stroke:#2B2929;stroke-width:1.0001;stroke-miterlimit:22.9256;" d="M50.812,217.846
	c3.079-4.864,8.508-8.093,14.691-8.093c9.596,0,17.375,7.779,17.375,17.375c0,3.219-0.875,6.233-2.401,8.818
	c-0.815,1.381-1.816,2.639-2.967,3.741c1.452,0.955,2.924,1.897,4.41,2.825c3.772-4.024,6.081-9.434,6.081-15.384
	c0-12.426-10.073-22.499-22.499-22.499c-7.441,0-14.037,3.612-18.133,9.178C48.431,215.152,49.581,216.5,50.812,217.846z"/>
<path style="fill-rule:evenodd;clip-rule:evenodd;fill:#BDBFBD;" d="M88.191,162.94c-7-2.25-12.25-2.75-13.75-1.75
	c-1.5,1-11.25,7-1.75,8.75C82.191,171.69,98.592,167.217,88.191,162.94"/>
<path style="fill-rule:evenodd;clip-rule:evenodd;fill:#BDBFBD;" d="M93.959,194.524c-2.969-3.342-4.964-7.57-5.536-12.237
	c0,0-0.379,6.796,2.771,13.001c4.052,7.982,13.944,14.984,37.998,5.278l-2.842-4.555c-0.254,0.238-0.513,0.47-0.777,0.696
	l-0.026,0.022c-3.95,3.366-9.071,5.399-14.667,5.399C104.147,202.128,98.103,199.189,93.959,194.524"/>
<ellipse transform="matrix(0.0333 -0.9994 0.9994 0.0333 -24.2878 182.4399)" style="fill:none;stroke:#000000;stroke-width:1.0001;stroke-miterlimit:22.9256;" cx="82.164" cy="103.775" rx="20.46" ry="20.46"/>
<path style="fill-rule:evenodd;clip-rule:evenodd;fill:#BDBFBD;" d="M65.388,133.289c13.677,4.572,26.433,3.827,36.427-3.724
	c11.25-8.5,7.625-28.625,5.625-26.375c-2,2.25-1.875,11.375-10.75,19.5c-6.987,6.397-23.041,5.898-29.553,5.396
	C66.435,129.971,65.858,131.72,65.388,133.289"/>
<path style="fill-rule:evenodd;clip-rule:evenodd;fill:#CCCCC9;" d="M43.748,105.438c0,0-10.499,11.22-11.778,17.424
	c-1.28,6.204,18.36,7.523,21.075,6.512C55.759,128.363,52.065,107.815,43.748,105.438z"/>
<path style="fill:none;stroke:#000000;stroke-width:1.0001;stroke-miterlimit:22.9256;" d="M43.748,105.438
	c0,0-10.499,11.22-11.778,17.424c-1.28,6.204,18.36,7.523,21.075,6.512C55.759,128.363,52.065,107.815,43.748,105.438z"/>
<path style="fill-rule:evenodd;clip-rule:evenodd;fill:#FFFFFF;" d="M35.19,120.691c0.625-0.375,12.163-6.853,11.125-9.5
	C45.278,108.544,39.565,111.191,35.19,120.691"/>
<path style="fill-rule:evenodd;clip-rule:evenodd;fill:#00E0FF;" d="M67.175,128.089c0.926-2.602,2.017-5.301,3.214-7.581
	c-2.316-1.632-4.277-3.732-5.747-6.163c-0.13,0.184-0.247,0.355-0.348,0.511c-2.779,4.27-5.713,12.655-6.951,16.402l7.445,4.391
	c0.193-0.688,0.42-1.476,0.679-2.334c-0.026-0.008-0.052-0.017-0.079-0.026c0.47-1.569,1.046-3.318,1.749-5.202
	C67.15,128.087,67.163,128.089,67.175,128.089z"/>
<path style="fill:none;stroke:#2B2929;stroke-width:1.0001;stroke-miterlimit:22.9256;" d="M67.175,128.089
	c0.926-2.602,2.017-5.301,3.214-7.581c-2.316-1.632-4.277-3.732-5.747-6.163c-0.13,0.184-0.247,0.355-0.348,0.511
	c-2.779,4.27-5.713,12.655-6.951,16.402l7.445,4.391c0.193-0.688,0.42-1.476,0.679-2.334c-0.026-0.008-0.052-0.017-0.079-0.026
	c0.47-1.569,1.046-3.318,1.749-5.202C67.15,128.087,67.163,128.089,67.175,128.089z"/>
<path style="fill-rule:evenodd;clip-rule:evenodd;fill:#00E0FF;" d="M96.806,89.487c0,0,4.858-3.729,10.624-6.166l-5.519-4.931
	c-5.574,2.546-11.367,6.715-11.367,6.715C92.903,86.165,95.025,87.66,96.806,89.487z"/>
<path style="fill:none;stroke:#2B2929;stroke-width:1.0001;stroke-miterlimit:22.9256;" d="M96.806,89.487
	c0,0,4.858-3.729,10.624-6.166l-5.519-4.931c-5.574,2.546-11.367,6.715-11.367,6.715C92.903,86.165,95.025,87.66,96.806,89.487z"/>
<path style="fill-rule:evenodd;clip-rule:evenodd;fill:#FFFFFF;" d="M62.253,79.754c0,0-9.5,5.25-11.625,12.625
	c-2.125,7.375-4,12.125-0.25,11.875c3.75-0.25,4.25-8.5,6.625-11.125C59.379,90.504,71.753,79.379,62.253,79.754"/>
<path style="fill-rule:evenodd;clip-rule:evenodd;fill:#BDBFBD;" d="M35.667,125.645c0,0,14.431,3.703,15.619,2.703
	c1.187-1,0.937-9.375-1.531-8.094C47.285,121.536,53.073,124.801,35.667,125.645"/>
<path style="fill:none;stroke:#000000;stroke-width:0.5669;stroke-miterlimit:22.9256;" d="M131.916,236.449
	c0,0,4.69,20.409-3.591,28.624"/>
<path style="fill-rule:evenodd;clip-rule:evenodd;fill:#CCCCC9;" d="M126.606,195.765c-0.335,0.324-0.681,0.639-1.035,0.942
	l-0.026,0.024l-0.001-0.001c-3.95,3.366-9.071,5.399-14.667,5.399c-12.496,0-22.625-10.13-22.625-22.625
	c0-8.868,5.102-16.543,12.531-20.252l-0.001-0.001l80.908-41.934l-6.5,34.25L126.606,195.765z"/>
<path style="fill:none;stroke:#000000;stroke-width:1.0001;stroke-miterlimit:22.9256;" d="M126.606,195.765
	c-0.335,0.324-0.681,0.639-1.035,0.942l-0.026,0.024l-0.001-0.001c-3.95,3.366-9.071,5.399-14.667,5.399
	c-12.496,0-22.625-10.13-22.625-22.625c0-8.868,5.102-16.543,12.531-20.252l-0.001-0.001l80.908-41.934l-6.5,34.25L126.606,195.765z
	"/>
<line style="fill:none;stroke:#000000;stroke-width:1.0001;stroke-miterlimit:22.9256;" x1="105.833" y1="162.871" x2="180.305" y2="124.616"/>
<path style="fill:none;stroke:#000000;stroke-width:1.0001;stroke-miterlimit:22.9256;" d="M148.166,176.151
	c0,0-7.976-0.086-8.726-6.836c-0.166-1.49,1.338-3.742,4.525-6.067l33.671-24.568"/>
<path style="fill-rule:evenodd;clip-rule:evenodd;fill:#00E0FF;" d="M110.878,168.565c6.041,0,10.938,4.897,10.938,10.938
	s-4.897,10.938-10.938,10.938c-6.041,0-10.938-4.897-10.938-10.938S104.837,168.565,110.878,168.565z M110.878,162.128
	c9.596,0,17.375,7.779,17.375,17.375s-7.779,17.375-17.375,17.375s-17.375-7.779-17.375-17.375S101.282,162.128,110.878,162.128z"/>
<path style="fill:none;stroke:#000000;stroke-width:1.0001;stroke-miterlimit:22.9256;" d="M110.878,168.565
	c6.041,0,10.938,4.897,10.938,10.938s-4.897,10.938-10.938,10.938c-6.041,0-10.938-4.897-10.938-10.938
	S104.837,168.565,110.878,168.565z M110.878,162.128c9.596,0,17.375,7.779,17.375,17.375s-7.779,17.375-17.375,17.375
	s-17.375-7.779-17.375-17.375S101.282,162.128,110.878,162.128z"/>
<path d="M167.408,138.146c-0.333-0.593-0.755-0.989-1.266-1.187c-0.511-0.198-0.99-0.172-1.435,0.078
	c-0.416,0.234-0.663,0.617-0.743,1.152c-0.08,0.535,0.039,1.086,0.358,1.654c0.332,0.59,0.755,0.985,1.268,1.185
	c0.513,0.197,0.991,0.173,1.434-0.076c0.414-0.233,0.661-0.617,0.742-1.154C167.846,139.262,167.726,138.711,167.408,138.146
	 M168.514,137.361c0.49,0.872,0.629,1.744,0.419,2.619c-0.211,0.872-0.71,1.53-1.496,1.972c-0.75,0.422-1.524,0.511-2.326,0.269
	c-0.802-0.242-1.43-0.77-1.886-1.581c-0.49-0.872-0.63-1.744-0.42-2.618c0.213-0.874,0.712-1.531,1.498-1.973
	c0.748-0.421,1.523-0.512,2.325-0.27C167.427,136.02,168.057,136.547,168.514,137.361z M158.719,139.357l0.484,0.932
	c-0.59,0.276-1.138,0.555-1.64,0.838c0.296,0.541,0.63,1.14,1,1.798c0.574,1.022,1.134,1.979,1.677,2.873l-1.192,0.67
	c-0.471-0.923-0.996-1.9-1.575-2.93c-0.364-0.647-0.706-1.242-1.026-1.783c-0.4,0.225-0.936,0.557-1.61,0.995l-0.481-0.939
	L158.719,139.357z M151.434,145.673c-0.342-0.607-0.915-0.685-1.721-0.232c-0.201,0.113-0.403,0.254-0.602,0.423
	c0.332,0.519,0.689,1.117,1.071,1.796c0.073-0.036,0.156-0.078,0.251-0.132C151.469,146.946,151.803,146.328,151.434,145.673z
	 M152.402,144.821c0.381,0.677,0.411,1.32,0.089,1.928c-0.323,0.606-0.849,1.116-1.582,1.528c-0.133,0.075-0.23,0.125-0.29,0.151
	c0.3,0.533,0.711,1.228,1.234,2.085l-1.196,0.672c-0.424-0.84-0.95-1.818-1.575-2.93c-0.575-1.022-1.09-1.893-1.542-2.613
	l0.741-0.417c0.104-0.059,0.304-0.177,0.597-0.353c0.293-0.176,0.548-0.325,0.767-0.449c0.54-0.303,1.063-0.437,1.572-0.402
	C151.728,144.058,152.122,144.324,152.402,144.821z M144.425,147.395c0.066,0.116,0.08,0.519,0.044,1.213
	c-0.057,1.059-0.086,1.714-0.088,1.966c0.001,0.757,0.078,1.276,0.236,1.555c0.35,0.623,0.718,1.236,1.099,1.836l-1.209,0.68
	c-0.317-0.64-0.653-1.274-1.008-1.905c-0.163-0.289-0.559-0.644-1.187-1.063c-0.293-0.195-0.844-0.526-1.655-0.992
	c-0.581-0.335-0.897-0.547-0.948-0.638l1.337-0.752c0.057,0.102,0.478,0.431,1.261,0.991c0.782,0.559,1.237,0.949,1.361,1.17
	l0.067-0.038c-0.115-0.205-0.202-0.768-0.264-1.69c-0.06-0.923-0.143-1.476-0.246-1.659L144.425,147.395z M136.431,154.031
	c-0.318-0.565-0.84-0.643-1.566-0.234c-0.266,0.149-0.492,0.302-0.673,0.457c0.277,0.422,0.616,0.987,1.013,1.693
	c0.159-0.082,0.293-0.153,0.402-0.214C136.509,155.224,136.784,154.657,136.431,154.031z M140.231,157.049l-1.26,0.709
	c-0.895-0.819-1.496-1.297-1.805-1.434c-0.308-0.136-0.658-0.095-1.05,0.126c-0.164,0.092-0.321,0.183-0.47,0.268
	c0.41,0.73,0.838,1.459,1.281,2.189l-1.183,0.665c-0.446-0.878-0.97-1.855-1.575-2.93c-0.581-1.033-1.096-1.905-1.542-2.612
	l0.737-0.414c0.084-0.047,0.261-0.152,0.526-0.313c0.267-0.161,0.514-0.306,0.744-0.435c1.304-0.733,2.206-0.653,2.706,0.238
	c0.397,0.706,0.302,1.408-0.284,2.103l0.036,0.064c0.331-0.081,0.708,0.001,1.13,0.248
	C138.645,155.766,139.314,156.276,140.231,157.049z M131.874,160.421l0.479,1.018c-0.349,0.325-0.719,0.596-1.111,0.816
	c-0.974,0.548-1.866,0.695-2.678,0.444c-0.811-0.252-1.433-0.762-1.865-1.531c-0.448-0.798-0.569-1.645-0.36-2.538
	c0.209-0.894,0.784-1.606,1.726-2.135c0.348-0.195,0.697-0.34,1.051-0.434l0.405,1.067c-0.397,0.08-0.747,0.206-1.054,0.379
	c-0.577,0.324-0.903,0.748-0.978,1.271c-0.077,0.524,0.033,1.045,0.327,1.567c0.3,0.533,0.728,0.903,1.28,1.107
	c0.554,0.205,1.132,0.138,1.733-0.2C131.181,161.051,131.529,160.776,131.874,160.421z"/>
<polygon style="fill-rule:evenodd;clip-rule:evenodd;fill:#00E0FF;" points="177.043,255.413 204.418,242.663 215.168,228.288 
	200.668,230.663 "/>
<polygon style="fill:none;stroke:#2B2929;stroke-width:1.0001;stroke-miterlimit:22.9256;" points="177.043,255.413 
	204.418,242.663 215.168,228.288 200.668,230.663 "/>
<polygon style="fill-rule:evenodd;clip-rule:evenodd;fill:#00E0FF;" points="171.293,270.288 196.67,286.559 214.168,282.663 
	204.043,273.288 "/>
<polygon style="fill:none;stroke:#2B2929;stroke-width:1.0001;stroke-miterlimit:22.9256;" points="171.293,270.288 196.67,286.559 
	214.168,282.663 204.043,273.288 "/>
<path style="fill-rule:evenodd;clip-rule:evenodd;fill:#00E0FF;" d="M77.066,96.565c3.452,0,6.25,2.798,6.25,6.25
	c0,3.452-2.798,6.25-6.25,6.25c-3.452,0-6.25-2.798-6.25-6.25C70.816,99.363,73.614,96.565,77.066,96.565"/>
</svg>
