<?xml version="1.0" encoding="iso-8859-1"?>
<!-- Generator: Adobe Illustrator 22.0.1, SVG Export Plug-In . SVG Version: 6.00 Build 0)  -->
<svg version="1.1" id="&#x421;&#x43B;&#x43E;&#x439;_1"
	 xmlns="http://www.w3.org/2000/svg" xmlns:xlink="http://www.w3.org/1999/xlink" x="0px" y="0px" viewBox="0 0 340 366"
	 style="enable-background:new 0 0 340 366;" xml:space="preserve">
<g>
	<g>
		<g>
			<g>
				<g>
					<g>
						<g>
							<g>
								<g>
									<g>
										<g>
											<g>
												<g>
													<g>
														
															<path style="fill:none;stroke:#000000;stroke-width:2.0001;stroke-linecap:round;stroke-linejoin:round;stroke-miterlimit:22.9256;" d="
															M120.944,158.403l-6.242,18.454c-1.681-0.493,23.914,23.701,23.914,23.701l27.788,2.897l-4.827-12.486
															L120.944,158.403z"/>
													</g>
													<g>
														<path style="fill:#525252;" d="M120.944,158.403l-6.242,18.454c-1.681-0.493,23.914,23.701,23.914,23.701
															l27.788,2.897l-4.827-12.486L120.944,158.403z"/>
													</g>
													<g>
														
															<path style="fill:none;stroke:#000000;stroke-width:2.0001;stroke-linecap:round;stroke-linejoin:round;stroke-miterlimit:22.9256;" d="
															M120.944,158.403l40.634,32.566l27.696-3.707l-18.019-23.164c0,0-45.544-17.79-44.245-17.081
															C128.308,147.728,120.944,158.403,120.944,158.403z"/>
													</g>
													<g>
														<path style="fill:#525252;" d="M120.944,158.403l40.634,32.566l27.696-3.707l-18.019-23.164
															c0,0-45.544-17.79-44.245-17.081C128.308,147.728,120.944,158.403,120.944,158.403"/>
													</g>
													<g>
														
															<polygon style="fill:none;stroke:#000000;stroke-width:2.0001;stroke-linecap:round;stroke-linejoin:round;stroke-miterlimit:22.9256;" points="
															127.009,147.019 171.254,164.099 200.373,163.169 194.303,147.863 135.185,135.237 														"/>
													</g>
													<g>
														<polygon style="fill:#525252;" points="127.009,147.019 171.254,164.099 200.373,163.169 194.303,147.863 
															135.185,135.237 														"/>
													</g>
													<g>
														
															<polygon style="fill:none;stroke:#000000;stroke-width:2.0001;stroke-linecap:round;stroke-linejoin:round;stroke-miterlimit:22.9256;" points="
															135.185,135.237 144.115,124.232 197.526,116.301 215.967,130.01 192.368,144.234 														"/>
													</g>
													<g>
														<polygon style="fill:#525252;" points="135.185,135.237 144.115,124.232 197.526,116.301 215.967,130.01 
															192.368,144.234 														"/>
													</g>
													<g>
														
															<path style="fill:none;stroke:#000000;stroke-width:2.0001;stroke-linecap:round;stroke-linejoin:round;stroke-miterlimit:22.9256;" d="
															M119.501,200.257l-23.954,2.28l3.293-19.983c0,0,9.745-31.325,15.568-40.514s24.44-29.431,24.44-29.431l9.567,7.259
															c0,0-11.825,11.016-17.165,22.038C125.911,152.927,109.978,179.347,119.501,200.257z"/>
													</g>
													<g>
														<path style="fill:#525252;" d="M119.501,200.257l-23.954,2.28l3.293-19.983c0,0,9.745-31.325,15.568-40.514
															s24.44-29.431,24.44-29.431l9.567,7.259c0,0-11.825,11.016-17.165,22.038
															C125.911,152.927,109.978,179.347,119.501,200.257"/>
													</g>
													<g>
														<path style="fill:#70706E;" d="M96.004,199.766l2.837-17.212c0,0,9.745-31.325,15.568-40.514
															s24.44-29.431,24.44-29.431l2.858,2.168c-0.153,0.336-0.251,0.703-0.267,1.11
															c-0.134,3.345-10.732,9.195-17.077,15.391c-6.345,6.196-10.348,19.236-10.348,19.236l-1.683,6.055
															c0,0,0.604,7.455-3.982,9.917c-4.587,2.462-5.807,13.472-6.009,20.341S96.004,199.766,96.004,199.766L96.004,199.766z
															"/>
													</g>
													<g>
														
															<polygon style="fill:none;stroke:#000000;stroke-width:2.0001;stroke-linecap:round;stroke-linejoin:round;stroke-miterlimit:22.9256;" points="
															138.849,112.609 162.633,90.937 201.155,80.936 190.726,112.664 144.115,124.232 														"/>
													</g>
													<g>
														<polygon style="fill:#525252;" points="138.849,112.609 162.633,90.937 201.155,80.936 190.726,112.664 
															144.115,124.232 														"/>
													</g>
													<g>
														<polygon style="fill:#70706E;" points="138.849,112.609 162.633,90.937 192.463,83.193 170.532,91.58 172.353,95.431 
															164.815,94.702 141.482,118.42 														"/>
													</g>
													<g>
														
															<polygon style="fill:none;stroke:#000000;stroke-width:2.0001;stroke-linecap:round;stroke-linejoin:round;stroke-miterlimit:22.9256;" points="
															81.904,143.657 101.416,137.132 106.741,163.231 93.053,163.231 														"/>
													</g>
													<g>
														<polygon style="fill:#545454;" points="81.904,143.657 101.416,137.132 106.741,163.231 93.053,163.231 
																													"/>
													</g>
													<g>
														
															<path style="fill:none;stroke:#000000;stroke-width:2.0001;stroke-linecap:round;stroke-linejoin:round;stroke-miterlimit:22.9256;" d="
															M68.866,197.919l-22.125,12.375l34.688,37.875l16.313-10.688c0,0-9.562-9.562-16.5-17.25
															C74.303,212.544,68.866,197.919,68.866,197.919z"/>
													</g>
													<g>
														<path style="fill:#70706E;" d="M68.866,197.919l-22.125,12.375l34.688,37.875l16.313-10.688
															c0,0-9.562-9.562-16.5-17.25C74.303,212.544,68.866,197.919,68.866,197.919"/>
													</g>
													<g>
														
															<polygon style="fill:none;stroke:#000000;stroke-width:2.0001;stroke-linecap:round;stroke-linejoin:round;stroke-miterlimit:22.9256;" points="
															64.424,140.359 58.928,161.919 70.178,174.294 88.178,174.481 93.053,163.231 81.904,143.657 														"/>
													</g>
													<g>
														<polygon style="fill:#70706E;" points="64.424,140.359 58.928,161.919 70.178,174.294 88.178,174.481 93.053,163.231 
															81.904,143.657 														"/>
													</g>
													<g>
														<path style="fill:#525252;" d="M79.553,154.889c1.313,0.844,5.156,9.563,5.156,9.563s3.188,4.313,0.094,5.531
															c-3.094,1.219-14.063,0.094-14.063,0.094l-7.123-3l1.865,2.052l4.696,5.165l18,0.187l4.875-11.25l-11.15-19.574
															l-17.957-3.462c-0.376,1.196,4.647,5.248,5.856,6.538C70.535,147.514,78.576,154.261,79.553,154.889"/>
													</g>
													<g>
														<path style="fill:#A6A696;" d="M69.24,152.639c1.308-6.726-4.904-6.46-5.771-8.533l-4.541,17.812l4.689,5.158
															c2.273-0.35-0.284,0.028,6.467-7.688C70.444,158.977,68.584,156.014,69.24,152.639"/>
													</g>
													<g>
														
															<path style="fill:none;stroke:#000000;stroke-width:2.0001;stroke-linecap:round;stroke-linejoin:round;stroke-miterlimit:22.9256;" d="
															M70.318,81.617l23.25-0.75l12.281-13.875l-4.687-7.688c0,0-15.187,10.312-15.656,10.406s-19.688,0.844-19.688,0.844
															L70.318,81.617z"/>
													</g>
													<g>
														<path style="fill:#70706E;" d="M70.318,81.617l23.25-0.75l12.281-13.875l-4.687-7.688
															c0,0-15.187,10.312-15.656,10.406s-19.688,0.844-19.688,0.844L70.318,81.617z"/>
													</g>
													<g>
														<path style="fill:#A6A696;" d="M73.433,81.516l6.756-0.218c5.585-0.335,11.793-1.086,11.002-2.773
															c-1.406-3-3.094-0.282,0.469-5.813c3.563-5.531,4.688-7.031,2.438-6.469c-0.841,0.21-1.158-0.43-1.26-1.32
															c-3.626,2.432-7.111,4.743-7.332,4.787c-0.469,0.094-19.688,0.844-19.688,0.844l7.549,10.867L73.433,81.516z"/>
													</g>
													<g>
														
															<polygon style="fill:none;stroke:#000000;stroke-width:2.0001;stroke-linecap:round;stroke-linejoin:round;stroke-miterlimit:22.9256;" points="
															47.162,93.429 31.037,106.179 43.937,113.969 53.536,108.523 														"/>
													</g>
													<g>
														<polygon style="fill:#A6A696;" points="47.162,93.429 31.037,106.179 43.937,113.969 53.536,108.523 														
															"/>
													</g>
													<g>
														<path style="fill:#70706E;" d="M46.799,108.851c-3.162,1.441-7.267,1.236-10.519,0.495l7.656,4.624l9.6-5.447
															l-3.187-7.547C50.349,100.976,49.962,107.41,46.799,108.851"/>
													</g>
													<g>
														
															<polygon style="fill:none;stroke:#000000;stroke-width:2.0001;stroke-linecap:round;stroke-linejoin:round;stroke-miterlimit:22.9256;" points="
															107.068,135.242 119.443,107.773 96.494,96.181 93.95,113.323 														"/>
													</g>
													<g>
														<polygon style="fill:#545454;" points="107.068,135.242 119.443,107.773 96.494,96.181 93.95,113.323 														
															"/>
													</g>
													<g>
														<path style="fill:#70706E;" d="M94.423,114.113c0,0,6.143,8.192,8.206,7.864s5.719-4.079,5.578-5.063
															s2.719-7.594,2.719-7.594s-5.297,4.313-7.547-0.187c-2.147-4.296-1.872-8.172-5.787-10.302
															c0.402,1.332,0.618,2.745,0.618,4.208c0,4.016-1.628,7.651-4.26,10.283L94.423,114.113z"/>
													</g>
													<g>
														
															<polygon style="fill:none;stroke:#000000;stroke-width:2.0001;stroke-linecap:round;stroke-linejoin:round;stroke-miterlimit:22.9256;" points="
															77.911,144.992 107.068,135.242 93.95,113.323 79.969,117.107 														"/>
													</g>
													<g>
														<polygon style="fill:#545454;" points="77.911,144.992 107.068,135.242 93.95,113.323 79.969,117.107 														
															"/>
													</g>
													<g>
														<path style="fill:#70706E;" d="M80.766,117.292c-0.309,1.215-1.387,6.372,0.207,8.247s4.031,3.047,3.75,3.047
															s-4.5,3.563-4.359,4.219c0.141,0.656-0.328,3.188,7.594,1.687c7.922-1.5,13.828-0.235,11.109-8.156
															c-1.323-3.854-1.68-6.089-1.73-7.356l-3.386-5.657c-2.632,2.632-6.267,4.259-10.283,4.259
															C82.673,117.582,81.703,117.482,80.766,117.292"/>
													</g>
													<g>
														
															<polygon style="fill:none;stroke:#000000;stroke-width:2.0001;stroke-linecap:round;stroke-linejoin:round;stroke-miterlimit:22.9256;" points="
															53.349,136.554 77.911,144.992 79.969,117.107 70.813,109.847 57.528,117.974 														"/>
													</g>
													<g>
														<polygon style="fill:#545454;" points="53.349,136.554 77.911,144.992 79.969,117.107 70.813,109.847 57.528,117.974 
																													"/>
													</g>
													<g>
														<path style="fill:#70706E;" d="M78.897,129.248l0.578-12.279c-2.28-0.686-4.325-1.916-5.983-3.54
															c-1.066-1.044-1.973-2.252-2.678-3.581l-3.121,3.177l-6.982,9.505l-0.084,0.16c-0.307,1.824-0.597,5.346,4.783,7.023
															C71.919,131.74,77.406,135.025,78.897,129.248"/>
													</g>
													<g>
														
															<polygon style="fill:none;stroke:#000000;stroke-width:2.0001;stroke-linecap:round;stroke-linejoin:round;stroke-miterlimit:22.9256;" points="
															31.037,132.242 53.349,136.554 60.711,122.528 														"/>
													</g>
													<g>
														<polygon style="fill:#545454;" points="31.037,132.242 53.349,136.554 60.711,122.528 														"/>
													</g>
													<g>
														
															<polygon style="fill:none;stroke:#000000;stroke-width:2.0001;stroke-linecap:round;stroke-linejoin:round;stroke-miterlimit:22.9256;" points="
															114.058,81.306 126.38,77.21 116.441,98.188 114.568,92.21 														"/>
													</g>
													<g>
														<polygon style="fill:#545454;" points="114.058,81.306 126.38,77.21 116.441,98.188 114.568,92.21 														"/>
													</g>
													<g>
														
															<polygon style="fill:none;stroke:#000000;stroke-width:2.0001;stroke-linecap:round;stroke-linejoin:round;stroke-miterlimit:22.9256;" points="
															93.193,91.367 101.443,87.242 93.568,80.867 70.318,81.617 80.536,91.742 														"/>
													</g>
													<g>
														<polygon style="fill:#70706E;" points="93.193,91.367 101.443,87.242 93.568,80.867 70.318,81.617 80.536,91.742 
																													"/>
													</g>
													<g>
														
															<polygon style="fill:none;stroke:#000000;stroke-width:2.0001;stroke-linecap:round;stroke-linejoin:round;stroke-miterlimit:22.9256;" points="
															43.937,113.969 44.027,114.024 59.911,123.617 53.547,108.548 53.536,108.523 														"/>
													</g>
													<g>
														<polygon style="fill:#545454;" points="43.937,113.969 44.027,114.024 59.911,123.617 53.547,108.548 53.536,108.523 
																													"/>
													</g>
													<g>
														
															<path style="fill:none;stroke:#000000;stroke-width:2.0001;stroke-linecap:round;stroke-linejoin:round;stroke-miterlimit:22.9256;" d="
															M31.037,106.179l28.875,17.438c0,0-27.517,8.625-28.875,8.625S31.037,106.179,31.037,106.179z"/>
													</g>
													<g>
														<path style="fill:#70706E;" d="M31.037,106.179l28.875,17.438c0,0-27.517,8.625-28.875,8.625
															S31.037,106.179,31.037,106.179"/>
													</g>
													<g>
														
															<path style="fill:none;stroke:#000000;stroke-width:2.0001;stroke-linecap:round;stroke-linejoin:round;stroke-miterlimit:22.9256;" d="
															M69.125,103.04c0,4.07,1.672,7.749,4.367,10.388c2.623,2.569,6.214,4.154,10.175,4.154
															c8.031,0,14.542-6.511,14.543-14.542c0-4.766-2.293-8.997-5.836-11.648l-11.837,0.351L70.21,97.519l-0.01,0.024
															C69.507,99.239,69.125,101.095,69.125,103.04z"/>
													</g>
													<g>
														<path style="fill:#FFFFFF;" d="M69.125,103.04c0,4.07,1.672,7.749,4.367,10.388c2.623,2.569,6.214,4.154,10.175,4.154
															c8.031,0,14.542-6.511,14.543-14.542c0-4.766-2.293-8.997-5.836-11.648l-11.837,0.351L70.21,97.519l-0.01,0.024
															C69.507,99.239,69.125,101.095,69.125,103.04"/>
													</g>
													<g>
														
															<ellipse style="fill:none;stroke:#000000;stroke-width:2.0001;stroke-linecap:round;stroke-linejoin:round;stroke-miterlimit:22.9256;" cx="80.21" cy="107.678" rx="7.595" ry="7.595"/>
													</g>
													<g>
														<path style="fill:#9999FF;" d="M80.207,100.081c4.194,0,7.595,3.401,7.595,7.595s-3.401,7.595-7.595,7.595
															c-4.195,0-7.595-3.401-7.595-7.595S76.012,100.081,80.207,100.081"/>
													</g>
													<g>
														<path d="M80.207,101.579c3.367,0,6.097,2.73,6.097,6.097s-2.73,6.097-6.097,6.097s-6.097-2.73-6.097-6.097
															C74.11,104.308,76.84,101.579,80.207,101.579"/>
													</g>
													<g>
														<path style="fill:#FFFFFF;" d="M77.166,104.647c1.395,0,2.526,1.131,2.526,2.526s-1.131,2.526-2.526,2.526
															c-1.395,0-2.526-1.131-2.526-2.526S75.771,104.647,77.166,104.647"/>
													</g>
													<g>
														
															<path style="fill:none;stroke:#000000;stroke-width:2.0001;stroke-linecap:round;stroke-linejoin:round;stroke-miterlimit:22.9256;" d="
															M101.04,87.443l-7.848,3.924c1.088-0.544,14.438,17.156,14.438,17.156l11.813-0.75l-4.875-15.563L101.04,87.443z"/>
													</g>
													<g>
														<path style="fill:#545454;" d="M101.04,87.443l-7.848,3.924c1.088-0.544,14.438,17.156,14.438,17.156l11.813-0.75
															l-4.875-15.563L101.04,87.443z"/>
													</g>
													<g>
														
															<polygon style="fill:none;stroke:#000000;stroke-width:2.0001;stroke-linecap:round;stroke-linejoin:round;stroke-miterlimit:22.9256;" points="
															47.161,93.429 59.911,123.617 67.693,113.024 67.13,99.242 														"/>
													</g>
													<g>
														<polygon style="fill:#70706E;" points="47.161,93.429 59.911,123.617 67.693,113.024 67.13,99.242 														"/>
													</g>
													<g>
														<path style="fill:#545454;" d="M61.179,112.137c-2.465,2.151-4.588,1.367-6.132-0.038l2.481,5.874l2.076,4.917
															l0.307,0.726l0.8-1.089l6.982-9.505l-0.05-1.237l-0.252-6.175l-0.081-1.995
															C67.309,103.616,66.335,107.637,61.179,112.137"/>
													</g>
													<g>
														<path style="fill:#A6A696;" d="M31.755,110.398c0.188,4.312-1.031,16.687,2.156,15.094
															c3.188-1.594,10.219-3.75,6.188-8.531C36.068,112.179,34.005,109.367,31.755,110.398"/>
													</g>
													<g>
														<path style="fill:#525252;" d="M50.786,123.898c-0.575,2.382-13.527,6.059-19.943,8.132
															c0.057,0.139,0.122,0.212,0.194,0.212c1.036,0,17.293-5.019,24.947-7.4c2.38-0.74,3.928-1.225,3.928-1.225
															l-0.888-0.536l-2.328-1.406l-5.104-3.082C51.921,120.247,51.227,122.073,50.786,123.898"/>
													</g>
													<g>
														<path style="fill:#70706E;" d="M98.951,97.422c1.83,2.241,3.786,4.734,5.377,6.788
															c2.738,1.784,5.677,2.811,6.644-0.046c0.066-0.195,0.126-0.388,0.179-0.58c1.53-5.515-2.186-9.558-3.964-12.316
															c-1.107-0.765-2.666-1.921-4.336-3.187l-1.81-0.638l-7.848,3.924C93.639,91.144,96.147,93.989,98.951,97.422"/>
													</g>
													<g>
														
															<path style="fill:none;stroke:#000000;stroke-width:2.0001;stroke-linecap:round;stroke-linejoin:round;stroke-miterlimit:22.9256;" d="
															M93.568,80.867l19.5-20.719l1.5,32.063c0,0-4.688,0.187-5.813,0C107.63,92.022,93.568,80.867,93.568,80.867z"/>
													</g>
													<g>
														<path style="fill:#545454;" d="M93.568,80.867l19.5-20.719l1.5,32.063c0,0-4.688,0.187-5.813,0
															C107.63,92.022,93.568,80.867,93.568,80.867"/>
													</g>
													<g>
														<path style="fill:#70706E;" d="M95.537,78.775c3.011,2.537,8.567,6.729,11.028,5.983
															c1.866-0.566,5.097-8.841,6.894-16.245l-0.391-8.365L95.537,78.775z"/>
													</g>
													<g>
														
															<polygon style="fill:none;stroke:#000000;stroke-width:2.0001;stroke-linecap:round;stroke-linejoin:round;stroke-miterlimit:22.9256;" points="
															80.536,91.742 93.193,91.367 96.494,96.181 83.255,97.18 														"/>
													</g>
													<g>
														<polygon style="fill:#70706E;" points="80.536,91.742 93.193,91.367 96.494,96.181 83.255,97.18 														"/>
													</g>
													<g>
														<path style="fill:#525252;" d="M83.255,97.18l13.238-0.998l-1.791-2.613l-0.953-1.39
															c0.058,0.178,0.1,0.346,0.128,0.506c0.652,3.784-6.885,2.919-9.109,2.761c-1.626-0.116-2.353-2.157-2.671-3.75
															l-1.561,0.046L83.255,97.18z"/>
													</g>
													<g>
														
															<polygon style="fill:none;stroke:#000000;stroke-width:2.0001;stroke-linecap:round;stroke-linejoin:round;stroke-miterlimit:22.9256;" points="
															67.693,113.024 83.255,97.18 80.536,91.742 67.13,99.242 														"/>
													</g>
													<g>
														<polygon style="fill:#70706E;" points="67.693,113.024 83.255,97.18 80.536,91.742 67.13,99.242 														"/>
													</g>
													<g>
														<path style="fill:#525252;" d="M81.313,95.68c0.74,2.034-8.23,6.288-11.235,9.201
															c-0.262,0.254-0.511,0.453-0.748,0.602c-0.772,0.488-1.412,0.454-1.939,0.129l0.252,6.175l0.05,1.237l3.121-3.177
															l1.805-1.838l1.638-1.667l4.51-4.592l1.637-1.667l2.852-2.903l-2.719-5.438l-0.542,0.303L81.313,95.68z"/>
													</g>
													<g>
														
															<polygon style="fill:none;stroke:#000000;stroke-width:2.0001;stroke-linecap:round;stroke-linejoin:round;stroke-miterlimit:22.9256;" points="
															65.817,70.554 47.161,93.429 67.13,99.242 80.536,91.742 														"/>
													</g>
													<g>
														<polygon style="fill:#A6A696;" points="65.817,70.554 47.161,93.429 67.13,99.242 80.536,91.742 														"/>
													</g>
													<g>
														<path style="fill:#70706E;" d="M66.393,92.164c-3.923,4.828-8.542,4.29-10.193,3.896l10.93,3.182l3.08-1.723
															l9.785-5.474l0.542-0.303l-7.104-10.226l-0.066-0.095c0.001,0.032,0.001,0.065,0.001,0.097
															c-0.002,0.854-0.226,1.677-0.619,2.507C71.62,86.41,69.093,88.841,66.393,92.164"/>
													</g>
													<g>
														<path style="fill:#FFFFFF;" d="M58.753,82.743c-4.031,2.813-6.094,7.969-4.031,7.125s8.86-10.453,8.86-10.453
															S61.472,79.556,58.753,82.743"/>
													</g>
													<g>
														<path style="fill:#FFFFFF;" d="M41.859,98.291c-4.031,2.813-5.063,5.906-3,5.062c2.062-0.844,6.375-3.469,6.375-3.469
															S44.577,95.103,41.859,98.291"/>
													</g>
													<g>
														<path style="fill:#A6A696;" d="M67.472,100.745c0,0-0.148,1.13,4.258-1.542c4.406-2.672,8.445-5.63,8.445-5.63
															S67.155,99.852,67.472,100.745"/>
													</g>
													<g>
														<path style="fill:#70706E;" d="M97.74,142.046c-3.375,2.25-2.813,8.531-1.219,12.656s0.797,7.922,4.453,5.907
															C104.631,158.593,106.74,159.671,97.74,142.046"/>
													</g>
													<g>
														
															<polygon style="fill:none;stroke:#000000;stroke-width:2.0001;stroke-linecap:round;stroke-linejoin:round;stroke-miterlimit:22.9256;" points="
															88.178,174.481 93.053,163.231 106.741,163.231 119.022,176.875 105.053,186.625 														"/>
													</g>
													<g>
														<polygon style="fill:#545454;" points="88.178,174.481 93.053,163.231 106.741,163.231 119.022,176.875 
															105.053,186.625 														"/>
													</g>
													<g>
														<path style="fill:#70706E;" d="M95.397,163.231l-0.891,6.941c0,0,8.672,5.156,9.891,5.203
															c0.853,0.033,6.23-2.69,9.38-4.327l-7.036-7.817H95.397z"/>
													</g>
													<g>
														<path style="fill:#525252;" d="M72.382,214.138l7.219,18.282c0,0-3.938,1.875-4.875,1.875
															c-0.56,0-5.797-2.372-9.928-4.285l16.631,18.159l16.313-10.688c0,0-9.562-9.562-16.5-17.25
															c-6.189-6.858-11.184-19.238-12.19-21.829c-0.122-0.314-0.185-0.484-0.185-0.484l-2.638,1.476l0.53,6.025
															L72.382,214.138z"/>
													</g>
													<g>
														
															<polygon style="fill:none;stroke:#000000;stroke-width:2.0001;stroke-linecap:round;stroke-linejoin:round;stroke-miterlimit:22.9256;" points="
															88.399,251.307 98.209,274.236 112.937,272.148 113.772,260.361 														"/>
													</g>
													<g>
														<polygon style="fill:#545454;" points="88.399,251.307 98.209,274.236 112.937,272.148 113.772,260.361 
																													"/>
													</g>
													<g>
														
															<path style="fill:none;stroke:#000000;stroke-width:2.0001;stroke-linecap:round;stroke-linejoin:round;stroke-miterlimit:22.9256;" d="
															M71.678,289.33l25.55-5.304c6.54-1.358,16.791,0.167,23.78,0.431l0.264,7.592l-22.365,0.133l-22.541,7.93
															L71.678,289.33z"/>
													</g>
													<g>
														<path style="fill:#545454;" d="M71.678,289.33l25.55-5.304c6.54-1.358,16.791,0.167,23.78,0.431l0.264,7.592
															l-22.365,0.133l-22.541,7.93L71.678,289.33z"/>
													</g>
													<g>
														
															<polygon style="fill:none;stroke:#000000;stroke-width:2.0001;stroke-linecap:round;stroke-linejoin:round;stroke-miterlimit:22.9256;" points="
															98.209,274.236 98.907,292.181 102.231,292.161 112.937,272.148 														"/>
													</g>
													<g>
														<polygon style="fill:#545454;" points="98.209,274.236 98.907,292.181 102.231,292.161 112.937,272.148 
																													"/>
													</g>
													<g>
														<path style="fill:#A6A696;" d="M54.757,211.982c1.5-0.75,10.031-8.531,10.031-8.531l-5.861,0.027l-12.186,6.816
															l6.829,7.456l4.844,0.795C58.413,218.545,53.257,212.732,54.757,211.982"/>
													</g>
													<g>
														
															<polygon style="fill:none;stroke:#000000;stroke-width:2.0001;stroke-linecap:round;stroke-linejoin:round;stroke-miterlimit:22.9256;" points="
															58.928,161.919 44.866,172.794 42.241,203.544 46.741,210.294 68.866,197.919 70.178,174.294 														"/>
													</g>
													<g>
														<polygon style="fill:#70706E;" points="58.928,161.919 44.866,172.794 42.241,203.544 46.741,210.294 68.866,197.919 
															70.178,174.294 														"/>
													</g>
													<g>
														<path style="fill:#A6A696;" d="M58.459,180.201c3.611-1.921,9.048-4.597,7.023-11.072l-6.554-7.21l-14.062,10.875
															l-0.494,5.789c1.159,6.003,3.494,18.118,3.494,18.118S54.053,182.544,58.459,180.201"/>
													</g>
													<g>
														<path style="fill:#525252;" d="M65.44,174.272c0,0-0.044,18.397-3.231,21.303c-2.42,2.206-12.079,9.599-16.592,13.033
															l1.124,1.685l22.125-12.375l1.313-23.625l-4.696-5.165C66.129,171.198,66.014,172.88,65.44,174.272"/>
													</g>
													<g>
														
															<polygon style="fill:none;stroke:#000000;stroke-width:2.0001;stroke-linecap:round;stroke-linejoin:round;stroke-miterlimit:22.9256;" points="
															123.399,187.908 139.554,217.049 127.928,229.424 105.241,226.237 108.054,200.549 														"/>
													</g>
													<g>
														<polygon style="fill:#545454;" points="123.399,187.908 139.554,217.049 127.928,229.424 105.241,226.237 
															108.054,200.549 														"/>
													</g>
													<g>
														<polygon style="fill:#70706E;" points="124.743,190.331 139.389,216.753 134.255,214.937 126.38,203.968 
															124.651,190.441 														"/>
													</g>
													<g>
														
															<path style="fill:none;stroke:#000000;stroke-width:2.0001;stroke-linecap:round;stroke-linejoin:round;stroke-miterlimit:22.9256;" d="
															M134.702,168.48l-12.492,16.319c-1.429-0.862,14.437,28.312,14.437,28.312l25.5,9.188l-0.187-13.125L134.702,168.48z"
															/>
													</g>
													<g>
														<path style="fill:#525252;" d="M134.702,168.48l-12.492,16.319c-1.429-0.862,14.437,28.312,14.437,28.312l25.5,9.188
															l-0.187-13.125L134.702,168.48z"/>
													</g>
													<g>
														
															<path style="fill:none;stroke:#000000;stroke-width:2.0001;stroke-linecap:round;stroke-linejoin:round;stroke-miterlimit:22.9256;" d="
															M134.702,168.48l27.258,40.694l27.75,2.813l-9-26.438c0,0-37.176-27.607-36.188-26.625
															C145.511,159.905,134.702,168.48,134.702,168.48z"/>
													</g>
													<g>
														<path style="fill:#525252;" d="M134.702,168.48l27.258,40.694l27.75,2.813l-9-26.438c0,0-37.176-27.607-36.188-26.625
															C145.511,159.905,134.702,168.48,134.702,168.48"/>
													</g>
													<g>
														
															<polygon style="fill:none;stroke:#000000;stroke-width:2.0001;stroke-linecap:round;stroke-linejoin:round;stroke-miterlimit:22.9256;" points="
															144.522,158.924 180.71,185.549 208.835,191.361 208.46,175.236 156.498,149.471 														"/>
													</g>
													<g>
														<polygon style="fill:#525252;" points="144.522,158.924 180.71,185.549 208.835,191.361 208.46,175.236 
															156.498,149.471 														"/>
													</g>
													<g>
														
															<polygon style="fill:none;stroke:#000000;stroke-width:2.0001;stroke-linecap:round;stroke-linejoin:round;stroke-miterlimit:22.9256;" points="
															156.498,149.471 168.918,140.939 222.71,145.611 235.46,163.048 207.897,171.299 														"/>
													</g>
													<g>
														<polygon style="fill:#525252;" points="156.498,149.471 168.918,140.939 222.71,145.611 235.46,163.048 
															207.897,171.299 														"/>
													</g>
													<g>
														<path style="fill:#70706E;" d="M153.897,213.86l-16.5-11.25c0,0-6.563-11.25-6.563-13.5s5.063-11.25,5.063-11.25
															l20.063,28.688L153.897,213.86z"/>
													</g>
													<g>
														<polygon style="fill:#70706E;" points="143.21,172.61 164.96,203.548 183.522,206.36 176.585,186.485 
															151.835,168.298 144.034,173.782 														"/>
													</g>
													<g>
														<path style="fill:#70706E;" d="M155.21,163.61l7.875-8.813c0,0,41.437,20.438,41.25,20.438s-0.375,8.813-0.375,8.813
															l-21-4.313l-11.25-8.625c0,0-0.375-6.375-1.5-5.25s-3.563,4.125-3.563,4.125L155.21,163.61z"/>
													</g>
													<g>
														<path style="fill:#70706E;" d="M168.335,149.173l5.437-3.563l18-0.656c0,0,9.563,3.656,10.031,3.75
															c0.469,0.094,13.818-3.708,13.818-3.708l12.619,9.896l-1.5,6.469l-11.25,4.594c0,0-4.312-5.438-4.594-4.5
															c-0.281,0.938-2.25,5.438-2.25,5.438l-26.438-11.813c0,0,2.531-5.719,1.406-5.156
															c-1.125,0.563-11.344,2.625-11.344,2.625L168.335,149.173z"/>
													</g>
													<g>
														
															<polygon style="fill:none;stroke:#000000;stroke-width:2.0001;stroke-linecap:round;stroke-linejoin:round;stroke-miterlimit:22.9256;" points="
															168.007,128.543 198.382,113.169 238.695,112.419 217.507,140.545 168.918,140.939 														"/>
													</g>
													<g>
														<polygon style="fill:#70706E;" points="168.007,128.543 198.382,113.169 238.695,112.419 217.507,140.545 
															168.918,140.939 														"/>
													</g>
													<g>
														<path style="fill:#525252;" d="M235.349,112.482l3.346-0.062l-21.188,28.125l-48.589,0.395l-0.388-5.283
															c2.769-1.101,5.665-2.329,5.665-2.329l4.781,4.875c0,0,9-9.75,8.531-8.813c-0.469,0.938-4.5,8.907-4.5,8.907
															s20.157-0.937,20.25-1.406c0.094-0.469,3.844-4.031,3.844-4.5s-1.5-5.438-0.657-4.688
															c0.844,0.75,3.844,3.094,3.844,3.094l11.25-10.594l4.406-4.782L235.349,112.482z"/>
													</g>
													<g>
														<polygon style="fill:#A6A696;" points="168.007,128.543 198.382,113.169 229.599,112.589 205.695,115.607 
															206.07,119.732 199.132,117.294 168.462,134.741 														"/>
													</g>
													<g>
														
															<polygon style="fill:none;stroke:#000000;stroke-width:2.0001;stroke-linecap:round;stroke-linejoin:round;stroke-miterlimit:22.9256;" points="
															139.554,217.049 164.116,253.239 151.085,254.083 127.928,229.424 														"/>
													</g>
													<g>
														<polygon style="fill:#545454;" points="139.554,217.049 164.116,253.239 151.085,254.083 127.928,229.424 
																													"/>
													</g>
													<g>
														
															<polygon style="fill:none;stroke:#000000;stroke-width:2.0001;stroke-linecap:round;stroke-linejoin:round;stroke-miterlimit:22.9256;" points="
															105.241,226.237 127.928,229.424 151.085,254.083 140.022,254.458 116.022,242.177 														"/>
													</g>
													<g>
														<polygon style="fill:#545454;" points="105.241,226.237 127.928,229.424 151.085,254.083 140.022,254.458 
															116.022,242.177 														"/>
													</g>
													<g>
														
															<polygon style="fill:none;stroke:#000000;stroke-width:2.0001;stroke-linecap:round;stroke-linejoin:round;stroke-miterlimit:22.9256;" points="
															81.428,248.169 108.522,260.365 116.022,242.177 97.741,237.481 														"/>
													</g>
													<g>
														<polygon style="fill:#545454;" points="81.428,248.169 108.522,260.365 116.022,242.177 97.741,237.481 
																													"/>
													</g>
													<g>
														<path style="fill:#70706E;" d="M140.284,218.125l-3.825,5.346l15.844,21.234c0,0,2.531-1.688,2.531-1.125
															s-0.844,3.094-0.844,3.094s5.628,2.579,8.122,3.612L140.284,218.125z"/>
													</g>
													<g>
														
															<polygon style="fill:none;stroke:#000000;stroke-width:2.0001;stroke-linecap:round;stroke-linejoin:round;stroke-miterlimit:22.9256;" points="
															133.34,251.039 140.022,254.458 151.085,254.083 161.021,278.55 133.084,271.237 														"/>
													</g>
													<g>
														<polygon style="fill:#545454;" points="133.34,251.039 140.022,254.458 151.085,254.083 161.021,278.55 
															133.084,271.237 														"/>
													</g>
													<g>
														
															<path style="fill:none;stroke:#000000;stroke-width:2.0001;stroke-linecap:round;stroke-linejoin:round;stroke-miterlimit:22.9256;" d="
															M206.69,280.643c0,0,45.457,23.781,45.457,23.406s-0.563,17.25-0.563,17.25l-37.929-19.168L206.69,280.643z"/>
													</g>
													<g>
														<path style="fill:#545454;" d="M206.69,280.643c0,0,45.457,23.781,45.457,23.406s-0.563,17.25-0.563,17.25
															l-37.929-19.168L206.69,280.643z"/>
													</g>
													<g>
														
															<polygon style="fill:none;stroke:#000000;stroke-width:2.0001;stroke-linecap:round;stroke-linejoin:round;stroke-miterlimit:22.9256;" points="
															151.085,254.083 164.116,253.239 205.646,277.424 214.459,304.612 161.021,278.55 														"/>
													</g>
													<g>
														<polygon style="fill:#545454;" points="151.085,254.083 164.116,253.239 205.646,277.424 214.459,304.612 
															161.021,278.55 														"/>
													</g>
													<g>
														
															<path style="fill:none;stroke:#000000;stroke-width:2.0001;stroke-linecap:round;stroke-linejoin:round;stroke-miterlimit:22.9256;" d="
															M116.022,242.177l-4.782,2.625l-5.139,14.473l13.671,25.746l10.688-4.875l3.281,1.406c0,0,3.938-5.437,3.469-6.187
															c-0.469-0.75-3.869-24.326-3.869-24.326L116.022,242.177z"/>
													</g>
													<g>
														<path style="fill:#70706E;" d="M116.022,242.177l-4.782,2.625l-5.139,14.473l13.671,25.746l10.688-4.875l3.281,1.406
															c0,0,3.938-5.437,3.469-6.187c-0.469-0.75-3.869-24.326-3.869-24.326L116.022,242.177z"/>
													</g>
													<g>
														<path style="fill:#525252;" d="M123.241,251.74l3.573,17.658l-7.851,5.609l-8.681-7.859l9.49,17.874l10.688-4.875
															l3.281,1.406c0,0,3.938-5.437,3.469-6.187c-0.469-0.75-3.869-24.326-3.869-24.326l-17.318-8.862l-4.782,2.625
															l3.77,0.414l2.23,5.297L123.241,251.74z"/>
													</g>
													<g>
														<path style="fill:#70706E;" d="M209.974,282.36l7.391,12.033l5.813,2.344l-4.969,3l27.376,13.313
															c0,0,3.487-1.542,6.358-2.924c0.111-3.405,0.204-6.228,0.204-6.076C252.147,304.363,220.413,287.813,209.974,282.36"
															/>
													</g>
													<g>
														<polygon style="fill:#70706E;" points="170.865,265.799 168.615,271.518 203.865,289.611 202.552,283.799 
															206.396,288.112 206.112,278.859 205.646,277.424 164.116,253.239 151.085,254.083 162.146,258.767 159.24,261.768 
															161.865,267.58 														"/>
													</g>
													<g>
														
															<path style="fill:none;stroke:#000000;stroke-width:2.0001;stroke-linecap:round;stroke-linejoin:round;stroke-miterlimit:22.9256;" d="
															M71.678,289.33c0,0-9.375,1.217-10.313,1.779c-0.938,0.562-4.594,6.563-4.594,6.563s15.469-0.844,15-1.125
															C71.303,296.266,71.678,289.33,71.678,289.33z"/>
													</g>
													<g>
														<path style="fill:#545454;" d="M71.678,289.33c0,0-9.375,1.217-10.313,1.779c-0.938,0.562-4.594,6.563-4.594,6.563
															s15.469-0.844,15-1.125C71.303,296.266,71.678,289.33,71.678,289.33"/>
													</g>
													<g>
														
															<polygon style="fill:none;stroke:#000000;stroke-width:2.0001;stroke-linecap:round;stroke-linejoin:round;stroke-miterlimit:22.9256;" points="
															71.678,289.33 62.49,300.203 67.553,306.859 76.366,300.111 														"/>
													</g>
													<g>
														<polygon style="fill:#545454;" points="71.678,289.33 62.49,300.203 67.553,306.859 76.366,300.111 														"/>
													</g>
													<g>
														<path style="fill:#70706E;" d="M72.677,289.122c0.27-0.056,3.968,3.204,3.968,3.204l12.375-1.406l8.207-6.895
															L72.677,289.122z"/>
													</g>
													<g>
														<path style="fill:#70706E;" d="M62.49,300.203c0,0,2.249,1.686,2.765,1.639c0.516-0.047,6.14-2.578,5.953-3.563
															c-0.187-0.984,0.469-9.516,0.469-9.516L62.49,300.203z"/>
													</g>
													<g>
														
															<polygon style="fill:none;stroke:#000000;stroke-width:2.0001;stroke-linecap:round;stroke-linejoin:round;stroke-miterlimit:22.9256;" points="
															97.317,219.156 105.241,226.237 107.363,206.853 96.703,205.356 														"/>
													</g>
													<g>
														<polygon style="fill:#545454;" points="97.317,219.156 105.241,226.237 107.363,206.853 96.703,205.356 
																													"/>
													</g>
													<g>
														
															<path style="fill:none;stroke:#000000;stroke-width:2.0001;stroke-linecap:round;stroke-linejoin:round;stroke-miterlimit:22.9256;" d="
															M83.04,222.204c-7.809-5.952-13.989-23.802-13.989-23.802l27.653,6.954l0.614,13.8l-11.625,3.094l-0.094-4.687
															L83.04,222.204z"/>
													</g>
													<g>
														<path style="fill:#70706E;" d="M83.04,222.204c-7.809-5.952-13.989-23.802-13.989-23.802l27.653,6.954l0.614,13.8
															l-11.625,3.094l-0.094-4.687L83.04,222.204z"/>
													</g>
													<g>
														<path style="fill:#525252;" d="M88.974,205.469c0.844,0.656,3.656,2.813,2.625,7.219
															c-0.734,3.137-7.502,5.371-11.341,6.398c-0.109,0.029-0.216,0.057-0.32,0.085c0.996,1.184,2.033,2.22,3.102,3.035
															l2.559-4.641l0.094,4.687l11.625-3.094l-0.614-13.8l-1.643-0.413l-0.126-0.032l-2.994-0.753l-3.795-0.954l-1.09-0.274
															l-0.004,0.007l-7.325-1.845l-10.677-2.69C69.051,198.402,88.13,204.812,88.974,205.469"/>
													</g>
													<g>
														
															<polygon style="fill:none;stroke:#000000;stroke-width:2.0001;stroke-linecap:round;stroke-linejoin:round;stroke-miterlimit:22.9256;" points="
															88.178,174.481 70.178,174.294 69.051,198.402 87.053,202.938 90.147,197.032 87.99,203.688 94.834,205.094 
															105.053,186.625 														"/>
													</g>
													<g>
														<polygon style="fill:#70706E;" points="88.178,174.481 70.178,174.294 69.051,198.402 87.053,202.938 90.147,197.032 
															87.99,203.688 94.834,205.094 105.053,186.625 														"/>
													</g>
													<g>
														<path style="fill:#A6A696;" d="M77.069,180.86c0,0-4.593-5.531-3.656-4.5c0.937,1.031,3.562,2.062,4.687,2.156
															c1.125,0.094,5.156,0.563,5.156,0.563s2.011-2.947,3.419-4.613l-16.498-0.172l-1.128,24.109l10.677,2.69
															c-1.057-2.849-3.336-9.02-3.408-9.451C76.226,191.079,77.069,180.86,77.069,180.86"/>
													</g>
													<g>
														<polygon style="fill:#525252;" points="98.069,188.36 91.319,194.266 91.963,204.504 94.834,205.094 105.053,186.625 
															92.776,177.79 														"/>
													</g>
													<g>
														
															<path style="fill:none;stroke:#000000;stroke-width:2.0001;stroke-linecap:round;stroke-linejoin:round;stroke-miterlimit:22.9256;" d="
															M118.507,208.418l-23.673-3.324l10.219-18.469c0,0,20.392-27.895,29.204-35.395s33.75-22.688,33.75-22.688
															l6.563,9.188c0,0-15.188,7.875-24.188,17.25S116.819,186.105,118.507,208.418z"/>
													</g>
													<g>
														<path style="fill:#70706E;" d="M118.507,208.418l-23.673-3.324l10.219-18.469c0,0,20.392-27.895,29.204-35.395
															s33.75-22.688,33.75-22.688l6.563,9.188c0,0-15.188,7.875-24.188,17.25S116.819,186.105,118.507,208.418"/>
													</g>
													<g>
														<path style="fill:#525252;" d="M118.507,208.418l-23.505-3.3l0.279-0.831c0,0,14.413-2.431,15.538-3.556
															s10.875-19.5,18.188-29.438c7.313-9.938,31.1-34.16,44.613-34.893l0.95,1.33c0,0-15.188,7.875-24.188,17.25
															S116.819,186.105,118.507,208.418"/>
													</g>
													<g>
														<path style="fill:#A6A696;" d="M96.251,202.533l8.802-15.908c0,0,20.392-27.895,29.204-35.395
															s33.75-22.688,33.75-22.688l1.96,2.744c-0.265,0.287-0.488,0.619-0.648,1.006c-1.312,3.188-13.5,6.375-21.75,10.875
															s-16.688,16.125-16.688,16.125l-3.75,5.438c0,0-2.063,7.313-7.313,8.625s-10.312,11.625-12.938,18.188
															C104.257,198.106,96.251,202.533,96.251,202.533L96.251,202.533z"/>
													</g>
													<g>
														
															<polygon style="fill:none;stroke:#000000;stroke-width:2.0001;stroke-linecap:round;stroke-linejoin:round;stroke-miterlimit:22.9256;" points="
															97.317,219.156 105.241,226.237 115.392,242.015 97.741,237.481 101.255,233.031 96.666,236.401 84.018,223.262 
																													"/>
													</g>
													<g>
														<polygon style="fill:#545454;" points="97.317,219.156 105.241,226.237 115.392,242.015 97.741,237.481 
															101.255,233.031 96.666,236.401 84.018,223.262 														"/>
													</g>
													<g>
														<path style="fill:#FFFFFF;" d="M55.223,170.033c-2.25,1.125-7.5,4.5-7.5,4.5s2.625,6,3.094,5.344
															C51.286,179.22,55.223,170.033,55.223,170.033"/>
													</g>
													<g>
														<path style="fill:#FFFFFF;" d="M62.63,152.689l-1.031,7.688c0,0,2.625,2.25,2.438,0.844
															C63.849,159.814,62.63,152.689,62.63,152.689"/>
													</g>
													<g>
														
															<polygon style="fill:none;stroke:#000000;stroke-width:2.0001;stroke-linecap:round;stroke-linejoin:round;stroke-miterlimit:22.9256;" points="
															104.821,319.098 110.071,324.254 118.527,315.932 122.258,314.364 113.258,323.973 122.352,328.754 134.071,310.567 
															127.508,305.035 														"/>
													</g>
													<g>
														<polygon style="fill:#70706E;" points="104.821,319.098 110.071,324.254 118.527,315.932 122.258,314.364 
															113.258,323.973 122.352,328.754 134.071,310.567 127.508,305.035 														"/>
													</g>
													<g>
														
															<path style="fill:none;stroke:#000000;stroke-width:2.0001;stroke-linecap:round;stroke-linejoin:round;stroke-miterlimit:22.9256;" d="
															M137.54,299.316c-0.744-0.027,11.062-9.563,11.062-9.563l3.656,2.906l1.5,6.75l-17.25,7.875L137.54,299.316z"/>
													</g>
													<g>
														<path style="fill:#545454;" d="M137.54,299.316c-0.744-0.027,11.062-9.563,11.062-9.563l3.656,2.906l1.5,6.75
															l-17.25,7.875L137.54,299.316z"/>
													</g>
													<g>
														
															<path style="fill:none;stroke:#000000;stroke-width:2.0001;stroke-linecap:round;stroke-linejoin:round;stroke-miterlimit:22.9256;" d="
															M152.258,292.66l4.969-1.688c0,0,5.813,6.375,4.969,6.188c-0.844-0.187-8.438,2.25-8.438,2.25L152.258,292.66z"/>
													</g>
													<g>
														<path style="fill:#545454;" d="M152.258,292.66l4.969-1.688c0,0,5.813,6.375,4.969,6.188
															c-0.844-0.187-8.438,2.25-8.438,2.25L152.258,292.66z"/>
													</g>
													<g>
														
															<polygon style="fill:none;stroke:#000000;stroke-width:2.0001;stroke-linecap:round;stroke-linejoin:round;stroke-miterlimit:22.9256;" points="
															104.821,319.098 100.93,322.332 100.93,331.52 109.133,324.395 108.763,323.452 														"/>
													</g>
													<g>
														<polygon style="fill:#70706E;" points="104.821,319.098 100.93,322.332 100.93,331.52 109.133,324.395 
															108.763,323.452 														"/>
													</g>
													<g>
														
															<polygon style="fill:none;stroke:#000000;stroke-width:2.0001;stroke-linecap:round;stroke-linejoin:round;stroke-miterlimit:22.9256;" points="
															113.258,323.973 109.555,329.551 113.399,334.848 121.22,328.158 														"/>
													</g>
													<g>
														<polygon style="fill:#70706E;" points="113.258,323.973 109.555,329.551 113.399,334.848 121.22,328.158 
																													"/>
													</g>
													<g>
														<path style="fill:#A6A696;" d="M118.884,311.642l-12.328,6.563c0,0,3.094,2.109,3.469,1.969
															c0.375-0.141,5.11-3.516,7.219-4.688s2.766-2.484,2.766-2.484L118.884,311.642z"/>
													</g>
													<g>
														<path style="fill:#A6A696;" d="M122.961,316.471c-0.938,0.562-7.313,5.766-6.75,6.328
															c0.562,0.562,4.594,2.391,5.016,1.875s6.422-7.359,6.516-7.734s-0.609-5.109-0.609-5.109L122.961,316.471z"/>
													</g>
													<g>
														
															<polygon style="fill:none;stroke:#000000;stroke-width:2.0001;stroke-linecap:round;stroke-linejoin:round;stroke-miterlimit:22.9256;" points="
															121.008,284.457 127.508,305.035 134.071,310.567 136.508,307.285 137.258,286.379 130.459,280.146 														"/>
													</g>
													<g>
														<polygon style="fill:#70706E;" points="121.008,284.457 127.508,305.035 134.071,310.567 136.508,307.285 
															137.258,286.379 130.459,280.146 														"/>
													</g>
													<g>
														<polygon style="fill:#525252;" points="136.04,293.593 131.822,303.437 126.913,303.152 127.508,305.035 
															134.071,310.567 136.508,307.285 137.258,286.379 130.459,280.146 121.008,284.457 132.009,283.562 														"/>
													</g>
												</g>
											</g>
										</g>
									</g>
								</g>
							</g>
						</g>
					</g>
				</g>
			</g>
		</g>
	</g>
</g>
</svg>
