<?xml version="1.0" encoding="iso-8859-1"?>
<!-- Generator: Adobe Illustrator 22.0.1, SVG Export Plug-In . SVG Version: 6.00 Build 0)  -->
<svg version="1.1" id="&#x421;&#x43B;&#x43E;&#x439;_1"
	 xmlns="http://www.w3.org/2000/svg" xmlns:xlink="http://www.w3.org/1999/xlink" x="0px" y="0px" viewBox="0 0 340 366"
	 style="enable-background:new 0 0 340 366;" xml:space="preserve">
<path style="fill:none;stroke:#000000;stroke-width:2.0001;stroke-linecap:round;stroke-linejoin:round;stroke-miterlimit:22.9256;" d="
	M79.297,141.923c-10.94,0.555-18.735-2.226-24.097-7.325c-1.822-1.729-3.368-3.731-4.659-5.964
	c-3.612-6.259-5.228-14.303-5.462-23.257c-1.342-1.89-2.424-4.052-2.892-6.441c-1.781-9.094,4.031-18.75,9.281-25.969
	c5.25-7.219,15.563-24.657,4.126-46.97c18.55,11.462,8.066,45.042,7.092,47.91c1.147-2.606,16.297-24.532,3.596-47.91
	c16.125,14.625,9.791,43.217,9.791,43.217s11.584-18.936-0.603-37.217c20.694,10.622,15.071,36.561,14.798,37.764
	c0.461-1.732,10.075-13.325,2.64-27.452c7.977,9.173,8.503,28.92,7.752,36.389c6.101-4.974,10.572-16.936,2.185-28.701
	c15.426,12.19,10.536,34.111,10.523,34.143l6.727-9.768C119.369,84.86,123.191,139.636,79.297,141.923z"/>
<path style="fill-rule:evenodd;clip-rule:evenodd;fill:#80943B;" d="M79.297,141.923c-10.94,0.555-18.735-2.226-24.097-7.325
	c-1.822-1.729-3.368-3.731-4.659-5.964c-3.612-6.259-5.228-14.303-5.462-23.257c-1.342-1.89-2.424-4.052-2.892-6.441
	c-1.781-9.094,4.031-18.75,9.281-25.969c5.25-7.219,15.563-24.657,4.126-46.97c18.55,11.462,8.066,45.042,7.092,47.91
	c1.147-2.606,16.297-24.532,3.596-47.91c16.125,14.625,9.791,43.217,9.791,43.217s11.584-18.936-0.603-37.217
	c20.694,10.622,15.071,36.561,14.798,37.764c0.461-1.732,10.075-13.325,2.64-27.452c7.977,9.173,8.503,28.92,7.752,36.389
	c6.101-4.974,10.572-16.936,2.185-28.701c15.426,12.19,10.536,34.111,10.523,34.143l6.727-9.768
	C119.369,84.86,123.191,139.636,79.297,141.923"/>
<path style="fill-rule:evenodd;clip-rule:evenodd;fill:#576B14;" d="M84.145,72.617c-1.313,3.75,6.123-2.856,6.123-2.856
	c0.233-1.026,4.357-20.044-7.271-32.208C88.604,48.974,85.207,69.582,84.145,72.617"/>
<path style="fill-rule:evenodd;clip-rule:evenodd;fill:#576B14;" d="M92.907,42.31c5.387,9.443,5.675,26.182,3.05,34.057
	c-2.625,7.875,4.702,2.332,4.702,2.332C101.41,71.23,100.884,51.483,92.907,42.31"/>
<path style="fill-rule:evenodd;clip-rule:evenodd;fill:#576B14;" d="M102.845,49.998c10.45,12.068,6.8,26.369,5.488,32.37
	c-1.312,6,5.036,1.774,5.036,1.774C113.38,84.108,118.271,62.188,102.845,49.998"/>
<path style="fill-rule:evenodd;clip-rule:evenodd;fill:#576B14;" d="M120.095,74.373c-5.3,45.443-27.7,59.932-44.2,61.807
	c-16.5,1.875-28.465-14.823-28.465-14.823c0.806,2.623,1.834,5.062,3.112,7.277c1.291,2.233,2.837,4.235,4.659,5.964
	c2.85,2.71,6.387,4.765,10.718,6.013c3.818,1.1,8.253,1.572,13.379,1.312c0.123-0.007,0.246-0.013,0.368-0.02
	c7.313-0.433,13.288-2.335,18.174-5.247c0.007-0.003,0.013-0.005,0.02-0.008C122.019,122.231,119.493,83.07,120.095,74.373"/>
<path style="fill:none;stroke:#000000;stroke-width:2.0001;stroke-linecap:round;stroke-linejoin:round;stroke-miterlimit:22.9256;" d="
	M31.176,113.586c0,0,9.718,10.843,18.499,13.437c6.031-4.375,4.981-13.181,4.981-13.181
	C48.23,119.442,31.176,113.586,31.176,113.586z"/>
<path style="fill-rule:evenodd;clip-rule:evenodd;fill:#871A14;" d="M31.176,113.586c0,0,9.718,10.843,18.499,13.437
	c6.031-4.375,4.981-13.181,4.981-13.181C48.23,119.442,31.176,113.586,31.176,113.586"/>
<path style="fill:none;stroke:#000000;stroke-width:2.0001;stroke-linecap:round;stroke-linejoin:round;stroke-miterlimit:22.9256;" d="
	M42.188,98.936c1.781,9.094,12.469,14.906,12.469,14.906c-6.426,5.6-23.48-0.256-23.48-0.256L42.188,98.936z"/>
<path style="fill-rule:evenodd;clip-rule:evenodd;fill:#FF0000;" d="M42.188,98.936c1.781,9.094,12.469,14.906,12.469,14.906
	c-6.426,5.6-23.48-0.256-23.48-0.256L42.188,98.936z"/>
<path style="fill-rule:evenodd;clip-rule:evenodd;fill:#871A14;" d="M54.656,113.842c0,0-3.966-2.157-7.468-5.898
	c-0.289,1.436-0.895,2.568-1.721,3.453c-2.878,3.084-8.439,3.178-12.683,2.69c2.676,0.784,8.258,2.208,13.396,2.178
	C49.487,116.247,52.611,115.625,54.656,113.842"/>
<path style="fill:none;stroke:#000000;stroke-width:2.0001;stroke-linecap:round;stroke-linejoin:round;stroke-miterlimit:22.9256;" d="
	M56.306,112.372l0.379-0.352c0.181-1.057,6.932-29.089,25.775-28.901c18.844,0.188,26.625,20.813,19.969,31.688
	c-6.656,10.875-26.438,11.25-36.188,3.469C56.491,110.494,56.306,112.372,56.306,112.372z"/>
<path style="fill-rule:evenodd;clip-rule:evenodd;fill:#FFFFFF;" d="M56.306,112.372l0.379-0.352
	c0.181-1.057,6.932-29.089,25.775-28.901c18.844,0.188,26.625,20.813,19.969,31.688c-6.656,10.875-26.438,11.25-36.188,3.469
	C56.491,110.494,56.306,112.372,56.306,112.372"/>
<path style="fill-rule:evenodd;clip-rule:evenodd;fill:#FFFFFF;" d="M39.754,105.899c-1.922,1.875-3.375,5.344-1.078,4.688
	C40.972,109.93,44.1,103.863,39.754,105.899"/>
<path style="fill:none;stroke:#000000;stroke-width:2.0001;stroke-linecap:round;stroke-linejoin:round;stroke-miterlimit:22.9256;" d="
	M54.656,113.842c0,0,10.645-8.975,14.77-17.974c4.125-8.999,10.5-14.813,22.875-11.438c12.375,3.375,15.094,25.5,4.219,32.063
	C85.645,123.056,78.895,118.931,54.656,113.842z"/>
<path style="fill-rule:evenodd;clip-rule:evenodd;fill:#FF0000;" d="M54.656,113.842c0,0,10.645-8.975,14.77-17.974
	c4.125-8.999,10.5-14.813,22.875-11.438c12.375,3.375,15.094,25.5,4.219,32.063C85.645,123.056,78.895,118.931,54.656,113.842"/>
<path style="fill-rule:evenodd;clip-rule:evenodd;fill:#ABC25C;" d="M61.647,62.027c0,0-8.156,15.75-11.25,18.469
	c-3.094,2.719-7.406,12.469-3.75,12.469C50.303,92.964,61.272,70.558,61.647,62.027"/>
<path style="fill-rule:evenodd;clip-rule:evenodd;fill:#576B14;" d="M71.585,70.183c0.562,1.875,4.488-0.968,4.488-0.968
	s5.265-23.768-6.027-39.048c0.001,0.002,0.003,0.004,0.004,0.006C79.268,42.934,71.023,68.308,71.585,70.183"/>
<path style="fill:none;stroke:#000000;stroke-width:2.0001;stroke-linecap:round;stroke-linejoin:round;stroke-miterlimit:22.9256;" d="
	M146.228,173.108c-8.422,1.805-27.685,2.296-37.594,3.526c-9.909,1.23-12.468-1.682-13.248,4.303
	c-0.78,5.985,3.957,10.525,3.957,10.525l0.255-3.83c0,0,4.512,8.557,8.498,11.671c3.985,3.114,8.915,6.681,8.915,6.681
	l-1.958-10.013l7.741,5.877l-1.24-5.544c0,0,2.808,3.166,6.677,4.68c3.869,1.514,7.182,5.737,7.182,5.737s2.035-8.021,3.192-9.494
	c1.157-1.473,1.113-7.166,1.113-7.166s2.429,2.643,2.914,4.577c0.485,1.934,0.639,3.435,0.639,3.435l1.975-4.518l2.86,3.159
	l-2.28-18.521c2.554,12.621,2.226,15.28,15.175,29.362l-2.326-9.588l4.368,2.782c1.796-8.504,0.137-8.52-4.862-15.066
	c5.701,4.685,9.301,11.781,13.605,17.97c1.34-8.547-1.334-10.436-2.818-17.785c-6.68-7.087-10.233-11.632-15.024-21.122
	c0,0,15.93,23.76,25.712,28.244c9.782,4.484,12.648,6.598,12.648,6.598l-4.914-8.887c0,0,4.552,4.469,4.503,3.62
	c-0.049-0.849-1.945-8.305-1.514-7.789c0.432,0.516,5.342,3.421,5.342,3.421s0.49-6.709-3.083-9.969
	c-3.574-3.26-5.438-7.433-5.438-7.433c-16.427-6.102-23.483-9.55-36.182-23.3c15.821,14.052,38.23,28.65,58.445,18.863
	c-3.906-2.618-10.821-5.526-14.727-8.144c11.514,2.512,18.811-1.297,29.97-5.428c-6.257-4.467-10.93-10.239-23.973-11.46
	c-13.248-3.38-25.092-9.653-36.245-17.345c13.611,8.385,27.485,14.564,40.167,15.719c-1.941-1.595-4.529-3.965-6.47-5.56
	c6.052,0.549,21.999,4.19,26.053,2.18l-2.886-2.776c9.814,2.912,17.607-1.364,27.883,1.098c-4.652-8.248-6.069-7.714-13.921-10.998
	c0,0,2.861-1.447,2.983-1.225c0.123,0.222-5.811-0.371-12.019-1.595c-6.208-1.224-16.551-8.108-16.551-8.108l3.415-2.608
	l-3.001,0.847l6.395-7.916c0,0-16.106,7.127-27.549,5.318c-11.443-1.809-22.826-3.245-22.826-3.245s11.809-2.415,22.511-11.721
	c10.702-9.305,15.036-20.799,15.036-20.799c-4.007,2.176-6.659,1.637-10.265,0.882c3.542-1.557,5.433-4.858,6.154-8.599
	c-1.134,0.805-2.315,1.047-3.229,0.78c3.08-3.258,5.319-8.033,7.079-11.514c-2.069,1.239-4.219,1.567-6.432,1.178
	c2.717-6.499,3.181-14.618,1.695-24.142c0,0-12.023,22.764-15.507,29.275c-3.484,6.51-16.338,17.602-16.338,17.602
	c0.372-3.465,0.745-6.93,1.117-10.395c-19.639,23.833-18.092,17.713-42.018,32.374c-7.773,4.763-4.648,14.442-1.221,22.754
	c3.427,8.312,19.754,37.245,21.608,41.194C148.207,169.683,150.847,172.014,146.228,173.108z"/>
<path style="fill-rule:evenodd;clip-rule:evenodd;fill:#576B14;" d="M146.228,173.108c-8.422,1.805-27.685,2.296-37.594,3.526
	c-9.909,1.23-12.468-1.682-13.248,4.303c-0.78,5.985,3.957,10.525,3.957,10.525l0.255-3.83c0,0,4.512,8.557,8.498,11.671
	c3.985,3.114,8.915,6.681,8.915,6.681l-1.958-10.013l7.741,5.877l-1.24-5.544c0,0,2.808,3.166,6.677,4.68
	c3.869,1.514,7.182,5.737,7.182,5.737s2.035-8.021,3.192-9.494c1.157-1.473,1.113-7.166,1.113-7.166s2.429,2.643,2.914,4.577
	c0.485,1.934,0.639,3.435,0.639,3.435l1.975-4.518l2.86,3.159l-2.28-18.521c2.554,12.621,2.226,15.28,15.175,29.362l-2.326-9.588
	l4.368,2.782c1.796-8.504,0.137-8.52-4.862-15.066c5.701,4.685,9.301,11.781,13.605,17.97c1.34-8.547-1.334-10.436-2.818-17.785
	c-6.68-7.087-10.233-11.632-15.024-21.122c0,0,15.93,23.76,25.712,28.244c9.782,4.484,12.648,6.598,12.648,6.598l-4.914-8.887
	c0,0,4.552,4.469,4.503,3.62c-0.049-0.849-1.945-8.305-1.514-7.789c0.432,0.516,5.342,3.421,5.342,3.421s0.49-6.709-3.083-9.969
	c-3.574-3.26-5.438-7.433-5.438-7.433c-16.427-6.102-23.483-9.55-36.182-23.3c15.821,14.052,38.23,28.65,58.445,18.863
	c-3.906-2.618-10.821-5.526-14.727-8.144c11.514,2.512,18.811-1.297,29.97-5.428c-6.257-4.467-10.93-10.239-23.973-11.46
	c-13.248-3.38-25.092-9.653-36.245-17.345c13.611,8.385,27.485,14.564,40.167,15.719c-1.941-1.595-4.529-3.965-6.47-5.56
	c6.052,0.549,21.999,4.19,26.053,2.18l-2.886-2.776c9.814,2.912,17.607-1.364,27.883,1.098c-4.652-8.248-6.069-7.714-13.921-10.998
	c0,0,2.861-1.447,2.983-1.225c0.123,0.222-5.811-0.371-12.019-1.595c-6.208-1.224-16.551-8.108-16.551-8.108l3.415-2.608
	l-3.001,0.847l6.395-7.916c0,0-16.106,7.127-27.549,5.318c-11.443-1.809-22.826-3.245-22.826-3.245s11.809-2.415,22.511-11.721
	c10.702-9.305,15.036-20.799,15.036-20.799c-4.007,2.176-6.659,1.637-10.265,0.882c3.542-1.557,5.433-4.858,6.154-8.599
	c-1.134,0.805-2.315,1.047-3.229,0.78c3.08-3.258,5.319-8.033,7.079-11.514c-2.069,1.239-4.219,1.567-6.432,1.178
	c2.717-6.499,3.181-14.618,1.695-24.142c0,0-12.023,22.764-15.507,29.275c-3.484,6.51-16.338,17.602-16.338,17.602
	c0.372-3.465,0.745-6.93,1.117-10.395c-19.639,23.833-18.092,17.713-42.018,32.374c-7.773,4.763-4.648,14.442-1.221,22.754
	c3.427,8.312,19.754,37.245,21.608,41.194C148.207,169.683,150.847,172.014,146.228,173.108"/>
<path style="fill:none;stroke:#000000;stroke-width:2.0001;stroke-linecap:round;stroke-linejoin:round;stroke-miterlimit:22.9256;" d="
	M195.421,313.3c0,0,1.86-3.168,2.625-6.703c0.479,1.386,4.165,14.789,8.577,18.422c3.85-0.493,3.984-5.906,3.984-5.906
	c1.995,7.386,2.062,7.886,7.219,12.938l1.594-8.531c0,0,7.219,6,9,7.266c-1.688-3.703-0.281-6.844-0.141-6.516
	c2.782,6.494,12.069,10.4,18.188,13.969c-0.587-4.868-1.159-9.831-4.922-13.828c8.241,8.891,12.736,12.584,25.219,12.844
	l-3.516-6.235c10.408,9.259,17.211,6.939,29.438,2.343c-11.622-11.658-20.966-16.923-36.21-23.014
	c-5.245-2.096-16.578-3.854-22.759-6.189c0,0,21.757,4.131,26.722,3.097c-5.987-4.678-32.341-24.298-50.91-23.722
	c-15.984,0.496-25.688-10.5-25.688-10.5C185.596,293.009,183.727,294.403,195.421,313.3z"/>
<path style="fill-rule:evenodd;clip-rule:evenodd;fill:#80943B;" d="M195.421,313.3c0,0,1.86-3.168,2.625-6.703
	c0.479,1.386,4.165,14.789,8.577,18.422c3.85-0.493,3.984-5.906,3.984-5.906c1.995,7.386,2.062,7.886,7.219,12.938l1.594-8.531
	c0,0,7.219,6,9,7.266c-1.688-3.703-0.281-6.844-0.141-6.516c2.782,6.494,12.069,10.4,18.188,13.969
	c-0.587-4.868-1.159-9.831-4.922-13.828c8.241,8.891,12.736,12.584,25.219,12.844l-3.516-6.235
	c10.408,9.259,17.211,6.939,29.438,2.343c-11.622-11.658-20.966-16.923-36.21-23.014c-5.245-2.096-16.578-3.854-22.759-6.189
	c0,0,21.757,4.131,26.722,3.097c-5.987-4.678-32.341-24.298-50.91-23.722c-15.984,0.496-25.688-10.5-25.688-10.5
	C185.596,293.009,183.727,294.403,195.421,313.3"/>
<path style="fill-rule:evenodd;clip-rule:evenodd;fill:#576B14;" d="M203.387,296.283c0,0,1.781,3.938,4.875,9.375
	c3.094,5.437,5.906,7.125,5.906,7.125l0.187-6.094c0,0,5.25,4.875,10.125,7.594c4.875,2.719,6.094,3.938,6.281,3.469
	c0.187-0.469,0.094-9.188-5.25-14.063c-5.344-4.875-23.949-20.866-23.949-20.866l-17.288-4.327L203.387,296.283z"/>
<path style="fill:none;stroke:#000000;stroke-width:1.4173;stroke-linejoin:round;stroke-miterlimit:22.9256;" d="M85.67,286.008
	c0,0-21.03-3.236-19.951,4.313c0,0,0.889,4.554,4.888,3.589c0,0-1.874,5.759,5.067,3.601c6.94-2.155,18.624-11.682,25.274-8.087
	c6.65,3.596,14.021-0.54,15.638-1.977c1.619-1.439-0.538-4.675-4.673-3.595c-4.133,1.079-12.222,1.617-10.965-2.157
	c0.646-1.938,2.622-8.459,4.393-14.351h-6.664l-3.48,14.785C95.198,282.129,90.523,287.267,85.67,286.008z"/>
<path style="fill:#40290F;" d="M85.67,286.008c0,0-21.03-3.236-19.951,4.313c0,0,0.889,4.554,4.888,3.589
	c0,0-1.874,5.759,5.067,3.601c6.94-2.155,18.624-11.682,25.274-8.087c6.65,3.596,14.021-0.54,15.638-1.977
	c1.619-1.439-0.538-4.675-4.673-3.595c-4.133,1.079-12.222,1.617-10.965-2.157c0.646-1.938,2.622-8.459,4.393-14.351h-6.664
	l-3.48,14.785C95.198,282.129,90.523,287.267,85.67,286.008"/>
<path style="fill-rule:evenodd;clip-rule:evenodd;fill:#5E4521;" d="M67.014,288.005c0.424,0.668,3.2-0.174,6.478-1.336
	C76.771,285.508,67.305,285.586,67.014,288.005"/>
<path style="fill-rule:evenodd;clip-rule:evenodd;fill:#5E4521;" d="M72.211,291.738c0,0,1.736-1.57,4.475-2.171
	c2.738-0.601,3.239-0.701,3.239-0.701S72.678,293.107,72.211,291.738"/>
<path style="fill:none;stroke:#000000;stroke-width:1.4173;stroke-linejoin:round;stroke-miterlimit:22.9256;" d="M122.515,300.809
	c0,0-0.098,2.376-4.354,4.734c-4.825,2.671-19.994,7.918-19.597,13.064c0.201,2.624,1.742,3.5,3.202,3.726
	c1.419,0.221,2.849-0.305,3.84-1.343c1.833-1.92,4.885-6.244,8.794-7.827c0,0-11.342,10.755-4.413,13.526
	c3.681,1.473,5.807-2.02,7.034-5.311c2.386-6.393,6.917-11.508,11.886-16.185c2.807-2.641,6.178-5.383,10.039-7.768
	c9.303-5.74,5.378-11.027,5.378-11.027c-0.851-0.941-3.624-0.194-6.272,3.421c-2.326,3.177-4.867,6.19-7.756,8.869l-1.842,1.708
	c1.467-8.23,1.919-14.553,1.945-20.928h-6.643C123.873,286.687,123.686,293.9,122.515,300.809z"/>
<path style="fill:#5E4521;" d="M122.515,300.809c0,0-0.098,2.376-4.354,4.734c-4.825,2.671-19.994,7.918-19.597,13.064
	c0.201,2.624,1.742,3.5,3.202,3.726c1.419,0.221,2.849-0.305,3.84-1.343c1.833-1.92,4.885-6.244,8.794-7.827
	c0,0-11.342,10.755-4.413,13.526c3.681,1.473,5.807-2.02,7.034-5.311c2.386-6.393,6.917-11.508,11.886-16.185
	c2.807-2.641,6.178-5.383,10.039-7.768c9.303-5.74,5.378-11.027,5.378-11.027c-0.851-0.941-3.624-0.194-6.272,3.421
	c-2.326,3.177-4.867,6.19-7.756,8.869l-1.842,1.708c1.467-8.23,1.919-14.553,1.945-20.928h-6.643
	C123.873,286.687,123.686,293.9,122.515,300.809"/>
<path style="fill-rule:evenodd;clip-rule:evenodd;fill:#40290F;" d="M120.575,308.001c-12.008,5.708-15.909,11.924-17.411,13.226
	c-0.632,0.548-1.467,0.49-2.223,0.24c-1.041-0.345-1.931-1.056-1.931-1.056c0.343,0.714,0.845,1.184,1.408,1.486
	c0.428,0.231,0.892,0.365,1.347,0.435c1.42,0.22,2.849-0.305,3.84-1.343c1.833-1.92,4.885-6.244,8.794-7.827
	C115.479,311.786,118.275,309.682,120.575,308.001"/>
<path style="fill-rule:evenodd;clip-rule:evenodd;fill:#755426;" d="M111.678,317.766c-1.027,0.791-3.49,4.491-1.42,4.658
	c2.07,0.167,0.865-0.933,1.023-2.134C111.44,319.088,112.373,317.572,111.678,317.766"/>
<path style="fill-rule:evenodd;clip-rule:evenodd;fill:#755426;" d="M100.318,315.867c-0.444,0.777-1.194,2.646,1.201,0.691
	c2.395-1.955,8.517-6.068,8.517-6.068S102.912,313.693,100.318,315.867"/>
<path style="fill-rule:evenodd;clip-rule:evenodd;fill:#40290F;" d="M138.051,289.819c-2.326,3.177-4.867,6.19-7.756,8.869
	l-1.842,1.708c1.434-8.042,1.898-14.262,1.943-20.489h-0.986c0.013,0.663,0.023,1.357,0.029,2.083
	c-0.484,1.582-0.526,5.767-0.628,5.984c0,0-1.534,8.026-1.558,11.567c0,0-0.303,3.603-1.998,6.928
	c-1.98,2.012-3.98,4.213-5.734,6.407c-4.655,5.824-3.691,10.56-6.696,11.912c-0.331,0.149-0.709,0.257-1.148,0.32
	c-1.329,0.193-1.952-0.006-2.437-0.399c-1.401-0.605-1.391-2.013-1.391-2.013c-0.272,1.316-0.052,2.504,0.999,3.348
	c0.306,0.245,0.682,0.462,1.137,0.644c0.419,0.168,0.818,0.271,1.197,0.318c2.956,0.363,4.75-2.712,5.837-5.628
	c2.386-6.393,6.917-11.508,11.886-16.185c2.807-2.641,6.178-5.383,10.039-7.768c5.852-3.611,6.47-7.042,6.123-9.091
	c-0.087-0.427-0.188-0.843-0.355-1.214c-0.198-0.464-0.39-0.722-0.39-0.722C143.472,285.457,140.699,286.204,138.051,289.819"/>
<path style="fill:none;stroke:#000000;stroke-width:2.0001;stroke-linecap:round;stroke-linejoin:round;stroke-miterlimit:22.9256;" d="
	M91.634,248.135c1.069,2.117,6.407,13.607,3.291,23.823c0.734,0.173,9.037-5.806,8.409-4.614c-0.628,1.192,0.966,8.411,0.966,8.411
	l9.14-9.817l-1.734-11.276c0,0-12-5.906-12.469-5.906C98.77,248.755,91.634,248.135,91.634,248.135z"/>
<path style="fill-rule:evenodd;clip-rule:evenodd;fill:#293300;" d="M91.634,248.135c1.069,2.117,6.407,13.607,3.291,23.823
	c0.734,0.173,9.037-5.806,8.409-4.614c-0.628,1.192,0.966,8.411,0.966,8.411l9.14-9.817l-1.734-11.276c0,0-12-5.906-12.469-5.906
	C98.77,248.755,91.634,248.135,91.634,248.135"/>
<path style="fill-rule:evenodd;clip-rule:evenodd;" d="M144.003,285.857c-0.098,0.265,2.203-3.984,5.297-2.156
	c3.094,1.828,6.469,7.406,6.469,7.406s-8.385-3.849-10.708-0.87C142.737,293.216,144.003,285.857,144.003,285.857"/>
<path style="fill:none;stroke:#000000;stroke-width:1.4173;stroke-linejoin:round;stroke-miterlimit:22.9256;" d="M137.021,267.145
	c-0.406-0.114-0.816-0.232-1.227-0.351c0.086,2.247,0.19,5.396,0.241,8.518c0.094,5.813,4.688,15.844,4.688,15.844
	s-8.625-4.219-9.094-4.5c-0.469-0.281-2.137,6.986-2.137,6.986s-4.895-8.486-5.176-8.955c-0.281-0.469-4.5,8.062-4.5,8.062
	s-2.438-19.969-6.375-26.813c-3.938-6.844-8.238-10.716-8.238-10.716l0.085-0.107c-27.563-12.963-55.018-32.412-62.489-52.408
	c-0.118-0.234-0.219-0.493-0.299-0.783l-0.052-0.192c-0.892-2.62-1.518-6.56-0.17-9.839l-4.354,3.78
	c-1.701-7.729,4.628-17.921,11.127-20.864L39.8,171.86c1.609-2.908,6.937-5.329,12.516-3.515c-4-4.027-3.12-8.339-1.5-11.484
	c7.959,10.511,10.886-7.526,3.61-8.531c5.215-0.756,7.163,1.005,8.834,1.84l-1.072-10.915c3.011,1.311,6.307,1.982,6.803,2.079
	l0.023,0.004l0.018,0.003l0.013,0.003l0.008,0.001l0.003,0.001c3.058,0.563,6.462,0.769,10.242,0.577
	c7.481-0.39,13.575-2.307,18.543-5.267c1.158-0.488,2.28-1.033,3.353-1.643c1.139,23.457,16.569,39.068,28.215,59.372
	c2.394,4.174,17.692,27.878,28.652,47.356l0,0c0,0,7.508,10.09,26.446,15.903c-2.825,3.81-11.585,3.938-16.578,3.673
	c0.053,0.137,0.101,0.266,0.152,0.4c4.942,0.671,10.434,0.783,13.801,3.287l-10.688,0.328c0,0,10.406,2.719,17.531-0.656
	c7.125-3.375,16.266,5.109,16.266,5.109c-3.828,0.14-6.498,0.807-9.141,2.109c2.391,0.047,7.875-3.187,14.625,0.844
	c6.75,4.031,10.219,10.687,10.219,10.687c-8.151,3.623-18.824,3.331-26.825-0.726c-5.778-2.93-10.22-7.788-17.143-10.055
	c0,0,11.156,5.532,13.031,10.969c1.875,5.437-1.875,12.375-1.875,12.375l-3-5.25l0.375,8.156c0,0-5.625-3.281-6.094-7.5
	c-0.795-7.153,1.435-10.212-4.875-15.375c3.595,4.82,4.978,6.069,1.5,15.656c0,0-3-6.844-7.781-9.656
	c-4.781-2.813-14.25-7.781-14.25-7.781l0.187,2.25C153.943,276.487,140.628,273.119,137.021,267.145z"/>
<path style="fill:#2B3D00;" d="M137.021,267.145c-0.406-0.114-0.816-0.232-1.227-0.351c0.086,2.247,0.19,5.396,0.241,8.518
	c0.094,5.813,4.688,15.844,4.688,15.844s-8.625-4.219-9.094-4.5c-0.469-0.281-2.137,6.986-2.137,6.986s-4.895-8.486-5.176-8.955
	c-0.281-0.469-4.5,8.062-4.5,8.062s-2.438-19.969-6.375-26.813c-3.938-6.844-8.238-10.716-8.238-10.716l0.085-0.107
	c-27.563-12.963-55.018-32.412-62.489-52.408c-0.118-0.234-0.219-0.493-0.299-0.783l-0.052-0.192c-0.892-2.62-1.518-6.56-0.17-9.839
	l-4.354,3.78c-1.701-7.729,4.628-17.921,11.127-20.864L39.8,171.86c1.609-2.908,6.937-5.329,12.516-3.515
	c-4-4.027-3.12-8.339-1.5-11.484c7.959,10.511,10.886-7.526,3.61-8.531c5.215-0.756,7.163,1.005,8.834,1.84l-1.072-10.915
	c3.011,1.311,6.307,1.982,6.803,2.079l0.023,0.004l0.018,0.003l0.013,0.003l0.008,0.001l0.003,0.001
	c3.058,0.563,6.462,0.769,10.242,0.577c7.481-0.39,13.575-2.307,18.543-5.267c1.158-0.488,2.28-1.033,3.353-1.643
	c1.139,23.457,16.569,39.068,28.215,59.372c2.394,4.174,17.692,27.878,28.652,47.356l0,0c0,0,7.508,10.09,26.446,15.903
	c-2.825,3.81-11.585,3.938-16.578,3.673c0.053,0.137,0.101,0.266,0.152,0.4c4.942,0.671,10.434,0.783,13.801,3.287l-10.688,0.328
	c0,0,10.406,2.719,17.531-0.656c7.125-3.375,16.266,5.109,16.266,5.109c-3.828,0.14-6.498,0.807-9.141,2.109
	c2.391,0.047,7.875-3.187,14.625,0.844c6.75,4.031,10.219,10.687,10.219,10.687c-8.151,3.623-18.824,3.331-26.825-0.726
	c-5.778-2.93-10.22-7.788-17.143-10.055c0,0,11.156,5.532,13.031,10.969c1.875,5.437-1.875,12.375-1.875,12.375l-3-5.25l0.375,8.156
	c0,0-5.625-3.281-6.094-7.5c-0.795-7.153,1.435-10.212-4.875-15.375c3.595,4.82,4.978,6.069,1.5,15.656c0,0-3-6.844-7.781-9.656
	c-4.781-2.813-14.25-7.781-14.25-7.781l0.187,2.25C153.943,276.487,140.628,273.119,137.021,267.145"/>
<path style="fill:#293300;" d="M184.881,290.737l0.122,2.645c-0.092,1.549-0.336,3.43-0.568,4.978
	c-1.579-1.093-4.916-3.759-5.273-6.967c-0.648-5.834,0.714-8.944-2.183-12.694l0.003,0.003c0,0,3.677,1.765,5.74,4.578
	C184.784,286.093,184.221,288.811,184.881,290.737 M137.021,267.145c-0.406-0.114-0.816-0.232-1.227-0.351
	c0.086,2.247,0.19,5.396,0.241,8.518c0.094,5.813,4.688,15.844,4.688,15.844s-8.625-4.219-9.094-4.5
	c-0.051-0.03-0.116,0.028-0.191,0.156c-0.459-7.207-1.382-21.142-2.061-27.72c-0.937-9.094-5.062-20.062-5.062-20.062
	s-4.782,2.906-5.438,3c-0.656,0.094,0.844-4.031,1.125-5.25c0.281-1.219-3.938,4.687-3.938,4.687s-1.406-2.344-0.844-5.531
	c0.563-3.188,2.813-3.375,3.281-3.375c0.469,0-6.446-3.77-6.446-3.77s-13.711-18.169-12.375-23.11
	c1.337-4.941,13.851-7.059,13.851-7.059l12-6.188l3.944,2.069c2.563,4.417,17.286,27.258,28.109,46.396
	c-0.525,2.456-0.896,5.682-0.365,7.223c0.937,2.719,10.595,6.965,10.595,6.965s-7.127-0.675-10.497-1.477
	c-3.37-0.802-6.191-5.019-6.191-5.019s0.187,2.719,1.313,6.844c1.125,4.125,5.719,9.375,9.094,10.875
	c3.375,1.5,11.438,3.188,11.438,3.188l-8.625-0.938c0,0,0.844,0.656,4.406,2.625c3.563,1.969,5.535,4.832,5.535,4.832
	c3.595,4.82,4.978,6.069,1.5,15.656c0,0-3-6.844-7.781-9.656c-4.781-2.813-14.25-7.781-14.25-7.781l0.187,2.25
	C153.943,276.487,140.628,273.119,137.021,267.145z"/>
<path style="fill:none;stroke:#000000;stroke-width:2.0001;stroke-linecap:round;stroke-linejoin:round;stroke-miterlimit:22.9256;" d="
	M122.182,218.104l-6.53-12.94c-0.851-0.783-1.715-1.589-2.535-2.368c16.465,0.342,9.911-7.682,7.582-22.272
	c-9.468-14.313-18.637-27.633-19.506-45.51c-1.067,0.607-2.183,1.149-3.334,1.635c-4.579,2.732-10.117,4.576-16.816,5.155
	c-0.454,0.039-0.913,0.073-1.378,0.1c-0.122,0.007-0.245,0.014-0.368,0.02c-3.78,0.192-7.184-0.015-10.245-0.578l-0.008-0.001
	c-0.004-0.001-0.008-0.002-0.013-0.003c-0.006-0.001-0.012-0.002-0.018-0.003c-0.008-0.001-0.015-0.003-0.023-0.004
	c-1.066-0.198-2.09-0.439-3.073-0.723c-1.314-0.379-2.555-0.831-3.726-1.355c-0.002-0.001-0.003-0.001-0.005-0.002l1.072,10.915
	c-1.671-0.836-3.62-2.597-8.834-1.84c7.276,1.005,4.349,19.042-3.61,8.531c-1.619,3.145-2.499,7.457,1.5,11.484
	c-5.579-1.813-10.907,0.608-12.516,3.515l9.251,2.949c-6.498,2.942-12.827,13.135-11.127,20.864l4.354-3.78
	c-1.348,3.279-0.722,7.219,0.17,9.839l0.052,0.192c0.08,0.289,0.181,0.549,0.299,0.783c4.587,12.279,16.71,24.352,31.767,34.844
	c0,0,15.028,6.292,27.023,8.018c-2.587-3.459-4.626-8.058-4.626-8.058s3.383,3.105,7.93,4.838
	c-3.232-5.427-4.649-13.557-4.649-13.557s2.392,3.229,5.641,5.762c-0.864-7.048-7.048-17.668-7.048-17.668
	s8.344,9.562,13.219,11.906c-2.531-7.312-1.875-18.938-1.875-18.938s0.844,2.344,3.469,4.969c2.625,2.625,5.906,5.062,5.906,5.062
	l-2.965-5.403c0.292,0.303,0.65,0.635,1.09,0.997C120.307,217.635,122.182,218.104,122.182,218.104z M116.591,214.481
	c-1.448-1.505-1.253-2.284-1.253-2.284L116.591,214.481z"/>
<path style="fill-rule:evenodd;clip-rule:evenodd;fill:#80943B;" d="M122.182,218.104l-6.53-12.94
	c-0.851-0.783-1.715-1.589-2.535-2.368c16.465,0.342,9.911-7.682,7.582-22.272c-9.468-14.313-18.637-27.633-19.506-45.51
	c-1.067,0.607-2.183,1.149-3.334,1.635c-4.579,2.732-10.117,4.576-16.816,5.155c-0.454,0.039-0.913,0.073-1.378,0.1
	c-0.122,0.007-0.245,0.014-0.368,0.02c-3.78,0.192-7.184-0.015-10.245-0.578l-0.008-0.001c-0.004-0.001-0.008-0.002-0.013-0.003
	c-0.006-0.001-0.012-0.002-0.018-0.003c-0.008-0.001-0.015-0.003-0.023-0.004c-1.066-0.198-2.09-0.439-3.073-0.723
	c-1.314-0.379-2.555-0.831-3.726-1.355c-0.002-0.001-0.003-0.001-0.005-0.002l1.072,10.915c-1.671-0.836-3.62-2.597-8.834-1.84
	c7.276,1.005,4.349,19.042-3.61,8.531c-1.619,3.145-2.499,7.457,1.5,11.484c-5.579-1.813-10.907,0.608-12.516,3.515l9.251,2.949
	c-6.498,2.942-12.827,13.135-11.127,20.864l4.354-3.78c-1.348,3.279-0.722,7.219,0.17,9.839l0.052,0.192
	c0.08,0.289,0.181,0.549,0.299,0.783c4.587,12.279,16.71,24.352,31.767,34.844c0,0,15.028,6.292,27.023,8.018
	c-2.587-3.459-4.626-8.058-4.626-8.058s3.383,3.105,7.93,4.838c-3.232-5.427-4.649-13.557-4.649-13.557s2.392,3.229,5.641,5.762
	c-0.864-7.048-7.048-17.668-7.048-17.668s8.344,9.562,13.219,11.906c-2.531-7.312-1.875-18.938-1.875-18.938
	s0.844,2.344,3.469,4.969c2.625,2.625,5.906,5.062,5.906,5.062l-2.965-5.403c0.292,0.303,0.65,0.635,1.09,0.997
	C120.307,217.635,122.182,218.104,122.182,218.104 M116.591,214.481c-1.448-1.505-1.253-2.284-1.253-2.284L116.591,214.481z"/>
<path style="fill-rule:evenodd;clip-rule:evenodd;fill:#576B14;" d="M37.749,194.655c1.622-2.519,3.66-5.315,5.215-6.224
	c2.501-1.462,0.36,7.91,0.082,14.918c-0.085-0.214-0.167-0.429-0.248-0.643c-0.118-0.234-0.219-0.493-0.299-0.783l-0.052-0.192
	c-0.892-2.62-1.518-6.56-0.17-9.839l-4.354,3.78C37.851,195.338,37.793,194.998,37.749,194.655"/>
<path style="fill-rule:evenodd;clip-rule:evenodd;fill:#576B14;" d="M95.932,167.337c0,0,1.5-6.375,2.063-5.437
	c0.562,0.937,8.812,12.094,8.812,12.094s-8.906,0.751-8.156,8.813c0.75,8.062,1.031,22.875,1.031,22.875l2.438-4.219
	c0,0,1.5,18.329,9.937,27.329c-2.531-7.312-1.875-18.938-1.875-18.938c1.378,3.827,7.017,8.28,9.375,10.031l-2.965-5.403
	c1.971,2.048,4.704,3.4,5.591,3.622l-6.53-12.94c-0.851-0.783-1.715-1.589-2.535-2.368c-3.75-3.562-7.125-12.563-7.125-12.563
	l-0.938,3.75c0,0-4.312-5.063-2.438-10.875c1.875-5.812,4.125-2.625,15-2.625c0.955,0,1.987,0.014,3.082,0.04
	c-9.468-14.313-18.637-27.633-19.506-45.51c-1.067,0.607-2.183,1.149-3.334,1.635c-4.579,2.732-10.117,4.576-16.816,5.155
	c-0.454,0.039-0.913,0.073-1.378,0.1c-0.123,0.008-0.245,0.015-0.368,0.02c-2.127,0.115-4.273,0.098-6.382-0.074
	c-0.056-0.005-0.112-0.009-0.168-0.014c-0.026-0.002-0.052-0.004-0.077-0.007c-1.222-0.107-2.43-0.266-3.617-0.483l-0.008-0.001
	c-0.004-0.001-0.008-0.002-0.013-0.003c-0.006-0.001-0.012-0.002-0.018-0.003c-0.008-0.001-0.015-0.003-0.023-0.004
	c-0.029-0.005-0.057-0.01-0.086-0.017c-0.739-0.138-1.458-0.298-2.156-0.479c-0.217-0.056-0.432-0.114-0.647-0.174
	c-0.062-0.017-0.123-0.035-0.184-0.052c-1.314-0.379-2.555-0.831-3.726-1.355c-0.002-0.001-0.003-0.001-0.005-0.002l1.006,10.245
	l1.801-5.599c0,0,2.438,8.344,2.531,7.875c0.094-0.469,2.719-6.188,2.719-6.188s1.5,2.813,1.219,5.437
	c-0.281,2.625-1.312,3.844-1.312,3.844l6.562-6c0,0,8.625,3.937,9.469,7.594c0.844,3.656,2.344-0.375,2.344-0.375
	s0.656,0.281,3.656,5.063C95.182,165.931,95.932,167.337,95.932,167.337 M72.67,141.828c-1.255-0.108-2.46-0.27-3.617-0.483
	c0.012,0.002,0.024,0.004,0.035,0.007c0.03,0.005,0.06,0.011,0.09,0.016c1.098,0.198,2.24,0.35,3.428,0.455
	C72.627,141.825,72.648,141.826,72.67,141.828z M116.591,214.481c-1.448-1.505-1.253-2.284-1.253-2.284L116.591,214.481z"/>
<path style="fill:none;stroke:#000000;stroke-width:2.0001;stroke-linecap:round;stroke-linejoin:round;stroke-miterlimit:22.9256;" d="
	M216.918,110.383c0,0,4.714-0.917,10.62,1.333c5.906,2.25,13.875,0,13.875,0s-0.75,3.656-4.219,5.906
	c-3.469,2.25-7.969,3.188-7.406,3.469c0.562,0.281,6.656,0,6.656,0l-6,5.344l-40.406-5.531c0,0-5.156-5.156-1.031-4.5
	C193.132,117.06,216.918,110.383,216.918,110.383z"/>
<path style="fill-rule:evenodd;clip-rule:evenodd;fill:#576B14;" d="M216.918,110.383c0,0,4.714-0.917,10.62,1.333
	c5.906,2.25,13.875,0,13.875,0s-0.75,3.656-4.219,5.906c-3.469,2.25-7.969,3.188-7.406,3.469c0.562,0.281,6.656,0,6.656,0l-6,5.344
	l-40.406-5.531c0,0-5.156-5.156-1.031-4.5C193.132,117.06,216.918,110.383,216.918,110.383"/>
<path style="fill:none;stroke:#000000;stroke-width:2.0001;stroke-linecap:round;stroke-linejoin:round;stroke-miterlimit:22.9256;" d="
	M158.679,181.607c-9.375,0.75-30.187-1.125-41.062-1.125s-13.125-3.188-15,2.625c-1.875,5.813,2.438,10.875,2.438,10.875l0.938-3.75
	c0,0,3.375,9,7.125,12.563c3.75,3.562,8.438,7.687,8.438,7.687l-0.375-10.125l7.313,6.75l-0.375-5.625c0,0,2.474,3.469,6.375,5.438
	c3.901,1.969,6.735,6.544,6.735,6.544s3.577-7.669,5.077-8.981c1.5-1.313,2.438-6.938,2.438-6.938s2.157,2.907,2.344,4.875
	c0.187,1.969,0.094,3.469,0.094,3.469l2.906-4.219l2.531,3.469l0.75-18.563c0.565,12.772-0.248,15.357,11.25,30.844l-0.844-9.75
	l4.219,3.281c3.403-8.175,1.621-8.394-2.625-15.469c5.324,5.324,7.97,12.77,11.531,19.406c2.92-8.273,0.369-10.466,0.044-17.902
	c-5.962-7.814-8.999-12.736-12.513-22.691c0,0,13.031,25.406,22.781,31.031c9.75,5.625,12.469,8.063,12.469,8.063l-3.75-9.375
	c0,0,4.125,4.969,4.219,4.125c0.094-0.844-0.656-8.437-0.281-7.875c0.375,0.562,5.156,4.031,5.156,4.031s1.688-6.563-1.594-10.219
	c-3.281-3.656-4.566-8.004-4.566-8.004c-16.621-8.036-23.616-12.305-34.902-27.433c14.594,15.81,36.181,32.966,59.625,25.781
	c-3.75-3.063-10.688-6.781-14.438-9.844c11.955,3.89,20.465,1.024,33.188-1.687c-5.96-5.176-9.99-11.446-23.813-14.25
	c-13.671-4.959-25.33-12.602-36-21.563c13.195,9.945,27.056,17.744,40.501,20.438c-1.813-1.812-4.187-4.469-6-6.281
	c6.417,1.284,22.946,6.831,27.656,5.344l-2.625-3.094c10.056,4.077,19.182,0.811,29.813,4.5c-3.579-8.712-5.196-8.359-13.078-12.562
	c0,0,3.328-1.078,3.422-0.844c0.094,0.234-6.188-1.078-12.657-3.047c-6.469-1.969-16.406-10.031-16.406-10.031l4.125-2.156
	l-3.375,0.469l8.25-7.031c0,0-18.563,5.063-30.563,1.875c-12-3.188-24-6-24-6s13.125-0.938,26.25-8.813
	c13.125-7.875,19.777-18.691,19.777-18.691c-4.688,1.657-7.448,0.8-11.198-0.387c4.081-1.103,6.686-4.13,8.109-7.735
	c-1.359,0.656-2.672,0.75-3.609,0.375c3.878-2.839,7.113-7.279,9.609-10.499c-2.441,0.97-4.81,1.03-7.125,0.375
	c4.048-6.083,5.951-14.042,6-23.625c0,0-16.875,21-21.75,27c-4.875,6-20.625,15.375-20.625,15.375c1-3.375,2-6.75,3-10.125
	c-25.254,21.122-22.532,15.269-50.812,26.812c-9.187,3.75-7.5,13.688-5.25,22.313c2.25,8.625,14.813,39.188,16.125,43.313
	C161.401,178.468,163.838,181.094,158.679,181.607z"/>
<path style="fill-rule:evenodd;clip-rule:evenodd;fill:#80943B;" d="M158.679,181.607c-9.375,0.75-30.187-1.125-41.062-1.125
	s-13.125-3.188-15,2.625c-1.875,5.813,2.438,10.875,2.438,10.875l0.938-3.75c0,0,3.375,9,7.125,12.563
	c3.75,3.562,8.438,7.687,8.438,7.687l-0.375-10.125l7.313,6.75l-0.375-5.625c0,0,2.474,3.469,6.375,5.438
	c3.901,1.969,6.735,6.544,6.735,6.544s3.577-7.669,5.077-8.981c1.5-1.313,2.438-6.938,2.438-6.938s2.157,2.907,2.344,4.875
	c0.187,1.969,0.094,3.469,0.094,3.469l2.906-4.219l2.531,3.469l0.75-18.563c0.565,12.772-0.248,15.357,11.25,30.844l-0.844-9.75
	l4.219,3.281c3.403-8.175,1.621-8.394-2.625-15.469c5.324,5.324,7.97,12.77,11.531,19.406c2.92-8.273,0.369-10.466,0.044-17.902
	c-5.962-7.814-8.999-12.736-12.513-22.691c0,0,13.031,25.406,22.781,31.031c9.75,5.625,12.469,8.063,12.469,8.063l-3.75-9.375
	c0,0,4.125,4.969,4.219,4.125c0.094-0.844-0.656-8.437-0.281-7.875c0.375,0.562,5.156,4.031,5.156,4.031s1.688-6.563-1.594-10.219
	c-3.281-3.656-4.566-8.004-4.566-8.004c-16.621-8.036-23.616-12.305-34.902-27.433c14.594,15.81,36.181,32.966,59.625,25.781
	c-3.75-3.063-10.688-6.781-14.438-9.844c11.955,3.89,20.465,1.024,33.188-1.687c-5.96-5.176-9.99-11.446-23.813-14.25
	c-13.671-4.959-25.33-12.602-36-21.563c13.195,9.945,27.056,17.744,40.501,20.438c-1.813-1.812-4.187-4.469-6-6.281
	c6.417,1.284,22.946,6.831,27.656,5.344l-2.625-3.094c10.056,4.077,19.182,0.811,29.813,4.5c-3.579-8.712-5.196-8.359-13.078-12.562
	c0,0,3.328-1.078,3.422-0.844c0.094,0.234-6.188-1.078-12.657-3.047c-6.469-1.969-16.406-10.031-16.406-10.031l4.125-2.156
	l-3.375,0.469l8.25-7.031c0,0-18.563,5.063-30.563,1.875c-12-3.188-24-6-24-6s13.125-0.938,26.25-8.813
	c13.125-7.875,19.777-18.691,19.777-18.691c-4.688,1.657-7.448,0.8-11.198-0.387c4.081-1.103,6.686-4.13,8.109-7.735
	c-1.359,0.656-2.672,0.75-3.609,0.375c3.878-2.839,7.113-7.279,9.609-10.499c-2.441,0.97-4.81,1.03-7.125,0.375
	c4.048-6.083,5.951-14.042,6-23.625c0,0-16.875,21-21.75,27c-4.875,6-20.625,15.375-20.625,15.375c1-3.375,2-6.75,3-10.125
	c-25.254,21.122-22.532,15.269-50.812,26.812c-9.187,3.75-7.5,13.688-5.25,22.313c2.25,8.625,14.813,39.188,16.125,43.313
	C161.401,178.468,163.838,181.094,158.679,181.607"/>
<path style="fill-rule:evenodd;clip-rule:evenodd;fill:#576B14;" d="M169.112,175.593c2.287,4.284,9.956,18.156,17.281,25.748
	l-4.935-7.826C181.457,193.515,169.551,170.171,169.112,175.593 M113.117,202.795c3.75,3.562,8.438,7.687,8.438,7.687l-0.375-10.125
	l7.313,6.75l-0.375-5.625c0,0,2.474,3.469,6.375,5.438c3.901,1.969,6.735,6.544,6.735,6.544s3.577-7.669,5.077-8.981
	c1.5-1.313,2.438-6.938,2.438-6.938s2.157,2.907,2.344,4.875c0.187,1.969,0.094,3.469,0.094,3.469l2.906-4.219l2.531,3.469
	l0.75-18.563l7.778,13.033c0,0,0.188-11.719,0.375-10.875c0.187,0.844,3.847,6.749,3.847,6.749
	c5.324,5.324,7.97,12.77,11.531,19.406c2.92-8.273,0.369-10.466,0.044-17.902c-5.594-7.331-8.613-12.117-11.865-20.9
	c-0.364,5.754,0.29,19.396,0.29,19.396c4.246,7.074,6.028,7.294,2.625,15.469l-4.219-3.281l0.844,9.75
	c-11.498-15.487-10.685-18.072-11.25-30.844c0,0-3.566,7.783-2.91,7.783s-3.75-6.469-4.219-6.75
	c-0.469-0.281-3.562,8.063-3.562,8.063s-3.563-3.844-4.125-4.594c-0.562-0.75,0.562,8.719,0.844,9.375s-3.281-4.125-4.406-5.531
	c-1.125-1.406-0.469,3.188-0.469,3.75c0,0.562-9.281-10.5-9.281-10.5s5.454,14.778,6,14.437c0.546-0.341-8.438-6.187-8.438-6.187
	l-1.781,4.219l-4.875-3.094c0,0-0.937,6-1.406,6.469C118.269,204.484,113.117,202.795,113.117,202.795z"/>
<path style="fill-rule:evenodd;clip-rule:evenodd;fill:#576B14;" d="M230.916,83.405c3.878-2.839,7.113-7.279,9.609-10.499
	c-0.36,0.143-0.718,0.266-1.074,0.37c-3.132,4.158-10.132,7.878-10.132,7.878S232.976,80.122,230.916,83.405 M214.275,111.819
	c1.181-0.605,2.372-1.262,3.563-1.976c13.125-7.875,19.777-18.691,19.777-18.691c-4.688,1.657-7.448,0.8-11.198-0.387
	c4.081-1.103,6.686-4.13,8.109-7.735c-1.359,0.656-2.672,0.75-3.609,0.375c-2.059,3.283-16.503,11.53-16.503,11.53l14.531-1.406
	c0,0-8.625,8.438-22.594,14.344c-13.969,5.906-33.094,5.531-33.094,5.531s15.062,5.68,18.331,5.251
	C193.021,118.467,203.245,115.308,214.275,111.819z"/>
<path style="fill-rule:evenodd;clip-rule:evenodd;fill:#ABC25C;" d="M152.068,128.966c-0.562-0.938-5.813-13.406-1.875-15.188
	c3.938-1.781,22.782-7.969,29.157-10.969c6.375-3,10.969-8.531,10.969-8.531s-0.469,8.156-14.906,12.469
	c-14.438,4.313-20.344,9.281-21.188,14.063C153.381,125.591,152.068,128.966,152.068,128.966"/>
<path style="fill-rule:evenodd;clip-rule:evenodd;fill:#ABC25C;" d="M202.131,92.872c1.125,2.156,1.781,4.031,6.844,0.844
	c5.063-3.188,14.157-12.844,14.906-16.313c0.75-3.469,1.219-4.219,1.219-4.219S209.069,89.216,202.131,92.872"/>
<path style="fill-rule:evenodd;clip-rule:evenodd;fill:#576B14;" d="M217.975,146.685l0.094,4.031
	c-17.987-4.366-37.125-19.875-37.125-19.875l6.863,7.193c12.809,9.486,26.208,16.873,39.219,19.48c-1.813-1.812-4.187-4.469-6-6.281
	c6.417,1.284,22.946,6.831,27.656,5.344l-2.625-3.094c9.993,4.051,19.066,0.852,29.611,4.431c-3.74-2.958-8.919-4.348-14.099-3.917
	c-6.75,0.562-21.469-3.375-21.469-3.375l1.969,3.281C240.943,153.904,227.256,150.623,217.975,146.685"/>
<path style="fill-rule:evenodd;clip-rule:evenodd;fill:#576B14;" d="M170.213,160.998l-0.112-0.085
	c14.522,15.121,35.161,30.349,57.485,23.508c-0.38-0.311-0.793-0.628-1.232-0.95c-3.892-2.86-9.835-6.141-13.205-8.893
	c11.955,3.89,20.465,1.024,33.188-1.687c-0.147-0.128-0.294-0.257-0.439-0.386c-1.402,0.232-2.929,0.39-4.546,0.482
	c-0.952-0.148-1.897-0.361-2.8-0.658c-17.767-5.856-30.182-0.543-45.375-10.5l18.937,15c0,0-3.375,0.75-13.27-3.318
	c-8.2-3.372-26.596-17.29-32.657-21.959C167.169,154.703,169.103,158.769,170.213,160.998"/>
<path style="fill-rule:evenodd;clip-rule:evenodd;fill:#576B14;" d="M171.051,162.641c1.766,3.174,5.631,9.927,8.439,13.436
	c3.75,4.688,14.437,24.75,14.437,24.75s-17.713-13.97-25.497-26.532c0,0,13.031,25.406,22.781,31.031
	c9.75,5.625,12.469,8.063,12.469,8.063l-3.75-9.375c0,0,4.125,4.969,4.219,4.125c0.094-0.844-0.656-8.437-0.281-7.875
	c0.375,0.562,5.156,4.031,5.156,4.031s1.688-6.563-1.594-10.219c-3.281-3.656-4.566-8.004-4.566-8.004
	C187.81,178.795,180.652,174.607,171.051,162.641"/>
<path style="fill-rule:evenodd;clip-rule:evenodd;fill:#576B14;" d="M53.464,208.166c-1.796,1.197-2.063,5.185-2.363,8.449
	c2.5,3.081,5.386,6.113,8.579,9.072c-1.079-2.578-2.128-5.147-2.747-6.833C55.245,214.259,54.495,211.634,53.464,208.166"/>
<path style="fill-rule:evenodd;clip-rule:evenodd;fill:#576B14;" d="M69.87,218.947c0,0,0.094,10.031,0,11.438
	c-0.093,1.406-4.031-8.906-4.031-8.906l-1.484,8.313c3.195,2.664,6.62,5.257,10.212,7.76c0,0,15.028,6.292,27.023,8.018
	c-2.587-3.459-4.626-8.058-4.626-8.058s3.383,3.105,7.93,4.838c-2.731-4.585-4.166-11.101-4.545-13.011l-2.728-3.359l-0.656,8.813
	l-13.688-10.594l1.969,8.156l-6.938-8.531l2.25,9c0,0-0.844,0.375-3.094-1.875C75.214,228.697,69.87,218.947,69.87,218.947"/>
<path style="fill-rule:evenodd;clip-rule:evenodd;fill:#576B14;" d="M57.401,195.369c0,0-1.969,7.5,1.312,10.312
	C60.401,202.213,61.995,196.587,57.401,195.369"/>
<path style="fill-rule:evenodd;clip-rule:evenodd;fill:#ABC25C;" d="M41.932,186.744c0,0,8.719-6,10.781-9.188
	c2.063-3.188,1.875-3.844,1.875-3.844S39.682,177.65,41.932,186.744"/>
<path style="fill-rule:evenodd;clip-rule:evenodd;fill:#ABC25C;" d="M56.464,181.119c0,0-4.407,3.375-5.25,8.156
	c-0.844,4.781,1.5,8.906,1.5,8.906l3.75-7.031l3.094,0.844C59.557,191.994,61.807,184.869,56.464,181.119"/>
<path style="fill-rule:evenodd;clip-rule:evenodd;fill:#ABC25C;" d="M51.414,213.5c-5.612-7.088-1.138-13.537-1.138-13.537
	S55.901,202.4,51.414,213.5"/>
<path style="fill:none;stroke:#000000;stroke-width:2.0001;stroke-linecap:round;stroke-linejoin:round;stroke-miterlimit:22.9256;" d="
	M68.931,102.602c0,4.07,1.672,7.749,4.367,10.388c2.623,2.569,6.214,4.154,10.175,4.154c8.031,0,14.542-6.511,14.542-14.542
	c0-6.087-3.739-11.3-9.046-13.467c-1.695-0.693-3.551-1.075-5.496-1.075c-4.07,0-7.749,1.672-10.389,4.367
	c-1.308,1.335-2.36,2.921-3.079,4.679C69.313,98.801,68.931,100.657,68.931,102.602z"/>
<path style="fill-rule:evenodd;clip-rule:evenodd;fill:#FFFFFF;" d="M68.931,102.602c0,4.07,1.672,7.749,4.367,10.388
	c2.623,2.569,6.214,4.154,10.175,4.154c8.031,0,14.542-6.511,14.542-14.542c0-6.087-3.739-11.3-9.046-13.467
	c-1.695-0.693-3.551-1.075-5.496-1.075c-4.07,0-7.749,1.672-10.389,4.367c-1.308,1.335-2.36,2.921-3.079,4.679
	C69.313,98.801,68.931,100.657,68.931,102.602"/>
<path style="fill:none;stroke:#000000;stroke-width:2.0001;stroke-linecap:round;stroke-linejoin:round;stroke-miterlimit:22.9256;" d="
	M73.029,102.178c0,1.412,0.58,2.689,1.515,3.604c0.91,0.891,2.156,1.441,3.53,1.441c2.787,0,5.046-2.259,5.046-5.045
	c0-2.112-1.297-3.921-3.138-4.672c-0.588-0.241-1.232-0.373-1.907-0.373c-1.412,0-2.689,0.58-3.604,1.515
	c-0.454,0.463-0.819,1.014-1.068,1.624C73.161,100.859,73.029,101.503,73.029,102.178z"/>
<path style="fill-rule:evenodd;clip-rule:evenodd;fill:#333333;" d="M73.029,102.178c0,1.412,0.58,2.689,1.515,3.604
	c0.91,0.891,2.156,1.441,3.53,1.441c2.787,0,5.046-2.259,5.046-5.045c0-2.112-1.297-3.921-3.138-4.672
	c-0.588-0.241-1.232-0.373-1.907-0.373c-1.412,0-2.689,0.58-3.604,1.515c-0.454,0.463-0.819,1.014-1.068,1.624
	C73.161,100.859,73.029,101.503,73.029,102.178"/>
<path style="fill-rule:evenodd;clip-rule:evenodd;" d="M74.655,101.68c0,0.949,0.389,1.806,1.018,2.421
	c0.611,0.599,1.448,0.968,2.372,0.968c1.872,0,3.389-1.517,3.389-3.389c0-1.419-0.872-2.634-2.108-3.139
	c-0.395-0.161-0.828-0.251-1.281-0.251c-0.948,0-1.806,0.39-2.421,1.018c-0.305,0.311-0.55,0.681-0.718,1.091
	C74.744,100.795,74.655,101.227,74.655,101.68"/>
<path style="fill-rule:evenodd;clip-rule:evenodd;fill:#FFFFFF;" d="M74.645,103.25c0,0-1.205-2.273,0.639-4.247
	c1.844-1.975,3.296-0.797,3.296-0.797S75.02,100.893,74.645,103.25"/>
<path style="fill:none;stroke:#000000;stroke-width:2.0001;stroke-linecap:round;stroke-linejoin:round;stroke-miterlimit:22.9256;" d="
	M79.424,60.033c-1.353-8.788,5.066-6.452,8.813-12.694C88.237,47.339,91.151,59.481,79.424,60.033z"/>
<path style="fill-rule:evenodd;clip-rule:evenodd;fill:#FFF261;" d="M79.424,60.033c-1.353-8.788,5.066-6.452,8.813-12.694
	C88.237,47.339,91.151,59.481,79.424,60.033"/>
<path style="fill:none;stroke:#000000;stroke-width:2.0001;stroke-linecap:round;stroke-linejoin:round;stroke-miterlimit:22.9256;" d="
	M112.222,61.797c-3.966-7.62-2.124-9.426,3.188-12C122.397,56.153,112.332,58.057,112.222,61.797z"/>
<path style="fill-rule:evenodd;clip-rule:evenodd;fill:#FFF261;" d="M112.222,61.797c-3.966-7.62-2.124-9.426,3.188-12
	C122.397,56.153,112.332,58.057,112.222,61.797"/>
<path style="fill:none;stroke:#000000;stroke-width:2.0001;stroke-linecap:round;stroke-linejoin:round;stroke-miterlimit:22.9256;" d="
	M121.501,60.686c-6.306,4.917-3.491,8.177-1.406,13.687C118.726,71.042,126.751,67.623,121.501,60.686z"/>
<path style="fill-rule:evenodd;clip-rule:evenodd;fill:#FFF261;" d="M121.501,60.686c-6.306,4.917-3.491,8.177-1.406,13.687
	C118.726,71.042,126.751,67.623,121.501,60.686"/>
<path style="fill:none;stroke:#000000;stroke-width:2.0001;stroke-linecap:round;stroke-linejoin:round;stroke-miterlimit:22.9256;" d="
	M106.464,68.524c-6-4.875-1.688-10.781-1.688-10.781S111.901,61.586,106.464,68.524z"/>
<path style="fill-rule:evenodd;clip-rule:evenodd;fill:#FFF261;" d="M106.464,68.524c-6-4.875-1.688-10.781-1.688-10.781
	S111.901,61.586,106.464,68.524"/>
<path style="fill:none;stroke:#000000;stroke-width:1.0001;stroke-linecap:round;stroke-linejoin:round;stroke-miterlimit:22.9256;" d="
	M98.495,47.899c0,0-7.852,7.634-6.484,16.485"/>
<path style="fill:none;stroke:#000000;stroke-width:2.0001;stroke-linecap:round;stroke-linejoin:round;stroke-miterlimit:22.9256;" d="
	M110.308,38.992c-11.25-0.75-11.813,8.906-11.813,8.906S109.276,48.93,110.308,38.992z"/>
<path style="fill-rule:evenodd;clip-rule:evenodd;fill:#FFF261;" d="M110.308,38.992c-11.25-0.75-11.813,8.906-11.813,8.906
	S109.276,48.93,110.308,38.992"/>
<path style="fill:none;stroke:#000000;stroke-width:2.0001;stroke-linecap:round;stroke-linejoin:round;stroke-miterlimit:22.9256;" d="
	M76.311,31.233c7.018-5.702,1.974-12.609,1.974-12.609S69.951,23.12,76.311,31.233z"/>
<path style="fill-rule:evenodd;clip-rule:evenodd;fill:#FFF261;" d="M76.311,31.233c7.018-5.702,1.974-12.609,1.974-12.609
	S69.951,23.12,76.311,31.233"/>
<path style="fill:none;stroke:#000000;stroke-width:2.0001;stroke-linecap:round;stroke-linejoin:round;stroke-miterlimit:22.9256;" d="
	M70.123,36.859c0.608-9.021-7.885-10.036-7.885-10.036S59.851,35.985,70.123,36.859z"/>
<path style="fill-rule:evenodd;clip-rule:evenodd;fill:#FFF261;" d="M70.123,36.859c0.608-9.021-7.885-10.036-7.885-10.036
	S59.851,35.985,70.123,36.859"/>
<path style="fill:none;stroke:#000000;stroke-width:2.0001;stroke-linecap:round;stroke-linejoin:round;stroke-miterlimit:22.9256;" d="
	M67.254,26.358c1.847-8.851-6.424-11.028-6.424-11.028S59.582,22.609,67.254,26.358z"/>
<path style="fill-rule:evenodd;clip-rule:evenodd;fill:#FFF261;" d="M67.254,26.358c1.847-8.851-6.424-11.028-6.424-11.028
	S59.582,22.609,67.254,26.358"/>
<path style="fill:none;stroke:#000000;stroke-width:2.0001;stroke-linecap:round;stroke-linejoin:round;stroke-miterlimit:22.9256;" d="
	M55.456,25.939c2.534-8.679-5.541-11.497-5.541-11.497C51.513,18.851,49.109,26.967,55.456,25.939z"/>
<path style="fill-rule:evenodd;clip-rule:evenodd;fill:#FFF261;" d="M55.456,25.939c2.534-8.679-5.541-11.497-5.541-11.497
	C51.513,18.851,49.109,26.967,55.456,25.939"/>
<path style="fill:none;stroke:#000000;stroke-width:2.0001;stroke-linecap:round;stroke-linejoin:round;stroke-miterlimit:22.9256;" d="
	M50.66,33.671c0.581,9.283,6.375,9.035,8.344,9.281C59.003,40.796,56.754,36.859,50.66,33.671z"/>
<path style="fill-rule:evenodd;clip-rule:evenodd;fill:#FFF261;" d="M50.66,33.671c0.581,9.283,6.375,9.035,8.344,9.281
	C59.003,40.796,56.754,36.859,50.66,33.671"/>
<path style="fill:none;stroke:#000000;stroke-width:1.0001;stroke-linecap:round;stroke-linejoin:round;stroke-miterlimit:22.9256;" d="
	M59.003,42.952c0,0,1.219,2.625,1.125,5.812"/>
<path style="fill:none;stroke:#000000;stroke-width:2.0001;stroke-linecap:round;stroke-linejoin:round;stroke-miterlimit:22.9256;" d="
	M132.241,75.949c-4.828,3.653-3.656,8.097-9.656,7.219C122.585,81.012,125.022,76.981,132.241,75.949z"/>
<path style="fill-rule:evenodd;clip-rule:evenodd;fill:#FFF261;" d="M132.241,75.949c-4.828,3.653-3.656,8.097-9.656,7.219
	C122.585,81.012,125.022,76.981,132.241,75.949"/>
<path style="fill:none;stroke:#000000;stroke-width:1.0001;stroke-linecap:round;stroke-linejoin:round;stroke-miterlimit:22.9256;" d="
	M122.585,83.168c0,0-3.885,1.18-4.777,4.871"/>
<path style="fill:none;stroke:#000000;stroke-width:1.0001;stroke-linecap:round;stroke-linejoin:round;stroke-miterlimit:22.9256;" d="
	M157.319,253.611c0.75,0.281,9.75,2.719,16.594,0.656 M180.475,268.33c0.656-0.094,6.563-0.281,11.531-2.906 M193.128,287.661
	c0,0-1.082-4.327-5.721-8.251 M179.468,299.859c-0.499-1.323-1.964-5.008-3.681-8.185 M239.345,287.661
	c0,0-10.969,2.531-25.032-1.688 M229.596,307.911c0,0-10.856-7.385-15.601-14.35 M254.246,314.986c0,0,15.469,10.031,25.031,9.656
	 M250.402,325.579c0,0,11.395,3.331,14.604,8.556 M286.683,339.829c-0.281-0.469-1.125-2.156-3.563-3.938 M152.537,263.549
	c0,0,4.875,4.031,7.594,13.219"/>
<path style="fill-rule:evenodd;clip-rule:evenodd;" d="M97.737,328.794c0,0-0.486-6.045,3.336-6.621
	c3.822-0.576,0.853-5.594-2.367-4.666C95.487,318.434,88.924,324.762,97.737,328.794"/>
<path style="fill-rule:evenodd;clip-rule:evenodd;" d="M107.675,334.325c0,0-0.486-6.045,3.336-6.621
	c3.822-0.576,0.853-5.594-2.367-4.666C105.424,323.966,98.862,330.294,107.675,334.325"/>
<path style="fill-rule:evenodd;clip-rule:evenodd;" d="M67.191,301.624c0,0,1.478-5.099,4.785-4.385
	c3.308,0.714,2.434-4.315-0.489-4.554C68.563,292.446,61.228,295.589,67.191,301.624"/>
<path style="fill-rule:evenodd;clip-rule:evenodd;" d="M60.981,294.25c0,0,2.171-4.845,5.347-3.678
	c3.176,1.166,3.009-3.936,0.147-4.578C63.614,285.351,55.913,287.447,60.981,294.25"/>
<path style="fill:none;stroke:#000000;stroke-width:2.0001;stroke-linecap:round;stroke-linejoin:round;stroke-miterlimit:22.9256;" d="
	M188.161,252.364c-4.031,6.469-15.558,2.24-15.558,2.24S181.083,242.801,188.161,252.364z"/>
<path style="fill-rule:evenodd;clip-rule:evenodd;fill:#FFF261;" d="M188.161,252.364c-4.031,6.469-15.558,2.24-15.558,2.24
	S181.083,242.801,188.161,252.364"/>
<path style="fill:none;stroke:#000000;stroke-width:2.0001;stroke-linecap:round;stroke-linejoin:round;stroke-miterlimit:22.9256;" d="
	M211.53,258.146c-5.107,12.918-22.402,8.522-22.402,8.522S196.858,252.99,211.53,258.146z"/>
<path style="fill-rule:evenodd;clip-rule:evenodd;fill:#FFF261;" d="M211.53,258.146c-5.107,12.918-22.402,8.522-22.402,8.522
	S196.858,252.99,211.53,258.146"/>
<path style="fill:none;stroke:#000000;stroke-width:2.0001;stroke-linecap:round;stroke-linejoin:round;stroke-miterlimit:22.9256;" d="
	M166.49,291.693c-12.803-5.389-7.091-17.146-7.091-17.146S171.966,277.137,166.49,291.693z"/>
<path style="fill-rule:evenodd;clip-rule:evenodd;fill:#FFF261;" d="M166.49,291.693c-12.803-5.389-7.091-17.146-7.091-17.146
	S171.966,277.137,166.49,291.693"/>
<path style="fill:none;stroke:#000000;stroke-width:2.0001;stroke-linecap:round;stroke-linejoin:round;stroke-miterlimit:22.9256;" d="
	M203.219,303.683c-11.809-5.205-8.059-12.411-10.09-16.022C195.66,290.662,208.696,289.128,203.219,303.683z"/>
<path style="fill-rule:evenodd;clip-rule:evenodd;fill:#FFF261;" d="M203.219,303.683c-11.809-5.205-8.059-12.411-10.09-16.022
	C195.66,290.662,208.696,289.128,203.219,303.683"/>
<path style="fill:none;stroke:#000000;stroke-width:2.0001;stroke-linecap:round;stroke-linejoin:round;stroke-miterlimit:22.9256;" d="
	M184.504,312.036c-9.092-3.828-5.036-12.177-5.036-12.177S188.394,301.699,184.504,312.036z"/>
<path style="fill-rule:evenodd;clip-rule:evenodd;fill:#FFF261;" d="M184.504,312.036c-9.092-3.828-5.036-12.177-5.036-12.177
	S188.394,301.699,184.504,312.036"/>
<path style="fill:none;stroke:#000000;stroke-width:2.0001;stroke-linecap:round;stroke-linejoin:round;stroke-miterlimit:22.9256;" d="
	M246.597,321.157c-11.118,2.113-17.001-13.246-17.001-13.246S245.807,307.702,246.597,321.157z"/>
<path style="fill-rule:evenodd;clip-rule:evenodd;fill:#FFF261;" d="M246.597,321.157c-11.118,2.113-17.001-13.246-17.001-13.246
	S245.807,307.702,246.597,321.157"/>
<path style="fill:none;stroke:#000000;stroke-width:2.0001;stroke-linecap:round;stroke-linejoin:round;stroke-miterlimit:22.9256;" d="
	M254.438,289.755c-7.784,5.078-15.092-2.094-15.092-2.094S247.522,281.143,254.438,289.755z"/>
<path style="fill-rule:evenodd;clip-rule:evenodd;fill:#FFF261;" d="M254.438,289.755c-7.784,5.078-15.092-2.094-15.092-2.094
	S247.522,281.143,254.438,289.755"/>
<path style="fill-rule:evenodd;clip-rule:evenodd;fill:#576B14;" d="M202.037,303.13c-10.372-5.152-6.948-11.984-8.908-15.469
	c0,0-0.134-0.536-0.51-1.401l-2.871-2.672c0.003,0.008,0.005,0.016,0.008,0.023c1.875,5.437-1.875,12.375-1.875,12.375l-2.32-4.059
	c1.08,5.838,3.401,10.936,9.859,21.373c0,0,1.86-3.168,2.625-6.703c0.432,1.252,3.48,12.3,7.315,17.107
	c1.056-3.293,2.58-5.668,2.58-5.668s1.087,1.737,1.935,4.302c0.69-1.565,0.732-3.226,0.732-3.226
	c1.995,7.386,2.062,7.886,7.219,12.938l1.594-8.531c0,0,6.356,5.283,8.612,6.98c0.033-0.152,0.063-0.301,0.09-0.449
	c-1.207-3.374,0.026-6.088,0.157-5.782c2.782,6.494,12.069,10.4,18.188,13.969c-0.172-1.429-0.344-2.867-0.594-4.286
	c-7.534-4.185-17.877-15.591-17.877-15.591l-2.156,2.532c0,0-7.453-6.844-7.828-7.734c-0.375-0.891-5.906,2.016-5.906,2.016
	l-5.484-8.297c0,0,0,5.156-2.203,1.453C203.254,306.374,202.47,304.509,202.037,303.13"/>
<path style="fill-rule:evenodd;clip-rule:evenodd;fill:#576B14;" d="M224.433,297.829c3,5.344,9.283,6.328,9.283,6.328
	s21.757,4.131,26.722,3.097c-0.219-0.171-0.465-0.362-0.737-0.571C243.873,304.018,221.433,292.485,224.433,297.829"/>
<path style="fill-rule:evenodd;clip-rule:evenodd;fill:#576B14;" d="M250.214,320.611c1.768,4.21,11.245,9.58,13.159,10.631
	l-0.126-0.223c0.155,0.138,0.31,0.273,0.463,0.407c9.632,8.336,16.231,6.672,27.175,2.61c-21.529,0.187-43.203-23.08-43.203-23.08
	S248.245,315.923,250.214,320.611"/>
<path style="fill:none;stroke:#000000;stroke-width:2.0001;stroke-linecap:round;stroke-linejoin:round;stroke-miterlimit:22.9256;" d="
	M207.003,336.993c-6.424-7.487,0.937-18.957,0.937-18.957S215.103,329.483,207.003,336.993z"/>
<path style="fill-rule:evenodd;clip-rule:evenodd;fill:#FFF261;" d="M207.003,336.993c-6.424-7.487,0.937-18.957,0.937-18.957
	S215.103,329.483,207.003,336.993"/>
<path style="fill:none;stroke:#000000;stroke-width:2.0001;stroke-linecap:round;stroke-linejoin:round;stroke-miterlimit:22.9256;" d="
	M233.593,343.714c-11.809-5.205-3.652-12.786-5.684-16.397C230.44,330.318,239.07,329.159,233.593,343.714z"/>
<path style="fill-rule:evenodd;clip-rule:evenodd;fill:#FFF261;" d="M233.593,343.714c-11.809-5.205-3.652-12.786-5.684-16.397
	C230.44,330.318,239.07,329.159,233.593,343.714"/>
<path style="fill:none;stroke:#000000;stroke-width:2.0001;stroke-linecap:round;stroke-linejoin:round;stroke-miterlimit:22.9256;" d="
	M275.531,309.349c-7.784,5.078-15.092-2.094-15.092-2.094S268.616,300.736,275.531,309.349z"/>
<path style="fill-rule:evenodd;clip-rule:evenodd;fill:#FFF261;" d="M275.531,309.349c-7.784,5.078-15.092-2.094-15.092-2.094
	S268.616,300.736,275.531,309.349"/>
<path style="fill:none;stroke:#000000;stroke-width:2.0001;stroke-linecap:round;stroke-linejoin:round;stroke-miterlimit:22.9256;" d="
	M277.588,343.309c-9.137,1.736-13.971-10.885-13.971-10.885S276.939,332.252,277.588,343.309z"/>
<path style="fill-rule:evenodd;clip-rule:evenodd;fill:#FFF261;" d="M277.588,343.309c-9.137,1.736-13.971-10.885-13.971-10.885
	S276.939,332.252,277.588,343.309"/>
<path style="fill:none;stroke:#000000;stroke-width:2.0001;stroke-linecap:round;stroke-linejoin:round;stroke-miterlimit:22.9256;" d="
	M303.65,349.089c-14.2,2.128-17.44-10.041-17.44-10.041S299.183,341.777,303.65,349.089z"/>
<path style="fill-rule:evenodd;clip-rule:evenodd;fill:#FFF261;" d="M303.65,349.089c-14.2,2.128-17.44-10.041-17.44-10.041
	S299.183,341.777,303.65,349.089"/>
<path style="fill:none;stroke:#000000;stroke-width:2.0001;stroke-linecap:round;stroke-linejoin:round;stroke-miterlimit:22.9256;" d="
	M298.337,329.777c-8.44,2.922-21.842-5.281-21.842-5.281S291.422,314.977,298.337,329.777z"/>
<path style="fill-rule:evenodd;clip-rule:evenodd;fill:#FFF261;" d="M298.337,329.777c-8.44,2.922-21.842-5.281-21.842-5.281
	S291.422,314.977,298.337,329.777"/>
</svg>
