<?xml version="1.0" encoding="iso-8859-1"?>
<!-- Generator: Adobe Illustrator 22.0.1, SVG Export Plug-In . SVG Version: 6.00 Build 0)  -->
<svg version="1.1" id="&#x421;&#x43B;&#x43E;&#x439;_1"
	 xmlns="http://www.w3.org/2000/svg" xmlns:xlink="http://www.w3.org/1999/xlink" x="0px" y="0px" viewBox="0 0 340 366"
	 style="enable-background:new 0 0 340 366;" xml:space="preserve">
<path style="fill:none;stroke:#000000;stroke-width:2.0001;stroke-linecap:round;stroke-linejoin:round;stroke-miterlimit:22.9256;" d="
	M170.562,267.965c-17.514,16.646-163.607-46.487-122.551-95.047c16.375-19.356,17.72-31.122,17.72-34.04
	c1.051-0.511,22.553,2.021,36.191-5.735c1.154,23.754,16.779,39.562,28.572,60.122C134.568,200.37,175.539,263.313,170.562,267.965z
	"/>
<path style="fill:#F2EB40;" d="M170.562,267.965c-17.514,16.646-163.607-46.487-122.551-95.047
	c16.375-19.356,17.72-31.122,17.72-34.04c1.051-0.511,22.553,2.021,36.191-5.735c1.154,23.754,16.779,39.562,28.572,60.122
	C134.568,200.37,175.539,263.313,170.562,267.965"/>
<path style="fill-rule:evenodd;clip-rule:evenodd;fill:#CCBF0A;" d="M113.549,166.134c0,0-14.136,0.317-9.832,2.651
	c20.902,11.331-2.961,7.578-2.555,11.224c3.577,32.075,73.467,63.913-2.752,54.728c-27.831-3.353-43.069-14.235-43.069-14.235
	c10.691,11.256,26.105,21.679,42.251,30.076c31.18,16.216,65.088,24.876,72.968,17.387c5.026-4.698-39.412-73.555-40.068-74.699
	C127.744,188.473,116.484,170.572,113.549,166.134"/>
<path style="fill:#FFFFFF;" d="M177.868,90.797c0,4.193-3.399,7.592-7.592,7.592c-4.192,0-7.592-3.399-7.592-7.592
	c0-4.193,3.399-7.592,7.592-7.592C174.469,83.204,177.868,86.604,177.868,90.797"/>
<path style="fill:none;stroke:#2B2929;stroke-width:1.4173;stroke-linejoin:round;stroke-miterlimit:22.9256;" d="M251.673,213.214
	c-10.253-20.886-45.31-42.304-45.31-42.304c-10.678-5.093-17.756-9.105-17.756-9.105c3.114,2.584,7.195,7.264,11.42,15.714
	c-5.696,5.19-15.565-0.312-15.565-0.312c1.309,0.923,3.722,2.946,4.882,5.969c-3.786,1.204-9.07,0.574-11.765,0.119
	c0.822,1.728,1.959,4.637,2.025,7.623c-4.319-0.232-7.391-2.301-9.166-3.93c0.201,1.836,0.148,4.14-0.69,6.504
	c3.878,4.927,16.669,19.133,35.859,20.058c-2.16-3.597-5.829-8.637-8.525-12.23c7.366,5.297,19.997,12.778,33.647,13.757
	c-0.482-4.266-1.988-8.139-3.099-10.526C234.823,209.911,243.615,214.481,251.673,213.214z"/>
<path style="fill-rule:evenodd;clip-rule:evenodd;fill:#572163;" d="M251.673,213.214c-10.253-20.886-45.31-42.304-45.31-42.304
	c-10.678-5.093-17.756-9.105-17.756-9.105c3.114,2.584,7.195,7.264,11.42,15.714c-5.696,5.19-15.565-0.312-15.565-0.312
	c1.309,0.923,3.722,2.946,4.882,5.969c-3.786,1.204-9.07,0.574-11.765,0.119c0.822,1.728,1.959,4.637,2.025,7.623
	c-4.319-0.232-7.391-2.301-9.166-3.93c0.201,1.836,0.148,4.14-0.69,6.504c3.878,4.927,16.669,19.133,35.859,20.058
	c-2.16-3.597-5.829-8.637-8.525-12.23c7.366,5.297,19.997,12.778,33.647,13.757c-0.482-4.266-1.988-8.139-3.099-10.526
	C234.823,209.911,243.615,214.481,251.673,213.214"/>
<path style="fill-rule:evenodd;clip-rule:evenodd;fill:#3D054F;" d="M189.344,183.175c-3.786,1.203-9.07,0.574-11.765,0.119
	c0.822,1.728,1.959,4.637,2.025,7.623c-4.319-0.232-7.391-2.301-9.165-3.93c0.201,1.836,0.147,4.14-0.69,6.504
	c0.449,0.57,1.016,1.263,1.699,2.046c0.298-1.118,0.783-3.059,0.935-4.391c1.738,0.658,6.225,2.285,8.342,2.385
	c2.087,0.099,0.702-4.639,0.01-6.68c1.798-0.136,5.509-0.756,8.689-3.459C189.399,183.318,189.372,183.246,189.344,183.175
	 M200.027,177.519c-5.696,5.19-15.565-0.313-15.565-0.313c1.061,0.748,2.848,2.219,4.104,4.361
	C191.444,181.793,198.617,181.898,200.027,177.519z M206.363,170.91c-6.882-3.283-12.269-6.117-15.229-7.716
	c-1.633-0.883-2.527-1.39-2.527-1.39c1.488,1.234,3.196,2.947,5.036,5.321c4.747,2.133,12.578,5.639,21.303,9.487
	C209.85,173.041,206.363,170.91,206.363,170.91z"/>
<path style="fill:none;stroke:#000000;stroke-width:2.0001;stroke-linecap:round;stroke-linejoin:round;stroke-miterlimit:22.9256;" d="
	M228.509,67.646c-3.101,4.014-39.989,18.15-60.359,25.736c26.52-13.239,24.663-30.419,24.663-30.419s-41.012,31.139-52.151,39.746
	c-11.139,8.608-0.707,15.924,8.354,34.43c16.755,34.219-7.553,41.019-33.181,32.981c1.842,3.497,3.903,6.91,6.075,10.315
	c9.938,3.655,24.212,6.478,34.667,4.708c2.551-0.432,4.87-1.307,6.897-2.705c7.475-5.155,10.983-17.41,7.597-40.712
	c-3.637-25.032-14.177-35.317,6.835-42.785c6.645-2.362,16.074-5.495,25.986-8.813C203.892,90.128,224.332,81.443,228.509,67.646z"
	/>
<path style="fill-rule:evenodd;clip-rule:evenodd;fill:#CCBF05;" d="M228.509,67.646c-3.101,4.014-39.989,18.15-60.359,25.736
	c26.52-13.239,24.663-30.419,24.663-30.419s-41.012,31.139-52.151,39.746c-11.139,8.608-0.707,15.924,8.354,34.43
	c16.755,34.219-7.553,41.019-33.181,32.981c1.842,3.497,3.903,6.91,6.075,10.315c9.938,3.655,24.212,6.478,34.667,4.708
	c2.551-0.432,4.87-1.307,6.897-2.705c7.475-5.155,10.983-17.41,7.597-40.712c-3.637-25.032-14.177-35.317,6.835-42.785
	c6.645-2.362,16.074-5.495,25.986-8.813C203.892,90.128,224.332,81.443,228.509,67.646"/>
<path style="fill:none;stroke:#2B2929;stroke-width:1.4173;stroke-linejoin:round;stroke-miterlimit:22.9256;" d="M224.837,158.72
	c-7.183,0.721-13.473,0.18-18.891-1.066c-6.08,4.428-13.55,4.104-18.813,3.024c0.461,0.323,0.954,0.695,1.474,1.126
	c0,0,7.078,4.012,17.756,9.105c23.153,11.043,63.233,27.169,84.803,18.507C280.787,176.379,224.837,158.72,224.837,158.72z"/>
<path style="fill-rule:evenodd;clip-rule:evenodd;fill:#572163;" d="M224.837,158.72c-7.183,0.721-13.473,0.18-18.891-1.066
	c-6.08,4.428-13.55,4.104-18.813,3.024c0.461,0.323,0.954,0.695,1.474,1.126c0,0,7.078,4.012,17.756,9.105
	c23.153,11.043,63.233,27.169,84.803,18.507C280.787,176.379,224.837,158.72,224.837,158.72"/>
<path style="fill:none;stroke:#000000;stroke-width:2.0001;stroke-linecap:round;stroke-linejoin:round;stroke-miterlimit:22.9256;" d="
	M156.577,185.143c-10.455,1.77-24.729-1.053-34.667-4.708c-1.433-0.527-2.775-1.071-4.004-1.621
	c-9.747-4.367-11.709-1.582-11.709-1.582c-0.443,2.658,0,4.937,1.899,10.443c1.899,5.506,3.773,10.237,2.931,13.124
	c3.121-0.989,4.791-4.264,4.791-4.264s-0.76,4.05-0.697,6.772c0.063,2.722,3.228,7.785,3.228,7.785
	c1.462-2.58,1.717-5.446,1.557-7.809c1.602,4.775,5.442,14.219,15.177,18.56c0.354-1.484,0.38-2.98,0.265-4.298
	c1.524,2.855,4.635,6.326,10.585,5.425c-0.114-1.485-0.347-3.015-0.596-4.359c1.965,1.509,5.355,2.778,11.155,2.199
	c-0.198-1.678-0.688-3.096-1.298-4.272c2.237,2.128,5.602,4.627,9.418,5.098c0.37-4.077-0.863-8.088-2.053-10.881
	c1.513,2.593,3.767,5.722,6.234,6.617c0.416-5.204-0.337-9.035-1.274-11.656c1.178,0.787,2.819,1.492,5.1,1.891
	c0.136-7.481-0.978-10.665-1.859-12.008c-0.542-0.275-1.046-0.572-1.513-0.887c-5.156-3.471-5.846-9.095-5.773-12.274
	C161.447,183.835,159.128,184.711,156.577,185.143z"/>
<path style="fill-rule:evenodd;clip-rule:evenodd;fill:#F2EB40;" d="M156.577,185.143c-10.455,1.77-24.729-1.053-34.667-4.708
	c-1.433-0.527-2.775-1.071-4.004-1.621c-9.747-4.367-11.709-1.582-11.709-1.582c-0.443,2.658,0,4.937,1.899,10.443
	c1.899,5.506,3.773,10.237,2.931,13.124c3.121-0.989,4.791-4.264,4.791-4.264s-0.76,4.05-0.697,6.772
	c0.063,2.722,3.228,7.785,3.228,7.785c1.462-2.58,1.717-5.446,1.557-7.809c1.602,4.775,5.442,14.219,15.177,18.56
	c0.354-1.484,0.38-2.98,0.265-4.298c1.524,2.855,4.635,6.326,10.585,5.425c-0.114-1.485-0.347-3.015-0.596-4.359
	c1.965,1.509,5.355,2.778,11.155,2.199c-0.198-1.678-0.688-3.096-1.298-4.272c2.237,2.128,5.602,4.627,9.418,5.098
	c0.37-4.077-0.863-8.088-2.053-10.881c1.513,2.593,3.767,5.722,6.234,6.617c0.416-5.204-0.337-9.035-1.274-11.656
	c1.178,0.787,2.819,1.492,5.1,1.891c0.136-7.481-0.978-10.665-1.859-12.008c-0.542-0.275-1.046-0.572-1.513-0.887
	c-5.156-3.471-5.846-9.095-5.773-12.274C161.447,183.835,159.128,184.711,156.577,185.143"/>
<path style="fill-rule:evenodd;clip-rule:evenodd;fill:#3D054F;" d="M197.084,201.319c-4.19-3.013-6.676-5.319-6.676-5.319
	s3.686,5.763,11.403,11.806C200.207,205.523,198.509,203.219,197.084,201.319"/>
<path style="fill-rule:evenodd;clip-rule:evenodd;fill:#3D054F;" d="M212.686,190.556c0,0,6.075,10.099,16.587,18.111
	c-0.539-1.615-1.131-3.022-1.641-4.117C219.008,198.121,212.686,190.556,212.686,190.556"/>
<path style="fill-rule:evenodd;clip-rule:evenodd;fill:#3D054F;" d="M224.837,158.72c-7.182,0.721-13.473,0.18-18.891-1.066
	c-1.062,0.773-2.166,1.402-3.293,1.906c-5.328,2.386-11.176,2.009-15.519,1.117c0.461,0.322,0.954,0.695,1.474,1.126
	c0,0,0.895,0.507,2.527,1.39c0.351,0.19,0.737,0.397,1.155,0.62c2.65-0.233,11.453-1.134,15.848-3.098
	c4.854,0.743,10.483,0.917,16.995,0.23c0.497-0.053,0.337-1.003,0.07-2.109C224.962,158.76,224.837,158.72,224.837,158.72"/>
<path style="fill-rule:evenodd;clip-rule:evenodd;fill:#CCBF05;" d="M163.474,182.437c0,0-2.947,13.402,8.386,15.913
	c-0.203-0.804-0.428-1.436-0.654-1.932c-0.151-0.33-0.301-0.6-0.446-0.82c-0.542-0.275-1.046-0.572-1.513-0.887
	C164.09,191.24,163.4,185.616,163.474,182.437"/>
<path style="fill:none;stroke:#000000;stroke-width:2.0001;stroke-linecap:round;stroke-linejoin:round;stroke-miterlimit:22.9256;" d="
	M225.709,138.066c6.931,1.121,14.247,1.593,20.932,0.622c6.16-0.895,6.992-3.958,7.672-5.343c0.448-0.912,0.087-1.746-0.83-2.476
	c16.912,1.107,38.726-0.421,44.55-14.459c-7.745,0.865-17.316,1.042-27.045,0.854c22.274-4.237,29.956-15.917,29.956-15.917
	s-59.75-1.284-91.468,0.512c28.972-7.638,42.227-29.88,42.227-29.88c-2.683,2.943-26.377,10.975-47.811,18.149
	c-9.912,3.317-19.341,6.451-25.986,8.813c-21.012,7.468-10.472,17.753-6.835,42.785c3.385,23.302-0.123,35.557-7.597,40.712
	c-0.073,3.179,0.616,8.803,5.773,12.274c0.193-0.408,0.36-0.815,0.503-1.221c0.837-2.364,0.891-4.667,0.69-6.504
	c1.775,1.629,4.846,3.699,9.166,3.93c-0.066-2.986-1.203-5.895-2.025-7.623c2.695,0.455,7.979,1.085,11.765-0.119
	c-1.16-3.024-3.573-5.047-4.882-5.969c0,0,9.868,5.502,15.565,0.312c-4.225-8.45-8.306-13.13-11.42-15.714
	c-0.52-0.431-1.012-0.804-1.474-1.126c5.263,1.081,12.733,1.405,18.813-3.024c5.418,1.245,11.708,1.787,18.891,1.066
	c-2.014-2.648-5.654-5.142-8.305-6.744c2.908-0.001,6.074-0.257,9.507-0.851c-4.22-4.578-9.41-7.418-13.127-9.022
	c2.748,0.444,5.633,0.704,8.57,0.667C230.554,142.66,228.324,140.057,225.709,138.066z"/>
<path style="fill-rule:evenodd;clip-rule:evenodd;fill:#F2EB40;" d="M225.709,138.066c6.931,1.121,14.247,1.593,20.932,0.622
	c6.16-0.895,6.992-3.958,7.672-5.343c0.448-0.912,0.087-1.746-0.83-2.476c16.912,1.107,38.726-0.421,44.55-14.459
	c-7.745,0.865-17.316,1.042-27.045,0.854c22.274-4.237,29.956-15.917,29.956-15.917s-59.75-1.284-91.468,0.512
	c28.972-7.638,42.227-29.88,42.227-29.88c-2.683,2.943-26.377,10.975-47.811,18.149c-9.912,3.317-19.341,6.451-25.986,8.813
	c-21.012,7.468-10.472,17.753-6.835,42.785c3.385,23.302-0.123,35.557-7.597,40.712c-0.073,3.179,0.616,8.803,5.773,12.274
	c0.193-0.408,0.36-0.815,0.503-1.221c0.837-2.364,0.891-4.667,0.69-6.504c1.775,1.629,4.846,3.699,9.166,3.93
	c-0.066-2.986-1.203-5.895-2.025-7.623c2.695,0.455,7.979,1.085,11.765-0.119c-1.16-3.024-3.573-5.047-4.882-5.969
	c0,0,9.868,5.502,15.565,0.312c-4.225-8.45-8.306-13.13-11.42-15.714c-0.52-0.431-1.012-0.804-1.474-1.126
	c5.263,1.081,12.733,1.405,18.813-3.024c5.418,1.245,11.708,1.787,18.891,1.066c-2.014-2.648-5.654-5.142-8.305-6.744
	c2.908-0.001,6.074-0.257,9.507-0.851c-4.22-4.578-9.41-7.418-13.127-9.022c2.748,0.444,5.633,0.704,8.57,0.667
	C230.554,142.66,228.324,140.057,225.709,138.066"/>
<path style="fill-rule:evenodd;clip-rule:evenodd;fill:#CCBF05;" d="M232.337,128.056c0,0,10.366,5.245,21.423,6.459
	c0.234-0.447,0.397-0.852,0.553-1.169c0.448-0.912,0.087-1.746-0.83-2.476C241.725,130.099,232.337,128.056,232.337,128.056"/>
<path style="fill-rule:evenodd;clip-rule:evenodd;fill:#CCBF05;" d="M225.709,138.066c-15.644-2.53-29.321-8.365-29.321-8.365
	s15.454,7.593,31.59,11.421C228.227,140.209,227.016,139.061,225.709,138.066"/>
<path style="fill-rule:evenodd;clip-rule:evenodd;fill:#CCBF05;" d="M212.913,142.103c-11.822-1.91-21.113-7.244-21.113-7.244
	s9.066,8.553,26.003,9.723C216.044,143.547,214.366,142.731,212.913,142.103"/>
<path style="fill-rule:evenodd;clip-rule:evenodd;fill:#CCBF05;" d="M216.532,151.976c-18.163,0.005-26.252-9.965-26.252-9.965
	s9.455,14.665,29.42,12.038C218.597,153.263,217.499,152.56,216.532,151.976"/>
<path style="fill-rule:evenodd;clip-rule:evenodd;fill:#CCBF05;" d="M202.653,159.561c1.127-0.505,2.231-1.133,3.293-1.906
	c-17.401-4.001-25.793-15.263-25.793-15.263S185.206,154.811,202.653,159.561"/>
<path style="fill-rule:evenodd;clip-rule:evenodd;fill:#CCBF05;" d="M285.66,112.725c-19.373,3.657-64.589,1.28-64.589,1.28
	s25.46,2.786,49.916,3.259C276.846,116.15,281.694,114.521,285.66,112.725"/>
<path d="M75.455,282.656c-0.517,0.064-1.563,0.115-2.57,1.359c-0.122,0.149,0.009,0.371,0.201,0.345
	c-0.274-0.059,1.816-0.04,2.953,0.173c0.169,0.037,0.308-0.133,0.241-0.294l0.139-1.527
	C76.382,282.623,75.552,282.643,75.455,282.656"/>
<path d="M78.654,285.572c-0.724,0.175-3,0.857-4.232,2.78c-0.148,0.232,0.072,0.526,0.34,0.461c1.161-0.29,3.532-0.816,5.018-0.665
	c0.247,0.025,0.418-0.237,0.296-0.455l-1.083-1.968C78.925,285.602,78.789,285.54,78.654,285.572"/>
<path style="fill:none;stroke:#000000;stroke-width:2.0001;stroke-linecap:round;stroke-linejoin:round;stroke-miterlimit:22.9256;" d="
	M76.985,281.771c-0.48,1.335-0.607,3.476,1.544,3.41c0,0-0.927,4.293,4.506,2.183c7.028-2.182,15.502-6.216,23.15-6.516
	c8.866-0.348,10.439,1.011,12.077-0.445c1.639-1.457,1.612-3.907-2.7-3.116c-4.311,0.791-10.535,1.189-9.262-2.633
	c0.747-2.239,3.247-10.522,5.191-17.004c-2.008-0.737-2.65-1.316-4.637-2.28l-5.466,22.344
	C91.512,280.763,78.083,278.714,76.985,281.771z"/>
<path style="fill:#BA8C17;" d="M76.985,281.771c-0.48,1.335-0.607,3.476,1.544,3.41c0,0-0.927,4.293,4.506,2.183
	c7.028-2.182,15.502-6.216,23.15-6.516c8.866-0.348,10.439,1.011,12.077-0.445c1.639-1.457,1.612-3.907-2.7-3.116
	c-4.311,0.791-10.535,1.189-9.262-2.633c0.747-2.239,3.247-10.522,5.191-17.004c-2.008-0.737-2.65-1.316-4.637-2.28l-5.466,22.344
	C91.512,280.763,78.083,278.714,76.985,281.771"/>
<path d="M119.22,277.889c0.587-0.142,1.505-0.401,3.106,0.529c0.193,0.114,0.142,0.408-0.075,0.458
	c-0.944,0.221-1.876,0.63-2.891,1.287c-0.17,0.109-0.389-0.018-0.384-0.218l0.055-1.821
	C119.035,278.012,119.111,277.917,119.22,277.889"/>
<path style="fill-rule:evenodd;clip-rule:evenodd;fill:#F2BA29;" d="M78.139,281.545c0.276,0.434,2.082-0.113,4.214-0.869
	C84.486,279.921,78.328,279.971,78.139,281.545"/>
<path style="fill-rule:evenodd;clip-rule:evenodd;fill:#F2BA29;" d="M78.653,284.924c-0.127-0.516,1.759-1.59,4.532-2.198
	c2.772-0.608,3.28-0.71,3.28-0.71S79.003,286.347,78.653,284.924"/>
<path d="M116.883,314.27c-0.453,0.931-1.453,3.39-0.868,5.945c0.116,0.51,0.824,0.585,1.061,0.118
	c0.709-1.4,1.949-3.655,3.165-4.933c0.306-0.322,0.129-0.855-0.307-0.943l-2.424-0.495
	C117.254,313.912,116.997,314.036,116.883,314.27"/>
<path d="M107.384,310.4c-0.533,0.568-2.131,2.466-2.105,4.854c0.003,0.287,0.365,0.418,0.56,0.207
	c0.848-0.918,2.619-2.736,4.004-3.455c0.23-0.121,0.228-0.447-0.002-0.568l-2.074-1.099
	C107.64,310.271,107.483,310.294,107.384,310.4"/>
<path style="fill:none;stroke:#000000;stroke-width:2.0001;stroke-linecap:round;stroke-linejoin:round;stroke-miterlimit:22.9256;" d="
	M128.139,294.009c0,0-0.1,2.406-4.409,4.794c-2.817,1.559-21.581,10.039-14.787,13.408c1.979,0.981,9.68-7.849,15.231-10.096
	c0,0-11.876,12.94-6.015,14.551c1.644,0.452,3.272-3.67,6.171-8.411c2.349-3.841,5.806-8.077,8.611-10.717
	c2.842-2.674,5.744-4.178,9.654-6.593c4.566-2.19,1.807-3.68,1.807-3.68c-2.645-1.165-5.931,2.323-8.383,4.597l-3.612,2.565
	c0.857-4.811,2.092-32.392,0.967-36.402l-1.385,0.865l-1.171-0.79l-0.965,1.046l-0.838-0.152
	C129.343,271.603,130.233,281.66,128.139,294.009z"/>
<path style="fill:#BA8C17;" d="M128.139,294.009c0,0-0.1,2.406-4.409,4.794c-2.817,1.559-21.581,10.039-14.787,13.408
	c1.979,0.981,9.68-7.849,15.231-10.096c0,0-11.876,12.94-6.015,14.551c1.644,0.452,3.272-3.67,6.171-8.411
	c2.349-3.841,5.806-8.077,8.611-10.717c2.842-2.674,5.744-4.178,9.654-6.593c4.566-2.19,1.807-3.68,1.807-3.68
	c-2.645-1.165-5.931,2.323-8.383,4.597l-3.612,2.565c0.857-4.811,2.092-32.392,0.967-36.402l-1.385,0.865l-1.171-0.79l-0.965,1.046
	l-0.838-0.152C129.343,271.603,130.233,281.66,128.139,294.009"/>
<path d="M142.489,287.607c1.338-1.202,3.031-2.43,4.971-3.206c0.644-0.263,1.035,0.155,0.593,0.636
	c-0.932,1.017-2.305,2.577-3.555,4.233c-0.143-0.263-0.408-0.502-0.895-0.721C142.851,288.508,143.028,287.744,142.489,287.607"/>
<path style="fill-rule:evenodd;clip-rule:evenodd;fill:#F2BA29;" d="M119.192,309.966c-1.04,0.802-2.698,4.624-1.437,4.717
	c1.261,0.093,0.876-0.944,1.036-2.161C118.951,311.305,119.896,309.77,119.192,309.966"/>
<path style="fill-rule:evenodd;clip-rule:evenodd;fill:#F2BA29;" d="M109.519,307.918c-0.402,0.813,0.123,1.288,1.191,0.426
	c1.069-0.862,5.873-4.585,5.873-4.585S112.009,305.563,109.519,307.918"/>
<path style="fill-rule:evenodd;clip-rule:evenodd;fill:#8A6608;" d="M129.053,260.401c1.74-0.622,3.154,0.45,3.58,4.238
	c0.038,0.339,0.065,0.748,0.083,1.22c0.284,7.535-1.924,30.866-3.425,32.653c-1.595,1.899-7.215,7.898-8.734,13.443
	c-0.699,2.552-1.582,3.479-2.331,3.737c-0.878,0.302-1.573-0.316-1.572-0.316c0.204,0.61,0.678,1.062,1.505,1.29
	c0.049,0.014,0.098,0.023,0.147,0.029c1.595,0.178,3.212-3.84,6.024-8.439c2.349-3.841,5.806-8.077,8.611-10.717
	c2.842-2.674,5.744-4.178,9.654-6.593c4.566-2.19,1.807-3.68,1.807-3.68c-2.645-1.165-5.931,2.323-8.383,4.597l-3.612,2.565
	c0.611-3.428,1.414-18.42,1.417-28.205c0.001-3.946-0.127-7.045-0.451-8.197l-1.385,0.865l-1.171-0.79l-0.965,1.046l-0.838-0.152
	C129.026,259.466,129.039,259.935,129.053,260.401"/>
<path style="fill-rule:evenodd;clip-rule:evenodd;fill:#8A6608;" d="M88.019,281.143c-8.345,2.036-10.779,3.194-11.32,1.998
	c-0.064,1.086,0.323,2.086,1.831,2.039C77.848,283.386,86.591,281.53,88.019,281.143"/>
<path style="fill-rule:evenodd;clip-rule:evenodd;fill:#8A6608;" d="M105.793,259.707c2.827,0.439,2.871,2.331,2.47,4.835
	c-0.618,3.848-3.018,9.248-3.645,13.848c-0.228,1.671-3.266,1.519-6.949,2.392c-3.684,0.874-12,4.595-14.81,5.696
	c-1.866,0.731-3.424,0.488-4.26,0.242c0.317,0.973,1.351,1.841,4.437,0.642c7.028-2.182,15.502-6.216,23.15-6.516
	c8.866-0.348,10.439,1.011,12.077-0.445c0.307-0.273,0.556-0.581,0.729-0.896l0.041-1.382c0.002-0.071,0.032-0.135,0.082-0.179
	c-0.371-0.662-1.455-1.044-3.552-0.659c-4.311,0.791-10.535,1.189-9.262-2.633c0.747-2.239,3.247-10.522,5.191-17.004
	c-2.006-0.737-2.649-1.314-4.629-2.276c-0.003-0.001-0.005-0.003-0.008-0.004L105.793,259.707z M106.862,255.373
	c-0.003-0.001-0.005-0.003-0.008-0.004C106.857,255.371,106.859,255.372,106.862,255.373z"/>
<path style="fill-rule:evenodd;clip-rule:evenodd;fill:#FFFFFF;" d="M52.328,178.745c-1.879,0.028-3.702,0.133-5.462,0.318
	c-0.824,1.696-1.454,3.566-1.85,5.776c-1.807,10.079-0.414,9.171-0.27,14.338c0,0,2.695-10.518,5.528-16.575
	C50.89,181.286,51.588,180.001,52.328,178.745"/>
<path style="fill:none;stroke:#000000;stroke-width:2.0001;stroke-linecap:round;stroke-linejoin:round;stroke-miterlimit:22.9256;" d="
	M163.416,275.528c9.601,9.193,63.937,50.214,72.312,54.745c7.486,4.05,34.637,3.833,14.539-15.892
	c-15.532-3.517-38.464-14.544-61.317-28.843c-20.217-12.65-27.32-22.802-29.63-29.351
	C159.32,256.187,153.815,266.336,163.416,275.528z"/>
<path style="fill-rule:evenodd;clip-rule:evenodd;fill:#CCBF05;" d="M163.416,275.528c9.601,9.193,63.937,50.214,72.312,54.745
	c7.486,4.05,34.637,3.833,14.539-15.892c-15.532-3.517-38.464-14.544-61.317-28.843c-20.217-12.65-27.32-22.802-29.63-29.351
	C159.32,256.187,153.815,266.336,163.416,275.528"/>
<path style="fill:none;stroke:#000000;stroke-width:2.0001;stroke-linecap:round;stroke-linejoin:round;stroke-miterlimit:22.9256;" d="
	M188.95,285.538c22.853,14.299,45.786,25.327,61.317,28.843c9.319,2.11,15.974,1.517,18.348-2.697
	c6.332-11.235-25.534-26.147-45.162-32.405c-19.627-6.258-64.736-31.328-64.736-31.328s-1.266,2.94,0.602,8.235
	C161.63,262.736,168.732,272.888,188.95,285.538z"/>
<path style="fill-rule:evenodd;clip-rule:evenodd;fill:#F2EB40;" d="M188.95,285.538c22.853,14.299,45.786,25.327,61.317,28.843
	c9.319,2.11,15.974,1.517,18.348-2.697c6.332-11.235-25.534-26.147-45.162-32.405c-19.627-6.258-64.736-31.328-64.736-31.328
	s-1.266,2.94,0.602,8.235C161.63,262.736,168.732,272.888,188.95,285.538"/>
<path style="fill:none;stroke:#000000;stroke-width:2.0001;stroke-linecap:round;stroke-linejoin:round;stroke-miterlimit:22.9256;" d="
	M61.976,184.989c26.102,1.726,30.158-20.682,52.988-16.051c-6.518-13.264-12.232-19.515-13.039-35.726
	c-1.372,0.916-2.817,1.751-4.332,2.5c-5.156,2.546-11.129,4.088-17.844,4.431c-5.19,0.264-9.682-0.215-13.548-1.329
	c-0.241,0.011-0.4,0.032-0.47,0.065c0,0.883-0.123,2.578-0.75,5.048c-0.075,0.297-0.158,0.605-0.248,0.924
	c-0.31,1.093-0.712,2.316-1.234,3.668c-2.247,5.82-6.706,14.019-15.488,24.4c-2.019,2.388-3.585,4.811-4.737,7.259
	C46.144,183.062,54.604,184.501,61.976,184.989z"/>
<path style="fill-rule:evenodd;clip-rule:evenodd;fill:#572163;" d="M61.976,184.989c26.102,1.726,30.158-20.682,52.988-16.051
	c-6.518-13.264-12.232-19.515-13.039-35.726c-1.372,0.916-2.817,1.751-4.332,2.5c-5.156,2.546-11.129,4.088-17.844,4.431
	c-5.19,0.264-9.682-0.215-13.548-1.329c-0.241,0.011-0.4,0.032-0.47,0.065c0,0.883-0.123,2.578-0.75,5.048
	c-0.075,0.297-0.158,0.605-0.248,0.924c-0.31,1.093-0.712,2.316-1.234,3.668c-2.247,5.82-6.706,14.019-15.488,24.4
	c-2.019,2.388-3.585,4.811-4.737,7.259C46.144,183.062,54.604,184.501,61.976,184.989"/>
<path style="fill-rule:evenodd;clip-rule:evenodd;fill:#3D054F;" d="M102.029,166.467c0.366,0.841,0.944,1.611,1.689,2.318
	c2.749-0.702,7.436-0.873,11.75,0.31c-6.451-10.48-12.885-22.679-13.542-35.883c-1.372,0.916-2.817,1.751-4.332,2.5
	c-5.156,2.546-11.129,4.088-17.844,4.431c-5.19,0.264-9.682-0.215-13.548-1.329c-0.241,0.011-0.4,0.032-0.47,0.065
	c0,0.883-0.123,2.578-0.75,5.048c11.86,6.159,23.616,2.596,32.612,14.673C99.16,160.703,100.643,163.281,102.029,166.467"/>
<path style="fill:none;stroke:#000000;stroke-width:2.0001;stroke-linecap:round;stroke-linejoin:round;stroke-miterlimit:22.9256;" d="
	M119.575,95.375c-0.258-1.057-0.588-2.128-0.987-3.2c-4.256-11.431-16.624-23.214-36.974-23.26
	c-12.55-0.023-25.497,7.441-31.991,18.801c-1.292,2.261-2.323,4.669-3.051,7.214c-0.188,0.641-0.352,1.298-0.485,1.955
	c-0.469,2.137-0.719,4.35-0.719,6.635c0,10.015,1.589,19.033,5.562,25.919c1.308,2.262,2.873,4.288,4.718,6.04
	c5.43,5.163,13.324,7.98,24.402,7.418c21.218-1.081,35.019-14.145,39.079-32.985l0.016-0.094c0.258-1.189,0.469-2.402,0.649-3.637
	c0.148-1.064,0.274-2.152,0.367-3.255c0.024-0.228,0.038-0.453,0.054-0.68C120.372,100.1,120.161,97.768,119.575,95.375z"/>
<path style="fill:#A31C21;" d="M119.575,95.375c-0.258-1.057-0.588-2.128-0.987-3.2c-4.256-11.431-16.624-23.214-36.974-23.26
	c-12.55-0.023-25.497,7.441-31.991,18.801c-1.292,2.261-2.323,4.669-3.051,7.214c-0.188,0.641-0.352,1.298-0.485,1.955
	c-0.469,2.137-0.719,4.35-0.719,6.635c0,10.015,1.589,19.033,5.562,25.919c1.308,2.262,2.873,4.288,4.718,6.04
	c5.43,5.163,13.324,7.98,24.402,7.418c21.218-1.081,35.019-14.145,39.079-32.985l0.016-0.094c0.258-1.189,0.469-2.402,0.649-3.637
	c0.148-1.064,0.274-2.152,0.367-3.255c0.024-0.228,0.038-0.453,0.054-0.68C120.372,100.1,120.161,97.768,119.575,95.375"/>
<path style="fill:none;stroke:#000000;stroke-width:0.5669;stroke-miterlimit:22.9256;" d="M77.16,69.214
	c0,0,4.667,8.144,13.043,13.659c8.375,5.515,15.524,17.159,13.073,25.33c-2.451,8.171-6.323,25.785-4.182,29.643
	c2.14,3.857-6.238-1.975-16.18-1.621c-9.942,0.354-27.029-3.101-31.523-14.745c-4.494-11.644,2.86-4.494,2.86-4.494
	s3.268,14.503,20.427,13.686c17.159-0.817,18.793-3.882,20.836-9.805c2.042-5.924,4.903-24.309,0.817-29.415
	c-4.086-5.107-6.128-8.579-6.128-8.579"/>
<path style="fill:none;stroke:#000000;stroke-width:2.0001;stroke-linecap:round;stroke-linejoin:round;stroke-miterlimit:22.9256;" d="
	M83.616,117.197c7.517,0,13.705-5.69,14.491-12.999c0.026-1.232,0.011-2.432-0.052-3.574c-0.464-3.381-2.087-6.393-4.455-8.621
	c-3.279,4.724-17.523,8.961-24.555,10.233c-0.003,0.128-0.005,0.257-0.005,0.386C69.04,110.671,75.566,117.197,83.616,117.197z"/>
<path style="fill-rule:evenodd;clip-rule:evenodd;fill:#FFFFFF;" d="M83.616,117.197c7.517,0,13.705-5.69,14.491-12.999
	c0.026-1.232,0.011-2.432-0.052-3.574c-0.464-3.381-2.087-6.393-4.455-8.621c-3.279,4.724-17.523,8.961-24.555,10.233
	c-0.003,0.128-0.005,0.257-0.005,0.386C69.04,110.671,75.566,117.197,83.616,117.197"/>
<path style="fill:none;stroke:#000000;stroke-width:0.5669;stroke-miterlimit:22.9256;" d="M119.792,96.341
	c0,0,1.357,13.494-4.669,28.61c-6.026,15.116-7.762,23.185-6.128,29.517c1.634,6.333,5.494,13.021,5.494,13.021
	s-12.03-11.592-14.277-18.333c-2.247-6.741-23.942-4.788-35.054-8.011"/>
<path style="fill:none;stroke:#000000;stroke-width:2.0001;stroke-linecap:round;stroke-linejoin:round;stroke-miterlimit:22.9256;" d="
	M108.995,154.468c-1.634-6.332,0.102-14.401,6.128-29.517c0.546-1.37,1.032-2.726,1.463-4.061c-0.12-0.605-0.255-1.207-0.405-1.806
	c-1.435-5.756-4.129-11.052-6.471-12.925c-3.575-2.86-3.371-7.048-3.268-10.418c0.102-3.37-2.86-5.209-5.107-6.843
	c-2.247-1.634,3.575-0.204,3.575-0.204s-3.575-10.622-8.886-14.504c-2.248-1.643-2.191-2.736-1.376-3.452
	c-3.902-1.152-8.247-1.813-13.033-1.823c-1.483-0.003-2.972,0.099-4.455,0.299c0,0,0.441,0.77,1.296,1.997
	c1.741,2.089,3.482,4.177,5.222,6.266c1.822,1.841,4.006,3.738,6.524,5.396c8.375,5.515,15.524,17.159,13.073,25.33
	c-1.906,6.353-5.397,20.546-12.395,22.522c-8.127,2.294-18.079,2.524-23.589,3.372c-6.937-2.156-13.388-6.106-15.901-12.617
	c-0.222-0.577-0.416-1.108-0.583-1.596l-4.647-2.022c0.893,4.379,2.779,8.123,4.77,11.574c1.308,2.262,2.873,4.288,4.718,6.04
	c2.585,2.459,5.73,4.385,9.511,5.668c3.162,0.917,7.181,1.415,11.366,1.814c10.519,1.002,22.081,1.375,23.688,6.197
	c2.247,6.741,14.277,18.333,14.277,18.333S110.629,160.801,108.995,154.468z"/>
<path style="fill-rule:evenodd;clip-rule:evenodd;fill:#00B0D9;" d="M108.995,154.468c-1.634-6.332,0.102-14.401,6.128-29.517
	c0.546-1.37,1.032-2.726,1.463-4.061c-0.12-0.605-0.255-1.207-0.405-1.806c-1.435-5.756-4.129-11.052-6.471-12.925
	c-3.575-2.86-3.371-7.048-3.268-10.418c0.102-3.37-2.86-5.209-5.107-6.843c-2.247-1.634,3.575-0.204,3.575-0.204
	s-3.575-10.622-8.886-14.504c-2.248-1.643-2.191-2.736-1.376-3.452c-3.902-1.152-8.247-1.813-13.033-1.823
	c-1.483-0.003-2.972,0.099-4.455,0.299c0,0,0.441,0.77,1.296,1.997c1.741,2.089,3.482,4.177,5.222,6.266
	c1.822,1.841,4.006,3.738,6.524,5.396c8.375,5.515,15.524,17.159,13.073,25.33c-1.906,6.353-5.397,20.546-12.395,22.522
	c-8.127,2.294-18.079,2.524-23.589,3.372c-6.937-2.156-13.388-6.106-15.901-12.617c-0.222-0.577-0.416-1.108-0.583-1.596
	l-4.647-2.022c0.893,4.379,2.779,8.123,4.77,11.574c1.308,2.262,2.873,4.288,4.718,6.04c2.585,2.459,5.73,4.385,9.511,5.668
	c3.162,0.917,7.181,1.415,11.366,1.814c10.519,1.002,22.081,1.375,23.688,6.197c2.247,6.741,14.277,18.333,14.277,18.333
	S110.629,160.801,108.995,154.468"/>
<path style="fill:none;stroke:#000000;stroke-width:2.0001;stroke-linecap:round;stroke-linejoin:round;stroke-miterlimit:22.9256;" d="
	M92.048,93.619c1.963,2.156,3.159,5.022,3.159,8.167c0,6.703-5.434,12.137-12.137,12.137c-6.678,0-12.097-5.395-12.136-12.064
	C77.427,100.46,87.581,97.288,92.048,93.619z"/>
<path style="fill-rule:evenodd;clip-rule:evenodd;fill:#EDB01F;" d="M92.048,93.619c1.963,2.156,3.159,5.022,3.159,8.167
	c0,6.703-5.434,12.137-12.137,12.137c-6.678,0-12.097-5.395-12.136-12.064C77.427,100.46,87.581,97.288,92.048,93.619"/>
<path style="fill-rule:evenodd;clip-rule:evenodd;" d="M94.687,90.024c-1.169,6.329-22.691,12.288-26.521,12.186
	c-3.83-0.102-3.575-4.954-3.575-4.954l1.635-0.255c0,0-0.204,4.903,5.975,3.422C78.379,98.941,88.426,95.014,94.687,90.024"/>
<path style="fill-rule:evenodd;clip-rule:evenodd;" d="M88.969,95.637c1.017,1.449,1.615,3.215,1.615,5.12
	c0,4.928-3.995,8.922-8.923,8.922c-4.698,0-8.548-3.63-8.897-8.239C77.867,100.209,84.437,98.116,88.969,95.637"/>
<path style="fill-rule:evenodd;clip-rule:evenodd;fill:#FFFFFF;" d="M77.845,101.389c-0.107-0.05-3.419,0.345-3.443,1.833
	c-0.016,0.949,0.49,1.196,1.445,1.498c1.027,0.325,2.382,0.354,3.281-0.267c0.613-0.423,1.05-0.876,0.611-1.594
	c-0.414-0.677-1.386-0.818-1.578-1.153C78.089,101.58,77.951,101.439,77.845,101.389"/>
<path style="fill-rule:evenodd;clip-rule:evenodd;fill:#FFFFFF;" d="M83.778,103.895l-0.117,0.092
	c-0.181,0.143-0.563,1.606,0.023,1.868c0.411,0.184,1.513,0.342,1.555-0.307c0.046-0.706,0.041-1.471-0.698-1.779
	c-0.337-0.14-0.55,0.06-0.657,0.077C83.851,103.902,83.825,103.858,83.778,103.895"/>
<path style="fill-rule:evenodd;clip-rule:evenodd;fill:#0085A6;" d="M76.988,142.833C76.216,142.835,76.478,142.832,76.988,142.833
	 M115.963,118.247c-0.94-3.449-2.311-6.678-3.758-9.03c-2.024,7.909-6.926,15.06-13.412,20.017c-0.033,0.277-0.062,0.55-0.09,0.82
	h-1.033c-2.836,2.002-5.943,3.595-9.226,4.662c-13.763,4.473-41.674,2.194-43.11-22.29c0.735,6.389,2.34,12.139,5.075,16.878
	c1.308,2.262,2.873,4.289,4.718,6.04c4.661,4.433,11.139,7.136,19.888,7.456l-0.139-0.005c0.546,0.057,1.096,0.111,1.649,0.164
	c10.519,1.002,22.081,1.375,23.688,6.197c2.247,6.741,14.277,18.333,14.277,18.333s-3.859-6.689-5.494-13.021
	c-1.634-6.332,0.102-14.401,6.128-29.517c0.546-1.37,1.032-2.726,1.463-4.061c-0.12-0.605-0.255-1.207-0.405-1.806
	C116.112,118.804,116.039,118.525,115.963,118.247z"/>
<path style="fill-rule:evenodd;clip-rule:evenodd;" d="M99.093,137.846c-2.14-3.857,1.731-21.472,4.182-29.643
	c2.451-8.171-4.698-19.814-13.073-25.33c0,0,2.042,3.473,6.128,8.579c4.086,5.107,1.225,23.491-0.817,29.415
	c-2.043,5.924-3.677,8.988-20.836,9.805c-17.159,0.817-20.427-13.686-20.427-13.686s-7.354-7.15-2.86,4.494
	c4.494,11.644,21.581,15.099,31.523,14.745c5.934-0.212,11.31,1.781,14.226,2.601C98.428,139.315,99.054,138.956,99.093,137.846z"/>
<path style="fill:none;stroke:#2B2929;stroke-width:0.5669;stroke-miterlimit:22.9256;" d="M99.093,137.846
	c-2.14-3.857,1.731-21.472,4.182-29.643c2.451-8.171-4.698-19.814-13.073-25.33c0,0,2.042,3.473,6.128,8.579
	c4.086,5.107,1.225,23.491-0.817,29.415c-2.043,5.924-3.677,8.988-20.836,9.805c-17.159,0.817-20.427-13.686-20.427-13.686
	s-7.354-7.15-2.86,4.494c4.494,11.644,21.581,15.099,31.523,14.745c5.934-0.212,11.31,1.781,14.226,2.601
	C98.428,139.315,99.054,138.956,99.093,137.846z"/>
<path style="fill-rule:evenodd;clip-rule:evenodd;fill:#FA696B;" d="M78.327,73.103c-3.141-3.704-14.804,2.331-20.756,8.891
	c-5.951,6.56-3.615,8.477-3.615,8.477c0.107,0.099,9.136-9.96,18.607-12.218C80.897,76.267,81.468,76.806,78.327,73.103"/>
<path style="fill:none;stroke:#000000;stroke-width:2.0001;stroke-linecap:round;stroke-linejoin:round;stroke-miterlimit:22.9256;" d="
	M59.996,122.079c-8.808-0.992-13.33,1.349-15.568,3.468c0,0,4.335,6.1,11.569,5.39C55.996,130.937,58.873,130.283,59.996,122.079z"
	/>
<path style="fill-rule:evenodd;clip-rule:evenodd;" d="M59.996,122.079c-8.808-0.992-13.33,1.349-15.568,3.468
	c0,0,4.335,6.1,11.569,5.39C55.996,130.937,58.873,130.283,59.996,122.079"/>
<path style="fill:none;stroke:#000000;stroke-width:2.0001;stroke-linecap:round;stroke-linejoin:round;stroke-miterlimit:22.9256;" d="
	M50.876,89.636c-18.079,4.38-24.417,26.125-8.478,38.815c0,0,0.435-1.396,2.029-2.904c2.238-2.119,6.76-4.459,15.568-3.468
	c0.342-2.496,0.522-5.69,0.409-9.777C60.079,100.534,55.493,93.028,50.876,89.636z"/>
<path style="fill-rule:evenodd;clip-rule:evenodd;fill:#383838;" d="M50.876,89.636c-18.079,4.38-24.417,26.125-8.478,38.815
	c0,0,0.435-1.396,2.029-2.904c2.238-2.119,6.76-4.459,15.568-3.468c0.342-2.496,0.522-5.69,0.409-9.777
	C60.079,100.534,55.493,93.028,50.876,89.636"/>
<path style="fill-rule:evenodd;clip-rule:evenodd;" d="M50.455,112.631c-3.216,3.002-7.274,5.143-9.375,8.262
	c-1.04,1.544-2.129,2.485-3.219,2.984c1.242,1.614,2.749,3.151,4.537,4.574c0,0,0.435-1.396,2.029-2.904
	c1.486-1.407,3.981-2.913,8.07-3.474c0.097-0.013,0.195-0.026,0.294-0.038c2.006-0.249,4.386-0.273,7.205,0.045
	c0.342-2.496,0.522-5.69,0.409-9.777c-0.313-11.33-4.576-18.71-9.013-22.271c6.366,12.478,3.583,18.348-0.864,22.533
	C50.503,112.587,50.479,112.609,50.455,112.631"/>
<path style="fill-rule:evenodd;clip-rule:evenodd;fill:#575757;" d="M36.639,108.7c0,0,0.081-8.72,4.764-10.658
	C46.087,96.104,42.696,101.756,36.639,108.7"/>
<path style="fill:none;stroke:#000000;stroke-width:2.0001;stroke-linecap:round;stroke-linejoin:round;stroke-miterlimit:22.9256;" d="
	M119.575,95.375c-2.952-12.088-13.227-21.181-24.927-24.636c-0.814,0.715-0.872,1.809,1.376,3.452
	c5.311,3.882,8.886,14.504,8.886,14.504s-5.822-1.43-3.575,0.204c2.247,1.634,5.209,3.473,5.107,6.843
	c-0.102,3.37,0.309,8.051,3.268,10.418c2.959,2.367,5.441,8.975,6.876,14.731C118.837,115.779,120.771,100.268,119.575,95.375z"/>
<path style="fill-rule:evenodd;clip-rule:evenodd;fill:#63BD47;" d="M119.575,95.375c-2.952-12.088-13.227-21.181-24.927-24.636
	c-0.814,0.715-0.872,1.809,1.376,3.452c5.311,3.882,8.886,14.504,8.886,14.504s-5.822-1.43-3.575,0.204
	c2.247,1.634,5.209,3.473,5.107,6.843c-0.102,3.37,0.309,8.051,3.268,10.418c2.959,2.367,5.441,8.975,6.876,14.731
	C118.837,115.779,120.771,100.268,119.575,95.375"/>
<path style="fill-rule:evenodd;clip-rule:evenodd;fill:#2B8A1A;" d="M119.575,95.375c-2.839-11.622-12.447-20.476-23.583-24.211
	c15.185,11.062,19.101,25.387,16.189,38.052c1.856,3.121,3.392,7.61,4.405,11.674C118.837,115.779,120.771,100.268,119.575,95.375"
	/>
<path style="fill-rule:evenodd;clip-rule:evenodd;fill:#854096;" d="M49.979,183.249l-4.215-1.44c0,0,5.447-11.978,11.575-12.898
	C63.467,167.992,50.177,177.671,49.979,183.249"/>
</svg>
