<?xml version="1.0" encoding="iso-8859-1"?>
<!-- Generator: Adobe Illustrator 22.0.1, SVG Export Plug-In . SVG Version: 6.00 Build 0)  -->
<svg version="1.1" id="&#x421;&#x43B;&#x43E;&#x439;_1"
	 xmlns="http://www.w3.org/2000/svg" xmlns:xlink="http://www.w3.org/1999/xlink" x="0px" y="0px" viewBox="0 0 340 366"
	 style="enable-background:new 0 0 340 366;" xml:space="preserve">
<path style="fill:none;stroke:#000000;stroke-width:2.0001;stroke-miterlimit:22.9256;" d="M159.447,271.394
	c-36.858,0.383-147.983-53.999-111.706-96.905c16.231-19.186,17.564-30.848,17.564-33.74c1.042-0.507,22.355,2.003,35.872-5.684
	c1.144,23.545,16.631,39.214,28.32,59.593c3.331,5.808,31.542,49.27,38.554,66.904l0.002-0.002c0,0,17.918,9.26,41.608,9.867
	c23.689,0.607,78.965,6.276,87.468,25.511c8.504,19.235,6.884,53.25-62.564,45.151c-69.449-8.099-92.328-15.793-109.943-13.97
	c22.07-2.632,101.439,4.859,126.546,0.607c25.107-4.252,12.351-27.941-9.314-39.482c-21.665-11.541-82.409-17.849-82.409-17.849
	L159.447,271.394z"/>
<path style="fill:#FFE84D;" d="M159.447,271.394c-36.858,0.383-147.983-53.999-111.706-96.905
	c16.231-19.186,17.564-30.848,17.564-33.74c1.042-0.507,22.355,2.003,35.872-5.684c1.144,23.545,16.631,39.214,28.32,59.593
	c3.331,5.808,31.542,49.27,38.554,66.904l0.002-0.002c0,0,17.918,9.26,41.608,9.867c23.689,0.607,78.965,6.276,87.468,25.511
	c8.504,19.235,6.884,53.25-62.564,45.151c-69.449-8.099-92.328-15.793-109.943-13.97c22.07-2.632,101.439,4.859,126.546,0.607
	c25.107-4.252,12.351-27.941-9.314-39.482c-21.665-11.541-82.409-17.849-82.409-17.849L159.447,271.394z"/>
<path style="fill-rule:evenodd;clip-rule:evenodd;fill:#CFB212;" d="M110.211,163.993c-13.33-7.564-25.761-11.93-35.34-14.441
	c24.901,26.331,68.625,94.664,22.825,86.211c-27.323-5.043-42.689-14.11-42.689-14.11c10.597,11.157,25.875,21.489,41.879,29.812
	c30.906,16.073,64.515,24.657,72.326,17.234c4.982-4.657-39.065-72.908-39.715-74.041
	C123.461,184.134,115.899,174.209,110.211,163.993"/>
<path style="fill:none;stroke:#000000;stroke-width:0.5669;stroke-miterlimit:22.9256;" d="M198.622,267.077
	c-9.719-20.855-57.705-19.437-85.241-30.979c-27.536-11.541-56.692-52.238-37.043-61.387c19.649-9.15,51.775,10.187,53.038,10.365
	c1.264,0.178,25.714,22.879,24.094,36.04"/>
<path style="fill:none;stroke:#000000;stroke-width:2.0001;stroke-miterlimit:22.9256;" d="M108.668,176.024
	c-4.74-1.592-9.887-2.922-14.984-3.483c-6.12-0.674-12.166-0.242-17.345,2.17l-3.809,2.776
	c-15.074,17.137,27.593,53.824,43.975,59.836c13.025,4.783,29.749,7.207,44.831,10.477c0.006,0.001,0.012,0.003,0.018,0.004
	c17.211,3.733,32.281,8.569,37.269,19.274c0.153-1.295,0.217-2.536,0.196-3.726c-0.001-0.053-0.002-0.106-0.003-0.159
	c-0.309-13.286-11.074-20.141-23.546-24.49c-4.387-4.987-10.569-11.861-14.308-15.359c-1.517-1.419-4.275-3.405-7.586-5.602
	c-0.329-2.088-1.117-4.32-2.215-6.601c-1.217-2.528-2.816-5.115-4.597-7.63c-0.934-1.32-1.918-2.62-2.923-3.882
	C132.339,185.438,125.603,181.714,108.668,176.024z"/>
<path style="fill-rule:evenodd;clip-rule:evenodd;fill:#FFE84D;" d="M108.668,176.024c-4.74-1.592-9.887-2.922-14.984-3.483
	c-6.12-0.674-12.166-0.242-17.345,2.17l-3.809,2.776c-15.074,17.137,27.593,53.824,43.975,59.836
	c13.025,4.783,29.749,7.207,44.831,10.477c0.006,0.001,0.012,0.003,0.018,0.004c17.211,3.733,32.281,8.569,37.269,19.274
	c0.153-1.295,0.217-2.536,0.196-3.726c-0.001-0.053-0.002-0.106-0.003-0.159c-0.309-13.286-11.074-20.141-23.546-24.49
	c-4.387-4.987-10.569-11.861-14.308-15.359c-1.517-1.419-4.275-3.405-7.586-5.602c-0.329-2.088-1.117-4.32-2.215-6.601
	c-1.217-2.528-2.816-5.115-4.597-7.63c-0.934-1.32-1.918-2.62-2.923-3.882C132.339,185.438,125.603,181.714,108.668,176.024"/>
<path style="fill-rule:evenodd;clip-rule:evenodd;fill:#CFB212;" d="M117.15,210.675c-10.677-6.623-20.845-14.827-27.306-24.536
	c-0.201,6.378,14.831,19.387,14.831,19.387s7.923,5.45,18.259,11.645c9.238,5.537,20.403,11.67,29.56,15.038
	c0.025,0.009,0.05,0.018,0.074,0.027c2.112,0.774,4.116,1.401,5.964,1.838c5.411,1.28,11.24,2.711,16.737,4.628
	c-4.387-4.987-10.569-11.861-14.308-15.359c-1.517-1.419-4.275-3.405-7.586-5.602c-3.826-2.538-8.39-5.358-12.63-7.907
	c-0.928-0.558-1.84-1.103-2.726-1.629c-0.072-0.042-0.143-0.085-0.214-0.127c-0.937-0.556-1.843-1.091-2.705-1.597
	c-4.615-2.711-7.952-4.6-7.952-4.6l-13.92-7.845c0,0,15.272,10.831,27.552,18.838c0.073,0.047,0.146,0.095,0.219,0.142
	c2.703,1.76,5.255,3.379,7.46,4.709c1.94,1.17,3.598,2.297,5.014,3.366c7.531,5.678,8.248,9.694,8.248,9.694
	s-5.07-1.504-12.639-4.449c-0.037-0.014-0.074-0.029-0.112-0.043C140.324,222.922,128.452,217.685,117.15,210.675"/>
<path style="fill-rule:evenodd;clip-rule:evenodd;fill:#CFB212;" d="M196.018,262.986c-5.22-9.521-22.036-18.651-39.605-24.085
	c1.01,1.777,1.993,3.532,2.938,5.246c-0.954-1.718-1.948-3.475-2.968-5.256c-28.024-8.662-39.675-7.646-70.208-23.645
	c10.343,10.509,22.982,19.379,30.33,22.076c13.025,4.783,29.749,7.207,44.831,10.477c-0.614-1.146-1.25-2.318-1.906-3.508
	c0.662,1.192,1.305,2.364,1.924,3.512C176.201,251.023,189.455,255.065,196.018,262.986"/>
<path style="fill:none;stroke:#2B2929;stroke-width:2.0001;stroke-linejoin:round;stroke-miterlimit:22.9256;" d="M266.68,342.602
	l-10.448-15.16c-1.479,0.531-3.163,0.964-5.064,1.286c-3.549,0.601-8.182,0.968-13.585,1.161l-0.238,12.508
	C249.024,343.601,258.703,343.571,266.68,342.602z M299.98,305.9l-43.496-5.693c5.413,5.662,8.692,11.829,8.489,17.029l24.413,7.848
	l7.358,2.365c0.767-1.21,1.41-2.458,1.938-3.735c0.221-0.533,0.422-1.071,0.604-1.613c0.959-2.857,1.392-5.826,1.419-8.787
	C300.729,310.813,300.462,308.317,299.98,305.9z M287.354,287.145c-9.932-5.947-25.338-9.821-40.526-12.242l-15.25,10.088
	c3.944,1.327,7.443,2.746,10.275,4.255c2.223,1.184,4.352,2.496,6.356,3.902L287.354,287.145z M214.123,271.589
	c-1.585-0.072-3.078-0.125-4.463-0.16c-3.054-0.078-6.012-0.3-8.848-0.628c-0.04-0.004-0.08-0.009-0.119-0.014l-0.068,0.091
	l-4.291,5.774c3.179,0.562,6.414,1.168,9.638,1.817c2.35,0.473,4.693,0.969,7.006,1.487c1.183-0.713,2.779-1.654,4.557-2.691
	c2.671-1.559,5.751-3.336,8.452-4.889c-2.613-0.225-5.121-0.408-7.483-0.553C216.979,271.729,215.516,271.651,214.123,271.589z
	 M167.989,261.534l-12.489,9.716c1.393,0.108,2.711,0.156,3.944,0.146c0,0,7.321,0.76,17.787,2.236l7.658-5.91
	c-10.341-2.804-16.837-6.161-16.839-6.16c-0.008-0.02-0.016-0.039-0.023-0.058L167.989,261.534z M213.102,329.898
	c-5.856-0.131-11.97-0.328-18.148-0.554c-8.034-0.294-16.175-0.636-23.998-0.942c-19.818-0.777-37.583-1.325-46.335-0.281
	c10.182-1.053,22.121,1.073,43.796,4.618c8.707,1.424,18.985,3.078,31.351,4.847c4.197,0.6,8.635,1.214,13.334,1.836V329.898z"/>
<path style="fill-rule:evenodd;clip-rule:evenodd;fill:#333333;" d="M266.68,342.602l-10.448-15.16
	c-1.479,0.531-3.163,0.964-5.064,1.286c-3.549,0.601-8.182,0.968-13.585,1.161l-0.238,12.508
	C249.024,343.601,258.703,343.571,266.68,342.602 M299.98,305.9l-43.496-5.693c5.413,5.662,8.692,11.829,8.489,17.029l24.413,7.848
	l7.358,2.365c0.767-1.21,1.41-2.458,1.938-3.735c0.221-0.533,0.422-1.071,0.604-1.613c0.959-2.857,1.392-5.826,1.419-8.787
	C300.729,310.813,300.462,308.317,299.98,305.9z M287.354,287.145c-9.932-5.947-25.338-9.821-40.526-12.242l-15.25,10.088
	c3.944,1.327,7.443,2.746,10.275,4.255c2.223,1.184,4.352,2.496,6.356,3.902L287.354,287.145z M214.123,271.589
	c-1.585-0.072-3.078-0.125-4.463-0.16c-3.054-0.078-6.012-0.3-8.848-0.628c-0.04-0.004-0.08-0.009-0.119-0.014l-0.068,0.091
	l-4.291,5.774c3.179,0.562,6.414,1.168,9.638,1.817c2.35,0.473,4.693,0.969,7.006,1.487c1.183-0.713,2.779-1.654,4.557-2.691
	c2.671-1.559,5.751-3.336,8.452-4.889c-2.613-0.225-5.121-0.408-7.483-0.553C216.979,271.729,215.516,271.651,214.123,271.589z
	 M167.989,261.534l-12.489,9.716c1.393,0.108,2.711,0.156,3.944,0.146c0,0,7.321,0.76,17.787,2.236l7.658-5.91
	c-10.341-2.804-16.837-6.161-16.839-6.16c-0.008-0.02-0.016-0.039-0.023-0.058L167.989,261.534z M213.102,329.898
	c-5.856-0.131-11.97-0.328-18.148-0.554c-8.034-0.294-16.175-0.636-23.998-0.942c-19.818-0.777-37.583-1.325-46.335-0.281
	c10.182-1.053,22.121,1.073,43.796,4.618c8.707,1.424,18.985,3.078,31.351,4.847c4.197,0.6,8.635,1.214,13.334,1.836V329.898z"/>
<path style="fill:none;stroke:#000000;stroke-width:2.0001;stroke-miterlimit:22.9256;" d="M152.29,151.032
	c-4.4-18.107-17.726-42.531-29.547-56.596c-2.745-3.266-5.409-5.974-7.862-7.914c0,0,1.688,1.782,3.951,5.373
	c0.056,0.089,0.111,0.177,0.168,0.268c2.443,3.927,5.51,9.914,7.851,17.998c3.7,12.78,9.162,38.034,18.136,54.222
	c0.659,1.188,1.337,2.328,2.034,3.41c0.908,1.409,1.848,2.72,2.824,3.916c0.727,0.89,1.472,1.715,2.237,2.469
	c1.706,1.679,3.455,3.347,5.21,4.981c2.936,2.733,5.887,5.369,8.668,7.79c0.571,0.497,1.135,0.985,1.69,1.463
	c0.396,0.341,0.787,0.676,1.173,1.006c1.082,0.925,2.125,1.807,3.116,2.638c0.621,0.521,1.222,1.022,1.799,1.501
	c0.888,0.737,1.721,1.422,2.486,2.047c3.223,2.636,5.259,4.221,5.259,4.221s-2.089-2.327-5.169-6.182
	c-0.587-0.735-1.211-1.525-1.862-2.366c-1.106-1.427-2.294-2.997-3.527-4.685c-3.18-4.353-6.658-9.486-9.796-14.934
	c-0.264-0.458-0.526-0.919-0.785-1.381c-1.912-3.416-3.672-6.939-5.126-10.456C153.997,156.866,152.99,153.914,152.29,151.032z"/>
<path style="fill-rule:evenodd;clip-rule:evenodd;fill:#FFE84D;" d="M152.29,151.032c-4.4-18.107-17.726-42.531-29.547-56.596
	c-2.745-3.266-5.409-5.974-7.862-7.914c0,0,1.688,1.782,3.951,5.373c0.056,0.089,0.111,0.177,0.168,0.268
	c2.443,3.927,5.51,9.914,7.851,17.998c3.7,12.78,9.162,38.034,18.136,54.222c0.659,1.188,1.337,2.328,2.034,3.41
	c0.908,1.409,1.848,2.72,2.824,3.916c0.727,0.89,1.472,1.715,2.237,2.469c1.706,1.679,3.455,3.347,5.21,4.981
	c2.936,2.733,5.887,5.369,8.668,7.79c0.571,0.497,1.135,0.985,1.69,1.463c0.396,0.341,0.787,0.676,1.173,1.006
	c1.082,0.925,2.125,1.807,3.116,2.638c0.621,0.521,1.222,1.022,1.799,1.501c0.888,0.737,1.721,1.422,2.486,2.047
	c3.223,2.636,5.259,4.221,5.259,4.221s-2.089-2.327-5.169-6.182c-0.587-0.735-1.211-1.525-1.862-2.366
	c-1.106-1.427-2.294-2.997-3.527-4.685c-3.18-4.353-6.658-9.486-9.796-14.934c-0.264-0.458-0.526-0.919-0.785-1.381
	c-1.912-3.416-3.672-6.939-5.126-10.456C153.997,156.866,152.99,153.914,152.29,151.032"/>
<path style="fill:none;stroke:#000000;stroke-width:2.0001;stroke-miterlimit:22.9256;" d="M192.837,191.037
	c-9.977-24.52-22.666-52.795-36.377-71.076c-17.481-23.307-34.841-35.296-44.504-40.709c-4.861-2.724-7.774-3.783-7.774-3.783
	c2.201,1.456,4.16,3.093,5.876,4.847c1.909,1.952,3.517,4.05,4.822,6.206c2.453,1.94,5.117,4.647,7.862,7.914
	c0,0,30.382,26.36,43.936,62.851c4.143,11.153,7.936,22.066,11.832,32.139c0.264,0.681,0.527,1.359,0.793,2.033
	c1.686,4.293,3.398,8.422,5.17,12.34c0.281,0.62,0.563,1.236,0.847,1.845c7.087,15.22,15.214,27.013,26.617,32.41
	c-2.581-4.606-7.171-16.862-13.216-32.267c-0.26-0.662-0.522-1.33-0.787-2.003c-1.58-4.013-3.255-8.22-5.013-12.545
	C192.893,191.172,192.865,191.105,192.837,191.037z"/>
<path style="fill-rule:evenodd;clip-rule:evenodd;fill:#FFE84D;" d="M192.837,191.037c-9.977-24.52-22.666-52.795-36.377-71.076
	c-17.481-23.307-34.841-35.296-44.504-40.709c-4.861-2.724-7.774-3.783-7.774-3.783c2.201,1.456,4.16,3.093,5.876,4.847
	c1.909,1.952,3.517,4.05,4.822,6.206c2.453,1.94,5.117,4.647,7.862,7.914c0,0,30.382,26.36,43.936,62.851
	c4.143,11.153,7.936,22.066,11.832,32.139c0.264,0.681,0.527,1.359,0.793,2.033c1.686,4.293,3.398,8.422,5.17,12.34
	c0.281,0.62,0.563,1.236,0.847,1.845c7.087,15.22,15.214,27.013,26.617,32.41c-2.581-4.606-7.171-16.862-13.216-32.267
	c-0.26-0.662-0.522-1.33-0.787-2.003c-1.58-4.013-3.255-8.22-5.013-12.545C192.893,191.172,192.865,191.105,192.837,191.037"/>
<path style="fill:none;stroke:#2B2929;stroke-width:2.0001;stroke-linejoin:round;stroke-miterlimit:22.9256;" d="M151.358,113.463
	c-2.51-3.053-5.002-5.88-7.454-8.494l-11.096-0.551c2.582,2.786,5.501,6.101,8.558,9.878L151.358,113.463z M164.656,132.193
	c-2.237-3.682-4.514-7.158-6.821-10.361l-12.271-2.159c2.425,3.225,4.878,6.707,7.271,10.415L164.656,132.193z M176.119,153.302
	c-1.835-3.719-3.711-7.368-5.624-10.902l-13.069-4.752c2.128,3.736,4.15,7.652,5.991,11.723L176.119,153.302z M185.644,173.921
	c-1.49-3.418-3.021-6.847-4.59-10.254l-13.451-3.881c1.216,3.303,2.405,6.58,3.577,9.817
	C175.292,170.68,180.899,172.407,185.644,173.921z M196.093,199.135c-1.024-2.574-2.082-5.212-3.173-7.895l-0.083-0.202
	c-0.6-1.476-1.21-2.965-1.83-4.465l-15.446-4.957c0.982,2.651,1.962,5.257,2.949,7.81l0.793,2.033
	c0.389,0.989,0.778,1.97,1.17,2.941l2.052,0.622l7.064,2.142L196.093,199.135z M206.949,226.771
	c-1.64-4.081-3.527-8.939-5.63-14.336l-15.705-6.161c2.408,5.118,4.939,9.84,7.679,14.049L206.949,226.771z M135.648,96.773
	c-9.547-8.803-17.97-14.315-23.692-17.521c-4.861-2.724-7.774-3.783-7.774-3.783c2.201,1.456,4.16,3.093,5.876,4.847
	c1.909,1.952,3.517,4.05,4.822,6.206c2.453,1.94,5.117,4.647,7.862,7.914c0,0,2.233,1.937,5.758,5.489L135.648,96.773z"/>
<path style="fill-rule:evenodd;clip-rule:evenodd;fill:#333333;" d="M151.358,113.463c-2.51-3.053-5.002-5.88-7.454-8.494
	l-11.096-0.551c2.582,2.786,5.501,6.101,8.558,9.878L151.358,113.463z M164.656,132.193c-2.237-3.682-4.514-7.158-6.821-10.361
	l-12.271-2.159c2.425,3.225,4.878,6.707,7.271,10.415L164.656,132.193z M176.119,153.302c-1.835-3.719-3.711-7.368-5.624-10.902
	l-13.069-4.752c2.128,3.736,4.15,7.652,5.991,11.723L176.119,153.302z M185.644,173.921c-1.49-3.418-3.021-6.847-4.59-10.254
	l-13.451-3.881c1.216,3.303,2.405,6.58,3.577,9.817C175.292,170.68,180.899,172.407,185.644,173.921z M196.093,199.135
	c-1.024-2.574-2.082-5.212-3.173-7.895l-0.083-0.202c-0.6-1.476-1.21-2.965-1.83-4.465l-15.446-4.957
	c0.982,2.651,1.962,5.257,2.949,7.81l0.793,2.033c0.389,0.989,0.778,1.97,1.17,2.941l2.052,0.622l7.064,2.142L196.093,199.135z
	 M206.949,226.771c-1.64-4.081-3.527-8.939-5.63-14.336l-15.705-6.161c2.408,5.118,4.939,9.84,7.679,14.049L206.949,226.771z
	 M135.648,96.773c-9.547-8.803-17.97-14.315-23.692-17.521c-4.861-2.724-7.774-3.783-7.774-3.783
	c2.201,1.456,4.16,3.093,5.876,4.847c1.909,1.952,3.517,4.05,4.822,6.206c2.453,1.94,5.117,4.647,7.862,7.914
	c0,0,2.233,1.937,5.758,5.489L135.648,96.773z"/>
<path style="fill:none;stroke:#2B2929;stroke-width:2.0001;stroke-linejoin:round;stroke-miterlimit:22.9256;" d="M151.981,149.806
	c-1.047-4.014-2.508-8.312-4.275-12.719l-14.417-3.315c0.992,3.426,2.061,6.929,3.218,10.394
	C141.352,145.918,147.955,148.331,151.981,149.806z M143.103,126.739c-1.638-3.368-3.402-6.722-5.246-9.988l-9.36-0.606
	c0.638,2.394,1.323,5.004,2.059,7.757L143.103,126.739z M134.385,110.856c-2.557-4.162-5.205-8.087-7.834-11.603l-3.816-0.145
	c1.24,2.669,2.476,5.767,3.584,9.295L134.385,110.856z M160.345,170.278c-1.912-3.416-3.672-6.939-5.126-10.456
	c-0.21-0.508-0.414-1.016-0.611-1.524l-14.086-3.288c1.383,3.331,2.868,6.496,4.463,9.374c0.659,1.188,1.337,2.328,2.034,3.41
	c0.11,0.17,0.22,0.339,0.33,0.506l4.183,0.866l8.938,1.851l0.329,0.068C160.647,170.816,160.496,170.548,160.345,170.278z"/>
<path style="fill-rule:evenodd;clip-rule:evenodd;fill:#333333;" d="M151.981,149.806c-1.047-4.014-2.508-8.312-4.275-12.719
	l-14.417-3.315c0.992,3.426,2.061,6.929,3.218,10.394C141.352,145.918,147.955,148.331,151.981,149.806 M143.103,126.739
	c-1.638-3.368-3.402-6.722-5.246-9.988l-9.36-0.606c0.638,2.394,1.323,5.004,2.059,7.757L143.103,126.739z M134.385,110.856
	c-2.557-4.162-5.205-8.087-7.834-11.603l-3.816-0.145c1.24,2.669,2.476,5.767,3.584,9.295L134.385,110.856z M160.345,170.278
	c-1.912-3.416-3.672-6.939-5.126-10.456c-0.21-0.508-0.414-1.016-0.611-1.524l-14.086-3.288c1.383,3.331,2.868,6.496,4.463,9.374
	c0.659,1.188,1.337,2.328,2.034,3.41c0.11,0.17,0.22,0.339,0.33,0.506l4.183,0.866l8.938,1.851l0.329,0.068
	C160.647,170.816,160.496,170.548,160.345,170.278z"/>
<path style="fill:none;stroke:#000000;stroke-width:2.0001;stroke-linecap:round;stroke-linejoin:round;stroke-miterlimit:22.9256;" d="
	M110.211,163.993c-4.89-8.786-8.505-18.01-9.035-28.928c-2.345,1.333-4.925,2.36-7.592,3.149c-4.645,2.093-9.944,3.363-15.843,3.663
	c-4.734,0.24-8.859-0.165-12.438-1.128c0,1.041-0.173,3.216-1.149,6.469C73.811,148.872,91.086,153.14,110.211,163.993z"/>
<path style="fill-rule:evenodd;clip-rule:evenodd;" d="M110.211,163.993c-4.89-8.786-8.505-18.01-9.035-28.928
	c-2.345,1.333-4.925,2.36-7.592,3.149c-4.645,2.093-9.944,3.363-15.843,3.663c-4.734,0.24-8.859-0.165-12.438-1.128
	c0,1.041-0.173,3.216-1.149,6.469C73.811,148.872,91.086,153.14,110.211,163.993"/>
<path style="fill:none;stroke:#000000;stroke-width:2.0001;stroke-linejoin:round;stroke-miterlimit:22.9256;" d="M118.421,94.959
	c-0.254-1.041-0.578-2.095-0.971-3.149c-4.189-11.25-16.36-22.845-36.387-22.891c-12.351-0.023-25.092,7.323-31.484,18.502
	c-1.271,2.225-2.286,4.595-3.003,7.099c-0.185,0.63-0.346,1.278-0.478,1.924c-0.461,2.103-0.708,4.281-0.708,6.53
	c0,9.856,1.564,18.731,5.473,25.507c1.287,2.226,2.828,4.221,4.643,5.944c5.344,5.081,13.112,7.853,24.015,7.3
	c20.881-1.064,34.463-13.92,38.458-32.461l0.016-0.092c0.253-1.17,0.461-2.364,0.639-3.58c0.145-1.047,0.27-2.117,0.362-3.204
	c0.023-0.224,0.037-0.446,0.053-0.669C119.205,99.609,118.998,97.314,118.421,94.959z"/>
<path style="fill:#333333;" d="M118.421,94.959c-0.254-1.041-0.578-2.095-0.971-3.149c-4.189-11.25-16.36-22.845-36.387-22.891
	c-12.351-0.023-25.092,7.323-31.484,18.502c-1.271,2.225-2.286,4.595-3.003,7.099c-0.185,0.63-0.346,1.278-0.478,1.924
	c-0.461,2.103-0.708,4.281-0.708,6.53c0,9.856,1.564,18.731,5.473,25.507c1.287,2.226,2.828,4.221,4.643,5.944
	c5.344,5.081,13.112,7.853,24.015,7.3c20.881-1.064,34.463-13.92,38.458-32.461l0.016-0.092c0.253-1.17,0.461-2.364,0.639-3.58
	c0.145-1.047,0.27-2.117,0.362-3.204c0.023-0.224,0.037-0.446,0.053-0.669C119.205,99.609,118.998,97.314,118.421,94.959"/>
<path d="M45.871,111.871c0.723,6.288,2.303,11.947,4.994,16.611c1.287,2.226,2.827,4.221,4.643,5.944
	c5.344,5.081,13.112,7.853,24.014,7.3c20.881-1.064,34.464-13.92,38.458-32.461l0.016-0.093c0.254-1.17,0.461-2.364,0.639-3.58
	c0.145-1.047,0.27-2.117,0.362-3.204c0.023-0.224,0.037-0.446,0.053-0.669c0.155-2.11-0.053-4.405-0.63-6.76
	c-0.254-1.041-0.578-2.095-0.971-3.149c-3.318-8.911-11.646-18.037-24.916-21.47c34.097,20.041,19.579,55.729-4.237,63.467
	C74.752,138.209,47.283,135.966,45.871,111.871"/>
<path style="fill-rule:evenodd;clip-rule:evenodd;fill:#616161;" d="M58.173,84.721c-2.429,2.522-7.567,9.623-4.298,8.969
	c3.27-0.654,4.391-3.924,5.513-5.512C60.509,86.59,61.817,81.544,58.173,84.721"/>
<path style="fill-rule:evenodd;clip-rule:evenodd;fill:#FFFFFF;" d="M98.285,104.603c-1.443,6.966-7.614,12.202-15.007,12.202
	c-7.537,0-13.804-5.44-15.086-12.608C73.139,102.567,84.626,99.944,98.285,104.603z"/>
<path style="fill:none;stroke:#000000;stroke-width:1.0001;stroke-miterlimit:22.9256;" d="M98.285,104.603
	c-1.443,6.966-7.614,12.202-15.007,12.202c-7.537,0-13.804-5.44-15.086-12.608C73.139,102.567,84.626,99.944,98.285,104.603z"/>
<path style="fill-rule:evenodd;clip-rule:evenodd;fill:#FFE84D;" d="M83.278,86.152c8.464,0,15.326,6.862,15.326,15.326
	c0,0.843-0.069,1.669-0.2,2.474c-12.557-4.96-24.977-1.669-30.22,0.198c-0.153-0.868-0.233-1.761-0.233-2.672
	C67.952,93.014,74.814,86.152,83.278,86.152z"/>
<path style="fill:none;stroke:#000000;stroke-width:1.0001;stroke-miterlimit:22.9256;" d="M83.278,86.152
	c8.464,0,15.326,6.862,15.326,15.326c0,0.843-0.069,1.669-0.2,2.474c-12.557-4.96-24.977-1.669-30.22,0.198
	c-0.153-0.868-0.233-1.761-0.233-2.672C67.952,93.014,74.814,86.152,83.278,86.152z"/>
<path style="fill-rule:evenodd;clip-rule:evenodd;fill:#A645E0;" d="M88.143,103.43c-0.648,4.872-4.819,8.631-9.869,8.631
	c-4.406,0-8.142-2.861-9.454-6.827C74.025,103.794,81.679,102.28,88.143,103.43z"/>
<path style="fill:none;stroke:#000000;stroke-width:0.5669;stroke-miterlimit:22.9256;" d="M88.143,103.43
	c-0.648,4.872-4.819,8.631-9.869,8.631c-4.406,0-8.142-2.861-9.454-6.827C74.025,103.794,81.679,102.28,88.143,103.43z"/>
<path style="fill-rule:evenodd;clip-rule:evenodd;fill:#2B2929;" d="M84.482,103.048c-0.455,3.02-3.061,5.335-6.208,5.335
	c-2.681,0-4.968-1.68-5.869-4.044C76.083,103.521,80.378,102.889,84.482,103.048z"/>
<path style="fill:none;stroke:#000000;stroke-width:0.5669;stroke-miterlimit:22.9256;" d="M84.482,103.048
	c-0.455,3.02-3.061,5.335-6.208,5.335c-2.681,0-4.968-1.68-5.869-4.044C76.083,103.521,80.378,102.889,84.482,103.048z"/>
<path style="fill-rule:evenodd;clip-rule:evenodd;fill:#2B2929;" d="M107.84,100.985c-1.583,4.016-6.465,8.565-14.344,4.247
	c-10.843-5.943-30.757,1.981-30.757,1.981s2.503-2.815,11.26-5.422c4.639-1.38,9.774-1.766,14.06-1.406
	c1.451-0.549,3.205-1.524,3.326-3.051c0.198,1.41-0.531,2.528-1.3,3.287c0.711,0.107,1.387,0.236,2.021,0.387
	c1.509-0.471,3.932-1.504,4.075-3.31c0.263,1.875-1.112,3.232-2.041,3.92c0.753,0.283,1.4,0.607,1.922,0.966
	c1.476-0.344,3.822-1.085,4.838-2.462c-0.361,2.034-1.789,3.347-2.536,3.909C101.704,105.314,106.242,104.044,107.84,100.985"/>
<path style="fill-rule:evenodd;clip-rule:evenodd;fill:#FFFFFF;" d="M73.583,104.694c-0.036,0.458,0.012,1.072,0.325,1.084
	c0.313,0.012,1.036-0.253,1.096-0.578C75.065,104.875,76.803,103.706,73.583,104.694"/>
<path style="fill-rule:evenodd;clip-rule:evenodd;fill:#FFFFFF;" d="M81.339,105.465c-0.039,0.104-0.365,0.678-0.078,0.769
	c0.287,0.092,1.199,0.261,1.225-0.065C82.512,105.843,82.407,104.775,81.339,105.465"/>
<path style="fill:none;stroke:#000000;stroke-width:0.5669;stroke-miterlimit:22.9256;" d="M46.201,98.145
	c0,0-15.471,3.68-13.594,25.575"/>
<path style="fill:none;stroke:#2B2929;stroke-width:2.0001;stroke-miterlimit:22.9256;" d="M51.783,127.471
	c1.536-4.302,1.892-8.991,1.971-11.326c-5.429,3.347-13.077,5.163-18.439,6.09C37.229,124.68,41.889,128.556,51.783,127.471z"/>
<path style="fill-rule:evenodd;clip-rule:evenodd;fill:#9C630F;" d="M51.783,127.471c1.536-4.302,1.892-8.991,1.971-11.326
	c-5.429,3.347-13.077,5.163-18.439,6.09C37.229,124.68,41.889,128.556,51.783,127.471"/>
<path style="fill:none;stroke:#2B2929;stroke-width:2.0001;stroke-miterlimit:22.9256;" d="M55.622,114.86
	c0.205-9.691-6.25-14.797-9.421-16.715c0,0-14.975,3.562-13.672,24.527c0.825-0.117,1.764-0.26,2.786-0.437
	c5.362-0.927,13.01-2.743,18.439-6.09C54.412,115.74,55.037,115.311,55.622,114.86z"/>
<path style="fill-rule:evenodd;clip-rule:evenodd;fill:#BD8024;" d="M55.622,114.86c0.205-9.691-6.25-14.797-9.421-16.715
	c0,0-14.975,3.562-13.672,24.527c0.825-0.117,1.764-0.26,2.786-0.437c5.362-0.927,13.01-2.743,18.439-6.09
	C54.412,115.74,55.037,115.311,55.622,114.86"/>
<path style="fill-rule:evenodd;clip-rule:evenodd;fill:#9C630F;" d="M55.622,114.86c0.205-9.678-6.234-14.784-9.409-16.707
	c3.441,5.854,3.231,12.094,0.033,16.452c-0.025,0.034-0.05,0.068-0.076,0.103c-2.673,3.564-7.37,5.84-13.721,5.56
	c0.003,0.775,0.029,1.577,0.08,2.405c0.825-0.117,1.764-0.26,2.786-0.437c3.421-0.591,7.77-1.544,11.881-3.025
	c0.026-0.009,0.052-0.019,0.079-0.029c2.306-0.835,4.535-1.838,6.479-3.036C54.412,115.74,55.037,115.311,55.622,114.86"/>
<path style="fill-rule:evenodd;clip-rule:evenodd;fill:#FFE84D;" d="M42.29,102.659c0,0-4.9,3.128-5.63,5.943
	c-0.73,2.815,0.834,2.919,2.189,1.355C40.205,108.393,39.53,104.766,42.29,102.659"/>
<path style="fill:#1C1C1C;" d="M74.943,283.26c-0.513,0.063-1.549,0.115-2.547,1.347c-0.12,0.148,0.009,0.368,0.199,0.342
	c-0.272-0.058,1.8-0.04,2.927,0.172c0.167,0.036,0.305-0.132,0.239-0.291l0.138-1.514C75.862,283.228,75.038,283.248,74.943,283.26"
	/>
<path style="fill:#1C1C1C;" d="M77.129,286.92c-0.582,0.14-2.411,0.688-3.401,2.234c-0.119,0.186,0.058,0.422,0.273,0.37
	c0.933-0.233,2.839-0.656,4.033-0.535c0.199,0.02,0.336-0.19,0.238-0.365l-0.87-1.582C77.347,286.944,77.238,286.894,77.129,286.92"
	/>
<path style="fill:none;stroke:#2B2929;stroke-width:1.4173;stroke-linejoin:round;stroke-miterlimit:22.9256;" d="M76.459,282.383
	c-0.475,1.323-0.602,3.445,1.531,3.379c0,0-0.919,4.255,4.466,2.164c6.966-2.163,15.366-6.161,22.946-6.459
	c8.788-0.346,10.347,1.002,11.97-0.441c1.625-1.444,1.597-3.873-2.676-3.089c-4.274,0.784-10.443,1.178-9.181-2.61
	c0.74-2.219,3.218-10.43,5.146-16.854c-1.991-0.731-2.627-1.304-4.596-2.26l-5.418,22.147
	C90.858,281.384,77.548,279.354,76.459,282.383z"/>
<path style="fill:#BA8C17;" d="M76.459,282.383c-0.475,1.323-0.602,3.445,1.531,3.379c0,0-0.919,4.255,4.466,2.164
	c6.966-2.163,15.366-6.161,22.946-6.459c8.788-0.346,10.347,1.002,11.97-0.441c1.625-1.444,1.597-3.873-2.676-3.089
	c-4.274,0.784-10.443,1.178-9.181-2.61c0.74-2.219,3.218-10.43,5.146-16.854c-1.991-0.731-2.627-1.304-4.596-2.26l-5.418,22.147
	C90.858,281.384,77.548,279.354,76.459,282.383"/>
<path style="fill:#1C1C1C;" d="M118.323,278.536c0.582-0.14,1.492-0.398,3.079,0.525c0.192,0.113,0.141,0.405-0.074,0.454
	c-0.936,0.219-1.859,0.625-2.865,1.276c-0.168,0.108-0.386-0.018-0.38-0.217l0.054-1.805
	C118.139,278.658,118.214,278.563,118.323,278.536"/>
<path style="fill-rule:evenodd;clip-rule:evenodd;fill:#F2BA29;" d="M77.603,282.159c0.273,0.431,2.063-0.112,4.177-0.861
	C83.895,280.549,77.791,280.6,77.603,282.159"/>
<path style="fill-rule:evenodd;clip-rule:evenodd;fill:#F2BA29;" d="M78.112,285.509c-0.126-0.511,1.743-1.576,4.492-2.179
	c2.748-0.603,3.251-0.704,3.251-0.704S78.46,286.919,78.112,285.509"/>
<path style="fill:#1C1C1C;" d="M115.412,315.909c-0.308,0.634-0.989,2.307-0.591,4.047c0.079,0.348,0.561,0.398,0.722,0.08
	c0.483-0.953,1.327-2.488,2.154-3.358c0.209-0.219,0.088-0.582-0.209-0.642l-1.65-0.337
	C115.665,315.665,115.49,315.749,115.412,315.909"/>
<path style="fill:#1C1C1C;" d="M106.67,311.526c-0.367,0.391-1.469,1.7-1.451,3.345c0.002,0.198,0.251,0.288,0.386,0.143
	c0.585-0.633,1.805-1.886,2.759-2.381c0.158-0.083,0.157-0.308-0.001-0.391l-1.429-0.757
	C106.846,311.437,106.738,311.453,106.67,311.526"/>
<path style="fill:none;stroke:#2B2929;stroke-width:1.4173;stroke-linejoin:round;stroke-miterlimit:22.9256;" d="M127.162,294.514
	c0,0-0.099,2.385-4.37,4.751c-2.792,1.545-21.391,9.951-14.657,13.291c1.961,0.972,9.595-7.78,15.097-10.008
	c0,0-11.771,12.826-5.962,14.422c1.629,0.448,3.243-3.638,6.116-8.337c2.328-3.807,5.755-8.005,8.535-10.622
	c2.817-2.651,5.693-4.142,9.569-6.535c4.526-2.171,1.792-3.648,1.792-3.648c-2.622-1.155-5.879,2.303-8.31,4.557l-3.58,2.542
	c0.85-4.769,2.074-32.107,0.958-36.082l-1.373,0.857l-1.161-0.783l-0.956,1.037l-0.83-0.151
	C128.356,272.305,129.238,282.273,127.162,294.514z"/>
<path style="fill:#BA8C17;" d="M127.162,294.514c0,0-0.099,2.385-4.37,4.751c-2.792,1.545-21.391,9.951-14.657,13.291
	c1.961,0.972,9.595-7.78,15.097-10.008c0,0-11.771,12.826-5.962,14.422c1.629,0.448,3.243-3.638,6.116-8.337
	c2.328-3.807,5.755-8.005,8.535-10.622c2.817-2.651,5.693-4.142,9.569-6.535c4.526-2.171,1.792-3.648,1.792-3.648
	c-2.622-1.155-5.879,2.303-8.31,4.557l-3.58,2.542c0.85-4.769,2.074-32.107,0.958-36.082l-1.373,0.857l-1.161-0.783l-0.956,1.037
	l-0.83-0.151C128.356,272.305,129.238,282.273,127.162,294.514"/>
<path style="fill:#1C1C1C;" d="M143.104,287.457c0.649-0.583,1.47-1.179,2.411-1.556c0.312-0.127,0.502,0.075,0.288,0.309
	c-0.452,0.493-1.119,1.25-1.725,2.054c-0.069-0.128-0.198-0.244-0.434-0.35C143.28,287.895,143.366,287.524,143.104,287.457"/>
<path style="fill-rule:evenodd;clip-rule:evenodd;fill:#F2BA29;" d="M118.294,310.33c-1.031,0.795-2.674,4.583-1.425,4.676
	c1.25,0.092,0.868-0.936,1.027-2.142C118.056,311.658,118.992,310.135,118.294,310.33"/>
<path style="fill-rule:evenodd;clip-rule:evenodd;fill:#F2BA29;" d="M108.707,308.3c-0.398,0.806,0.121,1.277,1.181,0.422
	c1.059-0.854,5.821-4.544,5.821-4.544S111.174,305.967,108.707,308.3"/>
<path style="fill-rule:evenodd;clip-rule:evenodd;fill:#8A6608;" d="M128.069,261.202c1.725-0.616,3.127,0.446,3.548,4.2
	c0.038,0.336,0.065,0.742,0.083,1.209c0.281,7.469-1.907,30.595-3.395,32.366c-1.581,1.882-7.151,7.829-8.657,13.325
	c-0.693,2.529-1.567,3.449-2.31,3.704c-0.87,0.3-1.559-0.313-1.559-0.313c0.202,0.605,0.672,1.053,1.492,1.278
	c0.049,0.014,0.097,0.023,0.145,0.028c1.581,0.176,3.183-3.806,5.971-8.365c2.328-3.807,5.755-8.005,8.535-10.622
	c2.817-2.651,5.693-4.142,9.569-6.535c4.526-2.171,1.792-3.648,1.792-3.648c-2.622-1.155-5.879,2.303-8.31,4.557l-3.58,2.542
	c0.606-3.398,1.401-18.258,1.405-27.956c0.001-3.911-0.126-6.983-0.447-8.125l-1.373,0.857l-1.161-0.783l-0.956,1.037l-0.83-0.151
	C128.042,260.275,128.055,260.74,128.069,261.202"/>
<path style="fill-rule:evenodd;clip-rule:evenodd;fill:#8A6608;" d="M87.396,281.761c-8.271,2.018-10.684,3.166-11.22,1.98
	c-0.063,1.076,0.32,2.067,1.814,2.022C77.315,283.984,85.98,282.144,87.396,281.761"/>
<path style="fill-rule:evenodd;clip-rule:evenodd;fill:#8A6608;" d="M105.013,260.514c2.802,0.435,2.846,2.311,2.448,4.792
	c-0.612,3.815-2.991,9.167-3.613,13.727c-0.226,1.656-3.237,1.505-6.888,2.372c-3.651,0.866-11.894,4.554-14.679,5.646
	c-1.849,0.725-3.394,0.484-4.223,0.24c0.314,0.965,1.339,1.825,4.399,0.637c6.966-2.163,15.366-6.161,22.946-6.459
	c8.788-0.346,10.347,1.002,11.97-0.441c0.304-0.271,0.551-0.576,0.722-0.888l0.041-1.37c0.002-0.07,0.032-0.133,0.081-0.177
	c-0.368-0.656-1.442-1.035-3.521-0.653c-4.274,0.784-10.443,1.178-9.181-2.61c0.74-2.219,3.218-10.43,5.146-16.854
	c-1.988-0.73-2.625-1.303-4.588-2.256c-0.002-0.001-0.005-0.003-0.008-0.004L105.013,260.514z M106.073,256.218
	c-0.002-0.001-0.005-0.003-0.008-0.004C106.068,256.215,106.071,256.217,106.073,256.218z"/>
</svg>
