<?xml version="1.0" encoding="iso-8859-1"?>
<!-- Generator: Adobe Illustrator 22.0.1, SVG Export Plug-In . SVG Version: 6.00 Build 0)  -->
<svg version="1.1" id="&#x421;&#x43B;&#x43E;&#x439;_1"
	 xmlns="http://www.w3.org/2000/svg" xmlns:xlink="http://www.w3.org/1999/xlink" x="0px" y="0px" viewBox="0 0 340 366"
	 style="enable-background:new 0 0 340 366;" xml:space="preserve">
<path style="fill:none;stroke:#000000;stroke-width:2.0001;stroke-linecap:round;stroke-linejoin:round;stroke-miterlimit:22.9256;" d="
	M112.573,274.162l-11.616,1.037l-3.851-4.782l15.018-1.341C116.291,268.29,116.036,274.383,112.573,274.162z"/>
<path style="fill-rule:evenodd;clip-rule:evenodd;fill:#5C5C5C;" d="M112.573,274.162l-11.616,1.037l-3.851-4.782l15.018-1.341
	C116.291,268.29,116.036,274.383,112.573,274.162"/>
<path style="fill:none;stroke:#000000;stroke-width:1.0001;stroke-linecap:round;stroke-linejoin:round;stroke-miterlimit:22.9256;" d="
	M109.259,269.105c1.174,0.763,2.16,3.983-0.252,5.674 M107.111,269.27c1.006,1.663,1.394,3.453-0.789,5.779 M105.271,269.455
	c1.29,1.611,1.236,3.494-0.789,5.778 M103.412,269.642c1.142,1.965,1.174,3.9-0.789,5.778 M99.511,270.033
	c0.567,1.166,0.794,2.414,0.296,3.833 M101.488,269.865c0.89,1.626,1.048,3.4-0.585,5.53 M112.158,268.763
	c1.521,1.637,1.977,4.705-0.789,5.779"/>
<rect x="92.988" y="239.749" style="fill:none;stroke:#000000;stroke-width:2.0001;stroke-linecap:round;stroke-linejoin:round;stroke-miterlimit:22.9256;" width="6.687" height="27.162"/>
<rect x="92.988" y="239.749" style="fill-rule:evenodd;clip-rule:evenodd;fill:#5E5E5E;" width="6.687" height="27.162"/>
<path style="fill:none;stroke:#000000;stroke-width:1.0001;stroke-linecap:round;stroke-linejoin:round;stroke-miterlimit:22.9256;" d="
	M92.988,242.496l6.687,1.44 M92.988,245.618l6.687,1.44 M92.988,247.757l6.687,1.44 M92.988,249.919l6.687,1.44 M92.988,254.456
	l6.687,1.44 M92.988,257.342l6.687,1.075 M92.988,259.717l6.687,1.44 M92.988,261.879l6.687,1.44 M92.988,264.229l6.687,1.44
	 M93.023,252.16l6.652,1.397 M92.988,239.749l6.687,1.44"/>
<path style="fill:none;stroke:#000000;stroke-width:2.0001;stroke-linecap:round;stroke-linejoin:round;stroke-miterlimit:22.9256;" d="
	M95.703,266.944c6.94,0,9.019,3.478,9.019,9.796H87.018C87.018,270.422,88.763,266.944,95.703,266.944z"/>
<path style="fill-rule:evenodd;clip-rule:evenodd;fill:#5C5C5C;" d="M95.703,266.944c6.94,0,9.019,3.478,9.019,9.796H87.018
	C87.018,270.422,88.763,266.944,95.703,266.944"/>
<path style="fill:none;stroke:#000000;stroke-width:2.0001;stroke-linecap:round;stroke-linejoin:round;stroke-miterlimit:22.9256;" d="
	M91.541,276.08l-22.483,2.989c-3.179,0.637-4.437-4.722-0.21-5.123l22.024-2.928C95.003,270.053,95.01,276.151,91.541,276.08z"/>
<path style="fill-rule:evenodd;clip-rule:evenodd;fill:#5C5C5C;" d="M91.541,276.08l-22.483,2.989
	c-3.179,0.637-4.437-4.722-0.21-5.123l22.024-2.928C95.003,270.053,95.01,276.151,91.541,276.08"/>
<path style="fill:none;stroke:#000000;stroke-width:1.0001;stroke-linecap:round;stroke-linejoin:round;stroke-miterlimit:22.9256;" d="
	M87.546,271.816c1.141,0.596,2.193,3.274-0.033,4.799 M85.515,272.043c1.014,1.362,1.447,2.857-0.538,4.909 M83.776,272.275
	c1.282,1.307,1.299,2.898-0.538,4.909 M82.02,272.508c1.155,1.612,1.255,3.243-0.538,4.909 M78.335,272.998
	c0.831,1.377,1.007,2.921-0.538,4.909 M75.991,273.31c1.02,1.348,1.239,2.896-0.241,4.87 M74.061,273.567
	c1.007,1.274,1.243,2.784-0.538,4.909 M72.304,273.8c0.897,1.529,1.113,3.126-0.538,4.909 M69.081,273.915
	c2.177,0.871,1.982,4.463,0.544,5.078 M80.203,272.775c0.933,1.382,1.131,2.926-0.506,4.88 M90.282,271.41
	c1.502,1.319,2.045,3.889-0.538,4.909"/>
<path style="fill:none;stroke:#000000;stroke-width:2.0001;stroke-linecap:round;stroke-linejoin:round;stroke-miterlimit:22.9256;" d="
	M97.998,276.796l-22.02,5.435c-3.09,0.982-4.927-4.207-0.769-5.069l21.571-5.324C100.779,270.425,101.454,276.486,97.998,276.796z"
	/>
<path style="fill-rule:evenodd;clip-rule:evenodd;fill:#5C5C5C;" d="M97.998,276.796l-22.02,5.435
	c-3.09,0.982-4.927-4.207-0.769-5.069l21.571-5.324C100.779,270.425,101.454,276.486,97.998,276.796"/>
<path style="fill:none;stroke:#000000;stroke-width:1.0001;stroke-linecap:round;stroke-linejoin:round;stroke-miterlimit:22.9256;" d="
	M93.559,272.996c1.2,0.468,2.539,3.014,0.493,4.774 M91.565,273.444c1.158,1.243,1.752,2.681,0.003,4.939 M89.863,273.864
	c1.417,1.159,1.609,2.738,0.003,4.938 M88.143,274.289c1.324,1.476,1.603,3.086,0.003,4.939 M84.533,275.18
	c0.977,1.277,1.321,2.793,0.003,4.939 M82.237,275.746c1.161,1.228,1.548,2.742,0.294,4.867 M80.347,276.213
	c1.141,1.157,1.541,2.631,0.003,4.939 M78.627,276.637c1.059,1.422,1.449,2.985,0.003,4.939 M75.436,277.105
	c2.259,0.627,2.46,4.219,1.097,4.988 M86.366,274.753c1.079,1.271,1.445,2.785,0.031,4.906 M96.234,272.292
	c1.638,1.146,2.46,3.642,0.003,4.939"/>
<path style="fill-rule:evenodd;clip-rule:evenodd;fill:#786100;" d="M133.43,184.647c-7.703-4.563-13.431-13.09-13.207-14.695
	c0.225-1.605,10.905-33.355,10.905-33.355l5.644-0.986L133.43,184.647z"/>
<path style="fill:none;stroke:#000000;stroke-width:1.0001;stroke-miterlimit:22.9256;" d="M133.43,184.647
	c-7.703-4.563-13.431-13.09-13.207-14.695c0.225-1.605,10.905-33.355,10.905-33.355l5.644-0.986L133.43,184.647z"/>
<path style="fill-rule:evenodd;clip-rule:evenodd;fill:#786100;" d="M170.535,183.059c-10.966,1.337-25.932-4.012-26.92-5.75
	c-0.988-1.739-11.498-39.498-11.498-39.498l4.777-5.212L170.535,183.059z"/>
<path style="fill:none;stroke:#000000;stroke-width:1.0001;stroke-miterlimit:22.9256;" d="M170.535,183.059
	c-10.966,1.337-25.932-4.012-26.92-5.75c-0.988-1.739-11.498-39.498-11.498-39.498l4.777-5.212L170.535,183.059z"/>
<path style="fill-rule:evenodd;clip-rule:evenodd;fill:#786100;" d="M209.799,163.925c-11.579,9.022-29.467,9.142-31.783,7.837
	c-2.315-1.305-42.928-33.113-42.928-33.113l1.878-9.204L209.799,163.925z"/>
<path style="fill:none;stroke:#000000;stroke-width:1.0001;stroke-miterlimit:22.9256;" d="M209.799,163.925
	c-11.579,9.022-29.467,9.142-31.783,7.837c-2.315-1.305-42.928-33.113-42.928-33.113l1.878-9.204L209.799,163.925z"/>
<path style="fill-rule:evenodd;clip-rule:evenodd;fill:#786100;" d="M226.007,136.408c-8.791,14.071-23.512,18.248-26.476,17.761
	c-2.964-0.487-62.645-15.601-62.645-15.601l-1.579-10.499L226.007,136.408z"/>
<path style="fill:none;stroke:#000000;stroke-width:1.0001;stroke-miterlimit:22.9256;" d="M226.007,136.408
	c-8.791,14.071-23.512,18.248-26.476,17.761c-2.964-0.487-62.645-15.601-62.645-15.601l-1.579-10.499L226.007,136.408z"/>
<path style="fill:none;stroke:#000000;stroke-width:2.0001;stroke-linecap:round;stroke-linejoin:round;stroke-miterlimit:22.9256;" d="
	M227.412,107.06c-4.398,17.018-18.401,24.943-21.551,25.396c-3.15,0.453-67.808,5.184-67.808,5.184l-4.94-10.105L227.412,107.06z"/>
<path style="fill-rule:evenodd;clip-rule:evenodd;fill:#786100;" d="M227.412,107.06c-4.398,17.018-18.401,24.943-21.551,25.396
	c-3.15,0.453-67.808,5.184-67.808,5.184l-4.94-10.105L227.412,107.06z"/>
<path style="fill:none;stroke:#000000;stroke-width:0.5669;stroke-miterlimit:22.9256;" d="M110.648,176.361
	c0,0-3.876-11.694,20.496-34.085 M94.871,174.953c0,0,10.509-14.815,31.533-44.316"/>
<path style="fill:none;stroke:#000000;stroke-width:2.0001;stroke-linecap:round;stroke-linejoin:round;stroke-miterlimit:22.9256;" d="
	M111.502,179.131c0.728,5.065-2.788,9.761-7.853,10.49c-5.065,0.728-9.761-2.788-10.49-7.853c-0.36-2.508,0.32-4.924,1.713-6.814
	l-0.001,0c0,0,2.56-3.608,7.68-10.809c5.254-7.39,13.205-18.565,23.854-33.507c-3.174,4.461-0.566,10.68,4.74,11.639
	c-0.98,0.901-1.915,1.784-2.806,2.649c-13.301,12.927-16.883,21.983-17.701,26.952C110.085,175.235,111.115,176.438,111.502,179.131
	z"/>
<path style="fill-rule:evenodd;clip-rule:evenodd;fill:#5E5E5E;" d="M111.502,179.131c0.728,5.065-2.788,9.761-7.853,10.49
	c-5.065,0.728-9.761-2.788-10.49-7.853c-0.36-2.508,0.32-4.924,1.713-6.814l-0.001,0c0,0,2.56-3.608,7.68-10.809
	c5.254-7.39,13.205-18.565,23.854-33.507c-3.174,4.461-0.566,10.68,4.74,11.639c-0.98,0.901-1.915,1.784-2.806,2.649
	c-13.301,12.927-16.883,21.983-17.701,26.952C110.085,175.235,111.115,176.438,111.502,179.131"/>
<path style="fill-rule:evenodd;clip-rule:evenodd;fill:#C79E00;" d="M101.589,175.289c2.849-0.41,5.492,1.568,5.901,4.418
	c0.41,2.849-1.568,5.492-4.418,5.901c-2.85,0.41-5.492-1.568-5.901-4.418C96.761,178.341,98.74,175.699,101.589,175.289z"/>
<path style="fill:none;stroke:#000000;stroke-width:0.5669;stroke-miterlimit:22.9256;" d="M101.589,175.289
	c2.849-0.41,5.492,1.568,5.901,4.418c0.41,2.849-1.568,5.492-4.418,5.901c-2.85,0.41-5.492-1.568-5.901-4.418
	C96.761,178.341,98.74,175.699,101.589,175.289z"/>
<path style="fill-rule:evenodd;clip-rule:evenodd;fill:#FFFFFF;" d="M100.345,176.294c0.712-0.102,1.043,0.599,1.148,1.33
	c0.105,0.731-0.971,1.503-1.683,1.605c-0.712,0.102-0.79-0.503-0.895-1.235C98.809,177.264,99.633,176.397,100.345,176.294"/>
<path style="fill-rule:evenodd;clip-rule:evenodd;fill:#786100;" d="M99.983,183.901c0,0,2.898,1.67,4.936,0.068
	c2.038-1.602,1.315-4.467,0.932-4.607c-0.383-0.139-2.069,1.477-2.487,2.626C102.946,183.138,98.838,182.25,99.983,183.901"/>
<path style="fill:none;stroke:#000000;stroke-width:2.0001;stroke-linecap:round;stroke-linejoin:round;stroke-miterlimit:22.9256;" d="
	M131.41,127.584c4.068-0.585,7.84,2.239,8.425,6.307c0.585,4.068-2.239,7.841-6.308,8.425c-4.068,0.585-7.841-2.239-8.425-6.307
	C124.518,131.941,127.342,128.169,131.41,127.584z"/>
<path style="fill-rule:evenodd;clip-rule:evenodd;fill:#5E5E5E;" d="M131.41,127.584c4.068-0.585,7.84,2.239,8.425,6.307
	c0.585,4.068-2.239,7.841-6.308,8.425c-4.068,0.585-7.841-2.239-8.425-6.307C124.518,131.941,127.342,128.169,131.41,127.584"/>
<path style="fill:none;stroke:#000000;stroke-width:2.0001;stroke-linecap:round;stroke-linejoin:round;stroke-miterlimit:22.9256;" d="
	M131.937,130.167c2.601-0.374,5.014,1.432,5.388,4.033c0.374,2.602-1.432,5.014-4.033,5.388c-2.601,0.374-5.013-1.432-5.387-4.033
	C127.53,132.954,129.336,130.541,131.937,130.167z"/>
<path style="fill-rule:evenodd;clip-rule:evenodd;fill:#C79E00;" d="M131.937,130.167c2.601-0.374,5.014,1.432,5.388,4.033
	c0.374,2.602-1.432,5.014-4.033,5.388c-2.601,0.374-5.013-1.432-5.387-4.033C127.53,132.954,129.336,130.541,131.937,130.167"/>
<path style="fill-rule:evenodd;clip-rule:evenodd;fill:#FFFFFF;" d="M130.801,131.085c0.65-0.094,0.952,0.546,1.048,1.214
	c0.096,0.668-0.886,1.372-1.537,1.466c-0.65,0.094-0.721-0.459-0.817-1.127C129.4,131.97,130.151,131.178,130.801,131.085"/>
<path style="fill-rule:evenodd;clip-rule:evenodd;fill:#786100;" d="M130.471,138.029c0,0,2.645,1.525,4.506,0.062
	c1.861-1.463,1.201-4.078,0.851-4.205c-0.35-0.127-1.889,1.349-2.271,2.397C133.176,137.332,129.426,136.522,130.471,138.029"/>
<path style="fill:none;stroke:#000000;stroke-width:2.0001;stroke-linecap:round;stroke-linejoin:round;stroke-miterlimit:22.9256;" d="
	M74.176,154.38c15.636-1.719,30.132,5.998,37.814,18.596l0.002-0.002l0.166,0.277l0.166,0.28l37.673,57.262l-27.49,27.49
	c-33.818-11.996-79.126-37.633-83.048-60.606C35.071,171.982,52.633,156.749,74.176,154.38z"/>
<path style="fill-rule:evenodd;clip-rule:evenodd;fill:#6E6E6E;" d="M74.176,154.38c15.636-1.719,30.132,5.998,37.814,18.596
	l0.002-0.002l0.166,0.277l0.166,0.28l37.673,57.262l-27.49,27.49c-33.818-11.996-79.126-37.633-83.048-60.606
	C35.071,171.982,52.633,156.749,74.176,154.38"/>
<path style="fill:none;stroke:#000000;stroke-width:2.0001;stroke-linecap:round;stroke-linejoin:round;stroke-miterlimit:22.9256;" d="
	M50.242,129.189h64.403l-0.033-33.75c0-14.969-14.665-24.452-32.189-24.452c-17.524,0-32.215,10.852-32.215,25.375
	C50.208,109.635,50.242,115.914,50.242,129.189z"/>
<path style="fill-rule:evenodd;clip-rule:evenodd;fill:#6E6E6E;" d="M50.242,129.189h64.403l-0.033-33.75
	c0-14.969-14.665-24.452-32.189-24.452c-17.524,0-32.215,10.852-32.215,25.375C50.208,109.635,50.242,115.914,50.242,129.189"/>
<path style="fill-rule:evenodd;clip-rule:evenodd;fill:#5E5E5E;" d="M74.449,147.377H90.44c0.613,0,1.114-0.501,1.114-1.114v-3.209
	c0-0.613-0.501-1.114-1.114-1.114H74.449c-0.613,0-1.114,0.501-1.114,1.114v3.209C73.335,146.876,73.836,147.377,74.449,147.377z"/>
<path style="fill:none;stroke:#000000;stroke-width:1.0001;stroke-miterlimit:22.9256;" d="M74.449,147.377H90.44
	c0.613,0,1.114-0.501,1.114-1.114v-3.209c0-0.613-0.501-1.114-1.114-1.114H74.449c-0.613,0-1.114,0.501-1.114,1.114v3.209
	C73.335,146.876,73.836,147.377,74.449,147.377z"/>
<polygon style="fill-rule:evenodd;clip-rule:evenodd;fill:#5E5E5E;" points="73.049,153.904 79.022,147.377 86.897,147.377 
	80.863,154.331 "/>
<polygon style="fill:none;stroke:#000000;stroke-width:1.0001;stroke-miterlimit:22.9256;" points="73.049,153.904 79.022,147.377 
	86.897,147.377 80.863,154.331 "/>
<ellipse transform="matrix(0.0985 -0.9951 0.9951 0.0985 -24.7955 171.3213)" style="fill:none;stroke:#000000;stroke-width:2.0001;stroke-linecap:round;stroke-linejoin:round;stroke-miterlimit:22.9256;" cx="82.164" cy="99.347" rx="12.835" ry="12.835"/>
<path style="fill-rule:evenodd;clip-rule:evenodd;fill:#696B6B;" d="M82.164,86.511c7.089,0,12.835,5.747,12.835,12.835
	c0,7.089-5.747,12.835-12.835,12.835s-12.835-5.746-12.835-12.835C69.329,92.258,75.075,86.511,82.164,86.511"/>
<path style="fill:none;stroke:#000000;stroke-width:2.0001;stroke-linecap:round;stroke-linejoin:round;stroke-miterlimit:22.9256;" d="
	M82.164,90.889c4.671,0,8.457,3.786,8.457,8.457c0,4.671-3.787,8.457-8.457,8.457c-4.671,0-8.457-3.786-8.457-8.457
	C73.706,94.676,77.493,90.889,82.164,90.889z"/>
<path style="fill-rule:evenodd;clip-rule:evenodd;fill:#C79E00;" d="M82.164,90.889c4.671,0,8.457,3.786,8.457,8.457
	c0,4.671-3.787,8.457-8.457,8.457c-4.671,0-8.457-3.786-8.457-8.457C73.706,94.676,77.493,90.889,82.164,90.889"/>
<path style="fill-rule:evenodd;clip-rule:evenodd;fill:#9C9C9C;" d="M50.544,172.85c0,0-3.625,1-4.625,7.5
	c-1,6.5-0.375,17.125,5.25,16.25c5.625-0.875,4.312-15.75,4.75-17.938C56.357,176.475,56.232,171.599,50.544,172.85"/>
<path style="fill-rule:evenodd;clip-rule:evenodd;fill:#5C5C5C;" d="M64.107,159.162c0,0-7.5,7.75,10.125,10.875
	c17.625,3.125,28.875-3.75,26.875-6.375C99.107,161.036,85.147,150.536,64.107,159.162"/>
<path style="fill-rule:evenodd;clip-rule:evenodd;fill:#9C9C9C;" d="M56.982,97.535c0.25,5.75,0.494,7.259,0.494,7.259
	c0.415,0.299,0.836,0.612,1.257,0.937c0.23-0.641,0.452-1.91,0.625-4.196c0.625-8.25,5.75-18.375,11.75-19.875
	c6-1.5,8.875-4.875,3.875-5.75c0,0-8.625-0.125-12.25,4.875C59.107,85.785,56.732,91.785,56.982,97.535"/>
<rect x="81.069" y="50.348" style="fill:none;stroke:#000000;stroke-width:2.0001;stroke-linecap:round;stroke-linejoin:round;stroke-miterlimit:22.9256;" width="2.75" height="16.125"/>
<rect x="81.069" y="50.348" style="fill-rule:evenodd;clip-rule:evenodd;fill:#6E6E6E;" width="2.75" height="16.125"/>
<path style="fill-rule:evenodd;clip-rule:evenodd;fill:#6E6E6E;" d="M82.444,41.785c2.899,0,5.25,2.35,5.25,5.25
	c0,2.9-2.351,5.25-5.25,5.25c-2.9,0-5.25-2.35-5.25-5.25C77.194,44.136,79.544,41.785,82.444,41.785z"/>
<path style="fill:none;stroke:#000000;stroke-width:1.0001;stroke-miterlimit:22.9256;" d="M82.444,41.785
	c2.899,0,5.25,2.35,5.25,5.25c0,2.9-2.351,5.25-5.25,5.25c-2.9,0-5.25-2.35-5.25-5.25C77.194,44.136,79.544,41.785,82.444,41.785z"
	/>
<path style="fill:none;stroke:#000000;stroke-width:2.0001;stroke-linecap:round;stroke-linejoin:round;stroke-miterlimit:22.9256;" d="
	M73.538,72.561H91.35c0.848,0,1.542-0.694,1.542-1.541v-4.443c0-0.848-0.694-1.542-1.542-1.542H73.538
	c-0.848,0-1.542,0.694-1.542,1.542v4.443C71.996,71.868,72.69,72.561,73.538,72.561z"/>
<path style="fill-rule:evenodd;clip-rule:evenodd;fill:#6E6E6E;" d="M73.538,72.561H91.35c0.848,0,1.542-0.694,1.542-1.541v-4.443
	c0-0.848-0.694-1.542-1.542-1.542H73.538c-0.848,0-1.542,0.694-1.542,1.542v4.443C71.996,71.868,72.69,72.561,73.538,72.561"/>
<path style="fill-rule:evenodd;clip-rule:evenodd;fill:#5C5C5C;" d="M106.857,201.536c7.625,1.125,18,8.75,20.375,10.5
	c1.137,0.838,4.48,1.361,7.683,1.349c-2.248-3.825-6.273-10.568-9.183-14.849c-3.303-4.857-10.079-9.488-12.935-11.311
	c-1.347,4.724-5.695,8.183-10.851,8.183c-3.315,0-6.296-1.429-8.36-3.706C93.587,191.703,99.232,200.412,106.857,201.536"/>
<path style="fill-rule:evenodd;clip-rule:evenodd;fill:#9C9C9C;" d="M73.506,66.755c-0.302-0.094,0.06,1.281-0.242,3.063
	c-0.303,1.781-0.064,2.064,1.251,1.947c1.315-0.117,2.317-1.541,2.256-2.791c-0.06-1.25-0.907-2.563-0.907-2.563
	S73.264,65.786,73.506,66.755"/>
<path style="fill-rule:evenodd;clip-rule:evenodd;fill:#5C5C5C;" d="M88.862,65.578c0,0-1.397-0.181-1.263,0.796
	c0.135,0.977-0.273,5.541,0.16,5.587c0.434,0.046,2.591-0.052,2.862-0.052C90.892,71.909,92.496,64.674,88.862,65.578"/>
<path style="fill-rule:evenodd;clip-rule:evenodd;fill:#5E5E5E;" d="M102.146,94.411c1.259,8.418,0.037,34.778,0.037,34.778h8.777
	h1.957c0.3-12.493-0.312-21.513-1.411-28.118c-2.905-17.46-5.727-18.413-9.361-21.285c-3.634-2.872-5.875-2.25-5.875-2.25
	S100.142,81.014,102.146,94.411"/>
<path style="fill-rule:evenodd;clip-rule:evenodd;fill:#5E5E5E;" d="M66.931,127.156l-0.819-4.057h-0.404
	c-1.301,2.298-3.193,4.362-5.484,6.09h6.225C66.776,127.974,66.931,127.156,66.931,127.156"/>
<path style="fill:none;stroke:#000000;stroke-width:2.0001;stroke-linecap:round;stroke-linejoin:round;stroke-miterlimit:22.9256;" d="
	M49.175,141.999h66.538c1.056,0,1.92-0.864,1.92-1.92v-8.97c0-1.056-0.864-1.92-1.92-1.92H49.175c-1.056,0-1.92,0.864-1.92,1.92
	v8.97C47.255,141.135,48.119,141.999,49.175,141.999z"/>
<path style="fill-rule:evenodd;clip-rule:evenodd;fill:#6E6E6E;" d="M49.175,141.999h66.538c1.056,0,1.92-0.864,1.92-1.92v-8.97
	c0-1.056-0.864-1.92-1.92-1.92H49.175c-1.056,0-1.92,0.864-1.92,1.92v8.97C47.255,141.135,48.119,141.999,49.175,141.999"/>
<path style="fill-rule:evenodd;clip-rule:evenodd;fill:#5E5E5E;" d="M105.119,141.999h9.039c0.738-3.966,1.515-9.769,0.488-12.81
	h-1.729h-1.957h-5.496c0.629,0.576,1.054,1.5,0.932,2.972c-0.375,4.5-2.625,8.588-3.5,9.838H105.119z"/>
<path style="fill-rule:evenodd;clip-rule:evenodd;fill:#9C9C9C;" d="M81.088,43.443c-0.532,0.094-2.031,0.75-2.125,1.688
	c-0.094,0.938-1.063,2.219,0.75,1.625C81.525,46.162,83.244,44.1,81.088,43.443"/>
<path style="fill-rule:evenodd;clip-rule:evenodd;fill:#5C5C5C;" d="M80.713,49.975c0,0,1.962,1.156,3.106,0.906
	c1.144-0.25,2.956-2.875,2.706-3.875c-0.25-1-0.844-1.75-0.844-1.75S85.334,49.701,80.713,49.975"/>
<path style="fill-rule:evenodd;clip-rule:evenodd;fill:#FFFFFF;" d="M79.777,93.475c-1.5,0.469-3.062,1.75-3.375,3.188
	c-0.313,1.438-1.469,3.031-0.313,3.187c1.156,0.156,1.687-0.843,2.344-2.031C79.09,96.631,85.277,92.819,79.777,93.475"/>
<path style="fill-rule:evenodd;clip-rule:evenodd;fill:#786100;" d="M79.683,104.6c0.375,0.531,1.219,1.406,3.688,1.281
	c2.469-0.125,5.062-2.5,5.5-3.937c0.438-1.438-1-5.094-1-5.094s-1.062-0.219-1.563,2.281c-0.5,2.5-2.531,5.063-3.844,4.469
	C81.152,103.007,78.527,103.007,79.683,104.6"/>
<path style="fill-rule:evenodd;clip-rule:evenodd;fill:#5E5E5E;" d="M68.42,159.06l15.977,0.679c0.612,0.026,1.134-0.453,1.16-1.065
	l0.136-3.207c0.026-0.612-0.453-1.134-1.065-1.16l-15.977-0.679c-0.612-0.026-1.134,0.453-1.16,1.066l-0.136,3.206
	C67.328,158.512,67.808,159.034,68.42,159.06z"/>
<path style="fill:none;stroke:#000000;stroke-width:1.0001;stroke-miterlimit:22.9256;" d="M68.42,159.06l15.977,0.679
	c0.612,0.026,1.134-0.453,1.16-1.065l0.136-3.207c0.026-0.612-0.453-1.134-1.065-1.16l-15.977-0.679
	c-0.612-0.026-1.134,0.453-1.16,1.066l-0.136,3.206C67.328,158.512,67.808,159.034,68.42,159.06z"/>
<path style="fill-rule:evenodd;clip-rule:evenodd;fill:#5C5C5C;" d="M120.554,245.558c-13.06-6.905-38.036-23.001-45.638-28.324
	l-8.851,6.989c11.28,7.73,34.58,22.912,50.053,29.26C119.039,254.608,128.466,249.531,120.554,245.558"/>
<path style="fill:none;stroke:#000000;stroke-width:2.0001;stroke-linecap:round;stroke-linejoin:round;stroke-miterlimit:22.9256;" d="
	M125.026,262.793l29.662-29.662c0.29-0.29,0.298-0.772,0-1.054l-3.274-3.087c-0.298-0.281-0.763-0.288-1.054,0l-29.85,29.663
	c-0.29,0.288-0.306,0.781,0,1.053l3.461,3.087C124.279,263.066,124.737,263.083,125.026,262.793z"/>
<path style="fill-rule:evenodd;clip-rule:evenodd;fill:#6E6E6E;" d="M125.026,262.793l29.662-29.662c0.29-0.29,0.298-0.772,0-1.054
	l-3.274-3.087c-0.298-0.281-0.763-0.288-1.054,0l-29.85,29.663c-0.29,0.288-0.306,0.781,0,1.053l3.461,3.087
	C124.279,263.066,124.737,263.083,125.026,262.793"/>
<path style="fill-rule:evenodd;clip-rule:evenodd;fill:#6E6E6E;" d="M119.879,230.914c4.515,0,8.249,3.661,8.175,8.175l-0.123,7.456
	c-0.01,0.612-0.543,1.089-1.154,1.06l-14.002-0.667c-0.612-0.029-1.07-0.553-1.07-1.166l-0.001-6.682
	C111.704,234.574,115.364,230.914,119.879,230.914z"/>
<path style="fill:none;stroke:#000000;stroke-width:1.0001;stroke-miterlimit:22.9256;" d="M119.879,230.914
	c4.515,0,8.249,3.661,8.175,8.175l-0.123,7.456c-0.01,0.612-0.543,1.089-1.154,1.06l-14.002-0.667
	c-0.612-0.029-1.07-0.553-1.07-1.166l-0.001-6.682C111.704,234.574,115.364,230.914,119.879,230.914z"/>
<circle style="fill:none;stroke:#000000;stroke-width:2.0001;stroke-linecap:round;stroke-linejoin:round;stroke-miterlimit:22.9256;" cx="120.027" cy="238.968" r="4.625"/>
<path style="fill-rule:evenodd;clip-rule:evenodd;fill:#C79E00;" d="M120.027,234.343c2.554,0,4.625,2.071,4.625,4.625
	c0,2.554-2.071,4.625-4.625,4.625s-4.625-2.071-4.625-4.625C115.402,236.414,117.473,234.343,120.027,234.343"/>
<path style="fill-rule:evenodd;clip-rule:evenodd;fill:#FFFFFF;" d="M118.807,235.069c0.638,0,0.84,0.657,0.84,1.313
	c0,0.656-1.043,1.198-1.681,1.198c-0.638,0-0.63-0.542-0.63-1.198C117.337,235.726,118.169,235.069,118.807,235.069"/>
<path style="fill-rule:evenodd;clip-rule:evenodd;fill:#786100;" d="M117.53,241.703c0,0,2.334,1.833,4.326,0.683
	c1.993-1.15,1.719-3.757,1.4-3.928c-0.319-0.171-2.004,1.036-2.516,1.992C120.228,241.407,116.732,240.109,117.53,241.703"/>
<path style="fill:none;stroke:#000000;stroke-width:1.0001;stroke-linecap:round;stroke-linejoin:round;stroke-miterlimit:22.9256;" d="
	M118.269,240.719l3.368-3.41 M117.977,237.725l3.825,2.744"/>
<path style="fill-rule:evenodd;clip-rule:evenodd;fill:#696B6B;" d="M113.166,185.317c-0.658,6.196-6.214,10.686-12.41,10.028
	c-6.196-0.658-10.686-6.214-10.028-12.41c0.326-3.067,1.852-5.716,4.063-7.529l-0.001-0.001c0,0,4.102-3.492,12.301-10.457
	c8.415-7.148,21.146-17.956,38.19-32.401c-5.083,4.314-3.867,12.435,2.108,15.156c-1.427,0.769-2.794,1.532-4.105,2.287
	c-19.57,11.272-26.511,20.887-28.965,26.507C112.66,180.295,113.516,182.023,113.166,185.317z"/>
<path style="fill:none;stroke:#000000;stroke-width:1.0001;stroke-miterlimit:22.9256;" d="M113.166,185.317
	c-0.658,6.196-6.214,10.686-12.41,10.028c-6.196-0.658-10.686-6.214-10.028-12.41c0.326-3.067,1.852-5.716,4.063-7.529l-0.001-0.001
	c0,0,4.102-3.492,12.301-10.457c8.415-7.148,21.146-17.956,38.19-32.401c-5.083,4.314-3.867,12.435,2.108,15.156
	c-1.427,0.769-2.794,1.532-4.105,2.287c-19.57,11.272-26.511,20.887-28.965,26.507C112.66,180.295,113.516,182.023,113.166,185.317z
	"/>
<path style="fill:none;stroke:#000000;stroke-width:2.0001;stroke-linecap:round;stroke-linejoin:round;stroke-miterlimit:22.9256;" d="
	M102.617,177.815c3.486,0.37,6.012,3.496,5.642,6.982c-0.37,3.486-3.496,6.012-6.982,5.642c-3.486-0.37-6.012-3.496-5.642-6.982
	C96.005,179.97,99.131,177.445,102.617,177.815z"/>
<path style="fill-rule:evenodd;clip-rule:evenodd;fill:#C79E00;" d="M102.617,177.815c3.486,0.37,6.012,3.496,5.642,6.982
	c-0.37,3.486-3.496,6.012-6.982,5.642c-3.486-0.37-6.012-3.496-5.642-6.982C96.005,179.97,99.131,177.445,102.617,177.815"/>
<path style="fill-rule:evenodd;clip-rule:evenodd;fill:#FFFFFF;" d="M100.847,178.628c0.871,0.092,1.052,1.019,0.957,1.914
	c-0.095,0.895-1.596,1.483-2.467,1.391c-0.871-0.092-0.782-0.831-0.687-1.726C98.745,179.312,99.976,178.536,100.847,178.628"/>
<path style="fill-rule:evenodd;clip-rule:evenodd;fill:#786100;" d="M98.143,187.497c0,0,2.92,2.839,5.805,1.559
	c2.886-1.28,2.891-4.878,2.48-5.158c-0.41-0.279-2.884,1.124-3.722,2.355C101.868,187.484,97.286,185.206,98.143,187.497"/>
<path style="fill:none;stroke:#000000;stroke-width:2.0001;stroke-linecap:round;stroke-linejoin:round;stroke-miterlimit:22.9256;" d="
	M99.294,186.261l5.09-4.165 M99.33,182.132l4.823,4.3"/>
<path style="fill:none;stroke:#000000;stroke-width:2.0001;stroke-linecap:round;stroke-linejoin:round;stroke-miterlimit:22.9256;" d="
	M137.395,198.397c-7.725-7.693-11.932-19.472-11.186-21.299s22.861-36.101,22.861-36.101l6.956,0.528L137.395,198.397z"/>
<path style="fill-rule:evenodd;clip-rule:evenodd;fill:#C79E00;" d="M137.395,198.397c-7.725-7.693-11.932-19.472-11.186-21.299
	s22.861-36.101,22.861-36.101l6.956,0.528L137.395,198.397z"/>
<path style="fill:none;stroke:#000000;stroke-width:2.0001;stroke-linecap:round;stroke-linejoin:round;stroke-miterlimit:22.9256;" d="
	M271.555,134.975c-10.289,18.768-29.189,23.927-33.042,23.518c-3.854-0.409-81.583-14.192-81.583-14.192l-2.804-13.407
	L271.555,134.975z"/>
<path style="fill-rule:evenodd;clip-rule:evenodd;fill:#C79E00;" d="M271.555,134.975c-10.289,18.768-29.189,23.927-33.042,23.518
	c-3.854-0.409-81.583-14.192-81.583-14.192l-2.804-13.407L271.555,134.975z"/>
<path style="fill-rule:evenodd;clip-rule:evenodd;fill:#786100;" d="M150.283,159.055c-0.109-4.053-0.202-7.758-0.273-10.61
	c-0.93-0.117-1.811-0.372-2.623-0.742c-1.427,0.769-2.794,1.532-4.105,2.287c-0.617,0.962-1.265,1.971-1.931,3.009
	c0,0,7.362-4.698,6.592,13.197L150.283,159.055z"/>
<path style="fill:none;stroke:#000000;stroke-width:2.0001;stroke-linecap:round;stroke-linejoin:round;stroke-miterlimit:22.9256;" d="
	M233.735,196.814c-16.368,7.18-37.517,1.964-39.859-0.27c-2.342-2.233-40.747-51.94-40.747-51.94l4.973-10.3L233.735,196.814z"/>
<path style="fill-rule:evenodd;clip-rule:evenodd;fill:#C79E00;" d="M233.735,196.814c-16.368,7.18-37.517,1.964-39.859-0.27
	c-2.342-2.233-40.747-51.94-40.747-51.94l4.973-10.3L233.735,196.814z"/>
<path style="fill-rule:evenodd;clip-rule:evenodd;fill:#786100;" d="M200.932,169.701c-14.488-7.788-31.816-17.16-40.359-21.785
	c-1.053-0.57-1.972-1.068-2.737-1.481c-0.198-0.107-0.386-0.209-0.563-0.305c-0.578,0.53-1.223,0.984-1.919,1.35
	c0.435,0.562,0.926,1.197,1.466,1.895c0.807-0.224,1.636-0.25,2.311,0.176c0.755,0.475,1.624,1.022,2.593,1.628
	c12.003,7.514,39.316,24.302,54.269,30.972L200.932,169.701z"/>
<path style="fill:none;stroke:#000000;stroke-width:2.0001;stroke-linecap:round;stroke-linejoin:round;stroke-miterlimit:22.9256;" d="
	M181.663,207.636c-13.343-1.707-29.404-12.502-30.05-14.85c-0.646-2.348-1.739-50.061-1.739-50.061l7.199-4.72L181.663,207.636z"/>
<path style="fill-rule:evenodd;clip-rule:evenodd;fill:#C79E00;" d="M181.663,207.636c-13.343-1.707-29.404-12.502-30.05-14.85
	c-0.646-2.348-1.739-50.061-1.739-50.061l7.199-4.72L181.663,207.636z"/>
<path style="fill-rule:evenodd;clip-rule:evenodd;fill:#786100;" d="M164.66,159.49c-3.068-3.954-5.804-7.485-7.84-10.115
	c-0.54-0.698-1.031-1.333-1.466-1.895c-0.472,0.248-0.968,0.455-1.482,0.618c-1.155,0.365-2.402,0.503-3.684,0.367
	c-0.06-0.007-0.119-0.013-0.178-0.021l0.065,2.607c0.67-0.077,1.712-0.119,2.783,0.143c0.988,0.242,2,0.743,2.765,1.715
	c1.655,2.102,8.304,9.641,11.322,13.052L164.66,159.49z"/>
<path style="fill:none;stroke:#000000;stroke-width:2.0001;stroke-linecap:round;stroke-linejoin:round;stroke-miterlimit:22.9256;" d="
	M261.107,169.193c-14.59,13.974-33.215,14.494-36.568,13.032c-3.353-1.462-69.263-37.176-69.263-37.176l1.282-12.865
	L261.107,169.193z"/>
<path style="fill-rule:evenodd;clip-rule:evenodd;fill:#C79E00;" d="M261.107,169.193c-14.59,13.974-33.215,14.494-36.568,13.032
	c-3.353-1.462-69.263-37.176-69.263-37.176l1.282-12.865L261.107,169.193z"/>
<path style="fill-rule:evenodd;clip-rule:evenodd;fill:#786100;" d="M173.812,147.288c-6.333-1.118-11.476-2.028-14.358-2.539
	c-0.308-0.055-0.591-0.105-0.846-0.15c-0.387,0.561-0.836,1.075-1.334,1.532l3.612,1.956c25.878,5.422,52.119,10.046,78.871,13.548
	l-15.636-5.535C210.025,153.67,188.653,149.908,173.812,147.288 M157.836,146.435C157.01,145.988,157.328,146.16,157.836,146.435z"
	/>
<path style="fill-rule:evenodd;clip-rule:evenodd;fill:#696B6B;" d="M152.102,130.444c4.977,0.528,8.583,4.991,8.055,9.968
	c-0.528,4.977-4.991,8.583-9.968,8.055c-4.977-0.528-8.583-4.991-8.055-9.968C142.663,133.521,147.126,129.915,152.102,130.444z"/>
<path style="fill:none;stroke:#000000;stroke-width:1.0001;stroke-miterlimit:22.9256;" d="M152.102,130.444
	c4.977,0.528,8.583,4.991,8.055,9.968c-0.528,4.977-4.991,8.583-9.968,8.055c-4.977-0.528-8.583-4.991-8.055-9.968
	C142.663,133.521,147.126,129.915,152.102,130.444z"/>
<path style="fill:none;stroke:#000000;stroke-width:1.0001;stroke-linejoin:round;stroke-miterlimit:22.9256;" d="M151.95,133.65
	c3.182,0.338,5.488,3.192,5.151,6.374c-0.338,3.182-3.192,5.488-6.374,5.15c-3.182-0.338-5.488-3.191-5.15-6.374
	C145.915,135.618,148.768,133.312,151.95,133.65z"/>
<path style="fill-rule:evenodd;clip-rule:evenodd;fill:#C79E00;" d="M151.95,133.65c3.182,0.338,5.488,3.192,5.151,6.374
	c-0.338,3.182-3.192,5.488-6.374,5.15c-3.182-0.338-5.488-3.191-5.15-6.374C145.915,135.618,148.768,133.312,151.95,133.65"/>
<path style="fill-rule:evenodd;clip-rule:evenodd;fill:#FFFFFF;" d="M150.335,134.393c0.795,0.085,0.96,0.93,0.873,1.747
	c-0.087,0.817-1.458,1.354-2.253,1.27c-0.795-0.084-0.714-0.759-0.627-1.575C148.415,135.017,149.54,134.308,150.335,134.393"/>
<path style="fill-rule:evenodd;clip-rule:evenodd;fill:#786100;" d="M147.866,142.489c0,0,2.666,2.593,5.3,1.423
	c2.634-1.169,2.639-4.453,2.264-4.708c-0.375-0.255-2.633,1.026-3.398,2.15C151.267,142.477,147.083,140.398,147.866,142.489"/>
<path style="fill:none;stroke:#000000;stroke-width:2.0001;stroke-linecap:round;stroke-linejoin:round;stroke-miterlimit:22.9256;" d="
	M148.916,141.361l4.647-3.803 M148.95,137.592l4.403,3.925"/>
<path style="fill-rule:evenodd;clip-rule:evenodd;fill:#6E6E6E;" d="M70.258,154.961c-0.47,0.09-0.648,1.569-0.554,1.917
	c0.094,0.349-0.675,0.825,0.15,0.9c0.825,0.075,1.475,0.247,1.612-0.375C71.603,156.783,73.655,154.44,70.258,154.961"/>
<path style="fill-rule:evenodd;clip-rule:evenodd;fill:#6E6E6E;" d="M74.841,142.966c-0.15,0.937-0.562,2.588-0.113,2.7
	c0.45,0.112,1.425,1.275,2.1-0.075C77.504,144.241,78.854,142.591,74.841,142.966"/>
<path style="fill:none;stroke:#000000;stroke-width:1.0001;stroke-miterlimit:22.9256;" d="M82.024,152.993l-6.819-1.446
	 M77.036,149.547l7.387,0.975"/>
<path style="fill:none;stroke:#000000;stroke-width:2.0001;stroke-linecap:round;stroke-linejoin:round;stroke-miterlimit:22.9256;" d="
	M44.93,211.887l15.895-14.207c6.39-5.712,11.723-1.858,15.939,1.86c2.964,2.613,7.79,10.04-0.492,16.974l-14.122,12.395
	c-0.255,0.224-0.634,0.242-0.875,0.001l-16.343-16.148C44.69,212.524,44.663,212.098,44.93,211.887z"/>
<path style="fill-rule:evenodd;clip-rule:evenodd;fill:#C79E00;" d="M44.93,211.887l15.895-14.207
	c6.39-5.712,11.723-1.858,15.939,1.86c2.964,2.613,7.79,10.04-0.492,16.974l-14.122,12.395c-0.255,0.224-0.634,0.242-0.875,0.001
	l-16.343-16.148C44.69,212.524,44.663,212.098,44.93,211.887"/>
<path style="fill:none;stroke:#000000;stroke-width:2.0001;stroke-linecap:round;stroke-linejoin:round;stroke-miterlimit:22.9256;" d="
	M66.184,196.525c1.252,0,2.268,1.015,2.268,2.268c0,1.252-1.015,2.268-2.268,2.268c-1.252,0-2.268-1.015-2.268-2.268
	C63.916,197.54,64.932,196.525,66.184,196.525z"/>
<path style="fill-rule:evenodd;clip-rule:evenodd;fill:#C79E00;" d="M66.184,196.525c1.252,0,2.268,1.015,2.268,2.268
	c0,1.252-1.015,2.268-2.268,2.268c-1.252,0-2.268-1.015-2.268-2.268C63.916,197.54,64.932,196.525,66.184,196.525"/>
<path style="fill-rule:evenodd;clip-rule:evenodd;fill:#786100;" d="M64.933,199.696c-0.036,0.378,1.361,0.712,1.712,0.618
	c1.24-0.333,1.254-1.783,0.723-1.996C67.368,198.318,66.67,200.198,64.933,199.696"/>
<path style="fill-rule:evenodd;clip-rule:evenodd;fill:#FFFFFF;" d="M65.384,197.593c0.25,0,0.452,0.202,0.452,0.452
	c0,0.249-0.202,0.452-0.452,0.452c-0.249,0-0.452-0.202-0.452-0.452C64.933,197.795,65.135,197.593,65.384,197.593"/>
<path style="fill:none;stroke:#000000;stroke-width:2.0001;stroke-linecap:round;stroke-linejoin:round;stroke-miterlimit:22.9256;" d="
	M69.247,206.617c-0.46-0.501-0.962-0.789-1.505-0.865c-0.543-0.076-1.003,0.059-1.379,0.405c-0.351,0.323-0.504,0.753-0.459,1.292
	c0.045,0.539,0.287,1.048,0.728,1.528c0.458,0.498,0.96,0.786,1.506,0.862c0.545,0.075,1.004-0.058,1.379-0.403
	c0.35-0.321,0.502-0.752,0.457-1.293C69.929,207.603,69.686,207.094,69.247,206.617z M70.144,205.6
	c0.677,0.736,1.012,1.554,1.008,2.453c-0.006,0.898-0.341,1.652-1.005,2.263c-0.633,0.582-1.366,0.846-2.202,0.795
	c-0.835-0.051-1.568-0.422-2.198-1.106c-0.677-0.736-1.014-1.553-1.009-2.452c0.007-0.899,0.342-1.653,1.006-2.264
	c0.632-0.581,1.365-0.848,2.201-0.796C68.778,204.543,69.512,204.913,70.144,205.6z M61.067,209.789l0.684,0.796
	c-0.511,0.404-0.98,0.802-1.404,1.192c0.413,0.459,0.874,0.965,1.385,1.521c0.793,0.863,1.558,1.666,2.291,2.412l-1.006,0.926
	c-0.671-0.79-1.405-1.621-2.205-2.491c-0.502-0.546-0.972-1.047-1.408-1.501c-0.337,0.31-0.783,0.757-1.338,1.338l-0.684-0.803
	L61.067,209.789z M56.061,217.101c-0.472-0.513-1.047-0.457-1.729,0.17c-0.17,0.156-0.334,0.339-0.489,0.549
	c0.442,0.43,0.928,0.93,1.455,1.503c0.063-0.052,0.134-0.113,0.214-0.186C56.387,218.333,56.57,217.655,56.061,217.101z
	 M56.807,216.051c0.526,0.572,0.703,1.19,0.529,1.856c-0.175,0.664-0.57,1.281-1.189,1.85c-0.113,0.104-0.195,0.175-0.248,0.214
	c0.414,0.451,0.974,1.032,1.68,1.747l-1.01,0.929c-0.606-0.72-1.341-1.552-2.205-2.491c-0.793-0.863-1.495-1.593-2.1-2.189
	l0.626-0.576c0.088-0.081,0.256-0.242,0.5-0.48c0.245-0.239,0.459-0.442,0.644-0.613c0.456-0.419,0.935-0.669,1.438-0.751
	C55.976,215.463,56.421,215.631,56.807,216.051z"/>
<path style="fill:#786100;" d="M69.247,206.617c-0.46-0.501-0.962-0.789-1.505-0.865c-0.543-0.076-1.003,0.059-1.379,0.405
	c-0.351,0.323-0.504,0.753-0.459,1.292c0.045,0.539,0.287,1.048,0.728,1.528c0.458,0.498,0.96,0.786,1.506,0.862
	c0.545,0.075,1.004-0.058,1.379-0.403c0.35-0.321,0.502-0.752,0.457-1.293C69.929,207.603,69.686,207.094,69.247,206.617
	 M70.144,205.6c0.677,0.736,1.012,1.554,1.008,2.453c-0.006,0.898-0.341,1.652-1.005,2.263c-0.633,0.582-1.366,0.846-2.202,0.795
	c-0.835-0.051-1.568-0.422-2.198-1.106c-0.677-0.736-1.014-1.553-1.009-2.452c0.007-0.899,0.342-1.653,1.006-2.264
	c0.632-0.581,1.365-0.848,2.201-0.796C68.778,204.543,69.512,204.913,70.144,205.6z M61.067,209.789l0.684,0.796
	c-0.511,0.404-0.98,0.802-1.404,1.192c0.413,0.459,0.874,0.965,1.385,1.521c0.793,0.863,1.558,1.666,2.291,2.412l-1.006,0.926
	c-0.671-0.79-1.405-1.621-2.205-2.491c-0.502-0.546-0.972-1.047-1.408-1.501c-0.337,0.31-0.783,0.757-1.338,1.338l-0.684-0.803
	L61.067,209.789z M56.061,217.101c-0.472-0.513-1.047-0.457-1.729,0.17c-0.17,0.156-0.334,0.339-0.489,0.549
	c0.442,0.43,0.928,0.93,1.455,1.503c0.063-0.052,0.134-0.113,0.214-0.186C56.387,218.333,56.57,217.655,56.061,217.101z
	 M56.807,216.051c0.526,0.572,0.703,1.19,0.529,1.856c-0.175,0.664-0.57,1.281-1.189,1.85c-0.113,0.104-0.195,0.175-0.248,0.214
	c0.414,0.451,0.974,1.032,1.68,1.747l-1.01,0.929c-0.606-0.72-1.341-1.552-2.205-2.491c-0.793-0.863-1.495-1.593-2.1-2.189
	l0.626-0.576c0.088-0.081,0.256-0.242,0.5-0.48c0.245-0.239,0.459-0.442,0.644-0.613c0.456-0.419,0.935-0.669,1.438-0.751
	C55.976,215.463,56.421,215.631,56.807,216.051z"/>
<path style="fill:none;stroke:#000000;stroke-width:2.0001;stroke-linecap:round;stroke-linejoin:round;stroke-miterlimit:22.9256;" d="
	M223.569,240.965l-64.523,5.077C191.354,264.316,220.527,255.413,223.569,240.965z"/>
<path style="fill-rule:evenodd;clip-rule:evenodd;fill:#C79E00;" d="M223.569,240.965l-64.523,5.077
	C191.354,264.316,220.527,255.413,223.569,240.965"/>
<path style="fill:none;stroke:#000000;stroke-width:2.0001;stroke-linecap:round;stroke-linejoin:round;stroke-miterlimit:22.9256;" d="
	M236.609,255.398l-74.552-5.907C193.734,277.027,230.517,271.334,236.609,255.398z"/>
<path style="fill-rule:evenodd;clip-rule:evenodd;fill:#C79E00;" d="M236.609,255.398l-74.552-5.907
	C193.734,277.027,230.517,271.334,236.609,255.398"/>
<path style="fill:none;stroke:#000000;stroke-width:2.0001;stroke-linecap:round;stroke-linejoin:round;stroke-miterlimit:22.9256;" d="
	M243.397,278.925l-80.045-23.73C182.443,288.536,233.051,294.916,243.397,278.925z"/>
<path style="fill-rule:evenodd;clip-rule:evenodd;fill:#C79E00;" d="M243.397,278.925l-80.045-23.73
	C182.443,288.536,233.051,294.916,243.397,278.925"/>
<path style="fill:none;stroke:#000000;stroke-width:2.0001;stroke-linecap:round;stroke-linejoin:round;stroke-miterlimit:22.9256;" d="
	M223.484,295.569l-64.729-36.533C165.411,293.212,211.323,307.385,223.484,295.569z"/>
<path style="fill-rule:evenodd;clip-rule:evenodd;fill:#C79E00;" d="M223.484,295.569l-64.729-36.533
	C165.411,293.212,211.323,307.385,223.484,295.569"/>
<path style="fill:none;stroke:#000000;stroke-width:1.0001;stroke-linecap:round;stroke-linejoin:round;stroke-miterlimit:22.9256;" d="
	M139.327,248.072l19.428,10.965 M139.681,247.718l22.376,1.773 M139.681,247.566l19.365-1.524 M139.327,248.072l24.025,7.122
	 M139.328,248.072l13.087,13.023"/>
<path style="fill:none;stroke:#000000;stroke-width:2.0001;stroke-linecap:round;stroke-linejoin:round;stroke-miterlimit:22.9256;" d="
	M196.017,304.485l-43.602-43.39C154.266,290.913,183.714,311.235,196.017,304.485z"/>
<path style="fill-rule:evenodd;clip-rule:evenodd;fill:#C79E00;" d="M196.017,304.485l-43.602-43.39
	C154.266,290.913,183.714,311.235,196.017,304.485"/>
<path style="fill:none;stroke:#000000;stroke-width:2.0001;stroke-linecap:round;stroke-linejoin:round;stroke-miterlimit:22.9256;" d="
	M138.276,280.013l-10.508,8.021l-6.585-2.255l13.585-10.371C138.288,272.135,141.729,278.131,138.276,280.013z"/>
<path style="fill-rule:evenodd;clip-rule:evenodd;fill:#5E5E5E;" d="M138.276,280.013l-10.508,8.021l-6.585-2.255l13.585-10.371
	C138.288,272.135,141.729,278.131,138.276,280.013"/>
<path style="fill:none;stroke:#000000;stroke-width:1.0001;stroke-linecap:round;stroke-linejoin:round;stroke-miterlimit:22.9256;" d="
	M132.259,277.04c1.517-0.064,4.332,2.703,3.122,5.845 M130.093,278.458c1.89,0.877,4.16,1.949,3.53,5.528 M128.39,279.757
	c2.119,0.643,3.86,2.262,3.351,5.698 M126.898,280.897c2.191,1.068,3.696,3.303,3.006,6.324 M123.57,283.814
	c1.2,0.706,2.481,2.178,2.857,3.816 M125.274,282.364c1.764,0.92,3.289,2.923,3.048,5.962 M134.702,274.825
	c2.345,0.515,4.774,3.426,2.882,6.231"/>
<rect x="116.118" y="251.641" style="fill:none;stroke:#000000;stroke-width:2.0001;stroke-linecap:round;stroke-linejoin:round;stroke-miterlimit:22.9256;" width="7.58" height="30.789"/>
<rect x="116.118" y="251.641" style="fill-rule:evenodd;clip-rule:evenodd;fill:#6E6E6E;" width="7.58" height="30.789"/>
<path style="fill:none;stroke:#000000;stroke-width:1.0001;stroke-linecap:round;stroke-linejoin:round;stroke-miterlimit:22.9256;" d="
	M115.92,256.171l7.778,1.544 M115.92,259.519l7.778,1.545 M115.92,261.813l7.778,1.545 M115.92,264.132l7.778,1.544 M115.92,268.996
	l7.778,1.544 M115.92,272.091l7.778,1.153 M115.92,274.639l7.778,1.545 M115.92,276.957l7.778,1.544 M115.92,279.478l7.778,1.545
	 M115.961,266.534l7.737,1.498 M115.92,253.225l7.778,1.544"/>
<path style="fill:none;stroke:#000000;stroke-width:2.0001;stroke-linecap:round;stroke-linejoin:round;stroke-miterlimit:22.9256;" d="
	M119.195,282.467c7.867,0,10.223,3.942,10.223,11.103h-20.068C109.351,286.409,111.329,282.467,119.195,282.467z"/>
<path style="fill-rule:evenodd;clip-rule:evenodd;fill:#6E6E6E;" d="M119.195,282.467c7.867,0,10.223,3.942,10.223,11.103h-20.068
	C109.351,286.409,111.329,282.467,119.195,282.467"/>
<path style="fill:none;stroke:#000000;stroke-width:2.0001;stroke-linecap:round;stroke-linejoin:round;stroke-miterlimit:22.9256;" d="
	M114.759,292.629L92.638,305.73c-3.033,2.076-6.724-2.955-2.493-5.25l21.669-12.834
	C115.693,284.806,118.409,291.163,114.759,292.629z"/>
<path style="fill-rule:evenodd;clip-rule:evenodd;fill:#6E6E6E;" d="M114.759,292.629L92.638,305.73
	c-3.033,2.076-6.724-2.955-2.493-5.25l21.669-12.834C115.693,284.806,118.409,291.163,114.759,292.629"/>
<path style="fill:none;stroke:#000000;stroke-width:1.0001;stroke-linecap:round;stroke-linejoin:round;stroke-miterlimit:22.9256;" d="
	M108.698,289.957c1.455,0.115,3.741,2.441,2.097,5.02 M106.681,291.096c1.663,0.97,2.778,2.337,1.619,5.359 M104.971,292.109
	c1.917,0.794,2.642,2.446,1.619,5.359 M103.243,293.132c1.921,1.169,2.749,2.825,1.619,5.359 M99.617,295.279
	c1.478,1.067,2.348,2.6,1.619,5.359 M97.311,296.646c1.662,0.952,2.577,2.47,1.911,5.186 M95.412,297.77
	c1.616,0.882,2.533,2.352,1.619,5.359 M93.684,298.793c1.614,1.197,2.549,2.766,1.619,5.359 M90.373,300.345
	c2.657-0.058,4.05,3.774,2.823,5.054 M101.467,294.217c1.587,1.026,2.479,2.55,1.639,5.314 M111.371,288.318
	c2.153,0.708,3.86,3.148,1.619,5.359"/>
<path style="fill-rule:evenodd;clip-rule:evenodd;fill:#5C5C5C;" d="M121.83,293.379l-18.618,17.73
	c-2.49,2.704-7.215-1.371-3.607-4.557l18.238-17.368C120.985,285.546,125.058,291.132,121.83,293.379z"/>
<path style="fill:none;stroke:#000000;stroke-width:1.0001;stroke-miterlimit:22.9256;" d="M121.83,293.379l-18.618,17.73
	c-2.49,2.704-7.215-1.371-3.607-4.557l18.238-17.368C120.985,285.546,125.058,291.132,121.83,293.379z"/>
<path style="fill:none;stroke:#000000;stroke-width:1.0001;stroke-linecap:round;stroke-linejoin:round;stroke-miterlimit:22.9256;" d="
	M115.324,292.135c1.444-0.215,4.193,1.539,3.169,4.422 M113.614,293.697c1.838,0.572,3.232,1.654,2.78,4.859 M112.174,295.068
	c2.046,0.343,3.123,1.791,2.78,4.859 M110.72,296.453c2.133,0.708,3.313,2.137,2.78,4.859 M107.669,299.359
	c1.68,0.708,2.871,2.007,2.78,4.859 M105.727,301.207c1.833,0.556,3.066,1.829,3.026,4.625 M104.129,302.729
	c1.773,0.497,2.996,1.724,2.78,4.859 M102.675,304.114c1.842,0.804,3.104,2.123,2.78,4.859 M99.797,306.369
	c2.576-0.653,4.793,2.77,3.885,4.293 M109.232,297.909c1.777,0.644,2.988,1.928,2.789,4.811 M117.561,289.938
	c2.257,0.207,4.468,2.202,2.78,4.859"/>
<path style="fill-rule:evenodd;clip-rule:evenodd;fill:#5C5C5C;" d="M122.243,284.764c0.34,0.34,3.415,4.878,2.552,6.528
	c-0.863,1.65,2.55,1.163,2.55,1.163C127.185,290.526,128.212,285.361,122.243,284.764"/>
<path style="fill-rule:evenodd;clip-rule:evenodd;fill:#6E6E6E;" d="M113.769,251.533l12.045,0.555
	c0.507,0.023,0.937-0.372,0.957-0.879l0.104-2.655c0.02-0.507-0.378-0.94-0.885-0.964l-12.045-0.555
	c-0.507-0.023-0.937,0.372-0.957,0.879l-0.104,2.655C112.864,251.076,113.262,251.509,113.769,251.533z"/>
<path style="fill:none;stroke:#000000;stroke-width:1.0001;stroke-miterlimit:22.9256;" d="M113.769,251.533l12.045,0.555
	c0.507,0.023,0.937-0.372,0.957-0.879l0.104-2.655c0.02-0.507-0.378-0.94-0.885-0.964l-12.045-0.555
	c-0.507-0.023-0.937,0.372-0.957,0.879l-0.104,2.655C112.864,251.076,113.262,251.509,113.769,251.533z"/>
<circle style="fill:none;stroke:#000000;stroke-width:2.0001;stroke-linecap:round;stroke-linejoin:round;stroke-miterlimit:22.9256;" cx="77.434" cy="207.868" r="2.268"/>
<path style="fill-rule:evenodd;clip-rule:evenodd;fill:#C79E00;" d="M77.434,205.6c1.252,0,2.268,1.015,2.268,2.268
	c0,1.252-1.015,2.268-2.268,2.268c-1.252,0-2.268-1.015-2.268-2.268C75.166,206.616,76.182,205.6,77.434,205.6"/>
<path style="fill-rule:evenodd;clip-rule:evenodd;fill:#786100;" d="M76.183,208.771c-0.037,0.378,1.361,0.712,1.712,0.618
	c1.24-0.333,1.254-1.783,0.723-1.996C78.618,207.393,77.92,209.273,76.183,208.771"/>
<path style="fill-rule:evenodd;clip-rule:evenodd;fill:#FFFFFF;" d="M76.635,206.668c0.25,0,0.452,0.202,0.452,0.452
	c0,0.249-0.202,0.452-0.452,0.452c-0.249,0-0.452-0.202-0.452-0.452C76.183,206.87,76.385,206.668,76.635,206.668"/>
<path style="fill-rule:evenodd;clip-rule:evenodd;fill:#696B6B;" d="M71.135,113.725c2.589,0,4.687,2.098,4.687,4.687
	c0,2.589-2.098,4.687-4.687,4.687h-10.75v-9.374H71.135z"/>
<path style="fill:none;stroke:#000000;stroke-width:1.0001;stroke-miterlimit:22.9256;" d="M71.135,113.725
	c2.589,0,4.687,2.098,4.687,4.687c0,2.589-2.098,4.687-4.687,4.687h-10.75v-9.374H71.135z"/>
<path style="fill-rule:evenodd;clip-rule:evenodd;fill:#696B6B;" d="M71.135,116.037c1.312,0,2.375,1.063,2.375,2.375
	c0,1.312-1.063,2.375-2.375,2.375c-1.312,0-2.375-1.063-2.375-2.375C68.76,117.1,69.824,116.037,71.135,116.037z"/>
<path style="fill:none;stroke:#000000;stroke-width:1.0001;stroke-miterlimit:22.9256;" d="M71.135,116.037
	c1.312,0,2.375,1.063,2.375,2.375c0,1.312-1.063,2.375-2.375,2.375c-1.312,0-2.375-1.063-2.375-2.375
	C68.76,117.1,69.824,116.037,71.135,116.037z"/>
<path style="fill-rule:evenodd;clip-rule:evenodd;fill:#5E5E5E;" d="M58.368,139.406c4.552,0.704,7.096-6.556,8.081-10.217h-6.225
	c-2.745,2.07-6.064,3.658-9.625,4.586C51.674,135.596,54.113,138.748,58.368,139.406"/>
<path style="fill:none;stroke:#000000;stroke-width:2.0001;stroke-linecap:round;stroke-linejoin:round;stroke-miterlimit:22.9256;" d="
	M30.006,120.69c12.783,0.175,24.808-1.219,37.47-2.528c-2.318-4.437-3.588-10.062-17.265-16.384L30.006,120.69z"/>
<path style="fill-rule:evenodd;clip-rule:evenodd;fill:#C79E00;" d="M30.006,120.69c12.783,0.175,24.808-1.219,37.47-2.528
	c-2.318-4.437-3.588-10.062-17.265-16.384L30.006,120.69z"/>
<path style="fill:none;stroke:#000000;stroke-width:2.0001;stroke-linecap:round;stroke-linejoin:round;stroke-miterlimit:22.9256;" d="
	M67.476,118.162c-12.71,1.314-24.66,2.704-37.47,2.528l20.188,13.187C58.91,131.74,66.258,125.651,67.476,118.162z"/>
<path style="fill-rule:evenodd;clip-rule:evenodd;fill:#786100;" d="M67.476,118.162c-12.71,1.314-24.66,2.704-37.47,2.528
	l20.188,13.187C58.91,131.74,66.258,125.651,67.476,118.162"/>
<path style="fill-rule:evenodd;clip-rule:evenodd;fill:#5C5C5C;" d="M39.923,124.849c0,0,10.125,6.687,13.25,5.187
	c3.125-1.5,9.5-6.938,9.5-6.938S48.923,127.505,39.923,124.849"/>
<path style="fill-rule:evenodd;clip-rule:evenodd;fill:#786100;" d="M41.736,118.724l22.125-2.125c0,0-1.708-2.374-3.583-4.062
	C58.403,110.85,55.298,111.224,41.736,118.724"/>
<path style="fill-rule:evenodd;clip-rule:evenodd;fill:#FFFFFF;" d="M38.174,116.099c0,0,10.081-11.125,12.04-10.5
	C52.174,106.224,51.799,107.724,38.174,116.099"/>
</svg>
