<?xml version="1.0" encoding="iso-8859-1"?>
<!-- Generator: Adobe Illustrator 22.0.1, SVG Export Plug-In . SVG Version: 6.00 Build 0)  -->
<svg version="1.1" id="&#x421;&#x43B;&#x43E;&#x439;_1"
	 xmlns="http://www.w3.org/2000/svg" xmlns:xlink="http://www.w3.org/1999/xlink" x="0px" y="0px" viewBox="0 0 340 366"
	 style="enable-background:new 0 0 340 366;" xml:space="preserve">
<path style="fill:none;stroke:#000000;stroke-width:2.0001;stroke-linecap:round;stroke-linejoin:round;stroke-miterlimit:22.9256;" d="
	M177.736,258.743c0,0-3.563,0.703-0.703,3.656c2.86,2.953,3.141,2.391,3.141,2.391s-1.594,3.422,2.484,4.078
	c4.078,0.657,6.188-4.925,6.047-2.578c-0.141,2.347-6.143,2.363-1.862,7.079c4.281,4.715,18.222,2.765,18.222,2.765l8.391-4.688
	l-0.797-9.187l-21.188-3L177.736,258.743z"/>
<path style="fill-rule:evenodd;clip-rule:evenodd;fill:#3B8A12;" d="M177.736,258.743c0,0-3.563,0.703-0.703,3.656
	c2.86,2.953,3.141,2.391,3.141,2.391s-1.594,3.422,2.484,4.078c4.078,0.657,6.188-4.925,6.047-2.578
	c-0.141,2.347-6.143,2.363-1.862,7.079c4.281,4.715,18.222,2.765,18.222,2.765l8.391-4.688l-0.797-9.187l-21.188-3L177.736,258.743z
	"/>
<path style="fill:none;stroke:#000000;stroke-width:2.0001;stroke-linecap:round;stroke-linejoin:round;stroke-miterlimit:22.9256;" d="
	M186.273,260.207c0,0,1.587,1.629,1.869,5.239c0.281,3.609-2.859,8.156-2.859,8.156l4.266,0.375c0,0,0.937-6.516,1.078-6.281
	s6.235,2.578,9.656,0.797c3.422-1.781,6.984-5.203,6.984-5.203s5.156,2.015,8.109,0.281c2.953-1.734,13.781-9.235,13.781-9.235
	s-14.437,6.375-16.594,6.328c-2.156-0.047,0.234-5.391,0.234-5.391s-3.657,1.969-4.36,3.844c-0.703,1.875-6.281,6.094-10.219,6.188
	c-3.938,0.094-7.612-5.046-7.641-4.687C190.55,260.977,186.273,260.207,186.273,260.207z"/>
<path style="fill-rule:evenodd;clip-rule:evenodd;fill:#593303;" d="M186.273,260.207c0,0,1.587,1.629,1.869,5.239
	c0.281,3.609-2.859,8.156-2.859,8.156l4.266,0.375c0,0,0.937-6.516,1.078-6.281s6.235,2.578,9.656,0.797
	c3.422-1.781,6.984-5.203,6.984-5.203s5.156,2.015,8.109,0.281c2.953-1.734,13.781-9.235,13.781-9.235s-14.437,6.375-16.594,6.328
	c-2.156-0.047,0.234-5.391,0.234-5.391s-3.657,1.969-4.36,3.844c-0.703,1.875-6.281,6.094-10.219,6.188
	c-3.938,0.094-7.612-5.046-7.641-4.687C190.55,260.977,186.273,260.207,186.273,260.207"/>
<path style="fill:none;stroke:#000000;stroke-width:2.0001;stroke-linecap:round;stroke-linejoin:round;stroke-miterlimit:22.9256;" d="
	M178.816,275.337c0,0-4.313,11.156,5.062,13.031c9.375,1.875,12.75-1.5,12.75-1.5s5.812,3.563,10.219,1.406
	c4.407-2.156,4.781-6.469,8.719-5.156c3.938,1.313,7.313,5.063,14.813,3.75c7.5-1.313,16.125-12.188,16.125-12.188
	s-8.625,7.875-16.219,8.344c-7.594,0.469-10.688,0.187-8.531-3.281c2.156-3.469,6.469-7.781,6.469-7.781s7.875,2.25,11.344-1.031
	c3.469-3.281,3.469-5.062,3.469-5.062s-2.062,4.5-7.406,4.313c-5.344-0.188-7.219-0.188-7.219-0.188l-0.187-5.25
	c0,0-4.031,10.219-6.938,12c-2.906,1.781-6.563,3.844-5.438,1.875c1.125-1.969,0.282-3.656,0.282-3.656l-7.031,1.687l5.062-4.875
	l-10.594,3.469l-5.156,8.063c0,0-7.781,2.813-11.813,0.281c-4.031-2.531-2.921-7.333-2.921-7.333L178.816,275.337z"/>
<path style="fill-rule:evenodd;clip-rule:evenodd;fill:#593303;" d="M178.816,275.337c0,0-4.313,11.156,5.062,13.031
	c9.375,1.875,12.75-1.5,12.75-1.5s5.812,3.563,10.219,1.406c4.407-2.156,4.781-6.469,8.719-5.156
	c3.938,1.313,7.313,5.063,14.813,3.75c7.5-1.313,16.125-12.188,16.125-12.188s-8.625,7.875-16.219,8.344
	c-7.594,0.469-10.688,0.187-8.531-3.281c2.156-3.469,6.469-7.781,6.469-7.781s7.875,2.25,11.344-1.031
	c3.469-3.281,3.469-5.062,3.469-5.062s-2.062,4.5-7.406,4.313c-5.344-0.188-7.219-0.188-7.219-0.188l-0.187-5.25
	c0,0-4.031,10.219-6.938,12c-2.906,1.781-6.563,3.844-5.438,1.875c1.125-1.969,0.282-3.656,0.282-3.656l-7.031,1.687l5.062-4.875
	l-10.594,3.469l-5.156,8.063c0,0-7.781,2.813-11.813,0.281c-4.031-2.531-2.921-7.333-2.921-7.333L178.816,275.337z"/>
<path style="fill:none;stroke:#000000;stroke-width:2.0001;stroke-linecap:round;stroke-linejoin:round;stroke-miterlimit:22.9256;" d="
	M64.201,287.524c0,0,0.794-5.496,4.528-3.572c3.735,1.924,4.603,0.168,5.586-2.15c0.983-2.318,1.798-2.147,3.968,0.315
	c2.17,2.463,1.352,0.899,4.739-0.565c3.387-1.464,4.272,2.374,8.176,2.646c3.904,0.273,7.611-2.093,7.397-1.77
	c-0.214,0.322,0.072,4.783,0.072,4.783l-9.44,1.535c0,0-4.205-4.473-6.411-2.41c-2.206,2.062-4.05,2.044-6.027-0.291
	c-1.977-2.335-3.853,0.69-5.656,1.627C69.329,288.61,68.055,283.4,64.201,287.524z"/>
<path style="fill-rule:evenodd;clip-rule:evenodd;fill:#593303;" d="M64.201,287.524c0,0,0.794-5.496,4.528-3.572
	c3.735,1.924,4.603,0.168,5.586-2.15c0.983-2.318,1.798-2.147,3.968,0.315c2.17,2.463,1.352,0.899,4.739-0.565
	c3.387-1.464,4.272,2.374,8.176,2.646c3.904,0.273,7.611-2.093,7.397-1.77c-0.214,0.322,0.072,4.783,0.072,4.783l-9.44,1.535
	c0,0-4.205-4.473-6.411-2.41c-2.206,2.062-4.05,2.044-6.027-0.291c-1.977-2.335-3.853,0.69-5.656,1.627
	C69.329,288.61,68.055,283.4,64.201,287.524"/>
<path style="fill:none;stroke:#000000;stroke-width:2.0001;stroke-linecap:round;stroke-linejoin:round;stroke-miterlimit:22.9256;" d="
	M102.329,280.182c-1.342-0.347-3.928-0.591-4.721,2.335c-1.087,4.012,0.589,5.683-2.952,4.723c-3.54-0.959-5.918,0.524-5.785,3.398
	c0.133,2.874-0.33,1.843-3.816,0.714c-5.689-1.842-4.133,2.515-14.191,4.312c0,0,5.293,0.966,7.566,0.619
	c2.273-0.347,0.942-4.622,4.785-2.162c3.843,2.46,8.157,4.491,8.773,0.629c0.616-3.862-0.803-5.639,2.118-3.328
	c2.753,2.178,6.278-0.428,7.225-4.245c0.024-0.003,0.05-0.006,0.074-0.009C101.727,285.264,102.179,282.35,102.329,280.182z"/>
<path style="fill-rule:evenodd;clip-rule:evenodd;fill:#593303;" d="M102.329,280.182c-1.342-0.347-3.928-0.591-4.721,2.335
	c-1.087,4.012,0.589,5.683-2.952,4.723c-3.54-0.959-5.918,0.524-5.785,3.398c0.133,2.874-0.33,1.843-3.816,0.714
	c-5.689-1.842-4.133,2.515-14.191,4.312c0,0,5.293,0.966,7.566,0.619c2.273-0.347,0.942-4.622,4.785-2.162
	c3.843,2.46,8.157,4.491,8.773,0.629c0.616-3.862-0.803-5.639,2.118-3.328c2.753,2.178,6.278-0.428,7.225-4.245
	c0.024-0.003,0.05-0.006,0.074-0.009C101.727,285.264,102.179,282.35,102.329,280.182"/>
<path style="fill:none;stroke:#000000;stroke-width:2.0001;stroke-linecap:round;stroke-linejoin:round;stroke-miterlimit:22.9256;" d="
	M109.861,286.431c0.887-1.685-1.766-4.887,1.924-3.595c3.691,1.291,5.679,3.819,6.824,2.166c1.144-1.653,2.739-3.844,4.381-3.031
	c1.642,0.812-0.878,1.042-0.565,2.038c0.312,0.997-2.649,6.782-4.217,4.95c-1.569-1.831-4.358-2.803-5.202-0.624
	c-0.844,2.178-5.98,2.573-8.278,0.443c-3.289-3.049-4.857-7.185-4.426-12.287c0.302-3.573,3.375-0.609,3.375-0.609
	c1.306,1.162,5.72,3.509,3.88,5.783C105.223,284.55,108.839,288.372,109.861,286.431z"/>
<path style="fill-rule:evenodd;clip-rule:evenodd;fill:#593303;" d="M109.861,286.431c0.887-1.685-1.766-4.887,1.924-3.595
	c3.691,1.291,5.679,3.819,6.824,2.166c1.144-1.653,2.739-3.844,4.381-3.031c1.642,0.812-0.878,1.042-0.565,2.038
	c0.312,0.997-2.649,6.782-4.217,4.95c-1.569-1.831-4.358-2.803-5.202-0.624c-0.844,2.178-5.98,2.573-8.278,0.443
	c-3.289-3.049-4.857-7.185-4.426-12.287c0.302-3.573,3.375-0.609,3.375-0.609c1.306,1.162,5.72,3.509,3.88,5.783
	C105.223,284.55,108.839,288.372,109.861,286.431"/>
<path style="fill:none;stroke:#000000;stroke-width:2.0001;stroke-linecap:round;stroke-linejoin:round;stroke-miterlimit:22.9256;" d="
	M97.488,262.24c0,0-3.287,7.011,3.266,12.831c6.553,5.82,6.802,6.592,6.802,6.592s3.315-5.513,0.244-8.83
	C104.729,269.517,97.488,262.24,97.488,262.24z"/>
<path style="fill-rule:evenodd;clip-rule:evenodd;fill:#593303;" d="M97.488,262.24c0,0-3.287,7.011,3.266,12.831
	c6.553,5.82,6.802,6.592,6.802,6.592s3.315-5.513,0.244-8.83C104.729,269.517,97.488,262.24,97.488,262.24"/>
<path style="fill:none;stroke:#000000;stroke-width:2.0001;stroke-linecap:round;stroke-linejoin:round;stroke-miterlimit:22.9256;" d="
	M97.334,252.216c-1.809,1.92-4.84,5.284,0.154,10.025c5.531,5.25,10.312,10.594,10.312,10.594
	c3.096,0.068,1.887-12.398,0.375-14.438C103.085,251.526,98.36,248.889,97.334,252.216z"/>
<path style="fill-rule:evenodd;clip-rule:evenodd;fill:#593303;" d="M97.334,252.216c-1.809,1.92-4.84,5.284,0.154,10.025
	c5.531,5.25,10.312,10.594,10.312,10.594c3.096,0.068,1.887-12.398,0.375-14.438C103.085,251.526,98.36,248.889,97.334,252.216"/>
<path style="fill:none;stroke:#000000;stroke-width:2.0001;stroke-linecap:round;stroke-linejoin:round;stroke-miterlimit:22.9256;" d="
	M128.439,172.5c0,0-7.152,2.273-7.604,5.107c-0.292,1.832,0.202,4.455,0.589,6.082c6.617-3.169,13.339-7.278,16.563-11.948
	c7.5-10.866,1.875-31.03,27.75-35.142c5.385-0.856,10.981-0.496,16.467,0.605c2.074-5.084,3.717-10.598,3.563-15.322
	c0,0-24.828,9.108-30.153,7.296c-5.325-1.813-12.725-0.535-17.031,5.301c-4.306,5.836-11.285,12.994-11.285,12.994
	s-1.656,7.616-3.654,9.524S124.407,168.587,128.439,172.5z"/>
<path style="fill-rule:evenodd;clip-rule:evenodd;fill:#3B8A12;" d="M128.439,172.5c0,0-7.152,2.273-7.604,5.107
	c-0.292,1.832,0.202,4.455,0.589,6.082c6.617-3.169,13.339-7.278,16.563-11.948c7.5-10.866,1.875-31.03,27.75-35.142
	c5.385-0.856,10.981-0.496,16.467,0.605c2.074-5.084,3.717-10.598,3.563-15.322c0,0-24.828,9.108-30.153,7.296
	c-5.325-1.813-12.725-0.535-17.031,5.301c-4.306,5.836-11.285,12.994-11.285,12.994s-1.656,7.616-3.654,9.524
	S124.407,168.587,128.439,172.5"/>
<path style="fill:none;stroke:#000000;stroke-width:2.0001;stroke-linecap:round;stroke-linejoin:round;stroke-miterlimit:22.9256;" d="
	M167.502,109.399c0,0-6.02-2.442-2.816-5.748c3.204-3.306,4.415-6.496,4.415-6.496S183.822,108.503,167.502,109.399z"/>
<path style="fill-rule:evenodd;clip-rule:evenodd;fill:#3B8A12;" d="M167.502,109.399c0,0-6.02-2.442-2.816-5.748
	c3.204-3.306,4.415-6.496,4.415-6.496S183.822,108.503,167.502,109.399"/>
<path style="fill:none;stroke:#000000;stroke-width:2.0001;stroke-linecap:round;stroke-linejoin:round;stroke-miterlimit:22.9256;" d="
	M87.525,184.778c0,0-0.56-8.065,6.695-10.56c7.256-2.495,26.709,0.238,28.239-2.024c1.53-2.262,4.003-3.821,4.003-3.821
	s3.561,4.143,8.164,5.043c0.547,0.107,1.16,0.188,1.814,0.247c-0.868,0.947-1.869,1.867-2.968,2.756
	c-4.473-0.59-8.67-1.099-10.171,0.668c-1.667,1.961-8.636,5.876-8.636,5.876L87.525,184.778z M122.459,161.512l0.742-0.295
	c-2.309,1.561-1.671,2.547-6.231,4.078c-5.956,2-5.521,5.42-5.483,6.893l10.203,0.15c0,0,0.956-1.351,2.649-3.046
	c0.83-1.104,1.429-1.891,1.429-1.891s0.094,0.129,0.27,0.35c1.944-1.574,4.215-2.734,6.192-1.947
	c2.932,1.168,4.733,2.849,7.159,3.514c0.661-1.356,1.197-2.806,1.668-4.315c-2.608-0.824-3.661-2.758-3.661-2.758l4.223-6.974
	c0,0-3.572,4.762-5.814,5.481c-1.972,0.632-2.839-2.781-7.348-1.823c0.003-1.213,0.177-7.513,3.458-9.034
	c2.714-1.258,8.718-1.432,14.537-1.411c0.793-1.442,1.739-2.82,2.895-4.1c-5.943,0.125-12.658,0.029-12.658,0.029
	s-1.743-3.386,2.591-6.909c4.334-3.523,10.121-8.125,14.433-7.193c4.311,0.933,8.675,2.432,11.491,0.297
	c2.816-2.135,3.788-4.049,3.788-4.049s-8.085,4.273-10.697,2.578c-2.611-1.694-8.786-5.663-14.166-1.006
	c-14.69,12.715-9.511-13.761,17.451-15.187c14.62-0.774,20.928-2.803,26.597-9.017c5.669-6.214,8.781-11.527,21.687-11.718
	c12.906-0.192,20.693-4.672,20.693-4.672s-17.897,4.274-26.471,3.662c-8.574-0.613-13.122,8.846-20.155,12.609
	c1.908-3.486,1.771-8.416,1.771-8.416c-1.775,6.005-3.656,8.547-6.064,9.966c-9.603,2.714-30.542,6.369-39.095,7.695
	c4.473-3.61,6.699-10.499,6.699-10.499c-2.449,3.343-8.114,10.048-11.15,11.156c-0.961,0.143-1.962,0.299-2.981,0.479
	c3.16-3.887,2.811-9.247,2.811-9.247s-1.29,2.341-3.086,5.256c-1.796,2.916-6.011,5.459-6.011,5.459l0.002,0
	c-5.589,1.751-10.316,4.835-10.304,10.937C116.544,137.227,127.431,150.408,122.459,161.512z M170.524,136.148
	c0.867-0.632,1.434-1.03,1.434-1.03c-1.295,0.364-2.395,0.747-3.341,1.142C169.252,136.209,169.887,136.17,170.524,136.148z"/>
<path style="fill-rule:evenodd;clip-rule:evenodd;fill:#593303;" d="M87.525,184.778c0,0-0.56-8.065,6.695-10.56
	c7.256-2.495,26.709,0.238,28.239-2.024c1.53-2.262,4.003-3.821,4.003-3.821s3.561,4.143,8.164,5.043
	c0.547,0.107,1.16,0.188,1.814,0.247c-0.868,0.947-1.869,1.867-2.968,2.756c-4.473-0.59-8.67-1.099-10.171,0.668
	c-1.667,1.961-8.636,5.876-8.636,5.876L87.525,184.778z M122.459,161.512l0.742-0.295c-2.309,1.561-1.671,2.547-6.231,4.078
	c-5.956,2-5.521,5.42-5.483,6.893l10.203,0.15c0,0,0.956-1.351,2.649-3.046c0.83-1.104,1.429-1.891,1.429-1.891
	s0.094,0.129,0.27,0.35c1.944-1.574,4.215-2.734,6.192-1.947c2.932,1.168,4.733,2.849,7.159,3.514
	c0.661-1.356,1.197-2.806,1.668-4.315c-2.608-0.824-3.661-2.758-3.661-2.758l4.223-6.974c0,0-3.572,4.762-5.814,5.481
	c-1.972,0.632-2.839-2.781-7.348-1.823c0.003-1.213,0.177-7.513,3.458-9.034c2.714-1.258,8.718-1.432,14.537-1.411
	c0.793-1.442,1.739-2.82,2.895-4.1c-5.943,0.125-12.658,0.029-12.658,0.029s-1.743-3.386,2.591-6.909
	c4.334-3.523,10.121-8.125,14.433-7.193c4.311,0.933,8.675,2.432,11.491,0.297c2.816-2.135,3.788-4.049,3.788-4.049
	s-8.085,4.273-10.697,2.578c-2.611-1.694-8.786-5.663-14.166-1.006c-14.69,12.715-9.511-13.761,17.451-15.187
	c14.62-0.774,20.928-2.803,26.597-9.017c5.669-6.214,8.781-11.527,21.687-11.718c12.906-0.192,20.693-4.672,20.693-4.672
	s-17.897,4.274-26.471,3.662c-8.574-0.613-13.122,8.846-20.155,12.609c1.908-3.486,1.771-8.416,1.771-8.416
	c-1.775,6.005-3.656,8.547-6.064,9.966c-9.603,2.714-30.542,6.369-39.095,7.695c4.473-3.61,6.699-10.499,6.699-10.499
	c-2.449,3.343-8.114,10.048-11.15,11.156c-0.961,0.143-1.962,0.299-2.981,0.479c3.16-3.887,2.811-9.247,2.811-9.247
	s-1.29,2.341-3.086,5.256c-1.796,2.916-6.011,5.459-6.011,5.459l0.002,0c-5.589,1.751-10.316,4.835-10.304,10.937
	C116.544,137.227,127.431,150.408,122.459,161.512z M170.524,136.148c0.867-0.632,1.434-1.03,1.434-1.03
	c-1.295,0.364-2.395,0.747-3.341,1.142C169.252,136.209,169.887,136.17,170.524,136.148z"/>
<path style="fill:none;stroke:#000000;stroke-width:2.0001;stroke-linecap:round;stroke-linejoin:round;stroke-miterlimit:22.9256;" d="
	M172.462,125.474c0.454-0.126,6.374-1.283,13.306-3.591c6.931-2.308,10.266-4.877,9.851-4.665
	c-0.415,0.212-19.094,5.371-20.854,5.723C173.005,123.293,172.462,125.474,172.462,125.474z"/>
<path style="fill-rule:evenodd;clip-rule:evenodd;fill:#593303;" d="M172.462,125.474c0.454-0.126,6.374-1.283,13.306-3.591
	c6.931-2.308,10.266-4.877,9.851-4.665c-0.415,0.212-19.094,5.371-20.854,5.723C173.005,123.293,172.462,125.474,172.462,125.474"/>
<path style="fill:none;stroke:#000000;stroke-width:2.0001;stroke-linecap:round;stroke-linejoin:round;stroke-miterlimit:22.9256;" d="
	M193.373,118.133c0,0,4.094,4.282,9.838,2.738c5.744-1.544,16.257-14.663,16.257-14.663s-8.317,0.274-11.66-0.443
	c-3.344-0.717-9.573-4.407-15.938-0.176c-6.365,4.23-2.686,10.417-1.146,11.102c1.539,0.685,1.83,2.454,1.532,0.446
	c-0.298-2.008,1.197-3.266,2.769-4.492C193.796,114.245,192.467,115.811,193.373,118.133z"/>
<path style="fill-rule:evenodd;clip-rule:evenodd;fill:#3B8A12;" d="M193.373,118.133c0,0,4.094,4.282,9.838,2.738
	c5.744-1.544,16.257-14.663,16.257-14.663s-8.317,0.274-11.66-0.443c-3.344-0.717-9.573-4.407-15.938-0.176
	c-6.365,4.23-2.686,10.417-1.146,11.102c1.539,0.685,1.83,2.454,1.532,0.446c-0.298-2.008,1.197-3.266,2.769-4.492
	C193.796,114.245,192.467,115.811,193.373,118.133"/>
<path style="fill:none;stroke:#000000;stroke-width:2.0001;stroke-linecap:round;stroke-linejoin:round;stroke-miterlimit:22.9256;" d="
	M129.489,144.485c0,0-5.771-4.577-6.865-9.012c-1.094-4.436,1.651-13.032,1.651-13.032l3.094,4.559c0,0,0.008-4.048,3.318-7.005
	c3.309-2.957,7.696-4.56,7.696-4.56l-3.065,6.992c0,0,3.346-4.438,4.377-5.905c1.032-1.466,8.281-3.166,9.962-3.97
	c1.681-0.805,2.49-0.486,2.336-0.938c-0.154-0.452,0.776,3.509-0.32,4.925c-1.096,1.416-3.209,5.774-3.209,5.774
	s2.793-5.9,7.089-7.817c4.296-1.916,8.973-3.457,8.973-3.457s-2.374,5.594-5.379,7.2c-3.004,1.607-1.998,1.57-1.998,1.57
	s7.887-2.235,9.189-4.772c1.303-2.537,1.185-4.241,6.15-5.934c4.965-1.693,7.926-2.337,7.926-2.337s5.508,12.758-1.611,16.568
	c-24.226,12.968-21.123,0.003-29.439,2.647c-9.778,3.11-12.326,4.431-14.413,6.897C134.95,132.878,134.471,140.805,129.489,144.485z
	"/>
<path style="fill-rule:evenodd;clip-rule:evenodd;fill:#3B8A12;" d="M129.489,144.485c0,0-5.771-4.577-6.865-9.012
	c-1.094-4.436,1.651-13.032,1.651-13.032l3.094,4.559c0,0,0.008-4.048,3.318-7.005c3.309-2.957,7.696-4.56,7.696-4.56l-3.065,6.992
	c0,0,3.346-4.438,4.377-5.905c1.032-1.466,8.281-3.166,9.962-3.97c1.681-0.805,2.49-0.486,2.336-0.938
	c-0.154-0.452,0.776,3.509-0.32,4.925c-1.096,1.416-3.209,5.774-3.209,5.774s2.793-5.9,7.089-7.817
	c4.296-1.916,8.973-3.457,8.973-3.457s-2.374,5.594-5.379,7.2c-3.004,1.607-1.998,1.57-1.998,1.57s7.887-2.235,9.189-4.772
	c1.303-2.537,1.185-4.241,6.15-5.934c4.965-1.693,7.926-2.337,7.926-2.337s5.508,12.758-1.611,16.568
	c-24.226,12.968-21.123,0.003-29.439,2.647c-9.778,3.11-12.326,4.431-14.413,6.897C134.95,132.878,134.471,140.805,129.489,144.485"
	/>
<path style="fill:none;stroke:#000000;stroke-width:2.0001;stroke-linecap:round;stroke-linejoin:round;stroke-miterlimit:22.9256;" d="
	M136.013,103.473c0,0-4.564,0.539-4.904-2.461c-0.34-3.001,2.865-13.852,2.865-13.852s5.433,5.652,6.072,10.214
	C140.686,101.936,136.013,103.473,136.013,103.473z"/>
<path style="fill-rule:evenodd;clip-rule:evenodd;fill:#3B8A12;" d="M136.013,103.473c0,0-4.564,0.539-4.904-2.461
	c-0.34-3.001,2.865-13.852,2.865-13.852s5.433,5.652,6.072,10.214C140.686,101.936,136.013,103.473,136.013,103.473"/>
<path style="fill:none;stroke:#000000;stroke-width:2.0001;stroke-linecap:round;stroke-linejoin:round;stroke-miterlimit:22.9256;" d="
	M144.829,94.839c-0.318,0.765-3.042,3.89,0.05,5.403c3.091,1.513,3.033,1.384,3.033,1.384s-2.16,3.017,2.153,4.965
	c4.313,1.948,14.503-0.393,12.555-8.848c-1.948-8.456-6.342-15.653-6.342-15.653S147.293,92.27,144.829,94.839z"/>
<path style="fill-rule:evenodd;clip-rule:evenodd;fill:#3B8A12;" d="M144.829,94.839c-0.318,0.765-3.042,3.89,0.05,5.403
	c3.091,1.513,3.033,1.384,3.033,1.384s-2.16,3.017,2.153,4.965c4.313,1.948,14.503-0.393,12.555-8.848
	c-1.948-8.456-6.342-15.653-6.342-15.653S147.293,92.27,144.829,94.839"/>
<path style="fill:none;stroke:#000000;stroke-width:2.0001;stroke-linecap:round;stroke-linejoin:round;stroke-miterlimit:22.9256;" d="
	M184.651,96.81c0,0-3.371,5.867-8.271,0.261c-4.9-5.606,7.441-14.927,7.441-14.927S199.742,100.752,184.651,96.81z"/>
<path style="fill-rule:evenodd;clip-rule:evenodd;fill:#3B8A12;" d="M184.651,96.81c0,0-3.371,5.867-8.271,0.261
	c-4.9-5.606,7.441-14.927,7.441-14.927S199.742,100.752,184.651,96.81"/>
<path style="fill:none;stroke:#000000;stroke-width:2.0001;stroke-linecap:round;stroke-linejoin:round;stroke-miterlimit:22.9256;" d="
	M205.534,89.482c-8.997,3.927-7.845-5.861-3.341-7.883c4.504-2.022,5.979-7.558,5.979-7.558s4.368,6.237,5.813,10.092
	C215.429,87.989,213.251,92.056,205.534,89.482z"/>
<path style="fill-rule:evenodd;clip-rule:evenodd;fill:#3B8A12;" d="M205.534,89.482c-8.997,3.927-7.845-5.861-3.341-7.883
	c4.504-2.022,5.979-7.558,5.979-7.558s4.368,6.237,5.813,10.092C215.429,87.989,213.251,92.056,205.534,89.482"/>
<path style="fill:none;stroke:#000000;stroke-width:2.0001;stroke-linecap:round;stroke-linejoin:round;stroke-miterlimit:22.9256;" d="
	M217.932,100.256c0,0-8.198,2.224-11.492-1.312c-3.295-3.536-3.014-7.001,2.388-6.709
	C214.229,92.527,212.937,98.159,217.932,100.256z"/>
<path style="fill-rule:evenodd;clip-rule:evenodd;fill:#3B8A12;" d="M217.932,100.256c0,0-8.198,2.224-11.492-1.312
	c-3.295-3.536-3.014-7.001,2.388-6.709C214.229,92.527,212.937,98.159,217.932,100.256"/>
<path style="fill:none;stroke:#000000;stroke-width:2.0001;stroke-linecap:round;stroke-linejoin:round;stroke-miterlimit:22.9256;" d="
	M231.99,91.151c-0.242,0.001-4.266-0.916-4.814,1.695c-0.548,2.611,2.126,5.444,8.212,4.412c6.086-1.031,8.048-2.821,7.656-2.844
	c-0.392-0.022-3.038-1.191-5.262-3.033C235.558,89.539,228.434,86.989,231.99,91.151z"/>
<path style="fill-rule:evenodd;clip-rule:evenodd;fill:#3B8A12;" d="M231.99,91.151c-0.242,0.001-4.266-0.916-4.814,1.695
	c-0.548,2.611,2.126,5.444,8.212,4.412c6.086-1.031,8.048-2.821,7.656-2.844c-0.392-0.022-3.038-1.191-5.262-3.033
	C235.558,89.539,228.434,86.989,231.99,91.151"/>
<path style="fill:none;stroke:#000000;stroke-width:2.0001;stroke-linecap:round;stroke-linejoin:round;stroke-miterlimit:22.9256;" d="
	M228.622,78.102c0,0,3.832,7.636,0.448,10.369c-3.384,2.733-7.283,2.214-7.854-2.684C220.645,80.888,227.119,82.492,228.622,78.102z
	"/>
<path style="fill-rule:evenodd;clip-rule:evenodd;fill:#3B8A12;" d="M228.622,78.102c0,0,3.832,7.636,0.448,10.369
	c-3.384,2.733-7.283,2.214-7.854-2.684C220.645,80.888,227.119,82.492,228.622,78.102"/>
<path style="fill:none;stroke:#000000;stroke-width:2.0001;stroke-linecap:round;stroke-linejoin:round;stroke-miterlimit:22.9256;" d="
	M138.616,175.378c0,0-7.5,0.281-9.094,2.906c-1.594,2.625-2.25,7.594-2.25,7.594l6.375,0.375c0,0,0.375-2.156,3.234-3.516
	s4.312-0.469,4.359-0.75c0.047-0.281-7.078,1.734-7.875,6.516c-0.797,4.781-0.469,9.75-0.469,9.75s7.406-1.922,8.672-2.953
	c1.266-1.031,1.594-4.078,1.594-4.078s-0.797,4.829,2.718,8.11c3.516,3.281,6.82,3.914,6.656,4.5
	c3.103-4.146,5.822-5.907,7.875-11.578c-1.538,8.909,4.918,13.103,11.578,12.563l0.891-8.156c0,0,0.936,2.39,5.811,3.656
	s9.844-1.219,9.844-1.219s-4.603-13.547-8.536-14.766s-3.137-1.923-3.137-1.923s2.437-3.656,10.031-2.719
	c7.594,0.937,14.063,4.125,13.5,3.844c-0.563-0.282-5.719-13.219-11.531-14.25c-1.314-0.233,18.371-14.957,23.354-27.564
	c0,0-26.542,2.158-30.667-1.03c-4.125-3.188-11.438-3.937-17.813,0.563c-6.375,4.5-15.75,9.562-15.75,9.562s-4.688,6.938-7.313,8.25
	C138.05,160.377,136.55,170.502,138.616,175.378z"/>
<path style="fill-rule:evenodd;clip-rule:evenodd;fill:#7DA308;" d="M138.616,175.378c0,0-7.5,0.281-9.094,2.906
	c-1.594,2.625-2.25,7.594-2.25,7.594l6.375,0.375c0,0,0.375-2.156,3.234-3.516s4.312-0.469,4.359-0.75
	c0.047-0.281-7.078,1.734-7.875,6.516c-0.797,4.781-0.469,9.75-0.469,9.75s7.406-1.922,8.672-2.953
	c1.266-1.031,1.594-4.078,1.594-4.078s-0.797,4.829,2.718,8.11c3.516,3.281,6.82,3.914,6.656,4.5
	c3.103-4.146,5.822-5.907,7.875-11.578c-1.538,8.909,4.918,13.103,11.578,12.563l0.891-8.156c0,0,0.936,2.39,5.811,3.656
	s9.844-1.219,9.844-1.219s-4.603-13.547-8.536-14.766s-3.137-1.923-3.137-1.923s2.437-3.656,10.031-2.719
	c7.594,0.937,14.063,4.125,13.5,3.844c-0.563-0.282-5.719-13.219-11.531-14.25c-1.314-0.233,18.371-14.957,23.354-27.564
	c0,0-26.542,2.158-30.667-1.03c-4.125-3.188-11.438-3.937-17.813,0.563c-6.375,4.5-15.75,9.562-15.75,9.562s-4.688,6.938-7.313,8.25
	C138.05,160.377,136.55,170.502,138.616,175.378"/>
<path style="fill-rule:evenodd;clip-rule:evenodd;fill:#3B8A12;" d="M157.262,145.462c-4.842,2.959-9.275,5.352-9.275,5.352
	s-4.688,6.938-7.313,8.25c-1.941,0.971-3.268,6.762-2.991,11.685c5.372-0.83,8.554,4.25,11.333,6.595
	c3,2.531,6.281,3.188,11.438,2.438c5.156-0.75,7.969,0.937,7.969,0.937l-1.781-3.563l7.032-4.406c0,0,9.75,1.875,15.375,3.656
	c3.04,0.963,5.45,3.404,7.023,5.444c2.874,0.973,4.626,1.835,4.322,1.683c-0.563-0.282-5.719-13.219-11.531-14.25
	c-3.042-0.54-0.333-5.214,2.942-9.547c1.3,1.248,2.502,2.357,2.777,2.475c0.121,0.052,0.86-0.148,1.984-0.508
	c5.7-5.453,12.906-13.04,15.65-19.985c0,0-3.197,4.181-6.759,6.712c-3.562,2.531-9.75,2.063-15.611,3.929
	c-0.4,0.127-0.752,0.254-1.064,0.38l-0.671-1.083c0,0-5.719,1.781-9.468,1.031c-3.75-0.75,0.75-4.5,1.357-5.531
	c0.607-1.031-9.982,1.5-17.857,0C158.306,146.426,157.292,145.855,157.262,145.462"/>
<path style="fill-rule:evenodd;clip-rule:evenodd;fill:#3B8A12;" d="M160.412,192.254c-1.538,8.909,4.918,13.103,11.578,12.563
	l0.891-8.156c0,0,0.936,2.39,5.811,3.656s9.844-1.219,9.844-1.219s-4.603-13.547-8.536-14.766s-3.137-1.923-3.137-1.923
	s0.305-0.458,1.037-1.009c-2.916,0.073-7.246,0.686-3.803,1.429c4.125,0.891,5.903,6.656,5.903,6.656s2.065,4.266-2.763,3.188
	c-4.333-0.967-7.345-3.936-8.188-5.28c0.667,1.494,2.537,5.891,2.61,6.218c0.094,0.422-0.797-0.094-2.438-1.312
	c-1.326-0.985-2.866-3.593-3.408-5.003c0.189,1.168,0.493,3.362,0.83,5.893c0.562,4.219-0.75,5.25-0.75,5.25
	s-2.25-5.625-3.281-10.594c-1.031-4.969-4.407-4.781-4.407-4.781s0.75,4.125,0,6.375c-0.75,2.25-3.75,3.938-3.75,3.938
	s0-1.406-1.406-4.125c-1.406-2.719-0.937-5.531-0.937-5.531s-1.913,3.65-1.969,7.969c-0.056,4.319,0.938,6.563,0.938,6.563
	s-0.469-0.282-2.906-2.719s-4.031-10.312-4.031-10.312s-3,4.781-6.656,7.594c-1.599,1.23-3.27,1.617-4.644,1.664
	c-0.05,2.214,0.053,3.775,0.053,3.775s7.406-1.922,8.672-2.953c1.069-0.871,1.469-3.178,1.568-3.876
	c-0.104,0.948-0.344,5.025,2.744,7.908c3.261,3.043,6.4,4.312,6.652,4.48c0.561-0.407,1.062-1.093,1.531-1.941l-0.08,0.143
	C156.486,199.029,158.685,197.025,160.412,192.254 M143.136,191.424c0.014-0.131,0.026-0.202,0.026-0.202
	S143.154,191.296,143.136,191.424z"/>
<path style="fill:none;stroke:#000000;stroke-width:2.0001;stroke-linecap:round;stroke-linejoin:round;stroke-miterlimit:22.9256;" d="
	M116.595,93.931c-0.255-1.044-0.58-2.102-0.974-3.16c-4.203-11.289-14.166-21.704-34.261-21.751
	c-12.393-0.023-25.178,7.348-31.592,18.566c-1.275,2.233-2.294,4.611-3.013,7.124c-0.185,0.633-0.347,1.282-0.479,1.931
	c-0.463,2.111-0.71,4.295-0.71,6.552c0,9.89,1.569,18.795,5.492,25.595c1.291,2.233,6.895,5.479,8.716,7.208
	c12.2,11.6,37.673,3.947,41.56-5.048c1.35-3.124-3.419-6.358,8.152-13.315c0.215-1.239,6.672-1.464,7.324-13.032
	c0.146-1.051,0.271-2.125,0.363-3.215c0.023-0.225,0.037-0.447,0.053-0.672C117.382,98.597,117.173,96.294,116.595,93.931z"/>
<path style="fill:#755705;" d="M116.595,93.931c-0.255-1.044-0.58-2.102-0.974-3.16c-4.203-11.289-14.166-21.704-34.261-21.751
	c-12.393-0.023-25.178,7.348-31.592,18.566c-1.275,2.233-2.294,4.611-3.013,7.124c-0.185,0.633-0.347,1.282-0.479,1.931
	c-0.463,2.111-0.71,4.295-0.71,6.552c0,9.89,1.569,18.795,5.492,25.595c1.291,2.233,6.895,5.479,8.716,7.208
	c12.2,11.6,37.673,3.947,41.56-5.048c1.35-3.124-3.419-6.358,8.152-13.315c0.215-1.239,6.672-1.464,7.324-13.032
	c0.146-1.051,0.271-2.125,0.363-3.215c0.023-0.225,0.037-0.447,0.053-0.672C117.382,98.597,117.173,96.294,116.595,93.931"/>
<path style="fill:none;stroke:#000000;stroke-width:2.0001;stroke-linecap:round;stroke-linejoin:round;stroke-miterlimit:22.9256;" d="
	M77.355,141.865c10.752-0.229,21.557-5.312,23.979-10.918c0.275-0.637,0.296-1.28,0.253-1.957c-3.41-2.015-7.559-4.4-8.222-4.179
	c-1.125,0.375-15.938,11.813-15.938,11.813S77.304,139.186,77.355,141.865z"/>
<path style="fill:#593303;" d="M77.355,141.865c10.752-0.229,21.557-5.312,23.979-10.918c0.275-0.637,0.296-1.28,0.253-1.957
	c-3.41-2.015-7.559-4.4-8.222-4.179c-1.125,0.375-15.938,11.813-15.938,11.813S77.304,139.186,77.355,141.865"/>
<path style="fill:#593303;" d="M107.407,118.96c0.627-0.427,1.317-0.869,2.079-1.327c0.215-1.239,6.672-1.464,7.324-13.032
	c0.146-1.051,0.271-2.125,0.363-3.215c0.023-0.225,0.037-0.447,0.053-0.672c0.018-0.242,0.031-0.487,0.039-0.733l-4.098-6.23
	l-9.013,11.374c0,0-7.254,0.781-6.76,8.063c0.495,7.281,1.875,8.906,3.469,8.344C101.505,121.305,104.297,120.2,107.407,118.96"/>
<path style="fill-rule:evenodd;clip-rule:evenodd;fill:#593303;" d="M57.675,125.113c0,0,8.784,4.172,7.003-1.359
	c-1.781-5.531-5.672-16.781-5.672-16.781s10.829,14.063,11.298,29.064c0.468,15-10.939,0.576-10.857-0.602
	C59.528,134.255,57.675,125.113,57.675,125.113"/>
<path style="fill-rule:evenodd;clip-rule:evenodd;fill:#593303;" d="M81.933,123.931c0,0-4.88-5.895-1.224-6.316
	c3.656-0.422,9.281,0.951,8.953,0.844c-0.328-0.107-0.896-4.683-7.292-5.868c-6.396-1.185-10.802-2.523-10.755-0.32
	C71.662,114.473,75.412,122.724,81.933,123.931"/>
<path style="fill-rule:evenodd;clip-rule:evenodd;fill:#593303;" d="M83.616,79.786c1.219,0.188,12.938-1.125,19.219,6.188
	c6.281,7.313,5.25,14.531,5.25,14.531l-13.407,7.219C94.678,107.724,91.772,90.005,83.616,79.786"/>
<path style="fill:none;stroke:#000000;stroke-width:2.0001;stroke-linecap:round;stroke-linejoin:round;stroke-miterlimit:22.9256;" d="
	M78.891,111.379c0,0,13.749,1.545,13.233-10.69c-0.516-12.234-6.422-10.5-7.36-10.172c-0.937,0.328-13.594,0.891-13.594,0.891
	s-8.062,5.672-8.484,5.859c-0.422,0.187,0.563,12.469,2.906,13.406C67.937,111.611,78.891,111.379,78.891,111.379z"/>
<path style="fill-rule:evenodd;clip-rule:evenodd;fill:#5C3303;" d="M78.891,111.379c0,0,13.749,1.545,13.233-10.69
	c-0.516-12.234-6.422-10.5-7.36-10.172c-0.937,0.328-13.594,0.891-13.594,0.891s-8.062,5.672-8.484,5.859
	c-0.422,0.187,0.563,12.469,2.906,13.406C67.937,111.611,78.891,111.379,78.891,111.379"/>
<path style="fill:none;stroke:#000000;stroke-width:2.0001;stroke-linecap:round;stroke-linejoin:round;stroke-miterlimit:22.9256;" d="
	M160.021,268.775c-7.66,7.442-30.766,0.337-60.99-16.373c-2.847-1.574-4.579-5.96-7.521-7.427
	c-36.172-18.024-63.693-51.207-42.757-75.969c0.245-0.302,0.506-0.607,0.78-0.911c0,0,7.877-11.239,25.22-15.904l23.262-7.671
	c0,0,2.762-1.194,5.218,1.937c2.456,3.131,2.831,5.475-2.138,8.194c-11.186,6.121-28.962,9.375-36.514,19.031
	c0,0,12.599-8.719,21.44-10.594c3.467-0.735,17.83-10.149,19.314-8.916c1.45,1.205,3.684,9.502,3.768,9.813
	c5.329,12.133,12.694,23.686,19.32,35.239c0.982,1.712,4.395,6.992,8.837,13.783c5.83,8.913,22.521,41.505,28.901,43.239
	C169.68,257.204,160.945,267.911,160.021,268.775z"/>
<path style="fill:#755705;" d="M160.021,268.775c-7.66,7.442-30.766,0.337-60.99-16.373c-2.847-1.574-4.579-5.96-7.521-7.427
	c-36.172-18.024-63.693-51.207-42.757-75.969c0.245-0.302,0.506-0.607,0.78-0.911c0,0,7.877-11.239,25.22-15.904l23.262-7.671
	c0,0,2.762-1.194,5.218,1.937c2.456,3.131,2.831,5.475-2.138,8.194c-11.186,6.121-28.962,9.375-36.514,19.031
	c0,0,12.599-8.719,21.44-10.594c3.467-0.735,17.83-10.149,19.314-8.916c1.45,1.205,3.684,9.502,3.768,9.813
	c5.329,12.133,12.694,23.686,19.32,35.239c0.982,1.712,4.395,6.992,8.837,13.783c5.83,8.913,22.521,41.505,28.901,43.239
	C169.68,257.204,160.945,267.911,160.021,268.775"/>
<path style="fill:#593303;" d="M85.784,163.141c-1.382,0.31-2.851,0.781-4.345,1.355c1.37,3.532,3.04,12.747,3.04,14.025
	c0,11.589-10.463,13.704-7.172,27.422c1.124,4.688,2.156,12.224,6.188,16.219c4.039,4.002,8.883,6.993,5.369,1.351
	c0,0-9.562-12.563-7.875-21.938c0.789-4.385,2.542-8.339,4.156-11.824c-0.154-1.694,0.133-3.487,1.011-5.335
	c0.468-1.577,0.97-2.871,1.028-3.159c0.446-0.352,0.883-0.668,1.31-0.953c0.007-0.194,0.005-0.385-0.006-0.572
	c-0.281-5.062-2.718-8.813-2.906-11.906C85.438,165.436,85.67,163.774,85.784,163.141 M84.764,241.382l-0.12-0.069l-0.182-0.104
	c-8.698-4.973-16.693-10.793-23.368-17.094c3.081,1.523,28.357,10.962,31.283,11.75c6.284,1.694-1.312-5.529,0-5.25
	c3.244,0.691,15.162,5.333,19.515,3.947c9.801-3.122-1.25-9.212-6.109-17.252c-0.852-1.409,4.766-8.265,1.273-7.675
	c-9.466,1.599-17.16-8.269-17.324-8.412c-11.132-9.741,19.312-19.125,9-14.062c-10.312,5.062-7.938-14.166-4.875-19.125
	c2.254-3.648-1.212-6.016-3.202-7.013c5.565-2.925,13.592-7.755,14.681-6.85c1.45,1.205,3.684,9.502,3.768,9.813
	c5.329,12.133,12.694,23.686,19.32,35.239c0.826,1.44,3.253,5.01,6.544,9.81c-11.684-5.681-0.691,1.08,1.19,10.618
	c0.601,3.047-1.501,7.6-1.758,9.046c11.379,6.143,6.378,7.731,9.857,13.288c1.774,2.833,9.046,7.279,5.424,1.925
	c-3.622-5.354-9.749-18.562-6.188-15c11.808,11.809,9.907,19.069,14.91,23.856c1.871,1.79,3.611,2.069,9.34,3.42
	c0.658,2.71-6.915,11.831-7.723,12.586c-7.66,7.442-30.766,0.337-60.99-16.373c-2.847-1.574-4.579-5.96-7.521-7.427
	C89.223,243.836,86.972,242.637,84.764,241.382L84.764,241.382z M84.214,149.072l13.8-4.551c0,0,2.762-1.194,5.218,1.937
	c2.456,3.131,2.831,5.475-2.138,8.194c-11.186,6.121-28.962,9.375-36.514,19.031c0,0,0.493-6.491,7.806-10.522
	c7.313-4.031,14.344-4.219,13.5-8.906C85.488,152.034,84.353,150.466,84.214,149.072z"/>
<path style="fill:none;stroke:#000000;stroke-width:1.0001;stroke-linecap:round;stroke-linejoin:round;stroke-miterlimit:22.9256;" d="
	M106.213,118.433c0,0,4.778-11.365,0.559-15.115 M79.047,79.875c-2.156,0.656-8.344,1.875-12.75,4.781
	c-4.406,2.906-9.281,7.407-8.906,11.719c0.375,4.312,1.781,11.812,4.781,14.719c3,2.906,9.335,24.037,8.906,22.969 M79.047,79.875
	c0,0,24.514-5.261,38.213,20.247 M52.492,95.71c0,0,3.305-3.273,3.399-6.18c0.094-2.906-2.906-3.938,4.219-5.906
	c7.125-1.969,7.875-4.781,11.625-7.781c3.75-3,11.156-1.219,11.156-1.219l11.344-1.969"/>
<path style="fill:none;stroke:#000000;stroke-width:2.0001;stroke-linecap:round;stroke-linejoin:round;stroke-miterlimit:22.9256;" d="
	M63.071,101.832c0,2.387,0.981,4.544,2.561,6.092c1.538,1.507,3.644,2.436,5.967,2.436c4.71,0,8.529-3.819,8.529-8.529
	c0-3.569-2.193-6.627-5.306-7.898c-0.994-0.406-2.082-0.63-3.223-0.63c-2.387,0-4.545,0.981-6.093,2.561
	c-0.767,0.783-1.385,1.713-1.806,2.744C63.295,99.603,63.071,100.691,63.071,101.832z"/>
<path style="fill-rule:evenodd;clip-rule:evenodd;fill:#388A12;" d="M63.071,101.832c0,2.387,0.981,4.544,2.561,6.092
	c1.538,1.507,3.644,2.436,5.967,2.436c4.71,0,8.529-3.819,8.529-8.529c0-3.569-2.193-6.627-5.306-7.898
	c-0.994-0.406-2.082-0.63-3.223-0.63c-2.387,0-4.545,0.981-6.093,2.561c-0.767,0.783-1.385,1.713-1.806,2.744
	C63.295,99.603,63.071,100.691,63.071,101.832"/>
<path style="fill:none;stroke:#000000;stroke-width:2.0001;stroke-linecap:round;stroke-linejoin:round;stroke-miterlimit:22.9256;" d="
	M96.55,128.846l1.34-8.378l13.031-3.188c0,0,3.094-0.75,4.406,2.719C116.64,123.469,113.21,130.943,96.55,128.846z"/>
<path style="fill-rule:evenodd;clip-rule:evenodd;fill:#593303;" d="M96.55,128.846l1.34-8.378l13.031-3.188
	c0,0,3.094-0.75,4.406,2.719C116.64,123.469,113.21,130.943,96.55,128.846"/>
<path style="fill:none;stroke:#000000;stroke-width:2.0001;stroke-linecap:round;stroke-linejoin:round;stroke-miterlimit:22.9256;" d="
	M60.103,125.964l-0.657,9.469c-6.263-8.122-23.506-4.112-23.506-4.112S47.353,120.526,60.103,125.964z"/>
<path style="fill-rule:evenodd;clip-rule:evenodd;fill:#593303;" d="M60.103,125.964l-0.657,9.469
	c-6.263-8.122-23.506-4.112-23.506-4.112S47.353,120.526,60.103,125.964"/>
<path style="fill:none;stroke:#000000;stroke-width:2.0001;stroke-linecap:round;stroke-linejoin:round;stroke-miterlimit:22.9256;" d="
	M60.103,125.964c-6.666-8.439-7.776-24.57-7.922-42.035c-18.706-10.186-32.453,14.775-28.026,31.161
	c3.698,13.687,6.323,19.687,6.323,19.687S45.103,123.527,60.103,125.964z"/>
<path style="fill-rule:evenodd;clip-rule:evenodd;fill:#755705;" d="M60.103,125.964c-6.666-8.439-7.776-24.57-7.922-42.035
	c-18.706-10.186-32.453,14.775-28.026,31.161c3.698,13.687,6.323,19.687,6.323,19.687S45.103,123.527,60.103,125.964"/>
<path style="fill-rule:evenodd;clip-rule:evenodd;fill:#593303;" d="M43.509,105.902c-2.094,0.062,4.906,17.048-2.344,16.313
	c-4.148-0.421-8.798,4.673-12.017,9.109c0.845,2.347,1.329,3.453,1.329,3.453s2.075-1.596,5.463-3.455
	c3.482-1.911,8.351-4.1,13.781-5.122c3.314-0.623,6.837-0.812,10.382-0.236c-6.666-8.439-7.776-24.57-7.922-42.035
	c-0.538-0.293-1.072-0.556-1.601-0.792c-1.318,1.724-2.057,4.624-2.483,7.801c-0.711,5.305-0.549,11.379-0.745,14.027
	c-0.226,3.053-0.816,2.742-1.707,2.028C45.059,106.522,44.341,105.877,43.509,105.902"/>
<path style="fill-rule:evenodd;clip-rule:evenodd;fill:#967A0A;" d="M36.307,86.12c-2.075,2.767-8.596,9.386-9.386,14.227
	c-0.79,4.841,2.866,15.116,2.866,15.116s-1.001-12.35,1.529-13.922C33.947,99.339,42.665,86.402,36.307,86.12"/>
<path style="fill:none;stroke:#000000;stroke-width:2.0001;stroke-linecap:round;stroke-linejoin:round;stroke-miterlimit:22.9256;" d="
	M65.461,144.838c0,0-5.732-3.867-0.107-8.836c5.625-4.968,18.094-5.062,21.563-11.719c3.469-6.656,6.375-19.781,4.5-24.375
	c-1.875-4.594-1.219-6.093-5.157-6.75c-3.937-0.657-14.813-1.688-18.281,1.406c-3.469,3.094-6.844,4.688-3.938,11.344
	c2.906,6.656,4.218,4.219,9.468,4.5c5.25,0.281,10.5,2.906,10.5,2.906s-3.703-0.75-7.031-0.797
	c-3.328-0.047-4.641-0.375-3.938,1.828c0.703,2.203,3.094,7.078,6.656,8.625c3.562,1.547,5.404,2.293,5.404,2.293
	s-9.341-0.464-12.716-5.761c-3.375-5.297-1.687-5.906-4.922-6.938c-3.235-1.031-9.328-9.094-5.062-16.781
	c4.265-7.688,10.218-8.906,15.047-9c4.828-0.094,6.141-0.188,6.141-0.188s-5.39-1.265-5.531-4.687c-0.141-3.422,3-9.516,3-9.516
	s-3.281-2.86-3.937-4.453c-0.656-1.594-1.688-8.016-1.688-8.016s3.656,6.094,5.484,7.266c1.828,1.172,2.391,1.547,2.391,1.547
	s1.782-2.672,5.016-3.234c3.235-0.562,9.844-11.391,9.844-11.391s3.609,5.859,0.75,8.859s-12.234,7.031-12.844,12.047
	c-0.609,5.016-0.469,6.422,6.328,12.328c6.797,5.906,4.313,18.469,4.313,18.469s8.484-4.453,9.234-6.422
	c0.75-1.969,0.422-5.719,0.422-5.719l1.5,3.469c0,0,1.5-3.329,2.719-8.063c1.219-4.734-1.231-10.059-3.75-11.852
	c-2.519-1.792-4.546-4.414-2.109-8.351c2.438-3.938,3.281-5.531,3.281-5.531s-3.188,7.969-1.125,9.563
	c2.063,1.594,5.344,7.031,5.344,7.031s-0.75-2.156,1.781-5.344c2.531-3.188,5.25-5.156,5.25-5.156s-5.156,9.375-4.781,13.781
	c0.375,4.406-1.594,14.531-4.875,19.312c-3.281,4.781-8.344,6.75-10.031,12.094c-1.688,5.344-0.563,11.906-4.594,16.594
	C90.95,135.91,83.637,139.191,65.461,144.838z"/>
<path style="fill-rule:evenodd;clip-rule:evenodd;fill:#755705;" d="M65.461,144.838c0,0-5.732-3.867-0.107-8.836
	c5.625-4.968,18.094-5.062,21.563-11.719c3.469-6.656,6.375-19.781,4.5-24.375c-1.875-4.594-1.219-6.093-5.157-6.75
	c-3.937-0.657-14.813-1.688-18.281,1.406c-3.469,3.094-6.844,4.688-3.938,11.344c2.906,6.656,4.218,4.219,9.468,4.5
	c5.25,0.281,10.5,2.906,10.5,2.906s-3.703-0.75-7.031-0.797c-3.328-0.047-4.641-0.375-3.938,1.828
	c0.703,2.203,3.094,7.078,6.656,8.625c3.562,1.547,5.404,2.293,5.404,2.293s-9.341-0.464-12.716-5.761
	c-3.375-5.297-1.687-5.906-4.922-6.938c-3.235-1.031-9.328-9.094-5.062-16.781c4.265-7.688,10.218-8.906,15.047-9
	c4.828-0.094,6.141-0.188,6.141-0.188s-5.39-1.265-5.531-4.687c-0.141-3.422,3-9.516,3-9.516s-3.281-2.86-3.937-4.453
	c-0.656-1.594-1.688-8.016-1.688-8.016s3.656,6.094,5.484,7.266c1.828,1.172,2.391,1.547,2.391,1.547s1.782-2.672,5.016-3.234
	c3.235-0.562,9.844-11.391,9.844-11.391s3.609,5.859,0.75,8.859s-12.234,7.031-12.844,12.047c-0.609,5.016-0.469,6.422,6.328,12.328
	c6.797,5.906,4.313,18.469,4.313,18.469s8.484-4.453,9.234-6.422c0.75-1.969,0.422-5.719,0.422-5.719l1.5,3.469
	c0,0,1.5-3.329,2.719-8.063c1.219-4.734-1.231-10.059-3.75-11.852c-2.519-1.792-4.546-4.414-2.109-8.351
	c2.438-3.938,3.281-5.531,3.281-5.531s-3.188,7.969-1.125,9.563c2.063,1.594,5.344,7.031,5.344,7.031s-0.75-2.156,1.781-5.344
	c2.531-3.188,5.25-5.156,5.25-5.156s-5.156,9.375-4.781,13.781c0.375,4.406-1.594,14.531-4.875,19.312
	c-3.281,4.781-8.344,6.75-10.031,12.094c-1.688,5.344-0.563,11.906-4.594,16.594C90.95,135.91,83.637,139.191,65.461,144.838"/>
<path style="fill:none;stroke:#000000;stroke-width:2.0001;stroke-linecap:round;stroke-linejoin:round;stroke-miterlimit:22.9256;" d="
	M105.996,91.004c0,0,2.063,4.359-2.015,4.219c-4.078-0.141-6.656-10.969-6.656-10.969s7.922-1.359,10.031,0.891
	C109.465,87.394,110.731,92.785,105.996,91.004z"/>
<path style="fill-rule:evenodd;clip-rule:evenodd;fill:#3B8A12;" d="M105.996,91.004c0,0,2.063,4.359-2.015,4.219
	c-4.078-0.141-6.656-10.969-6.656-10.969s7.922-1.359,10.031,0.891C109.465,87.394,110.731,92.785,105.996,91.004"/>
<path style="fill:none;stroke:#000000;stroke-width:2.0001;stroke-linecap:round;stroke-linejoin:round;stroke-miterlimit:22.9256;" d="
	M117.387,79.8c-0.656,0.375-3.891,5.25,1.219,6.938c5.11,1.688,15.985-8.437,15.985-8.437s-4.031,0.516-5.25-0.891
	C128.121,76.004,115.7,66.066,117.387,79.8z"/>
<path style="fill-rule:evenodd;clip-rule:evenodd;fill:#3B8A12;" d="M117.387,79.8c-0.656,0.375-3.891,5.25,1.219,6.938
	c5.11,1.688,15.985-8.437,15.985-8.437s-4.031,0.516-5.25-0.891C128.121,76.004,115.7,66.066,117.387,79.8"/>
<path style="fill:none;stroke:#000000;stroke-width:2.0001;stroke-linecap:round;stroke-linejoin:round;stroke-miterlimit:22.9256;" d="
	M98.121,77.785c-0.516,0.094-7.666,0.69-6.656-3.375c1.01-4.065,9.422-7.734,9.422-7.734S109.786,81.223,98.121,77.785z"/>
<path style="fill-rule:evenodd;clip-rule:evenodd;fill:#3B8A12;" d="M98.121,77.785c-0.516,0.094-7.666,0.69-6.656-3.375
	c1.01-4.065,9.422-7.734,9.422-7.734S109.786,81.223,98.121,77.785"/>
<path style="fill:none;stroke:#000000;stroke-width:2.0001;stroke-linecap:round;stroke-linejoin:round;stroke-miterlimit:22.9256;" d="
	M98.167,54.112c0,0-1.076,2.58-2.998,0.376s-2.156-5.484,3.094-9.328c5.25-3.844,6.188-5.109,6.047-4.781
	c-0.141,0.328-0.703,5.204,1.453,6.61C107.919,48.395,108.575,62.739,98.167,54.112z"/>
<path style="fill-rule:evenodd;clip-rule:evenodd;fill:#7DA308;" d="M98.167,54.112c0,0-1.076,2.58-2.998,0.376
	s-2.156-5.484,3.094-9.328c5.25-3.844,6.188-5.109,6.047-4.781c-0.141,0.328-0.703,5.204,1.453,6.61
	C107.919,48.395,108.575,62.739,98.167,54.112"/>
<path style="fill:none;stroke:#000000;stroke-width:2.0001;stroke-linecap:round;stroke-linejoin:round;stroke-miterlimit:22.9256;" d="
	M87.481,61.848c-0.234,0.094-2.813,3.984-6.281-0.141c-3.469-4.125-1.922-7.36,0.422-10.5s1.828-6.188,1.828-6.188
	s0.187,4.407,6.563,6.094C96.388,52.801,97.325,67.192,87.481,61.848z"/>
<path style="fill-rule:evenodd;clip-rule:evenodd;fill:#7DA308;" d="M87.481,61.848c-0.234,0.094-2.813,3.984-6.281-0.141
	c-3.469-4.125-1.922-7.36,0.422-10.5s1.828-6.188,1.828-6.188s0.187,4.407,6.563,6.094C96.388,52.801,97.325,67.192,87.481,61.848"
	/>
<path style="fill:none;stroke:#000000;stroke-width:2.0001;stroke-linecap:round;stroke-linejoin:round;stroke-miterlimit:22.9256;" d="
	M72.997,61.333c0,0,2.531,5.625-1.594,6.422c-4.125,0.797-5.297-4.031-5.578-7.64c-0.281-3.609-1.031-5.063-1.031-5.063
	s7.5-2.766,11.813-0.187C80.92,57.442,80.732,63.723,72.997,61.333z"/>
<path style="fill-rule:evenodd;clip-rule:evenodd;fill:#7DA308;" d="M72.997,61.333c0,0,2.531,5.625-1.594,6.422
	c-4.125,0.797-5.297-4.031-5.578-7.64c-0.281-3.609-1.031-5.063-1.031-5.063s7.5-2.766,11.813-0.187
	C80.92,57.442,80.732,63.723,72.997,61.333"/>
<path style="fill:none;stroke:#000000;stroke-width:2.0001;stroke-linecap:round;stroke-linejoin:round;stroke-miterlimit:22.9256;" d="
	M66.622,71.411c0,0,2.531,2.859,4.453,5.344c1.922,2.485,5.672,0.891,5.391-0.844c-0.281-1.735-0.516-1.781-0.516-1.781
	s5.853-0.532,2.224-4.626C74.544,65.411,69.81,69.255,66.622,71.411z"/>
<path style="fill-rule:evenodd;clip-rule:evenodd;fill:#7DA308;" d="M66.622,71.411c0,0,2.531,2.859,4.453,5.344
	c1.922,2.485,5.672,0.891,5.391-0.844c-0.281-1.735-0.516-1.781-0.516-1.781s5.853-0.532,2.224-4.626
	C74.544,65.411,69.81,69.255,66.622,71.411"/>
<path style="fill-rule:evenodd;clip-rule:evenodd;fill:#ABE00A;" d="M67.654,58.379c-0.094,2.25,0,7.125,1.5,5.109
	C70.654,61.473,71.779,57.02,67.654,58.379"/>
<path style="fill-rule:evenodd;clip-rule:evenodd;fill:#ABE00A;" d="M81.107,54.067c-0.891,1.641-0.75,6.234,1.125,5.156
	C84.107,58.145,85.279,54.255,81.107,54.067"/>
<path style="fill-rule:evenodd;clip-rule:evenodd;fill:#3B8A12;" d="M94.537,56.374c-0.975,2.549-7.732,2.151-7.383,2.849
	c0,0-0.811,3.761-5.863,2.592c2.795,3.226,4.998,1.267,5.839,0.39c0.189-0.197,0.309-0.339,0.351-0.356
	c1.715,0.931,3.103,1.263,4.192,1.168c2.216-0.21,3.07-1.814,3.157-3.928C94.882,58.221,94.78,57.288,94.537,56.374"/>
<path style="fill-rule:evenodd;clip-rule:evenodd;fill:#3B8A12;" d="M94.007,50.532c-0.316,1.538,0.22,2.877,1.162,3.957
	c1.214,1.392,2.09,0.875,2.572,0.306c0.273-0.43,0.427-0.682,0.427-0.682c3.437,2.849,5.668,3.192,7.036,2.324
	c0.117-0.455,0.285-0.933,0.512-1.433c0.324-0.713,0.73-1.255,1.198-1.651c0.111-0.617,0.158-1.268,0.152-1.909
	c-1.331,1.665-4.343,1.752-5.896,1.85c-2.227,0.141-2.813-1.078-2.766-1.336c0.047-0.258-0.234,0.258-2.367,0.469
	C94.899,52.54,94.314,51.538,94.007,50.532"/>
<path style="fill:none;stroke:#000000;stroke-width:2.0001;stroke-linecap:round;stroke-linejoin:round;stroke-miterlimit:22.9256;" d="
	M108.012,63.347c0,0-3.469,6.422,3.047,7.5c6.516,1.078,12.844-12.469,12.844-12.469s-1.64,0.422-4.875-1.781
	c-3.235-2.203-10.781-7.172-13.313-1.594C103.184,60.582,108.012,63.347,108.012,63.347z"/>
<path style="fill-rule:evenodd;clip-rule:evenodd;fill:#3B8A12;" d="M108.012,63.347c0,0-3.469,6.422,3.047,7.5
	c6.516,1.078,12.844-12.469,12.844-12.469s-1.64,0.422-4.875-1.781c-3.235-2.203-10.781-7.172-13.313-1.594
	C103.184,60.582,108.012,63.347,108.012,63.347"/>
<path style="fill-rule:evenodd;clip-rule:evenodd;fill:#7DA308;" d="M119.028,56.598c-2.821-1.921-8.921-5.946-12.114-3.244
	c-0.469,0.396-0.875,0.937-1.198,1.651c-0.049,0.108-0.095,0.215-0.139,0.321c0.045,0.216,0.102,0.436,0.174,0.656
	c0.374,1.135,1.145,2.254,2.615,2.728c3.047,0.984,4.266-1.594,4.266-1.172c0,0.422-1.781,4.828-1.781,4.828
	s7.43,0.025,12.195-2.309c0.551-1.017,0.859-1.677,0.859-1.677S122.263,58.801,119.028,56.598"/>
<path style="fill-rule:evenodd;clip-rule:evenodd;fill:#7DA308;" d="M129.34,77.41c-1.157-1.335-12.417-10.364-12.104,0.49
	c3.718,1.657,9.776,3.22,16.945,0.772c0.264-0.236,0.41-0.371,0.41-0.371S130.559,78.816,129.34,77.41"/>
<path style="fill-rule:evenodd;clip-rule:evenodd;" d="M63.656,101.017c0,1.266,0.521,2.412,1.359,3.233
	c0.816,0.799,1.934,1.292,3.167,1.293c2.499,0,4.526-2.026,4.526-4.526c0-1.894-1.164-3.517-2.815-4.192
	c-0.528-0.215-1.105-0.335-1.71-0.335c-1.267,0-2.412,0.521-3.233,1.359c-0.407,0.415-0.734,0.909-0.958,1.456
	C63.775,99.834,63.656,100.411,63.656,101.017"/>
<path style="fill-rule:evenodd;clip-rule:evenodd;fill:#FFFFFF;" d="M65.502,100.947c0.365,0.358,1.005-0.436,1.557-0.436
	c2.218,0,2.658-2.056,0.626-2.887c-0.236-0.096-0.495-0.15-0.765-0.15c-0.567,0-1.08,0.233-1.447,0.608
	C64.695,98.877,64.699,100.161,65.502,100.947"/>
<path style="fill-rule:evenodd;clip-rule:evenodd;fill:#FFFF00;" d="M70.127,102.066c-0.778,1.325,0.181,3.481,1.738,2.471
	C73.421,103.528,72.04,99.836,70.127,102.066"/>
<path style="fill-rule:evenodd;clip-rule:evenodd;fill:#47660D;" d="M66.683,107.764c0,0,6.328,1.296,7.912-1.456
	c1.584-2.752,0.417-6.045,2.21-6.003c1.793,0.042,2.835-0.375,3.106,2.731C80.182,106.142,72.636,111.895,66.683,107.764"/>
<path style="fill-rule:evenodd;clip-rule:evenodd;fill:#967A0A;" d="M61.934,76.647c-3.656,2.625-9.704,6.703-4.547,5.344
	s9.985-4.922,8.813-6.328C65.028,74.257,65.121,73.929,61.934,76.647"/>
<path style="fill-rule:evenodd;clip-rule:evenodd;fill:#967A0A;" d="M59.169,86.023c-0.891,1.031-1.406,3.093,0.984,0.984
	C62.544,84.898,62.615,82.804,59.169,86.023"/>
<path style="fill-rule:evenodd;clip-rule:evenodd;fill:#ABE00A;" d="M68.14,71.704c0.661,0.865,0.216,2.975,1.973,2.154
	c1.758-0.82,2.977-2.457,1.336-2.625C69.809,71.065,68.14,71.704,68.14,71.704"/>
<path style="fill-rule:evenodd;clip-rule:evenodd;fill:#3B8A12;" d="M75.148,71.47c0.661,0.865,0.216,2.975,1.973,2.154
	c1.758-0.82,2.977-2.457,1.336-2.625C76.817,70.831,75.148,71.47,75.148,71.47"/>
<path style="fill-rule:evenodd;clip-rule:evenodd;fill:#593303;" d="M76.893,62.232c0.861,7.672,5.221,5.729,6.414,6.505
	c0,0-0.562-0.375-2.391-1.547C79.836,66.498,78.119,64.088,76.893,62.232"/>
<path style="fill-rule:evenodd;clip-rule:evenodd;fill:#593303;" d="M98.167,54.112c3.345,5.514-5.132,11.264-9.82,14.545
	c-0.333,0.233-0.645,0.472-0.937,0.716c-1.806,1.509-2.848,3.22-3.317,5.043c-0.413,1.604-0.382,3.296-0.038,5.012
	c0.025,0.126,0.052,0.253,0.081,0.38c0.075,0.333,0.162,0.666,0.259,1c0.948,3.259,2.369,5.753,4.327,7.519
	c0.723,0.652,1.519,1.204,2.391,1.659c3.234,1.688,3.469,3.984,3.984,8.109c0.516,4.125-0.516,6.75,0.234,8.719
	c0.073,0.192,0.147,0.335,0.221,0.438c0.372,0.519,0.745,0.022,1.01-0.544c0.225-0.48,0.371-1.009,0.371-1.009
	c-0.141,0.076-0.219,0.117-0.219,0.117s2.484-12.563-4.313-18.469c-4.093-3.556-5.772-5.481-6.327-7.545
	c-0.031-0.114-0.058-0.228-0.082-0.343c-0.264-1.262-0.141-2.611,0.081-4.44c0.041-0.333,0.12-0.663,0.233-0.987
	c0.538-1.538,1.844-2.979,3.442-4.319c3.138-2.634,7.4-4.884,9.169-6.74C101.776,59.972,98.167,54.112,98.167,54.112"/>
<path style="fill-rule:evenodd;clip-rule:evenodd;fill:#593303;" d="M113.003,85.217c-0.181,1.839-1.11,4.414-1.669,6.31
	c-0.314,1.064-0.51,1.915-0.392,2.303c0.176,0.579-0.432,2.66-1.636,4.797c-0.356,0.632-0.764,1.268-1.219,1.872
	c-0.003,0.004-0.006,0.008-0.009,0.012c-0.536,0.709-1.136,1.373-1.794,1.931c-0.41,0.348-0.842,0.654-1.294,0.905
	c-0.282,0.156-0.56,0.322-0.833,0.495c-1.016,0.646-1.968,1.399-2.816,2.165c-2.073,1.875-3.519,3.827-3.732,4.471
	c-0.324,0.978-1.806,8.525-1.619,11.712c0.061,1.032-0.35,2.103-1.019,3.13c-1.398,2.147-3.925,4.105-5.637,5.12
	c-1.304,0.773-5.397,2.766-9.968,4.695c-3.051,1.288-6.316,2.548-9.107,3.398c-1.143,0.348-2.207,0.628-3.144,0.812
	c-0.618,0.122-1.146,0.26-1.595,0.412c-0.879,0.296-1.454,0.645-1.805,1.027c-0.416,0.452-0.516,0.951-0.431,1.464
	c0.725,1.609,2.179,2.59,2.179,2.59c3.484-1.082,6.569-2.078,9.308-3.013c0.895-0.306,1.752-0.604,2.575-0.898
	c0.171-0.061,0.34-0.122,0.508-0.182c9.46-3.408,14.176-6.088,17.129-9.523c0.644-0.748,1.156-1.545,1.569-2.376
	c0.361-0.726,0.646-1.479,0.878-2.251c0.605-2.018,0.842-4.162,1.096-6.282c0.014-0.117,0.028-0.235,0.043-0.352
	c0.223-1.834,0.475-3.644,1.009-5.333c0.868-2.748,2.629-4.604,4.58-6.408c1.205-1.114,2.483-2.209,3.668-3.482
	c0.628-0.674,1.23-1.399,1.782-2.203c1.49-2.171,2.71-5.445,3.562-8.784c0.531-2.08,0.919-4.186,1.142-6.068
	c0.207-1.748,0.27-3.302,0.172-4.461c-0.3-3.522,2.935-10.22,4.245-12.765C114.321,74.034,113.249,82.705,113.003,85.217"/>
<path style="fill:none;stroke:#000000;stroke-width:2.0001;stroke-linecap:round;stroke-linejoin:round;stroke-miterlimit:22.9256;" d="
	M65.461,144.838c0,0-5.239,1.729-7.302,5.197c-2.063,3.469-3.75,9.188,2.719,9.188c6.469,0,10.875-6,13.875-7.031
	c3-1.031,17.344-6.938,22.219-7.406c4.875-0.469,6.938-11.019,1.688-9.541C93.409,136.723,70.981,143.317,65.461,144.838z"/>
<path style="fill-rule:evenodd;clip-rule:evenodd;fill:#755705;" d="M65.461,144.838c0,0-5.239,1.729-7.302,5.197
	c-2.063,3.469-3.75,9.188,2.719,9.188c6.469,0,10.875-6,13.875-7.031c3-1.031,17.344-6.938,22.219-7.406
	c4.875-0.469,6.938-11.019,1.688-9.541C93.409,136.723,70.981,143.317,65.461,144.838"/>
<path style="fill-rule:evenodd;clip-rule:evenodd;fill:#593303;" d="M58.014,158.654c0.694,0.36,1.63,0.569,2.863,0.569
	c6.469,0,10.875-6,13.875-7.031c3-1.031,17.344-6.938,22.219-7.406c4.875-0.469,6.938-11.019,1.688-9.541
	c-1.516,0.427-4.467,1.282-8.029,2.316c1.265,2.497,1.538,6.059-5.681,7.131c-12,1.781-14.719,2.438-19.312,9.75
	C62.953,158.715,60.269,159.146,58.014,158.654"/>
<path style="fill:none;stroke:#000000;stroke-width:1.0001;stroke-linecap:round;stroke-linejoin:round;stroke-miterlimit:22.9256;" d="
	M79.629,148.346c0,0-1.42,2.334-4.206,3.761"/>
<path style="fill:none;stroke:#000000;stroke-width:2.0001;stroke-linecap:round;stroke-linejoin:round;stroke-miterlimit:22.9256;" d="
	M159.893,264.503c0,0,7.125,9.844,15.281,10.969c8.156,1.125,10.313,0.187,12.938,2.344c2.625,2.156,9.562,0.094,9.562,0.094
	l-6.281-4.406c0,0-5.062,0.281-10.219-1.125c-5.156-1.406-13.174-9.093-13.174-9.093L159.893,264.503z"/>
<path style="fill-rule:evenodd;clip-rule:evenodd;fill:#593303;" d="M159.893,264.503c0,0,7.125,9.844,15.281,10.969
	c8.156,1.125,10.313,0.187,12.938,2.344c2.625,2.156,9.562,0.094,9.562,0.094l-6.281-4.406c0,0-5.062,0.281-10.219-1.125
	c-5.156-1.406-13.174-9.093-13.174-9.093L159.893,264.503z"/>
<path style="fill:none;stroke:#000000;stroke-width:2.0001;stroke-linecap:round;stroke-linejoin:round;stroke-miterlimit:22.9256;" d="
	M77.565,146.285c-2.039-7.136,3.208-6.72,9.436-9.317c0,0-1.053,3.365-0.53,5.38C87.954,148.063,78.849,150.779,77.565,146.285z"/>
<path style="fill-rule:evenodd;clip-rule:evenodd;fill:#3B8A12;" d="M77.565,146.285c-2.039-7.136,3.208-6.72,9.436-9.317
	c0,0-1.053,3.365-0.53,5.38C87.954,148.063,78.849,150.779,77.565,146.285"/>
<path style="fill:none;stroke:#000000;stroke-width:2.0001;stroke-linecap:round;stroke-linejoin:round;stroke-miterlimit:22.9256;" d="
	M218.249,153.546c-0.281-0.08-4.455-2.569-6.462,0.442c-2.007,3.01-0.401,7.385,7.185,8.188c7.586,0.803,10.797-0.723,10.355-0.883
	c-0.441-0.16-2.89-2.489-4.495-5.499S216.323,147.244,218.249,153.546z"/>
<path style="fill-rule:evenodd;clip-rule:evenodd;fill:#3B8A12;" d="M218.249,153.546c-0.281-0.08-4.455-2.569-6.462,0.442
	c-2.007,3.01-0.401,7.385,7.185,8.188c7.586,0.803,10.797-0.723,10.355-0.883c-0.441-0.16-2.89-2.489-4.495-5.499
	S216.323,147.244,218.249,153.546"/>
<path style="fill:none;stroke:#000000;stroke-width:2.0001;stroke-linecap:round;stroke-linejoin:round;stroke-miterlimit:22.9256;" d="
	M200.676,124.712c0,0-4.5-3.984-0.187-6.328c4.312-2.344,6.75-5.109,6.75-5.109S216.004,128.228,200.676,124.712z"/>
<path style="fill-rule:evenodd;clip-rule:evenodd;fill:#3B8A12;" d="M200.676,124.712c0,0-4.5-3.984-0.187-6.328
	c4.312-2.344,6.75-5.109,6.75-5.109S216.004,128.228,200.676,124.712"/>
<path style="fill:none;stroke:#000000;stroke-width:1.0001;stroke-linecap:round;stroke-linejoin:round;stroke-miterlimit:22.9256;" d="
	M98.121,77.785c0,0-0.588,1.961-2.369,3.039"/>
<path style="fill:none;stroke:#000000;stroke-width:1.0001;stroke-linecap:round;stroke-linejoin:round;stroke-miterlimit:22.9256;" d="
	M87.481,61.848c0,0,1.59,2.866,0.712,3.678"/>
<line style="fill:none;stroke:#000000;stroke-width:1.0001;stroke-linecap:round;stroke-linejoin:round;stroke-miterlimit:22.9256;" x1="96.555" y1="159.06" x2="89.416" y2="160.484"/>
<path style="fill:none;stroke:#000000;stroke-width:2.0001;stroke-linecap:round;stroke-linejoin:round;stroke-miterlimit:22.9256;" d="
	M96.555,159.06c0,0-2.438,4.313,2.438,4.547c4.875,0.234,9.984-5.672,9.984-5.672S93.368,150.013,96.555,159.06z"/>
<path style="fill-rule:evenodd;clip-rule:evenodd;fill:#3B8A12;" d="M96.555,159.06c0,0-2.438,4.313,2.438,4.547
	c4.875,0.234,9.984-5.672,9.984-5.672S93.368,150.013,96.555,159.06"/>
<path style="fill-rule:evenodd;clip-rule:evenodd;" d="M88.864,223.513c0,0-9.562-12.563-7.875-21.938
	c1.687-9.375,7.781-16.781,7.5-21.844c-0.281-5.062-2.718-8.813-2.906-11.906c-0.188-3.094,0.258-4.969,0.258-4.969l2.351-0.598
	c0,0-2.163,4.089-0.945,6.996s3.836,11.03,0.043,18.757C77.067,208.837,87.345,215.097,88.864,223.513"/>
<path style="fill-rule:evenodd;clip-rule:evenodd;" d="M75.623,167.126l-1.619,0.464c0,0,0.75,2.016,0.656,4.875
	c-0.094,2.859-2.906,13.5-2.906,13.5S76.633,175.709,75.623,167.126"/>
<path style="fill-rule:evenodd;clip-rule:evenodd;fill:#593303;" d="M154.479,150.064c-3.75,3.844-0.467,1.032-5.999,1.969
	c-4.914,0.833-7.037,8.662-7.45,10.4c-0.052,0.218-0.077,0.341-0.077,0.341l3.244-0.348c0,0,2.981-7.368,7.012-8.025
	c4.031-0.657,12.656,2.156,19.125,4.125c3.146,0.957,8.821,1.272,13.82,1.342c5.279,0.074,9.805-0.124,9.805-0.124
	s-5.903-0.45-9.805-1.257c-1.728-0.357-3.064-0.785-3.32-1.274c-0.291-0.555,1.223-1.496,3.32-2.487
	c3.927-1.856,9.899-3.888,9.899-3.888c-12.114,0.224-10.33,5.636-17.719,4.5c-4.875-0.75-18.469-4.969-18.469-4.969
	s-0.188-3.75,5.25-6c5.438-2.25,12.657-5.156,16.219-3.094c1.637,0.948,3.235,2.015,4.82,2.763c1.242,0.587,2.478,0.979,3.718,0.964
	c-1.283-0.469-2.555-1.147-3.718-1.875c-2.081-1.302-3.814-2.763-4.645-3.47c-1.875-1.594-5.531-0.562-13.313,0.656
	C158.416,141.532,158.229,146.22,154.479,150.064"/>
<path style="fill-rule:evenodd;clip-rule:evenodd;fill:#593303;" d="M173.415,122.877c-5.997-2.145-12.469-1.219-20.438,1.219
	c-7.969,2.438-5.531,10.312-5.719,18.938c-0.188,8.625,2.264,7.43,2.264,7.43s-1.688-12.469,2.344-18.281
	c4.031-5.812,8.157-6.937,13.125-7.406c4.969-0.469,14.531-0.093,28.781,1.781c14.25,1.875,20.344,2.906,28.125-1.594
	c5.695-3.293,9.933-6.486,16.464-6.676c-4.538-3.572-18.384,7.319-26.321,7.497C203.322,125.978,179.412,125.022,173.415,122.877"/>
<path style="fill:none;stroke:#000000;stroke-width:2.0001;stroke-linecap:round;stroke-linejoin:round;stroke-miterlimit:22.9256;" d="
	M158.711,160.362c0,0-5.063,4.594-1.219,7.969c3.844,3.375,11.531,1.781,13.594-1.969c2.063-3.75,3.75-14.531,3.75-14.531
	s-4.969-0.75-10.687-0.844c-5.719-0.094-9.469,2.625-9.375,6.375c0.094,3.75,0.656,4.781,0.656,4.781
	S155.992,159.893,158.711,160.362z"/>
<path style="fill-rule:evenodd;clip-rule:evenodd;fill:#7DA308;" d="M158.711,160.362c0,0-5.063,4.594-1.219,7.969
	c3.844,3.375,11.531,1.781,13.594-1.969c2.063-3.75,3.75-14.531,3.75-14.531s-4.969-0.75-10.687-0.844
	c-5.719-0.094-9.469,2.625-9.375,6.375c0.094,3.75,0.656,4.781,0.656,4.781S155.992,159.893,158.711,160.362"/>
<path style="fill:none;stroke:#000000;stroke-width:2.0001;stroke-linecap:round;stroke-linejoin:round;stroke-miterlimit:22.9256;" d="
	M193.978,160.002c0,0-4.219-2.437-6.469,1.313c-2.25,3.75-2.156,8.156,3.656,10.594c5.812,2.438,9.469,2.156,9.469,2.156
	c-1.21-1.43-0.365-4.194,3.355-8.165C206.593,163.12,204.421,151.715,193.978,160.002z"/>
<path style="fill-rule:evenodd;clip-rule:evenodd;fill:#7DA308;" d="M193.978,160.002c0,0-4.219-2.437-6.469,1.313
	c-2.25,3.75-2.156,8.156,3.656,10.594c5.812,2.438,9.469,2.156,9.469,2.156c-1.21-1.43-0.365-4.194,3.355-8.165
	C206.593,163.12,204.421,151.715,193.978,160.002"/>
<path style="fill-rule:evenodd;clip-rule:evenodd;fill:#3B8A12;" d="M193.978,160.002c0,0,4.313-3.094,4.969,2.625
	c0.501,4.368-4.811,7.611,1.687,11.438c-1.21-1.43-0.365-4.194,3.355-8.165C206.593,163.12,204.421,151.715,193.978,160.002"/>
<path style="fill-rule:evenodd;clip-rule:evenodd;fill:#3B8A12;" d="M158.711,160.362c0,0-5.063,4.594-1.219,7.969
	c3.844,3.375,11.531,1.781,13.594-1.969c1.854-3.372,3.405-12.426,3.7-14.22c-3.294,2.319-4.961,9.218-8.246,12.626
	c-3.75,3.891-6.797,0.891-6.141-1.172s8.438-7.828,6.891-7.313c-1.152,0.384-5.865,1.626-9.184,4.016
	C158.295,160.305,158.496,160.325,158.711,160.362"/>
<path style="fill:none;stroke:#000000;stroke-width:2.0001;stroke-linecap:round;stroke-linejoin:round;stroke-miterlimit:22.9256;" d="
	M126.477,264.207c0,0,9.937,10.219,21.469,9.375c11.531-0.844,14.633-9.469,23.344-11.438c8.711-1.969,14.062-1.594,19.781-1.125
	c5.719,0.469,6-4.406,6-4.406s-4.969,3.469-7.875,1.688c-2.906-1.781-12.901-7.445-22.276-2.477
	C157.544,260.792,147.664,276.394,126.477,264.207z"/>
<path style="fill-rule:evenodd;clip-rule:evenodd;fill:#593303;" d="M126.477,264.207c0,0,9.937,10.219,21.469,9.375
	c11.531-0.844,14.633-9.469,23.344-11.438c8.711-1.969,14.062-1.594,19.781-1.125c5.719,0.469,6-4.406,6-4.406
	s-4.969,3.469-7.875,1.688c-2.906-1.781-12.901-7.445-22.276-2.477C157.544,260.792,147.664,276.394,126.477,264.207"/>
<path style="fill-rule:evenodd;clip-rule:evenodd;" d="M92.979,246.661l-1.422-1.216c0,0,5.792,1.537,12.987,0.857
	c7.195-0.68,13.031,2.484,13.031,2.484s-8.731-2.003-13.266-1.547C99.774,247.695,94.023,248.379,92.979,246.661"/>
<path style="fill-rule:evenodd;clip-rule:evenodd;fill:#755705;" d="M184.155,255.74c-4.515-1.826-11.011-3.214-17.235,0.084
	c-0.252,0.134-0.505,0.275-0.758,0.423c-0.242,0.142-0.486,0.291-0.729,0.445c-1.009,0.638-2.03,1.374-3.076,2.161
	c1.111-0.097,2.491-0.67,4.591-1.821c3.713-2.035,5.776-3.066,13.557-0.347c1.284,0.449,2.486,1.147,3.651,1.951
	c0.947,0.654,1.868,1.377,2.788,2.091c1.389,0.071,2.748,0.178,4.128,0.291c5.719,0.469,6-4.406,6-4.406s-4.969,3.469-7.875,1.688
	C188.219,257.702,186.441,256.664,184.155,255.74"/>
<path style="fill:none;stroke:#000000;stroke-width:2.0001;stroke-linecap:round;stroke-linejoin:round;stroke-miterlimit:22.9256;" d="
	M223.499,144.452c-0.281-0.08-4.455-2.569-6.462,0.442c-2.007,3.01-0.401,7.385,7.184,8.188c7.586,0.803,10.797-0.723,10.355-0.883
	c-0.441-0.16-2.89-2.489-4.495-5.499C228.476,143.69,221.573,138.151,223.499,144.452z"/>
<path style="fill-rule:evenodd;clip-rule:evenodd;fill:#3B8A12;" d="M223.499,144.452c-0.281-0.08-4.455-2.569-6.462,0.442
	c-2.007,3.01-0.401,7.385,7.184,8.188c7.586,0.803,10.797-0.723,10.355-0.883c-0.441-0.16-2.89-2.489-4.495-5.499
	C228.476,143.69,221.573,138.151,223.499,144.452"/>
<path style="fill-rule:evenodd;clip-rule:evenodd;fill:#593303;" d="M74.11,167.918c-4.204,2.25-7.747,4.567-9.022,5.422
	c0,0,5.095-2.648,6.548-1.195c1.453,1.453-6.422,23.391-6.422,23.391s7.233-9.781,6.984-9.891c-0.068-0.03-0.067-0.274-0.03-0.613
	c-0.255,0.599-0.414,0.934-0.414,0.934s0.381-1.44,0.867-3.403c0.835-3.373,1.981-8.289,2.04-10.097
	C74.732,170.287,74.313,168.598,74.11,167.918"/>
<path style="fill-rule:evenodd;clip-rule:evenodd;fill:#967A0A;" d="M56.966,164.033c-4.031,1.688-6.75,3.468-9.469,8.437
	c-2.719,4.969-0.563,5.907-2.063,9c-1.5,3.094-2.344,7.687-0.562,8.062s1.594-10.125,4.5-12.937
	c2.906-2.813,4.688-1.594,7.688-7.313C60.059,163.564,65.216,163.002,56.966,164.033"/>
<path style="fill-rule:evenodd;clip-rule:evenodd;fill:#967A0A;" d="M60.622,149.502c-2.25,3.188-5.157,9.281-0.188,5.906
	c4.969-3.375,9.937-8.719,6.281-8.156C63.06,147.815,60.622,149.502,60.622,149.502"/>
<path style="fill-rule:evenodd;clip-rule:evenodd;fill:#7DA308;" d="M77.689,141.326c-0.554,1.787,0.37,5.363,2.058,3.441
	c1.688-1.922,2.967-5.15,1.413-4.45C79.606,141.017,77.689,141.326,77.689,141.326"/>
<path style="fill:none;stroke:#000000;stroke-width:2.0001;stroke-linecap:round;stroke-linejoin:round;stroke-miterlimit:22.9256;" d="
	M220.747,140.128c0,0,1.969,5.25,7.875,5.297c5.906,0.047,21-9.844,21-9.844s-7.735-1.969-10.5-3.563
	c-2.765-1.594-6.938-6.843-14.531-4.453c-7.594,2.39-6.797,9.375-5.672,10.453c1.125,1.078,0.656,2.87,1.219,0.844
	c0.563-2.027,2.456-2.844,4.407-3.61C222.753,136.474,220.883,137.634,220.747,140.128z"/>
<path style="fill-rule:evenodd;clip-rule:evenodd;fill:#78A100;" d="M220.747,140.128c0,0,1.969,5.25,7.875,5.297
	c5.906,0.047,21-9.844,21-9.844s-7.735-1.969-10.5-3.563c-2.765-1.594-6.938-6.843-14.531-4.453
	c-7.594,2.39-6.797,9.375-5.672,10.453c1.125,1.078,0.656,2.87,1.219,0.844c0.563-2.027,2.456-2.844,4.407-3.61
	C222.753,136.474,220.883,137.634,220.747,140.128"/>
<path style="fill-rule:evenodd;clip-rule:evenodd;fill:#338712;" d="M223.769,135.782c-1.462,1.014-2.8,2.124-3.003,4.107
	c-0.008,0.079-0.014,0.158-0.019,0.24c0,0,0.057,0.152,0.181,0.405c0.604,1.232,2.794,4.853,7.694,4.892
	c3.009,0.024,8.402-2.532,12.97-5.044c-6.092,0.375-13.942-0.176-16.298-1.706C223.128,137.268,223.292,136.317,223.769,135.782"/>
<path style="fill:none;stroke:#000000;stroke-width:2.0001;stroke-linecap:round;stroke-linejoin:round;stroke-miterlimit:22.9256;" d="
	M151.239,148.506c0,0-3.383-5.986-2.539-10.58c0.844-4.593,6.938-12.188,6.938-12.188l0.937,5.25c0,0,1.693-3.921,5.956-5.898
	c4.263-1.977,8.95-2.352,8.95-2.352l-5.719,5.953c0,0,4.913-3.403,6.469-4.547c1.556-1.144,8.906-0.844,10.781-1.172
	c1.875-0.328,2.484,0.198,2.531-0.281c0.047-0.48-0.75,3.61-2.344,4.688c-1.594,1.078-5.344,4.734-5.344,4.734
	s5.016-4.969,9.75-5.672c4.734-0.703,9.661-0.94,9.661-0.94s-4.504,4.784-7.926,5.534c-3.422,0.75-2.484,0.985-2.484,0.985
	s8.157-0.047,10.407-2.156c2.25-2.109,2.851-3.793,8.105-4.099c5.254-0.307,8.236-0.135,8.236-0.135s-0.263,13.845-8.372,15.626
	c-27.597,6.061-19.357-5.673-28.079-5.344c-10.255,0.387-13.139,0.982-16.078,2.813
	C161.074,138.723,157.336,146.278,151.239,148.506z"/>
<path style="fill-rule:evenodd;clip-rule:evenodd;fill:#78A100;" d="M151.239,148.506c0,0-3.383-5.986-2.539-10.58
	c0.844-4.593,6.938-12.188,6.938-12.188l0.937,5.25c0,0,1.693-3.921,5.956-5.898c4.263-1.977,8.95-2.352,8.95-2.352l-5.719,5.953
	c0,0,4.913-3.403,6.469-4.547c1.556-1.144,8.906-0.844,10.781-1.172c1.875-0.328,2.484,0.198,2.531-0.281
	c0.047-0.48-0.75,3.61-2.344,4.688c-1.594,1.078-5.344,4.734-5.344,4.734s5.016-4.969,9.75-5.672c4.734-0.703,9.661-0.94,9.661-0.94
	s-4.504,4.784-7.926,5.534c-3.422,0.75-2.484,0.985-2.484,0.985s8.157-0.047,10.407-2.156c2.25-2.109,2.851-3.793,8.105-4.099
	c5.254-0.307,8.236-0.135,8.236-0.135s-0.263,13.845-8.372,15.626c-27.597,6.061-19.357-5.673-28.079-5.344
	c-10.255,0.387-13.139,0.982-16.078,2.813C161.074,138.723,157.336,146.278,151.239,148.506"/>
<path style="fill-rule:evenodd;clip-rule:evenodd;fill:#3B8A12;" d="M182.445,133.71c-0.422,0.141-6.468,0.843-12.093,0.89
	c-5.625,0.047-8.672,2.297-8.672,2.297s0.422-5.062,0.422-5.297c0-0.234-0.562,0.937-1.641,4.125
	c-1.078,3.188-7.453,7.031-7.453,7.031l-0.093-9.422l-2.513,1.879l-1.162,0.869c-0.247,0.647-0.435,1.268-0.54,1.842
	c-0.328,1.784-0.018,3.778,0.484,5.55c0.79,2.791,2.055,5.03,2.055,5.03c4.704-1.719,8.005-6.61,9.267-8.754
	c0.374-0.635,0.569-1.029,0.569-1.029c2.939-1.83,5.824-2.426,16.078-2.813c5.84-0.22,4.075,4.968,10.556,6.6
	c1.392,0.351,3.164,0.538,5.474,0.472c2.458-0.07,5.524-0.427,9.387-1.176c0.848-0.165,1.735-0.348,2.661-0.552
	c1.126-0.247,2.101-0.727,2.945-1.371c3.673-2.8,4.863-8.692,5.247-11.956c0.021-0.181,0.04-0.353,0.057-0.516
	c-0.059,0.177-0.122,0.355-0.188,0.533c-1.557,4.194-5.043,8.71-5.3,9.094c-0.375,0.562,0-5.719,0-6.563s-3.703,4.266-5.36,7.038
	c-1.657,2.772-14.937,1.728-16.999,0.79C183.57,137.367,182.867,133.57,182.445,133.71"/>
<path style="fill:none;stroke:#000000;stroke-width:2.0001;stroke-linecap:round;stroke-linejoin:round;stroke-miterlimit:22.9256;" d="
	M174.288,110.508c0,0-4.406-0.703-3.469-3.703c0.938-3,8.391-12.656,8.391-12.656s2.625,6.938,1.313,11.531
	C179.21,110.273,174.288,110.508,174.288,110.508z"/>
<path style="fill-rule:evenodd;clip-rule:evenodd;fill:#78A100;" d="M174.288,110.508c0,0-4.406-0.703-3.469-3.703
	c0.938-3,8.391-12.656,8.391-12.656s2.625,6.938,1.313,11.531C179.21,110.273,174.288,110.508,174.288,110.508"/>
<path style="fill:none;stroke:#000000;stroke-width:2.0001;stroke-linecap:round;stroke-linejoin:round;stroke-miterlimit:22.9256;" d="
	M185.96,104.508c-0.609,0.656-4.406,2.953-2.203,5.25c2.203,2.297,2.203,2.156,2.203,2.156s-3.235,2.344-0.094,5.391
	c3.141,3.047,13.453,3.516,15.188-5.203c1.734-8.719,0.703-16.875,0.703-16.875S189.288,102.68,185.96,104.508z"/>
<path style="fill-rule:evenodd;clip-rule:evenodd;fill:#78A100;" d="M185.96,104.508c-0.609,0.656-4.406,2.953-2.203,5.25
	c2.203,2.297,2.203,2.156,2.203,2.156s-3.235,2.344-0.094,5.391c3.141,3.047,13.453,3.516,15.188-5.203
	c1.734-8.719,0.703-16.875,0.703-16.875S189.288,102.68,185.96,104.508"/>
<path style="fill:none;stroke:#000000;stroke-width:2.0001;stroke-linecap:round;stroke-linejoin:round;stroke-miterlimit:22.9256;" d="
	M221.631,117.118c0,0-5.531,4.782-7.688-1.969c-2.156-6.75,13.031-12.469,13.031-12.469S233.818,124.993,221.631,117.118z"/>
<path style="fill-rule:evenodd;clip-rule:evenodd;fill:#78A100;" d="M221.631,117.118c0,0-5.531,4.782-7.688-1.969
	c-2.156-6.75,13.031-12.469,13.031-12.469S233.818,124.993,221.631,117.118"/>
<path style="fill:none;stroke:#000000;stroke-width:2.0001;stroke-linecap:round;stroke-linejoin:round;stroke-miterlimit:22.9256;" d="
	M243.816,115.625c-9.879,1.389-4.749-7.788,0.22-8.538c4.969-0.75,8.625-5.719,8.625-5.719s1.406,7.218,1.125,11.344
	C253.505,116.836,249.817,120.194,243.816,115.625z"/>
<path style="fill-rule:evenodd;clip-rule:evenodd;fill:#78A100;" d="M243.816,115.625c-9.879,1.389-4.749-7.788,0.22-8.538
	c4.969-0.75,8.625-5.719,8.625-5.719s1.406,7.218,1.125,11.344C253.505,116.836,249.817,120.194,243.816,115.625"/>
<path style="fill:none;stroke:#000000;stroke-width:2.0001;stroke-linecap:round;stroke-linejoin:round;stroke-miterlimit:22.9256;" d="
	M250.692,129.399c0,0-8.437-0.047-9.984-4.359c-1.547-4.313,0.153-7.596,4.981-5.861
	C250.517,120.913,246.989,126.024,250.692,129.399z"/>
<path style="fill-rule:evenodd;clip-rule:evenodd;fill:#3B8A12;" d="M250.692,129.399c0,0-8.437-0.047-9.984-4.359
	c-1.547-4.313,0.153-7.596,4.981-5.861C250.517,120.913,246.989,126.024,250.692,129.399"/>
<path style="fill-rule:evenodd;clip-rule:evenodd;fill:#3B8A12;" d="M175.151,106.433c-1.547,0.891-2.578,4.078,0.844,3.234
	c3.422-0.844,4.172-7.078,4.172-7.078S177.214,105.988,175.151,106.433"/>
<path style="fill-rule:evenodd;clip-rule:evenodd;fill:#3B8A12;" d="M201.869,106.121c-2.943,4.7-7.821,10.872-12.212,10.25
	c-6.938-0.984,3.375-8.156-1.453-7.172c-3.011,0.614-4.436-0.467-5.082-1.368c-0.135,0.617,0.006,1.272,0.634,1.927
	c2.203,2.297,2.203,2.156,2.203,2.156s-3.235,2.344-0.094,5.391c3.141,3.047,13.453,3.516,15.188-5.203
	C201.463,110.043,201.718,108.017,201.869,106.121"/>
<path style="fill-rule:evenodd;clip-rule:evenodd;fill:#3B8A12;" d="M226.794,102.75c0.238,5.876-0.388,13.792-3.035,13.832
	c-0.294,0.004-0.546-0.04-0.763-0.124c-0.039-0.015-0.077-0.031-0.114-0.049c-1.892-0.907-0.804-5.037-1.303-4.538
	c-0.54,0.54-2.982,3.458-0.685,5.785c0.457-0.298,0.736-0.539,0.736-0.539c0.155,0.1,0.306,0.195,0.455,0.286
	c0.122,0.074,0.242,0.145,0.36,0.213c11.06,6.357,4.529-14.936,4.529-14.936S226.912,102.704,226.794,102.75"/>
<path style="fill-rule:evenodd;clip-rule:evenodd;fill:#3B8A12;" d="M252.945,102.966c-0.397,5.166-3.269,12.396-4.987,12.69
	c-2.461,0.422-3.914-3.211-3.891-3.328c0.023-0.117-0.492,0.703-1.547,1.734c-0.702,0.686-2.885-0.069-4.332-0.735
	c0.058,1.666,1.588,2.865,5.627,2.297c6.001,4.569,9.689,1.212,9.97-2.914C253.985,109.794,253.34,105.33,252.945,102.966"/>
<path style="fill:none;stroke:#000000;stroke-width:2.0001;stroke-linecap:round;stroke-linejoin:round;stroke-miterlimit:22.9256;" d="
	M189.623,184.821c-8.216-3.295-5.562,5.658-2.128,7.008c5.11,2.009,15.16,1.477,15.16,1.477S192.014,177.462,189.623,184.821z"/>
<path style="fill-rule:evenodd;clip-rule:evenodd;fill:#3B8A12;" d="M189.623,184.821c-8.216-3.295-5.562,5.658-2.128,7.008
	c5.11,2.009,15.16,1.477,15.16,1.477S192.014,177.462,189.623,184.821"/>
<path style="fill-rule:evenodd;clip-rule:evenodd;fill:#ABE00A;" d="M190.419,103.541c-0.938,2.203,2.297,6.234,4.875,1.969
	C197.872,101.244,194.168,103.588,190.419,103.541"/>
<path style="fill-rule:evenodd;clip-rule:evenodd;fill:#ABE00A;" d="M216.469,110.336c-1.174,1.451,2.073,3.8,3.178,1.105
	C220.753,108.747,220.062,105.084,216.469,110.336"/>
<path style="fill-rule:evenodd;clip-rule:evenodd;fill:#ABE00A;" d="M187.233,164.136c-1.174,1.451,2.073,3.8,3.178,1.105
	C191.517,162.547,190.826,158.885,187.233,164.136"/>
<path style="fill-rule:evenodd;clip-rule:evenodd;fill:#ABE00A;" d="M158.509,153.107c-1.848,0.262-1.071,4.194,1.574,2.974
	C162.729,154.861,164.717,151.709,158.509,153.107"/>
<path style="fill-rule:evenodd;clip-rule:evenodd;fill:#ABE00A;" d="M224.998,128.607c-0.937,2.203,2.297,6.234,4.875,1.969
	C232.451,126.31,228.748,128.654,224.998,128.607"/>
<path style="fill:none;stroke:#000000;stroke-width:2.0001;stroke-linecap:round;stroke-linejoin:round;stroke-miterlimit:22.9256;" d="
	M209.492,172.007c-0.328-0.094-5.203-3-7.547,0.516c-2.344,3.516-0.469,8.625,8.391,9.562c8.859,0.938,12.61-0.844,12.094-1.031
	c-0.516-0.187-3.375-2.906-5.25-6.422C215.305,171.116,207.242,164.647,209.492,172.007z"/>
<path style="fill-rule:evenodd;clip-rule:evenodd;fill:#7DA308;" d="M209.492,172.007c-0.328-0.094-5.203-3-7.547,0.516
	c-2.344,3.516-0.469,8.625,8.391,9.562c8.859,0.938,12.61-0.844,12.094-1.031c-0.516-0.187-3.375-2.906-5.25-6.422
	C215.305,171.116,207.242,164.647,209.492,172.007"/>
<path style="fill-rule:evenodd;clip-rule:evenodd;fill:#3B8A12;" d="M209.024,178.194c-4.653-0.977-6.49-3.519-7.226-5.439
	c-2.111,3.504-0.128,8.412,8.538,9.33c6.305,0.667,10.023-0.043,11.456-0.575C219.158,180.741,214.246,179.29,209.024,178.194"/>
<path style="fill:none;stroke:#000000;stroke-width:2.0001;stroke-linecap:round;stroke-linejoin:round;stroke-miterlimit:22.9256;" d="
	M267.364,124.351c-0.222-0.063-3.527-2.034-5.116,0.35c-1.589,2.383-0.318,5.847,5.688,6.483c6.007,0.635,8.549-0.573,8.199-0.699
	c-0.349-0.127-2.288-1.971-3.559-4.354C271.305,123.747,265.839,119.361,267.364,124.351z"/>
<path style="fill-rule:evenodd;clip-rule:evenodd;fill:#3B8A12;" d="M267.364,124.351c-0.222-0.063-3.527-2.034-5.116,0.35
	c-1.589,2.383-0.318,5.847,5.688,6.483c6.007,0.635,8.549-0.573,8.199-0.699c-0.349-0.127-2.288-1.971-3.559-4.354
	C271.305,123.747,265.839,119.361,267.364,124.351"/>
<path style="fill:none;stroke:#000000;stroke-width:2.0001;stroke-linecap:round;stroke-linejoin:round;stroke-miterlimit:22.9256;" d="
	M269.711,110.798c0,0,0.333,8.431-3.906,10.17c-4.239,1.739-7.595,0.189-6.079-4.712
	C261.241,111.355,266.505,114.649,269.711,110.798z"/>
<path style="fill-rule:evenodd;clip-rule:evenodd;fill:#3B8A12;" d="M269.711,110.798c0,0,0.333,8.431-3.906,10.17
	c-4.239,1.739-7.595,0.189-6.079-4.712C261.241,111.355,266.505,114.649,269.711,110.798"/>
<path style="fill-rule:evenodd;clip-rule:evenodd;fill:#78A100;" d="M267.106,112.556c-2.928,0.979-6.231-0.015-7.38,3.701
	c-0.038,0.122-0.072,0.241-0.104,0.359c0.422,0.606,1.335,0.939,2.977,0.69C265.711,116.833,266.764,114.432,267.106,112.556"/>
<path style="fill:none;stroke:#000000;stroke-width:2.0001;stroke-linecap:round;stroke-linejoin:round;stroke-miterlimit:22.9256;" d="
	M101.057,198.649c0.656,0.094,10.312,1.547,11.719-2.953s-5.346-12.211-5.346-12.211s-6.42-0.726-7.873,1.055
	C98.104,186.32,101.057,198.649,101.057,198.649z"/>
<path style="fill-rule:evenodd;clip-rule:evenodd;fill:#593303;" d="M101.057,198.649c0.656,0.094,10.312,1.547,11.719-2.953
	s-5.346-12.211-5.346-12.211s-6.42-0.726-7.873,1.055C98.104,186.32,101.057,198.649,101.057,198.649"/>
<path style="fill:none;stroke:#000000;stroke-width:2.0001;stroke-linecap:round;stroke-linejoin:round;stroke-miterlimit:22.9256;" d="
	M141.182,162.413c-6.844,0.844-4.432,2.662-10.688,3c-6.255,0.338-6.923,3.77-7.351,5.208l9.587,2.887c0,0,1.329-1.052,3.462-2.241
	c1.132-0.847,1.945-1.449,1.945-1.449s0.048,0.15,0.145,0.412c2.332-1.003,4.843-1.518,6.461-0.224c3.75,3,4.5,6.47,10.406,6.563
	c2.614,0.041,6.6-0.286,9.132,0.956c3.188,1.563,4.649,4.763,4.649,4.763l-0.469-5.344c0,0,1.594-1.219,7.313-4.406
	c5.719-3.188,27.375-8.718,47.25-1.594c-14.813-11.062-45.576-4.695-51.389-0.663c-5.813,4.031-5.33,2.538-12.642,2.726
	c-7.313,0.188-8.25-5.062-8.25-5.062l6.188-5.625c0,0-4.875,3.656-7.219,3.75C147.369,166.163,148.025,161.57,141.182,162.413z"/>
<path style="fill-rule:evenodd;clip-rule:evenodd;fill:#755705;" d="M141.182,162.413c-6.844,0.844-4.432,2.662-10.688,3
	c-6.255,0.338-6.923,3.77-7.351,5.208l9.587,2.887c0,0,1.329-1.052,3.462-2.241c1.132-0.847,1.945-1.449,1.945-1.449
	s0.048,0.15,0.145,0.412c2.332-1.003,4.843-1.518,6.461-0.224c3.75,3,4.5,6.47,10.406,6.563c2.614,0.041,6.6-0.286,9.132,0.956
	c3.188,1.563,4.649,4.763,4.649,4.763l-0.469-5.344c0,0,1.594-1.219,7.313-4.406c5.719-3.188,27.375-8.718,47.25-1.594
	c-14.813-11.062-45.576-4.695-51.389-0.663c-5.813,4.031-5.33,2.538-12.642,2.726c-7.313,0.188-8.25-5.062-8.25-5.062l6.188-5.625
	c0,0-4.875,3.656-7.219,3.75C147.369,166.163,148.025,161.57,141.182,162.413"/>
<path style="fill-rule:evenodd;clip-rule:evenodd;fill:#593303;" d="M145.493,166.726c-3.188-2.11-10.125-0.703-13.406,1.359
	c-2.371,1.49-3.102,3.373-3.555,4.461l3.913,1.179c0,0,1.615-1.269,3.748-2.458c1.132-0.847,1.945-1.449,1.945-1.449
	s0.048,0.15,0.145,0.412c2.332-1.003,4.843-1.518,6.461-0.224c3.75,3,4.5,6.47,10.406,6.563c1.788,0.028,4.217-0.116,6.384,0.187
	c-1.374-0.843-3.229-1.71-5.072-1.734C152.853,174.976,148.681,168.836,145.493,166.726"/>
<path style="fill-rule:evenodd;clip-rule:evenodd;fill:#593303;" d="M181.118,168.273c-2.859,1.219-14.39,5.063-14.531,7.734
	c-0.075,1.422,0.965,2.392,2.061,3.053l-0.186-2.116c0,0,1.594-1.219,7.313-4.406c5.363-2.989,24.739-8.038,43.519-2.782
	C205.345,162.52,183.978,167.054,181.118,168.273"/>
<path style="fill:none;stroke:#000000;stroke-width:2.0001;stroke-linecap:round;stroke-linejoin:round;stroke-miterlimit:22.9256;" d="
	M96.014,176.286c0,0,2.844-7.967,10.531-8.436c7.687-0.469,24.375,7.406,26.719,5.625c2.344-1.781,5.258-2.628,5.258-2.628
	s1.538,4.972,5.382,7.081c3.844,2.109,12.656,3.656,12.656,3.656s-9.375,1.5-13.688-0.469c-4.313-1.969-8.531-4.125-10.875-2.672
	c-2.344,1.453-10.359,3.375-10.359,3.375L96.014,176.286z"/>
<path style="fill-rule:evenodd;clip-rule:evenodd;fill:#755705;" d="M96.014,176.286c0,0,2.844-7.967,10.531-8.436
	c7.687-0.469,24.375,7.406,26.719,5.625c2.344-1.781,5.258-2.628,5.258-2.628s1.538,4.972,5.382,7.081
	c3.844,2.109,12.656,3.656,12.656,3.656s-9.375,1.5-13.688-0.469c-4.313-1.969-8.531-4.125-10.875-2.672
	c-2.344,1.453-10.359,3.375-10.359,3.375L96.014,176.286z"/>
<path style="fill-rule:evenodd;clip-rule:evenodd;fill:#593303;" d="M125.247,176.1c-5.438-0.187-8.063-1.594-11.719-0.094
	c-3.657,1.5-8.8,0.638-8.8,0.638c4.47,1.07,8.904,3.099,12.809,4.289l4.102,0.885c0,0,8.016-1.922,10.359-3.375
	c2.344-1.453,6.563,0.703,10.875,2.672c4.313,1.969,13.688,0.469,13.688,0.469c-0.966-0.181-4.764-0.836-8.814-2.117
	c-4.207-0.507-8.978-2.793-10.687-3.647C134.434,174.507,130.684,176.288,125.247,176.1"/>
<path style="fill:none;stroke:#000000;stroke-width:2.0001;stroke-linecap:round;stroke-linejoin:round;stroke-miterlimit:22.9256;" d="
	M121.638,181.819c0,0-4.781,1.5-9.656,1.5s-13.125,0.375-12,4.875c1.125,4.5,6.75,14.438-0.281,14.344
	c-7.031-0.094-21.094-10.406-11.156-21.656C98.482,169.631,112.545,180.975,121.638,181.819z"/>
<path style="fill-rule:evenodd;clip-rule:evenodd;fill:#593303;" d="M121.638,181.819c0,0-4.781,1.5-9.656,1.5
	s-13.125,0.375-12,4.875c1.125,4.5,6.75,14.438-0.281,14.344c-7.031-0.094-21.094-10.406-11.156-21.656
	C98.482,169.631,112.545,180.975,121.638,181.819"/>
<path style="fill-rule:evenodd;clip-rule:evenodd;fill:#755705;" d="M87.776,181.81c-0.188,0.937-5.655,11.915,1.189,9.384
	c6.844-2.531,3.75-9.282,7.875-10.031C100.965,180.413,96.214,175.154,87.776,181.81"/>
<path style="fill:none;stroke:#000000;stroke-width:2.0001;stroke-linecap:round;stroke-linejoin:round;stroke-miterlimit:22.9256;" d="
	M137.71,163.12l6.488-0.695c0,0,2.981-7.368,7.012-8.025c4.031-0.657,12.656,2.156,19.125,4.125
	c6.469,1.969,23.625,1.219,23.625,1.219s-12.29-0.938-13.125-2.531c-0.835-1.594,13.219-6.375,13.219-6.375
	c-11.864,0.045-10.423,5.623-17.719,4.5c-4.875-0.75-18.469-4.969-18.469-4.969s-0.188-3.75,5.25-6
	c5.438-2.25,12.657-5.156,16.219-3.094c3.562,2.062,6.938,4.688,10.406,3.375c3.469-1.313,5.156-2.906,5.156-2.906
	s-9.188,1.969-10.875-0.375c-1.687-2.344-5.438-6.75-12.563-4.781c-7.125,1.969-11.063,1.875-15.375,6.563
	c-4.312,4.687-6.562,7.313-6.562,7.313s-1.688-12.469,2.344-18.281c4.031-5.812,8.157-6.937,13.125-7.406
	c4.969-0.469,14.531-0.093,28.781,1.781c14.25,1.875,20.344,2.906,28.125-1.594s12.844-8.813,24.75-5.531
	c11.906,3.281,20.906,1.031,20.906,1.031s-18.179-0.665-25.781-3.562c-7.602-2.897-15.706,5.049-23.717,6.806
	c3.2-2.866,5.126-7.682,5.126-7.682c-4.126,5.343-6.907,7.302-9.705,8.031c-9.929,0.05-30.638-2.033-39.027-3.045
	c5.602-2.297,10.508-8.376,10.508-8.376c-3.635,2.582-11.617,7.559-14.86,7.817c-0.94-0.12-1.922-0.237-2.93-0.337
	c4.514-2.918,6.425-8.207,6.425-8.207s-2.156,1.922-5.016,4.266c-2.859,2.344-7.781,3.676-7.781,3.676l0.002,0
	c-5.85,0.196-11.466,1.915-13.994,7.832C142.398,137.993,146.887,153.694,137.71,163.12z"/>
<path style="fill-rule:evenodd;clip-rule:evenodd;fill:#755705;" d="M137.71,163.12l6.488-0.695c0,0,2.981-7.368,7.012-8.025
	c4.031-0.657,12.656,2.156,19.125,4.125c6.469,1.969,23.625,1.219,23.625,1.219s-12.29-0.938-13.125-2.531
	c-0.835-1.594,13.219-6.375,13.219-6.375c-11.864,0.045-10.423,5.623-17.719,4.5c-4.875-0.75-18.469-4.969-18.469-4.969
	s-0.188-3.75,5.25-6c5.438-2.25,12.657-5.156,16.219-3.094c3.562,2.062,6.938,4.688,10.406,3.375
	c3.469-1.313,5.156-2.906,5.156-2.906s-9.188,1.969-10.875-0.375c-1.687-2.344-5.438-6.75-12.563-4.781
	c-7.125,1.969-11.063,1.875-15.375,6.563c-4.312,4.687-6.562,7.313-6.562,7.313s-1.688-12.469,2.344-18.281
	c4.031-5.812,8.157-6.937,13.125-7.406c4.969-0.469,14.531-0.093,28.781,1.781c14.25,1.875,20.344,2.906,28.125-1.594
	s12.844-8.813,24.75-5.531c11.906,3.281,20.906,1.031,20.906,1.031s-18.179-0.665-25.781-3.562
	c-7.602-2.897-15.706,5.049-23.717,6.806c3.2-2.866,5.126-7.682,5.126-7.682c-4.126,5.343-6.907,7.302-9.705,8.031
	c-9.929,0.05-30.638-2.033-39.027-3.045c5.602-2.297,10.508-8.376,10.508-8.376c-3.635,2.582-11.617,7.559-14.86,7.817
	c-0.94-0.12-1.922-0.237-2.93-0.337c4.514-2.918,6.425-8.207,6.425-8.207s-2.156,1.922-5.016,4.266
	c-2.859,2.344-7.781,3.676-7.781,3.676l0.002,0c-5.85,0.196-11.466,1.915-13.994,7.832
	C142.398,137.993,146.887,153.694,137.71,163.12"/>
<path style="fill:none;stroke:#000000;stroke-width:2.0001;stroke-linecap:round;stroke-linejoin:round;stroke-miterlimit:22.9256;" d="
	M198.529,141.626c0.469,0,6.375,0.469,13.687,0.094c7.313-0.375,11.438-1.969,10.969-1.875c-0.469,0.094-19.732,0.076-21.491-0.056
	S198.529,141.626,198.529,141.626z"/>
<path style="fill-rule:evenodd;clip-rule:evenodd;fill:#755705;" d="M198.529,141.626c0.469,0,6.375,0.469,13.687,0.094
	c7.313-0.375,11.438-1.969,10.969-1.875c-0.469,0.094-19.732,0.076-21.491-0.056S198.529,141.626,198.529,141.626"/>
<path style="fill:none;stroke:#000000;stroke-width:2.0001;stroke-linecap:round;stroke-linejoin:round;stroke-miterlimit:22.9256;" d="
	M206.498,146.501c4.969,0.281,6.75-0.563,10.312,2.063c3.563,2.625,9.844,9.75,16.406,11.25c6.563,1.5,15.188-2.531,15.188-2.531
	s-14.531,3.656-19.406-0.844s-13.406-12.094-18-12.75C206.404,143.032,206.498,146.501,206.498,146.501z"/>
<path style="fill-rule:evenodd;clip-rule:evenodd;fill:#755705;" d="M206.498,146.501c4.969,0.281,6.75-0.563,10.312,2.063
	c3.563,2.625,9.844,9.75,16.406,11.25c6.563,1.5,15.188-2.531,15.188-2.531s-14.531,3.656-19.406-0.844s-13.406-12.094-18-12.75
	C206.404,143.032,206.498,146.501,206.498,146.501"/>
<path style="fill:none;stroke:#000000;stroke-width:2.0001;stroke-linecap:round;stroke-linejoin:round;stroke-miterlimit:22.9256;" d="
	M199.373,155.97c0,0,10.594-3.094,15.844-1.5c5.25,1.594,9,2.625,9,2.625s-8.812-6.656-18.375-6.094
	C196.279,151.563,199.373,155.97,199.373,155.97z"/>
<path style="fill-rule:evenodd;clip-rule:evenodd;fill:#755705;" d="M199.373,155.97c0,0,10.594-3.094,15.844-1.5
	c5.25,1.594,9,2.625,9,2.625s-8.812-6.656-18.375-6.094C196.279,151.563,199.373,155.97,199.373,155.97"/>
<path style="fill:none;stroke:#000000;stroke-width:2.0001;stroke-linecap:round;stroke-linejoin:round;stroke-miterlimit:22.9256;" d="
	M219.609,288.596c0,0-7.688-3.281-8.907,1.594c-3.676,14.704,19.929,13.676,23.344,13.687c-0.844,0-3.469-5.906-4.406-11.438
	C228.703,286.909,222.89,282.409,219.609,288.596z"/>
<path style="fill-rule:evenodd;clip-rule:evenodd;fill:#78A100;" d="M219.609,288.596c0,0-7.688-3.281-8.907,1.594
	c-3.676,14.704,19.929,13.676,23.344,13.687c-0.844,0-3.469-5.906-4.406-11.438C228.703,286.909,222.89,282.409,219.609,288.596"/>
<path style="fill:none;stroke:#000000;stroke-width:2.0001;stroke-linecap:round;stroke-linejoin:round;stroke-miterlimit:22.9256;" d="
	M243.013,281.365c0,0-8.835,0.969-7.313,5.757c2.582,8.119,16.35,5.685,19.55,4.493c-0.79,0.297,1.33-5.338-1.495-10.185
	C250.93,276.583,243.905,274.418,243.013,281.365z"/>
<path style="fill-rule:evenodd;clip-rule:evenodd;fill:#78A100;" d="M243.013,281.365c0,0-8.835,0.969-7.313,5.757
	c2.582,8.119,16.35,5.685,19.55,4.493c-0.79,0.297,1.33-5.338-1.495-10.185C250.93,276.583,243.905,274.418,243.013,281.365"/>
<path style="fill-rule:evenodd;clip-rule:evenodd;fill:#3B8A12;" d="M210.702,290.19c-1.784,7.139,2.861,10.569,8.504,12.211
	c-7.944-3.289-6.954-10.048-4.192-11.695c2.762-1.647,8.812,2.484,6.797-0.422c-2.015-2.906,3.198-4.387,3.198-4.387
	c-1.856-0.729-3.895-0.139-5.4,2.7C219.609,288.596,211.92,285.315,210.702,290.19"/>
<path style="fill:none;stroke:#000000;stroke-width:2.0001;stroke-linecap:round;stroke-linejoin:round;stroke-miterlimit:22.9256;" d="
	M212.135,255.319c0,0-3.14,5.859,3.047,6s8.391-10.734,8.391-10.734l6.047-6.938c0,0-12.938-4.828-18.422,3.281
	C205.713,255.038,207.729,257.007,212.135,255.319z"/>
<path style="fill-rule:evenodd;clip-rule:evenodd;fill:#78A100;" d="M212.135,255.319c0,0-3.14,5.859,3.047,6
	s8.391-10.734,8.391-10.734l6.047-6.938c0,0-12.938-4.828-18.422,3.281C205.713,255.038,207.729,257.007,212.135,255.319"/>
<path style="fill-rule:evenodd;clip-rule:evenodd;" d="M115.668,207.045c1.781,1.969,10.603,3.519,12.759,7.644
	s2.532,10.781,3.375,12.281c0.844,1.5,5.437,6.938,4.406,5.484l1.031,1.453c0,0-7.86-5.022-8.609-13.366
	C127.882,212.198,116.418,211.123,115.668,207.045"/>
<path style="fill-rule:evenodd;clip-rule:evenodd;" d="M108.329,198.896c1.081,0.083,2.137-0.892,3.144-0.087
	c2.401,1.919,4.525,6.931,6.044,9.837c2.908,5.564,5.678,9.831,8.813,14.25c0.055,0.077-5.366-4.399-9.32-13.284
	C114.077,203.023,108.425,199.018,108.329,198.896"/>
<path style="fill:none;stroke:#000000;stroke-width:2.0001;stroke-linecap:round;stroke-linejoin:round;stroke-miterlimit:22.9256;" d="
	M92.901,328.528c0,0-4.5-7.125,0.563-7.688s6.375-1.875,5.813-4.875s0.375-3.375,4.219-2.344c3.844,1.031,1.969,0,4.406-3.75
	c2.438-3.75,5.906-0.469,10.031-2.813c4.125-2.344,6.281-7.219,6.281-6.75c0,0.469,3.281,4.781,3.281,4.781l-8.503,7.883
	c0,0-7.247-1.696-8.091,1.867c-0.844,3.563-2.719,4.782-6.281,3.75c-3.563-1.031-3.428,3.281-4.62,5.438
	C98.808,326.185,94.026,321.778,92.901,328.528z"/>
<path style="fill-rule:evenodd;clip-rule:evenodd;fill:#755705;" d="M92.901,328.528c0,0-4.5-7.125,0.563-7.688
	s6.375-1.875,5.813-4.875s0.375-3.375,4.219-2.344c3.844,1.031,1.969,0,4.406-3.75c2.438-3.75,5.906-0.469,10.031-2.813
	c4.125-2.344,6.281-7.219,6.281-6.75c0,0.469,3.281,4.781,3.281,4.781l-8.503,7.883c0,0-7.247-1.696-8.091,1.867
	c-0.844,3.563-2.719,4.782-6.281,3.75c-3.563-1.031-3.428,3.281-4.62,5.438C98.808,326.185,94.026,321.778,92.901,328.528"/>
<path style="fill-rule:evenodd;clip-rule:evenodd;fill:#593303;" d="M123.417,301.463c-0.97,1.503-2.814,4.08-5.484,5.597
	c-0.119,0.068-0.238,0.131-0.356,0.189c-1.232,1.521-4.63,1.49-5.742,3.276c-1.581,2.54-4.594,5.625-8.438,6.094
	c-3.844,0.469-1.969,1.688-2.653,5.438c0.625-2.055,1.233-4.231,3.876-3.466c3.563,1.032,5.437-0.188,6.281-3.75
	c0.844-3.563,8.091-1.867,8.091-1.867c-0.266-2.116,1.316-4.112,4.472-5.164C127.562,306.445,125.027,305.875,123.417,301.463"/>
<path style="fill:none;stroke:#000000;stroke-width:2.0001;stroke-linecap:round;stroke-linejoin:round;stroke-miterlimit:22.9256;" d="
	M126.477,295.535c-1.588,0.55-4.363,2.038-3.201,5.525c1.594,4.781,4.406,5.344,0.188,6.75c-4.219,1.406-5.625,4.5-3.563,7.313
	c2.063,2.813,1.031,3.844-3.375,3.281c-4.406-0.562-5.907,0.188-5.438,3.938c0.469,3.75-6,9.938-6,9.938s7.031-1.219,9.094-3.094
	c2.063-1.875-3.188-6.656,2.344-6.75c5.531-0.094,11.25-0.938,9.281-5.25c-1.969-4.313-4.594-5.156-0.094-4.781
	c4.241,0.353,6.052-4.643,4.448-9.134c0.023-0.019,0.046-0.039,0.069-0.059C129.279,301.071,127.781,297.826,126.477,295.535z"/>
<path style="fill-rule:evenodd;clip-rule:evenodd;fill:#755705;" d="M126.477,295.535c-1.588,0.55-4.363,2.038-3.201,5.525
	c1.594,4.781,4.406,5.344,0.188,6.75c-4.219,1.406-5.625,4.5-3.563,7.313c2.063,2.813,1.031,3.844-3.375,3.281
	c-4.406-0.562-5.907,0.188-5.438,3.938c0.469,3.75-6,9.938-6,9.938s7.031-1.219,9.094-3.094c2.063-1.875-3.188-6.656,2.344-6.75
	c5.531-0.094,11.25-0.938,9.281-5.25c-1.969-4.313-4.594-5.156-0.094-4.781c4.241,0.353,6.052-4.643,4.448-9.134
	c0.023-0.019,0.046-0.039,0.069-0.059C129.279,301.071,127.781,297.826,126.477,295.535"/>
<path style="fill-rule:evenodd;clip-rule:evenodd;fill:#593303;" d="M127.726,303.448c1.5,4.875-1.781,7.031-4.5,7.125
	c-2.719,0.094,0.469,4.875-1.406,7.219c-1.875,2.344-11.106,1.273-7.803,7.199c-0.318-1.374-0.159-2.51,2.51-2.555
	c5.531-0.094,11.25-0.938,9.281-5.25c-1.969-4.313-4.594-5.156-0.094-4.781c4.241,0.353,6.052-4.643,4.448-9.134l0.069-0.059
	c-0.671-1.508-1.613-3.565-2.567-5.449C127.664,297.762,126.226,298.573,127.726,303.448"/>
<path style="fill:none;stroke:#000000;stroke-width:2.0001;stroke-linecap:round;stroke-linejoin:round;stroke-miterlimit:22.9256;" d="
	M132.276,297.402c1.031,0,6.234,1.688,6-0.609c-0.234-2.297-5.062-3.75-0.469-4.922c4.594-1.172,8.297,0.047,8.344-2.391
	c0.047-2.438,0.187-5.719,2.391-6c2.203-0.281-0.187,1.641,0.797,2.438c0.984,0.797,1.875,8.625-0.938,7.828
	c-2.813-0.797-6.281,0.094-5.672,2.859c0.609,2.766-4.313,6.609-8.063,6c-3.75-0.609-3.422-1.078-3.422-1.078l1.078-4.641
	L132.276,297.402z"/>
<path style="fill-rule:evenodd;clip-rule:evenodd;fill:#593303;" d="M132.276,297.402c1.031,0,6.234,1.688,6-0.609
	c-0.234-2.297-5.062-3.75-0.469-4.922c4.594-1.172,8.297,0.047,8.344-2.391c0.047-2.438,0.187-5.719,2.391-6
	c2.203-0.281-0.187,1.641,0.797,2.438c0.984,0.797,1.875,8.625-0.938,7.828c-2.813-0.797-6.281,0.094-5.672,2.859
	c0.609,2.766-4.313,6.609-8.063,6c-3.75-0.609-3.422-1.078-3.422-1.078l1.078-4.641L132.276,297.402z"/>
<path style="fill:none;stroke:#000000;stroke-width:2.0001;stroke-linecap:round;stroke-linejoin:round;stroke-miterlimit:22.9256;" d="
	M123.09,258.217c0,0-2.438,3.282,2.813,5.719c1.263,0.586,2.356,1.319,3.255,2.192c0.889-1.346,1.818-3.324,2.088-5.942
	c0.359-3.477-0.967-5.344-1.946-6.63C127.597,255.336,125.5,256.887,123.09,258.217z"/>
<path style="fill-rule:evenodd;clip-rule:evenodd;fill:#593303;" d="M123.09,258.217c0,0-2.438,3.282,2.813,5.719
	c1.263,0.586,2.356,1.319,3.255,2.192c0.889-1.346,1.818-3.324,2.088-5.942c0.359-3.477-0.967-5.344-1.946-6.63
	C127.597,255.336,125.5,256.887,123.09,258.217"/>
<path style="fill:none;stroke:#000000;stroke-width:2.0001;stroke-linecap:round;stroke-linejoin:round;stroke-miterlimit:22.9256;" d="
	M123.09,258.217c-5.438,3-6.094,9.75,0.281,13.688c3.002,1.854,6.045,3.209,8.298,4.614c1-4.448-0.008-7.961-2.512-10.39
	c-0.9-0.873-1.993-1.606-3.255-2.192C120.652,261.498,123.09,258.217,123.09,258.217z"/>
<path style="fill-rule:evenodd;clip-rule:evenodd;fill:#593303;" d="M123.09,258.217c-5.438,3-6.094,9.75,0.281,13.688
	c3.002,1.854,6.045,3.209,8.298,4.614c1-4.448-0.008-7.961-2.512-10.39c-0.9-0.873-1.993-1.606-3.255-2.192
	C120.652,261.498,123.09,258.217,123.09,258.217"/>
<path style="fill:none;stroke:#000000;stroke-width:2.0001;stroke-linecap:round;stroke-linejoin:round;stroke-miterlimit:22.9256;" d="
	M125.106,287.186c-0.269,2.104-0.391,5.416,0.983,7.686c0.127,0.21,0.257,0.431,0.388,0.662c1.303,2.29,2.802,5.536,3.754,7.676
	c0.926-0.804,2.266-2.232,3.451-4.495c0.658-1.256,0.228-2.712-0.793-4.22c-1.696-2.504-5.024-5.149-7.711-7.253
	C125.155,287.225,125.131,287.206,125.106,287.186z"/>
<path style="fill-rule:evenodd;clip-rule:evenodd;fill:#593303;" d="M125.106,287.186c-0.269,2.104-0.391,5.416,0.983,7.686
	c0.127,0.21,0.257,0.431,0.388,0.662c1.303,2.29,2.802,5.536,3.754,7.676c0.926-0.804,2.266-2.232,3.451-4.495
	c0.658-1.256,0.228-2.712-0.793-4.22c-1.696-2.504-5.024-5.149-7.711-7.253C125.155,287.225,125.131,287.206,125.106,287.186"/>
<path style="fill:none;stroke:#000000;stroke-width:2.0001;stroke-linecap:round;stroke-linejoin:round;stroke-miterlimit:22.9256;" d="
	M122.866,280.22c-1.006,0.784-2.908,2.823,0.223,5.372c0.609,0.496,1.324,1.052,2.09,1.652c2.687,2.103,6.014,4.749,7.711,7.253
	c1.521-1.949,0.918-5.158,0.22-7.358c-1.043,0.587-2.801-0.233-6.271-3.515C125.674,282.521,124.305,281.394,122.866,280.22z"/>
<path style="fill-rule:evenodd;clip-rule:evenodd;fill:#593303;" d="M122.866,280.22c-1.006,0.784-2.908,2.823,0.223,5.372
	c0.609,0.496,1.324,1.052,2.09,1.652c2.687,2.103,6.014,4.749,7.711,7.253c1.521-1.949,0.918-5.158,0.22-7.358
	c-1.043,0.587-2.801-0.233-6.271-3.515C125.674,282.521,124.305,281.394,122.866,280.22"/>
<path style="fill:none;stroke:#000000;stroke-width:2.0001;stroke-linecap:round;stroke-linejoin:round;stroke-miterlimit:22.9256;" d="
	M112.683,256.247c-5.772,11.154,3.058,18.155,10.183,23.972c1.439,1.174,2.808,2.301,3.973,3.403
	c3.47,3.282,5.228,4.102,6.271,3.515c1.042-0.587,1.37-2.578,1.979-4.921c0.645-2.48-0.889-4.121-3.421-5.699
	c-2.253-1.405-5.296-2.76-8.298-4.614c-6.375-3.937-5.719-10.688-0.281-13.688c2.411-1.33,4.508-2.881,6.21-4.661
	c2.138-2.236,3.653-4.833,4.383-7.808c1.312-5.344-4.536-7.687-4.536-7.687c0.692,2.526-2.565,5.931-5.964,8.531
	C118.402,250.248,112.965,255.685,112.683,256.247z"/>
<path style="fill-rule:evenodd;clip-rule:evenodd;fill:#755705;" d="M112.683,256.247c-5.772,11.154,3.058,18.155,10.183,23.972
	c1.439,1.174,2.808,2.301,3.973,3.403c3.47,3.282,5.228,4.102,6.271,3.515c1.042-0.587,1.37-2.578,1.979-4.921
	c0.645-2.48-0.889-4.121-3.421-5.699c-2.253-1.405-5.296-2.76-8.298-4.614c-6.375-3.937-5.719-10.688-0.281-13.688
	c2.411-1.33,4.508-2.881,6.21-4.661c2.138-2.236,3.653-4.833,4.383-7.808c1.312-5.344-4.536-7.687-4.536-7.687
	c0.692,2.526-2.565,5.931-5.964,8.531C118.402,250.248,112.965,255.685,112.683,256.247"/>
<path style="fill:none;stroke:#000000;stroke-width:2.0001;stroke-linecap:round;stroke-linejoin:round;stroke-miterlimit:22.9256;" d="
	M126.09,235.529c-6.375-2.156-18.375,2.344-13.406,20.719c0.281-0.562,5.719-6,10.5-9.656c3.399-2.6,6.656-6.005,5.964-8.531
	C128.866,237.034,127.932,236.152,126.09,235.529z"/>
<path style="fill-rule:evenodd;clip-rule:evenodd;fill:#755705;" d="M126.09,235.529c-6.375-2.156-18.375,2.344-13.406,20.719
	c0.281-0.562,5.719-6,10.5-9.656c3.399-2.6,6.656-6.005,5.964-8.531C128.866,237.034,127.932,236.152,126.09,235.529"/>
<path style="fill-rule:evenodd;clip-rule:evenodd;fill:#593303;" d="M124.715,235.183c-0.024,2.974-1.437,6.399-3.88,8.593
	c-4.594,4.125-8.152,12.472-8.152,12.472c0.281-0.562,5.719-6,10.5-9.656c3.399-2.6,6.656-6.005,5.964-8.531
	c-0.281-1.027-1.215-1.909-3.058-2.532C125.655,235.382,125.195,235.266,124.715,235.183"/>
<path style="fill-rule:evenodd;clip-rule:evenodd;fill:#593303;" d="M133.187,241.548c-0.87,9.234-10.97,14.396-15.492,18.306
	c-5.531,4.781,2.673,11.625,5.016,16.5c0.908,1.889,0.296,2.729-0.846,3.047c0.336,0.275,0.671,0.548,1.002,0.818
	c1.439,1.174,2.808,2.301,3.973,3.403c3.47,3.282,5.228,4.102,6.271,3.515c1.042-0.587,1.37-2.578,1.979-4.921
	c0.645-2.48-0.889-4.121-3.421-5.699c-2.253-1.405-5.296-2.76-8.298-4.614c-6.375-3.937-5.719-10.688-0.281-13.688
	c2.411-1.33,4.508-2.881,6.21-4.661c2.138-2.236,3.653-4.833,4.383-7.808C134.099,244.053,133.796,242.66,133.187,241.548"/>
<path style="fill:none;stroke:#000000;stroke-width:2.0001;stroke-linecap:round;stroke-linejoin:round;stroke-miterlimit:22.9256;" d="
	M191.657,278.797c0,0-2.716,1.367-1.732,5.352c0.984,3.984,4.508,9.157,9.281,6.984c4.773-2.172,10.922-13.781,10.922-13.781
	c-3.395,1.602-13.765-13.103-17.063-6C191.237,275.289,191.657,278.797,191.657,278.797z"/>
<path style="fill-rule:evenodd;clip-rule:evenodd;fill:#78A100;" d="M191.657,278.797c0,0-2.716,1.367-1.732,5.352
	c0.984,3.984,4.508,9.157,9.281,6.984c4.773-2.172,10.922-13.781,10.922-13.781c-3.395,1.602-13.765-13.103-17.063-6
	C191.237,275.289,191.657,278.797,191.657,278.797"/>
<path style="fill-rule:evenodd;clip-rule:evenodd;fill:#3B8A12;" d="M191.111,279.187c-0.736,0.646-1.88,2.154-1.187,4.962
	c0.037,0.15,0.078,0.302,0.122,0.455c0.399,1.382,1.087,2.863,2.011,4.11c1.692,2.28,4.178,3.772,7.148,2.42
	c0.957-0.435,1.968-1.25,2.975-2.273c4.016-4.086,7.947-11.508,7.947-11.508c-0.238,0.112-0.51,0.144-0.811,0.11
	c-2.053,0.818-5.474,2.06-8.955,2.79c-1.144,0.24-2.295,0.425-3.406,0.522C193.894,281.04,192.145,280.193,191.111,279.187"/>
<path style="fill:none;stroke:#000000;stroke-width:2.0001;stroke-linecap:round;stroke-linejoin:round;stroke-miterlimit:22.9256;" d="
	M212.237,273.133c0.245,0.255-0.343,4.557,3.977,4.669c4.32,0.112,5.164-6.545,5.867-9.591c0.703-3.047,1.031-4.687,1.031-4.687
	S198.972,263.055,212.237,273.133z"/>
<path style="fill-rule:evenodd;clip-rule:evenodd;fill:#78A100;" d="M212.237,273.133c0.245,0.255-0.343,4.557,3.977,4.669
	c4.32,0.112,5.164-6.545,5.867-9.591c0.703-3.047,1.031-4.687,1.031-4.687S198.972,263.055,212.237,273.133"/>
<path style="fill:none;stroke:#000000;stroke-width:2.0001;stroke-linecap:round;stroke-linejoin:round;stroke-miterlimit:22.9256;" d="
	M224.466,276.659c0,0-4.483,3.541-2.021,5.631c4.175,3.543,10.846-2.478,12.184-4.219c-0.329,0.431-1.096-3.362-4.288-5.039
	C227.149,271.354,222.583,272.57,224.466,276.659z"/>
<path style="fill-rule:evenodd;clip-rule:evenodd;fill:#78A100;" d="M224.466,276.659c0,0-4.483,3.541-2.021,5.631
	c4.175,3.543,10.846-2.478,12.184-4.219c-0.329,0.431-1.096-3.362-4.288-5.039C227.149,271.354,222.583,272.57,224.466,276.659"/>
<path style="fill-rule:evenodd;clip-rule:evenodd;fill:#3B8A12;" d="M224.423,276.694c-0.453,0.371-4.298,3.628-1.978,5.596
	c0.457,0.388,0.944,0.661,1.45,0.838c1.01,0.353,2.098,0.322,3.183,0.052c3.342-0.832,6.652-3.938,7.551-5.108
	c-0.058,0.076-0.129,0.021-0.225-0.131C230.385,279.29,226.585,277.857,224.423,276.694"/>
<path style="fill:none;stroke:#000000;stroke-width:2.0001;stroke-linecap:round;stroke-linejoin:round;stroke-miterlimit:22.9256;" d="
	M195.733,258.226c0,0-1.843,6.534,4.422,6.759c6.265,0.225,8.422-17.072,8.422-17.072s1.031-3.937,0.797-3.891
	c-0.234,0.047-2.203,2.344-5.437,2.297C200.702,246.273,189.124,248.898,195.733,258.226z"/>
<path style="fill-rule:evenodd;clip-rule:evenodd;fill:#78A100;" d="M195.733,258.226c0,0-1.843,6.534,4.422,6.759
	c6.265,0.225,8.422-17.072,8.422-17.072s1.031-3.937,0.797-3.891c-0.234,0.047-2.203,2.344-5.437,2.297
	C200.702,246.273,189.124,248.898,195.733,258.226"/>
<path style="fill-rule:evenodd;clip-rule:evenodd;fill:#3B8A12;" d="M201.45,257.709c-1.927,1.659-3.491,1.174-4.658,0.134
	c-0.129-0.115-0.254-0.237-0.373-0.363c-0.201,0.293-0.432,0.559-0.698,0.794c-0.043,0.169-0.185,0.77-0.228,1.548
	c0,0.002,0,0.004,0,0.006c-0.106,1.95,0.414,5.005,4.663,5.157c1.018,0.037,1.928-0.389,2.737-1.128
	c0.741-0.676,1.398-1.615,1.977-2.701c2.151-4.033,3.236-10.104,3.582-12.358C205.967,252.455,203.238,256.171,201.45,257.709"/>
<path style="fill:none;stroke:#000000;stroke-width:2.0001;stroke-linecap:round;stroke-linejoin:round;stroke-miterlimit:22.9256;" d="
	M189.358,258.883c0,0-6.281-4.359-2.813-7.453c3.469-3.094,9.703-6.61,9.703-6.61S202.061,262.492,189.358,258.883z"/>
<path style="fill-rule:evenodd;clip-rule:evenodd;fill:#3B8A12;" d="M189.358,258.883c0,0-6.281-4.359-2.813-7.453
	c3.469-3.094,9.703-6.61,9.703-6.61S202.061,262.492,189.358,258.883"/>
<path style="fill:none;stroke:#000000;stroke-width:2.0001;stroke-linecap:round;stroke-linejoin:round;stroke-miterlimit:22.9256;" d="
	M180.029,251.757c-0.328,0.141-2.203,2.015-3.656,0.797c-1.453-1.219-4.828-3.937,0.703-7.312
	c5.531-3.375,11.813-5.532,11.344-5.063c-0.469,0.469-2.157,5.766-0.469,9.469C189.639,253.351,181.851,257.255,180.029,251.757z"/>
<path style="fill-rule:evenodd;clip-rule:evenodd;fill:#78A100;" d="M180.029,251.757c-0.328,0.141-2.203,2.015-3.656,0.797
	c-1.453-1.219-4.828-3.937,0.703-7.312c5.531-3.375,11.813-5.532,11.344-5.063c-0.469,0.469-2.157,5.766-0.469,9.469
	C189.639,253.351,181.851,257.255,180.029,251.757"/>
<path style="fill:none;stroke:#000000;stroke-width:1.0001;stroke-linecap:round;stroke-linejoin:round;stroke-miterlimit:22.9256;" d="
	M180.173,264.79c0,0-5.611,0.382-6.956,2.956"/>
<path style="fill:none;stroke:#000000;stroke-width:2.0001;stroke-linecap:round;stroke-linejoin:round;stroke-miterlimit:22.9256;" d="
	M226.503,264.165c0.168,0.175-0.235,3.118,2.721,3.194c3.372,0.088,4.88-9.701,6.032-12.862
	C236.109,255.472,219.336,259.45,226.503,264.165z"/>
<path style="fill-rule:evenodd;clip-rule:evenodd;fill:#78A100;" d="M226.503,264.165c0.168,0.175-0.235,3.118,2.721,3.194
	c3.372,0.088,4.88-9.701,6.032-12.862C236.109,255.472,219.336,259.45,226.503,264.165"/>
<path style="fill:none;stroke:#000000;stroke-width:2.0001;stroke-linecap:round;stroke-linejoin:round;stroke-miterlimit:22.9256;" d="
	M239.248,265.722c0,0-3.098,5.264,3.047,6c11.747,1.406,9.756-12.439,16.875-14.484c-10.73-1.76-16.406-0.656-20.203,1.734
	C235.17,261.363,234.842,267.409,239.248,265.722z"/>
<path style="fill-rule:evenodd;clip-rule:evenodd;fill:#78A100;" d="M239.248,265.722c0,0-3.098,5.264,3.047,6
	c11.747,1.406,9.756-12.439,16.875-14.484c-10.73-1.76-16.406-0.656-20.203,1.734C235.17,261.363,234.842,267.409,239.248,265.722"
	/>
<path style="fill-rule:evenodd;clip-rule:evenodd;fill:#3B8A12;" d="M247.684,266.518c-4.56,3.683-4.363,1.789-5.737,0.416
	c-0.095-0.095-0.198-0.187-0.31-0.275c-0.051-0.04-0.097-0.08-0.14-0.121c-1.42-1.36,1.386-3.338-2.391-3.02
	c-1.727,0.146-2.42-0.623-2.635-1.602c-1.048,2.456-0.26,4.969,2.777,3.805c0,0-0.709,1.204-0.776,2.542
	c-0.029,0.588,0.065,1.201,0.398,1.749c0.493,0.812,1.511,1.48,3.424,1.71c10.457,1.252,10.027-9.583,14.83-13.42
	C252.437,257.151,252.087,262.962,247.684,266.518"/>
</svg>
