<?xml version="1.0" encoding="iso-8859-1"?>
<!-- Generator: Adobe Illustrator 22.0.1, SVG Export Plug-In . SVG Version: 6.00 Build 0)  -->
<svg version="1.1" id="&#x421;&#x43B;&#x43E;&#x439;_1"
	 xmlns="http://www.w3.org/2000/svg" xmlns:xlink="http://www.w3.org/1999/xlink" x="0px" y="0px" viewBox="0 0 340 366"
	 style="enable-background:new 0 0 340 366;" xml:space="preserve">
<path d="M122.541,286.737c0.583,0.09,2.423,0.477,3.523,1.912c0.132,0.175-0.023,0.421-0.238,0.386
	c-0.935-0.151-2.842-0.408-4.002-0.192c-0.194,0.035-0.345-0.161-0.266-0.34l0.725-1.624
	C122.328,286.779,122.432,286.721,122.541,286.737"/>
<path d="M73.071,290.733c-0.758,0.372-3.104,1.693-3.987,4.129c-0.107,0.293,0.209,0.564,0.49,0.423
	c1.211-0.611,3.704-1.78,5.384-1.984c0.278-0.033,0.401-0.366,0.215-0.577l-1.688-1.905C73.38,290.7,73.213,290.663,73.071,290.733"
	/>
<path d="M77.634,295.639c-0.676,0.505-2.741,2.234-3.164,4.789c-0.052,0.308,0.309,0.516,0.559,0.327
	c1.08-0.823,3.314-2.43,4.929-2.939c0.269-0.084,0.329-0.433,0.105-0.606l-2.009-1.565C77.93,295.549,77.761,295.545,77.634,295.639
	"/>
<path style="fill:none;stroke:#000000;stroke-width:2.0001;stroke-linecap:round;stroke-linejoin:round;stroke-miterlimit:22.9256;" d="
	M91.926,287.512c0,0-20.791-3.199-19.725,4.264c0,0,0.879,4.502,4.833,3.548c0,0-1.852,5.694,5.009,3.56
	c6.861-2.13,18.413-11.55,24.987-7.995c6.574,3.555,13.862-0.534,15.461-1.954c1.6-1.422-0.532-4.622-4.62-3.555
	c-4.086,1.067-12.083,1.599-10.841-2.132c1.245-3.733,5.865-15.283,5.865-15.283h-5.865l-5.685,15.712
	C101.346,283.677,96.725,288.757,91.926,287.512z"/>
<path style="fill:#0880C2;" d="M91.926,287.512c0,0-20.791-3.199-19.725,4.264c0,0,0.879,4.502,4.833,3.548
	c0,0-1.852,5.694,5.009,3.56c6.861-2.13,18.413-11.55,24.987-7.995c6.574,3.555,13.862-0.534,15.461-1.954
	c1.6-1.422-0.532-4.622-4.62-3.555c-4.086,1.067-12.083,1.599-10.841-2.132c1.245-3.733,5.865-15.283,5.865-15.283h-5.865
	l-5.685,15.712C101.346,283.677,96.725,288.757,91.926,287.512"/>
<path style="fill-rule:evenodd;clip-rule:evenodd;fill:#05598C;" d="M102.219,288.143c0,0-5.612,1.914-10.63,3.103
	c-5.018,1.189-11.026,5.084-11.026,5.084s-0.465,0.269-1.058,0.446c-0.828,0.246-1.906,0.314-2.32-0.777
	c-0.071-0.188-0.123-0.412-0.151-0.675c0,0-0.137,0.42-0.198,0.989c-0.09,0.83-0.02,1.977,0.866,2.601
	c0.743,0.524,2.061,0.679,4.341-0.03c6.861-2.131,18.413-11.55,24.987-7.995c6.575,3.555,13.862-0.534,15.461-1.954
	c0.062-0.055,0.118-0.112,0.168-0.172c-0.302,0.009-0.586,0.034-0.836,0.08c-0.194,0.035-0.345-0.161-0.265-0.34l0.725-1.623
	c0.044-0.1,0.148-0.158,0.257-0.143c0.055,0.008,0.122,0.02,0.198,0.035c-0.656-1.13-2.408-2.033-4.867-1.391
	c-4.087,1.067-12.084,1.599-10.841-2.132c0.856-2.566,3.308-8.828,4.759-12.49c-0.002-0.003-0.001-0.005,0-0.007l-1.093-1.68
	l-0.961,3.864l-2.506-2.704v2.704c-0.26-0.193-0.516-0.387-0.769-0.584C106.683,278.578,102.219,288.143,102.219,288.143"/>
<path style="fill:none;stroke:#000000;stroke-width:2.0001;stroke-linecap:round;stroke-linejoin:round;stroke-miterlimit:22.9256;" d="
	M180.641,175.791c0,0,24.987-3.006,24.28-14.918c-0.707-11.912-27.558-7.64-27.558-7.64c9.252-2.875,28.208-15.168,32.606-24.122
	c4.398-8.954-13.738-14.622-28.677,0.359c13.909-21.565-7.585-17.616-13.804-5.34c3.849-9.975-7.567-15.682-17.038-2.943
	c-6.247,8.402-13.228,25.581-23.366,39.145c-3.093,4.138-8.204,8.368-12.16,11.611c1.201,1.893,1.447,5.38,3.436,5.332
	L180.641,175.791z"/>
<path style="fill-rule:evenodd;clip-rule:evenodd;fill:#6EADDB;" d="M180.641,175.791c0,0,24.987-3.006,24.28-14.918
	c-0.707-11.912-27.558-7.64-27.558-7.64c9.252-2.875,28.208-15.168,32.606-24.122c4.398-8.954-13.738-14.622-28.677,0.359
	c13.909-21.565-7.585-17.616-13.804-5.34c3.849-9.975-7.567-15.682-17.038-2.943c-6.247,8.402-13.228,25.581-23.366,39.145
	c-3.093,4.138-8.204,8.368-12.16,11.611c1.201,1.893,1.447,5.38,3.436,5.332L180.641,175.791z"/>
<path style="fill-rule:evenodd;clip-rule:evenodd;fill:#FFFFFF;" d="M61.975,160.811c-7.714,11.234-14.214,14.193-15.978,24.033
	c-1.764,9.84-0.404,8.953-0.264,13.998c0,0,2.631-10.269,5.397-16.182C55.104,174.163,62.622,166.972,61.975,160.811"/>
<path d="M114.02,328.222c-0.419,0.861-1.343,3.134-0.803,5.497c0.107,0.471,0.762,0.54,0.981,0.109
	c0.656-1.294,1.803-3.379,2.926-4.56c0.283-0.297,0.12-0.791-0.284-0.871l-2.241-0.457
	C114.363,327.891,114.126,328.005,114.02,328.222"/>
<path d="M148.4,291.675c0.579-0.468,2.743-2.049,4.886-1.497c0.329,0.081,0.393,0.571,0.095,0.747
	c-1.144,0.675-3.328,2.092-4.483,3.676c-0.217,0.299-0.648,0.137-0.648-0.243V292C148.25,291.87,148.305,291.749,148.4,291.675"/>
<path d="M104.062,323.081c-0.613,0.653-2.451,2.836-2.421,5.583c0.003,0.329,0.419,0.481,0.644,0.238
	c0.976-1.056,3.012-3.147,4.605-3.974c0.264-0.139,0.262-0.514-0.002-0.653l-2.386-1.264
	C104.356,322.933,104.176,322.96,104.062,323.081"/>
<path style="fill:none;stroke:#000000;stroke-width:2.0001;stroke-linecap:round;stroke-linejoin:round;stroke-miterlimit:22.9256;" d="
	M127.938,284.328c0,0,0.979,8.451-1.174,21.154c0,0-0.097,2.349-4.305,4.68c-4.77,2.641-19.767,7.828-19.374,12.916
	c0.199,2.594,1.722,3.46,3.166,3.684c1.403,0.218,2.817-0.302,3.796-1.328c1.812-1.898,4.83-6.173,8.694-7.738
	c0,0-11.214,10.632-4.363,13.372c3.639,1.456,5.742-1.997,6.955-5.25c2.359-6.321,6.838-11.378,11.75-16.001
	c2.775-2.611,6.108-5.322,9.925-7.68c9.198-5.674,5.317-10.902,5.317-10.902c-0.841-0.93-3.583-0.192-6.201,3.382
	c-2.299,3.141-4.812,6.12-7.667,8.768l-1.821,1.688c0,0,3.522-19.749,1.174-23.093L127.938,284.328z"/>
<path style="fill:#0880C2;" d="M127.938,284.328c0,0,0.979,8.451-1.174,21.154c0,0-0.097,2.349-4.305,4.68
	c-4.77,2.641-19.767,7.828-19.374,12.916c0.199,2.594,1.722,3.46,3.166,3.684c1.403,0.218,2.817-0.302,3.796-1.328
	c1.812-1.898,4.83-6.173,8.694-7.738c0,0-11.214,10.632-4.363,13.372c3.639,1.456,5.742-1.997,6.955-5.25
	c2.359-6.321,6.838-11.378,11.75-16.001c2.775-2.611,6.108-5.322,9.925-7.68c9.198-5.674,5.317-10.902,5.317-10.902
	c-0.841-0.93-3.583-0.192-6.201,3.382c-2.299,3.141-4.812,6.12-7.667,8.768l-1.821,1.688c0,0,3.522-19.749,1.174-23.093
	L127.938,284.328z"/>
<path style="fill-rule:evenodd;clip-rule:evenodd;fill:#05598C;" d="M116.05,329.505c-1.314,0.191-1.929-0.006-2.409-0.394
	c-1.385-0.598-1.375-1.99-1.375-1.99c-0.269,1.301-0.052,2.475,0.987,3.31c0.302,0.243,0.674,0.457,1.124,0.637
	c0.414,0.166,0.809,0.268,1.184,0.314c2.923,0.358,4.696-2.681,5.771-5.564c2.359-6.321,6.839-11.378,11.75-16.001
	c2.775-2.611,6.108-5.322,9.925-7.68c5.786-3.569,6.396-6.962,6.053-8.988c-0.082-0.483-0.218-0.888-0.351-1.2
	c-0.222-0.66-0.533-1.071-0.743-0.964c-1.105-0.475-3.523,0.465-5.843,3.633c-2.299,3.141-4.812,6.12-7.667,8.768l-1.821,1.689
	c-0.897,1.428-1.197,0.754-1.186-0.845c0,0-0.3,3.562-1.975,6.849v0.001c-1.958,1.988-3.935,4.165-5.669,6.334
	C118.695,323.807,120.435,328.868,116.05,329.505"/>
<path style="fill-rule:evenodd;clip-rule:evenodd;fill:#05598C;" d="M124.847,312.592c-11.871,5.643-15.728,11.789-17.214,13.076
	c-0.625,0.541-1.451,0.484-2.198,0.238c-1.029-0.341-1.908-1.044-1.908-1.044c0.339,0.705,0.835,1.17,1.391,1.469
	c0.423,0.228,0.882,0.36,1.332,0.43c1.403,0.218,2.817-0.301,3.796-1.327c1.812-1.898,4.83-6.173,8.694-7.738
	C119.808,316.335,122.572,314.254,124.847,312.592"/>
<path style="fill-rule:evenodd;clip-rule:evenodd;fill:#05598C;" d="M132.989,292.793c0,0-3.216,16.835-0.354,12.28
	c0,0,1.927-10.806,1.983-17.785l-1.009-0.412l-0.778,2.542l-1.954-1.176l-2.354,2.345l-0.365-0.427
	c-0.005,0.728-0.02,1.518-0.05,2.364c0,0,1.844,0.533,2.9-0.524C132.065,290.944,132.989,292.793,132.989,292.793"/>
<path style="fill-rule:evenodd;clip-rule:evenodd;fill:#9ED9F7;" d="M116.05,322.246c-1.015,0.782-3.45,4.44-1.403,4.605
	c2.047,0.165,0.855-0.922,1.012-2.11C115.815,323.554,116.738,322.054,116.05,322.246"/>
<path style="fill-rule:evenodd;clip-rule:evenodd;fill:#9ED9F7;" d="M104.82,320.369c-0.439,0.769-1.18,2.616,1.187,0.683
	c2.368-1.932,8.42-5.998,8.42-5.998S107.384,318.22,104.82,320.369"/>
<path style="fill:none;stroke:#000000;stroke-width:2.0001;stroke-linecap:round;stroke-linejoin:round;stroke-miterlimit:22.9256;" d="
	M115.165,272.509c-0.016,0.274-0.03,0.428-0.03,0.428l-0.773-1.712l-1.151-2.535v4.247l-1.421-2.178v-0.007l-1.094-1.679
	l-0.961,3.865l-2.505-2.704v2.704c-0.535-0.396-1.055-0.801-1.558-1.215c-7.02-5.766-11.71-13.564-14.422-19.149
	c-0.252-0.511-0.442-1.039-0.565-1.572c5.4,3.191,11.335,6.347,17.842,9.433c-2.726-6.233-3.887-12-1.528-15.636
	c0.467-0.709,0.94-1.343,1.421-1.901c0.123,0.107,0.238,0.213,0.352,0.32c4.59,4.37,6.02,13.314,6.4,20.256
	C115.41,267.788,115.233,271.317,115.165,272.509z"/>
<path style="fill:#6EADDB;" d="M115.165,272.509c-0.016,0.274-0.03,0.428-0.03,0.428l-0.773-1.712l-1.151-2.535v4.247l-1.421-2.178
	v-0.007l-1.094-1.679l-0.961,3.865l-2.505-2.704v2.704c-0.535-0.396-1.055-0.801-1.558-1.215
	c-7.02-5.766-11.71-13.564-14.422-19.149c-0.252-0.511-0.442-1.039-0.565-1.572c5.4,3.191,11.335,6.347,17.842,9.433
	c-2.726-6.233-3.887-12-1.528-15.636c0.467-0.709,0.94-1.343,1.421-1.901c0.123,0.107,0.238,0.213,0.352,0.32
	c4.59,4.37,6.02,13.314,6.4,20.256C115.41,267.788,115.233,271.317,115.165,272.509"/>
<path style="fill:none;stroke:#000000;stroke-width:2.0001;stroke-linecap:round;stroke-linejoin:round;stroke-miterlimit:22.9256;" d="
	M129.448,193.675c3.978,6.935,45.762,77.437,40.902,81.979C153.251,291.906,8.838,221.218,48.921,173.81
	c15.987-18.897,17.3-30.384,17.3-33.233c0.373-0.182,19.035,5.23,35.336-5.535C102.709,158.198,117.945,173.62,129.448,193.675z"/>
<path style="fill:#9ED9F7;" d="M129.448,193.675c3.978,6.935,45.762,77.437,40.902,81.979
	C153.251,291.906,8.838,221.218,48.921,173.81c15.987-18.897,17.3-30.384,17.3-33.233c0.373-0.182,19.035,5.23,35.336-5.535
	C102.709,158.198,117.945,173.62,129.448,193.675"/>
<path style="fill-rule:evenodd;clip-rule:evenodd;fill:#FFFFFF;" d="M61.975,160.811c-7.714,11.234-14.214,14.193-15.978,24.033
	c-1.764,9.84-0.404,8.953-0.264,13.998c0,0,2.631-10.269,5.397-16.182C55.104,174.163,62.622,166.972,61.975,160.811"/>
<path style="fill-rule:evenodd;clip-rule:evenodd;fill:#6EADDB;" d="M66.221,140.577c9.796,9.65,15.835,11.754,27.73,18.829
	c5.018,2.984,12.453,7.474,13.312,11.629c0.622,3.003,1.512,8.315-5.267,9.2c-10.767,1.406,24.831,60.649,1.309,59.014
	c-29.477-2.048-45.689-15.717-55.027-27.725c24.143,39.263,109.286,76.265,122.177,64.012c2.765-2.583-9.744-26.535-21.654-48.013
	c-8.964-16.166-17.646-30.87-19.354-33.848c-11.513-20.073-26.764-35.442-27.89-58.633l-0.006,0.004
	c-5.898,3.938-13.163,6.332-21.644,6.764c-4.974,0.252-9.29-0.193-13.018-1.238C66.518,140.547,66.286,140.545,66.221,140.577"/>
<path style="fill:none;stroke:#000000;stroke-width:2.0001;stroke-linecap:round;stroke-linejoin:round;stroke-miterlimit:22.9256;" d="
	M136.941,288.243l-2.322-0.954l-1.009-0.412l-0.778,2.542l-1.954-1.176l-2.354,2.345c0,0-0.128-0.153-0.373-0.437
	c-1.52-1.823-7.562-9.164-12.985-17.643c-0.274-0.419-0.542-0.847-0.803-1.283c-0.396-0.618-0.778-1.245-1.153-1.87
	c-0.176-0.29-0.343-0.581-0.52-0.871c-0.098-0.167-0.199-0.343-0.297-0.52c-1.451-2.512-2.78-5.056-3.865-7.53
	c-2.727-6.233-3.887-11.999-1.528-15.635c0.467-0.711,0.94-1.345,1.421-1.902c0.503-0.581,1.009-1.077,1.528-1.498
	c6.553-5.361,14.283,1.268,18.728,7.859c4.46,6.622,6.919,14.383,7.356,22.35l0.007,0.151L136.941,288.243z"/>
<path style="fill:#9ED9F7;" d="M136.941,288.243l-2.322-0.954l-1.009-0.412l-0.778,2.542l-1.954-1.176l-2.354,2.345
	c0,0-0.128-0.153-0.373-0.437c-1.52-1.823-7.562-9.164-12.985-17.643c-0.274-0.419-0.542-0.847-0.803-1.283
	c-0.396-0.618-0.778-1.245-1.153-1.87c-0.176-0.29-0.343-0.581-0.52-0.871c-0.098-0.167-0.199-0.343-0.297-0.52
	c-1.451-2.512-2.78-5.056-3.865-7.53c-2.727-6.233-3.887-11.999-1.528-15.635c0.467-0.711,0.94-1.345,1.421-1.902
	c0.503-0.581,1.009-1.077,1.528-1.498c6.553-5.361,14.283,1.268,18.728,7.859c4.46,6.622,6.919,14.383,7.356,22.35l0.007,0.151
	L136.941,288.243z"/>
<path style="fill-rule:evenodd;clip-rule:evenodd;fill:#6EADDB;" d="M115.703,239.456c10.235,2.429,14.975,19.277,15.488,31.069
	c0.002,0.038,0.003,0.076,0.005,0.115c0.165,3.984-0.155,7.38-0.91,9.431c-2.419,6.567-11.129-3.183-15.091-8.129
	c-0.481-0.6-0.892-1.129-1.212-1.551c-0.492-0.645-0.774-1.036-0.774-1.036c0.375,0.625,0.757,1.252,1.153,1.87
	c0.261,0.437,0.528,0.864,0.803,1.283c5.423,8.479,11.465,15.82,12.985,17.643l0.008,0.009l0.365,0.427l2.354-2.345l1.954,1.176
	l0.778-2.542l1.009,0.412l2.322,0.954l-0.865-15.814l-0.007-0.118l-0.03-0.552l-0.007-0.151c-0.437-7.967-2.896-15.728-7.356-22.35
	C125.491,244.535,120.62,239.793,115.703,239.456"/>
<path style="fill-rule:evenodd;clip-rule:evenodd;fill:#05598C;" d="M77.034,295.324c-0.299-2.875,7.093-4.936,7.093-4.936
	s-3.565,0.594-8.385,1.914c-0.276,0.075-0.532,0.141-0.769,0.197c-1.328,0.312-2.073,0.328-2.479,0.215
	c0.13,0.325,0.31,0.701,0.554,1.068C73.75,294.838,74.975,295.821,77.034,295.324"/>
<path style="fill-rule:evenodd;clip-rule:evenodd;fill:#9ED9F7;" d="M73.482,289.487c0.419,0.66,3.164-0.172,6.405-1.321
	C83.128,287.018,73.77,287.095,73.482,289.487"/>
<path style="fill-rule:evenodd;clip-rule:evenodd;fill:#9ED9F7;" d="M78.62,293.177c0,0,1.717-1.552,4.424-2.146
	c2.707-0.594,3.202-0.693,3.202-0.693S79.082,294.531,78.62,293.177"/>
<path style="fill:none;stroke:#000000;stroke-width:2.0001;stroke-linecap:round;stroke-linejoin:round;stroke-miterlimit:22.9256;" d="
	M118.496,95.416c-0.252-1.032-0.574-2.077-0.963-3.124c-4.155-11.161-16.23-22.663-36.097-22.709
	c-12.253-0.023-24.892,7.265-31.233,18.355c-1.261,2.208-2.268,4.559-2.979,7.043c-0.183,0.625-0.344,1.268-0.474,1.909
	c-0.458,2.087-0.702,4.247-0.702,6.477c0,9.777,1.551,18.582,5.429,25.304c1.277,2.208,2.805,4.187,4.606,5.897
	c5.301,5.041,13.008,7.791,23.823,7.242c20.715-1.055,34.189-13.809,38.152-32.203l0.016-0.092c0.251-1.16,0.458-2.345,0.634-3.551
	c0.144-1.039,0.268-2.101,0.359-3.178c0.023-0.222,0.037-0.442,0.053-0.664C119.274,100.029,119.068,97.753,118.496,95.416z"/>
<path style="fill:#9ED9F7;" d="M118.496,95.416c-0.252-1.032-0.574-2.077-0.963-3.124c-4.155-11.161-16.23-22.663-36.097-22.709
	c-12.253-0.023-24.892,7.265-31.233,18.355c-1.261,2.208-2.268,4.559-2.979,7.043c-0.183,0.625-0.344,1.268-0.474,1.909
	c-0.458,2.087-0.702,4.247-0.702,6.477c0,9.777,1.551,18.582,5.429,25.304c1.277,2.208,2.805,4.187,4.606,5.897
	c5.301,5.041,13.008,7.791,23.823,7.242c20.715-1.055,34.189-13.809,38.152-32.203l0.016-0.092c0.251-1.16,0.458-2.345,0.634-3.551
	c0.144-1.039,0.268-2.101,0.359-3.178c0.023-0.222,0.037-0.442,0.053-0.664C119.274,100.029,119.068,97.753,118.496,95.416"/>
<path style="fill:#6EADDB;" d="M46.524,112.193c0.718,6.238,2.285,11.851,4.954,16.478c1.277,2.208,2.805,4.187,4.606,5.897
	c5.301,5.04,13.007,7.791,23.823,7.242c20.714-1.055,34.189-13.809,38.152-32.203l0.016-0.092c0.252-1.16,0.458-2.345,0.634-3.551
	c0.144-1.039,0.268-2.1,0.359-3.178c0.023-0.222,0.037-0.442,0.053-0.664c0.153-2.094-0.053-4.37-0.625-6.706
	c-0.252-1.032-0.574-2.078-0.964-3.124c-3.291-8.841-11.553-17.894-24.718-21.3c33.825,19.881,19.423,55.285-4.203,62.962
	C75.174,138.322,47.924,136.097,46.524,112.193"/>
<path style="fill-rule:evenodd;clip-rule:evenodd;fill:#FFFFFF;" d="M58.727,85.26c-2.41,2.502-7.507,9.546-4.263,8.898
	c3.244-0.649,4.356-3.892,5.469-5.468C61.045,87.114,62.342,82.109,58.727,85.26"/>
<path style="fill:none;stroke:#000000;stroke-width:2.0001;stroke-linecap:round;stroke-linejoin:round;stroke-miterlimit:22.9256;" d="
	M171.937,284.652c8.415,6.783,7.044,31.698,7.044,31.698s29.117-10.434,3.529-35.34c-3.892-2.771-8.011-5.45-11.781-7.958
	c-10.989-7.312-17.819-18.87-20.658-24.458c0,0,2.587,13.257,9.631,23.267c7.044,10.01,11.122,21.503,11.122,21.503
	S174.347,288.36,171.937,284.652z"/>
<path style="fill-rule:evenodd;clip-rule:evenodd;fill:#FF0000;" d="M171.937,284.652c8.415,6.783,7.044,31.698,7.044,31.698
	s29.117-10.434,3.529-35.34c-3.892-2.771-8.011-5.45-11.781-7.958c-10.989-7.312-17.819-18.87-20.658-24.458
	c0,0,2.587,13.257,9.631,23.267c7.044,10.01,11.122,21.503,11.122,21.503S174.347,288.36,171.937,284.652"/>
<path style="fill:none;stroke:#000000;stroke-width:2.0001;stroke-linecap:round;stroke-linejoin:round;stroke-miterlimit:22.9256;" d="
	M182.51,281.011c11.517,8.198,21.054,17.2,13.711,24.959c-9.824,10.381-19.093,16.869-8.527,27.62
	c-0.371-13.902,25.628-26.457,25.628-26.457c12.847-13.182,19.817-27.297-12.651-34.159c-35.962-7.6-46.925-23.703-46.925-23.703
	c-2.401-1.287-4.072-2.711-5.194-3.914c0,0,0.505,1.236,1.521,3.238c2.839,5.588,9.669,17.146,20.658,24.458
	C174.499,275.561,178.618,278.24,182.51,281.011z"/>
<path style="fill-rule:evenodd;clip-rule:evenodd;fill:#FFFF00;" d="M182.51,281.011c11.517,8.198,21.054,17.2,13.711,24.959
	c-9.824,10.381-19.093,16.869-8.527,27.62c-0.371-13.902,25.628-26.457,25.628-26.457c12.847-13.182,19.817-27.297-12.651-34.159
	c-35.962-7.6-46.925-23.703-46.925-23.703c-2.401-1.287-4.072-2.711-5.194-3.914c0,0,0.505,1.236,1.521,3.238
	c2.839,5.588,9.669,17.146,20.658,24.458C174.499,275.561,178.618,278.24,182.51,281.011"/>
<path style="fill:none;stroke:#000000;stroke-width:2.0001;stroke-linecap:round;stroke-linejoin:round;stroke-miterlimit:22.9256;" d="
	M112.126,96.231c0,0-0.525,17.601,8.187,24.552c8.712,6.951,24.191,4.356,28.733-9.176c-6.392,3.462-18.257,8.682-24.184-2.012
	C118.121,108.307,114.054,102.72,112.126,96.231z"/>
<path style="fill-rule:evenodd;clip-rule:evenodd;fill:#662E87;" d="M112.126,96.231c0,0-0.525,17.601,8.187,24.552
	c8.712,6.951,24.191,4.356,28.733-9.176c-6.392,3.462-18.257,8.682-24.184-2.012C118.121,108.307,114.054,102.72,112.126,96.231"/>
<path style="fill:none;stroke:#000000;stroke-width:2.0001;stroke-linecap:round;stroke-linejoin:round;stroke-miterlimit:22.9256;" d="
	M112.126,96.231c1.928,6.49,5.995,12.076,12.736,13.364c0.331,0.064,0.668,0.116,1.012,0.158c9.083,1.112,18.166-6.581,18.166-6.581
	s-18.757,1.988-20.794-13.234c-2.133-1.204-4.101-2.616-5.805-4.191c-5.115-4.728-12.821-7.942-19.616-10.03
	c0,0,12.082,6.855,13.253,15.579C111.302,92.962,111.648,94.624,112.126,96.231z"/>
<path style="fill-rule:evenodd;clip-rule:evenodd;fill:#05598C;" d="M112.126,96.231c1.928,6.49,5.995,12.076,12.736,13.364
	c0.331,0.064,0.668,0.116,1.012,0.158c9.083,1.112,18.166-6.581,18.166-6.581s-18.757,1.988-20.794-13.234
	c-2.133-1.204-4.101-2.616-5.805-4.191c-5.115-4.728-12.821-7.942-19.616-10.03c0,0,12.082,6.855,13.253,15.579
	C111.302,92.962,111.648,94.624,112.126,96.231"/>
<path style="fill:none;stroke:#000000;stroke-width:2.0001;stroke-linecap:round;stroke-linejoin:round;stroke-miterlimit:22.9256;" d="
	M97.825,75.718c6.794,2.088,14.5,5.302,19.616,10.03c1.704,1.576,3.672,2.987,5.805,4.191c11.67,6.586,28.286,6.949,33.771-6.138
	c-16.687,6.209-27.195-4.409-42.234-9.205c-8.401,0.01-17.184-0.654-24.618-0.907C92.404,74.194,95.038,74.861,97.825,75.718z"/>
<path style="fill-rule:evenodd;clip-rule:evenodd;fill:#80BF40;" d="M97.825,75.718c6.794,2.088,14.5,5.302,19.616,10.03
	c1.704,1.576,3.672,2.987,5.805,4.191c11.67,6.586,28.286,6.949,33.771-6.138c-16.687,6.209-27.195-4.409-42.234-9.205
	c-8.401,0.01-17.184-0.654-24.618-0.907C92.404,74.194,95.038,74.861,97.825,75.718"/>
<path style="fill-rule:evenodd;clip-rule:evenodd;fill:#458705;" d="M100.771,76.679c3.05,1.056,6.18,2.337,9.096,3.875
	c0.001,0,0.002,0.001,0.003,0.002c2.808,1.482,5.418,3.203,7.57,5.192c1.704,1.576,3.672,2.987,5.805,4.191
	c11.67,6.586,28.286,6.949,33.771-6.138c-13.073,15.893-37.255-0.878-41.611-4.214c-4.356-3.337,2.239-3.993,2.239-3.993
	c-0.937-0.353-1.89-0.687-2.862-0.997c-4.514,0.006-9.139-0.184-13.605-0.399c-0.001,0-0.003,0-0.004,0
	c-1.263-0.061-2.514-0.124-3.746-0.185c-2.517-0.125-4.955-0.243-7.264-0.322c2.239,0.504,4.872,1.171,7.66,2.028
	C98.792,76.015,99.777,76.335,100.771,76.679"/>
<path style="fill:none;stroke:#000000;stroke-width:2.0001;stroke-linecap:round;stroke-linejoin:round;stroke-miterlimit:22.9256;" d="
	M90.165,73.69c7.434,0.253,16.217,0.917,24.618,0.907c14.992-0.019,28.765-2.185,31.482-12.669
	c-11.061,6.548-28.962,1.81-45.822,2.664c-5.037,0.797-9.958,1.785-13.96,4.287c-2.779,1.737-6.36,3.642-9.705,5.324
	C80.092,73.54,84.774,73.507,90.165,73.69z"/>
<path style="fill-rule:evenodd;clip-rule:evenodd;fill:#FFFF00;" d="M90.165,73.69c7.434,0.253,16.217,0.917,24.618,0.907
	c14.992-0.019,28.765-2.185,31.482-12.669c-11.061,6.548-28.962,1.81-45.822,2.664c-5.037,0.797-9.958,1.785-13.96,4.287
	c-2.779,1.737-6.36,3.642-9.705,5.324C80.092,73.54,84.774,73.507,90.165,73.69"/>
<path style="fill:none;stroke:#000000;stroke-width:2.0001;stroke-linecap:round;stroke-linejoin:round;stroke-miterlimit:22.9256;" d="
	M53.936,120.797c-6.741-0.759-10.201,1.032-11.914,2.653c0,0,3.317,4.668,8.853,4.125C50.875,127.575,53.076,127.075,53.936,120.797
	z"/>
<path style="fill-rule:evenodd;clip-rule:evenodd;fill:#05598C;" d="M53.936,120.797c-6.741-0.759-10.201,1.032-11.914,2.653
	c0,0,3.317,4.668,8.853,4.125C50.875,127.575,53.076,127.075,53.936,120.797"/>
<path style="fill:none;stroke:#000000;stroke-width:2.0001;stroke-linecap:round;stroke-linejoin:round;stroke-miterlimit:22.9256;" d="
	M46.957,95.97c-13.835,3.352-18.685,19.992-6.488,29.703c0,0,0.333-1.068,1.553-2.223c1.712-1.621,5.173-3.412,11.914-2.653
	c0.261-1.91,0.399-4.354,0.312-7.482C53.999,104.31,50.49,98.566,46.957,95.97z"/>
<path style="fill-rule:evenodd;clip-rule:evenodd;fill:#0880C2;" d="M46.957,95.97c-13.835,3.352-18.685,19.992-6.488,29.703
	c0,0,0.333-1.068,1.553-2.223c1.712-1.621,5.173-3.412,11.914-2.653c0.261-1.91,0.399-4.354,0.312-7.482
	C53.999,104.31,50.49,98.566,46.957,95.97"/>
<path style="fill-rule:evenodd;clip-rule:evenodd;fill:#05598C;" d="M46.635,113.567c-2.461,2.297-5.567,3.935-7.174,6.322
	c-0.795,1.182-1.629,1.902-2.463,2.283c0.951,1.235,2.104,2.411,3.472,3.5c0,0,0.333-1.068,1.553-2.223
	c1.137-1.077,3.046-2.229,6.175-2.658c0.074-0.01,0.149-0.02,0.225-0.029c1.536-0.19,3.357-0.209,5.514,0.034
	c0.261-1.91,0.399-4.354,0.312-7.482c-0.24-8.67-3.502-14.318-6.897-17.043c4.872,9.548,2.741,14.041-0.661,17.243
	C46.672,113.533,46.653,113.55,46.635,113.567"/>
<path style="fill-rule:evenodd;clip-rule:evenodd;fill:#9ED9F7;" d="M36.062,110.559c0,0,0.062-6.673,3.646-8.156
	C43.292,100.92,40.697,105.245,36.062,110.559"/>
<path style="fill:#2B2929;" d="M89.601,85.425c-0.242,0.893-0.941,2.941-2.701,3.544c-0.965-0.217-1.929-0.313-2.942-0.313
	C83.959,88.656,88.876,87.546,89.601,85.425L89.601,85.425z"/>
<path style="fill:#2B2929;" d="M97.817,86.229c-0.169,0.434-1.64,4.052-5.498,5.137l-1.471-0.989
	C90.848,90.377,96.081,89.605,97.817,86.229"/>
<ellipse transform="matrix(0.9975 -0.0709 0.0709 0.9975 -7.0856 6.2168)" style="fill:none;stroke:#000000;stroke-width:2.0001;stroke-linecap:round;stroke-linejoin:round;stroke-miterlimit:22.9256;" cx="84.044" cy="102.935" rx="14.377" ry="14.377"/>
<path style="fill-rule:evenodd;clip-rule:evenodd;fill:#FFFFFF;" d="M84.044,88.558c7.94,0,14.377,6.437,14.377,14.377
	c0,7.94-6.437,14.377-14.377,14.377c-7.94,0-14.377-6.437-14.377-14.377C69.667,94.995,76.104,88.558,84.044,88.558"/>
<path style="fill:none;stroke:#000000;stroke-width:2.0001;stroke-linecap:round;stroke-linejoin:round;stroke-miterlimit:22.9256;" d="
	M73.888,113.111c-2.608-2.603-4.221-6.2-4.221-10.176c0-7.913,6.394-14.333,14.298-14.376c5.246,1.779,9.022,6.744,9.022,12.591
	c0,7.341-5.951,13.292-13.292,13.292C77.613,114.443,75.642,113.964,73.888,113.111z"/>
<path style="fill-rule:evenodd;clip-rule:evenodd;fill:#8F03AD;" d="M73.888,113.111c-2.608-2.603-4.221-6.2-4.221-10.176
	c0-7.913,6.394-14.333,14.298-14.376c5.246,1.779,9.022,6.744,9.022,12.591c0,7.341-5.951,13.292-13.292,13.292
	C77.613,114.443,75.642,113.964,73.888,113.111"/>
<path style="fill-rule:evenodd;clip-rule:evenodd;" d="M72.483,111.482c-1.77-2.39-2.816-5.346-2.816-8.547
	c0-6.93,4.903-12.714,11.43-14.073c4.144,1.929,7.017,6.13,7.017,11.003c0,6.7-5.431,12.131-12.131,12.131
	C74.766,111.995,73.591,111.815,72.483,111.482z"/>
<path style="fill:none;stroke:#000000;stroke-width:0.5669;stroke-miterlimit:22.9256;" d="M72.483,111.482
	c-1.77-2.39-2.816-5.346-2.816-8.547c0-6.93,4.903-12.714,11.43-14.073c4.144,1.929,7.017,6.13,7.017,11.003
	c0,6.7-5.431,12.131-12.131,12.131C74.766,111.995,73.591,111.815,72.483,111.482z"/>
<path style="fill:#2B2929;" d="M102.471,92.846c-1.423,1.013-3.931,2.436-6.729,2.123l-0.048-0.073
	c-0.555-0.772-1.182-1.52-1.881-2.171C94.223,92.846,99.577,94.269,102.471,92.846"/>
<path style="fill:#FFFFFF;" d="M95.399,94.965l-1.905-2.171c0,0,0,0,0.024,0C94.218,93.445,94.845,94.193,95.399,94.965"/>
<path style="fill:#FFFFFF;" d="M82.686,93.699c1.266-3.485-5.118-4.557-9.271,1.236c-1.212,1.691-2.731,5.631-1.647,5.603
	c0.683-0.017,2.144-2.478,4.828-4.401C79.335,94.175,82.6,93.934,82.686,93.699"/>
<path style="fill-rule:evenodd;clip-rule:evenodd;fill:#FFFFFF;" d="M81.899,105.546c0.951,0,1.722,0.771,1.722,1.722
	c0,0.951-0.771,1.722-1.722,1.722c-0.951,0-1.722-0.771-1.722-1.722C80.177,106.317,80.948,105.546,81.899,105.546"/>
<path style="fill-rule:evenodd;clip-rule:evenodd;fill:#DEAD17;" d="M85.09,69.725c-2.527,1.496-5.503,3.065-8.312,4.478
	c3.313-0.663,7.995-0.696,13.386-0.513c2.309,0.079,4.747,0.197,7.264,0.322l3.746,0.185l0.004,0
	c4.466,0.215,9.091,0.405,13.605,0.399c9.737-0.012,18.96-0.93,24.974-4.445c-14.8,4.851-42.891,1.418-48.172,0.542
	c-0.254-0.042-0.474-0.09-0.66-0.144c-4.082-1.176,7.46-5.002,10.623-6.005c-0.368,0.013-0.736,0.029-1.104,0.048
	c-5.037,0.797-9.958,1.785-13.96,4.287C86.039,69.157,85.573,69.44,85.09,69.725 M101.175,74.197c0.001,0,0.002,0,0.004,0
	C101.178,74.197,101.176,74.197,101.175,74.197z"/>
<path style="fill:none;stroke:#000000;stroke-width:2.0001;stroke-linecap:round;stroke-linejoin:round;stroke-miterlimit:22.9256;" d="
	M111.96,174.601c0,0-13.605,4.334-7.982,16.315c5.622,11.982,18.959,23.315,20.935,25.626c1.976,2.311,6.149,3.189,7.982,1.681
	c1.833-1.508,1.136-4.497,1.136-4.497s6.692,6.903,10.998,5.347c4.306-1.556,4.793-6.568,2.416-12.373
	c-2.377-5.805,19.971,13.109,27.294,8.021c7.323-5.088,0.106-13.996-3.474-15.886c0,0,24.363,13.845,28.192,5.558
	c3.829-8.286-12.993-12.966-12.993-12.966s26.798,3.181,29.071-9.412c2.273-12.592-26.788-14.924-26.788-14.924
	c10.368-0.658,33.228-8.68,40.073-16.9c6.845-8.22-10.623-18.708-29.976-6.871c16.074-13.966-4.303-17.616-13.036-9.052
	c6.531-9.422-3.923-18.255-17.012-7.372c-8.633,7.178-20.248,23.316-34.239,34.889C127.325,167.77,113.99,172.562,111.96,174.601z"
	/>
<path style="fill-rule:evenodd;clip-rule:evenodd;fill:#9ED9F7;" d="M111.96,174.601c0,0-13.605,4.334-7.982,16.315
	c5.622,11.982,18.959,23.315,20.935,25.626c1.976,2.311,6.149,3.189,7.982,1.681c1.833-1.508,1.136-4.497,1.136-4.497
	s6.692,6.903,10.998,5.347c4.306-1.556,4.793-6.568,2.416-12.373c-2.377-5.805,19.971,13.109,27.294,8.021
	c7.323-5.088,0.106-13.996-3.474-15.886c0,0,24.363,13.845,28.192,5.558c3.829-8.286-12.993-12.966-12.993-12.966
	s26.798,3.181,29.071-9.412c2.273-12.592-26.788-14.924-26.788-14.924c10.368-0.658,33.228-8.68,40.073-16.9
	c6.845-8.22-10.623-18.708-29.976-6.871c16.074-13.966-4.303-17.616-13.036-9.052c6.531-9.422-3.923-18.255-17.012-7.372
	c-8.633,7.178-20.248,23.316-34.239,34.889C127.325,167.77,113.99,172.562,111.96,174.601"/>
<path style="fill-rule:evenodd;clip-rule:evenodd;fill:#6EADDB;" d="M227.341,141.203c-0.276,4.097-2.581,12.462-16.177,16.591
	c-18.416,5.594-27.649,8.953-27.649,8.953l5.232,0.345c10.368-0.658,33.228-8.68,40.073-16.9
	C231.417,147.076,230.515,143.632,227.341,141.203"/>
<path style="fill-rule:evenodd;clip-rule:evenodd;fill:#6EADDB;" d="M212.564,174.589c0,0,1.252,11.99-13.297,12.715
	c-14.55,0.725-20.985,0.696-20.985,0.696l8.652,3.478c3.586,0.353,26.506,2.142,28.601-9.461
	C216.083,178.981,214.811,176.543,212.564,174.589"/>
<path style="fill-rule:evenodd;clip-rule:evenodd;fill:#6EADDB;" d="M171.512,198.974c2.571,1.426,24.342,13.214,27.944,5.419
	c1.022-2.213,0.572-4.169-0.637-5.847c0,0-0.537,3.326-10.552,1.406c-10.014-1.92-19.552-4.307-19.552-4.307l2.549,3.19
	C171.345,198.878,171.428,198.924,171.512,198.974"/>
<path style="fill-rule:evenodd;clip-rule:evenodd;fill:#6EADDB;" d="M147.444,206.701c-2.377-5.805,19.971,13.109,27.294,8.021
	c4.15-2.884,3.63-6.995,1.749-10.359c0,0-2.283,9.299-13.864,4.019C151.043,203.101,143.952,203.566,147.444,206.701"/>
<path style="fill-rule:evenodd;clip-rule:evenodd;fill:#6EADDB;" d="M187.145,125.618c-1.313,5.593-5.827,10.387-5.827,10.387
	l4.491-1.736C188.028,131.068,188.286,127.933,187.145,125.618"/>
<path style="fill-rule:evenodd;clip-rule:evenodd;fill:#6EADDB;" d="M201.396,130.262c7.256,5.669-8.345,15.697-8.345,15.697
	l5.794-2.637C207.029,136.21,205.763,131.773,201.396,130.262"/>
<path style="fill-rule:evenodd;clip-rule:evenodd;fill:#6EADDB;" d="M103.977,190.917c5.622,11.982,18.959,23.315,20.935,25.626
	c1.976,2.311,6.149,3.189,7.982,1.681c1.833-1.508,1.136-4.497,1.136-4.497s6.692,6.903,10.998,5.347
	c4.306-1.556,4.793-6.568,2.416-12.373c-1.597-1.434-0.98-2.309,1.269-2.332c-5.67-1.214-7.769-0.335-7.769-0.335
	c4.434,7.28-1.733,7.781-4.244,6.21c-2.511-1.571-4.076-8.531-3.852-3.747c0.224,4.784-1.848,4.726-12.316-0.889
	c-10.468-5.614-16.717-24.754-16.717-24.754C102.414,183.334,101.97,186.638,103.977,190.917"/>
<path style="fill-rule:evenodd;clip-rule:evenodd;fill:#6EADDB;" d="M130.453,172.89c16.355-8.396,21.538-1.526,19.213,1.868
	c-2.325,3.394-6.716,4.458-6.716,4.458s7.346,3.347,4.825,8.12c-2.521,4.773-10.621,4.109-10.621,4.109s2.267,4.076-2.55,5.809
	c-4.817,1.733-10.248-2.158-10.248-2.158s-1.182,5.437-7.256,3.87c-6.074-1.566-10.539-12.922-10.539-12.922
	s5.931,11.399,11.809,11.39c5.879-0.008,4.091-7.284,4.091-7.284s3.467,6.277,9.679,4.886c6.213-1.391-0.122-7.988-0.122-7.988
	c9.227,5.156,14.945-0.146,12.785-3.959c-1.597-2.819-9.095-3.221-9.095-3.221s9.875-2.712,11.262-5.024
	C148.357,172.532,146.635,167.111,130.453,172.89"/>
<path style="fill-rule:evenodd;clip-rule:evenodd;fill:#6EADDB;" d="M154.298,184.921c24.849,1.217,18.111-13.168,1.791-11.652
	c23.408-3.687,20.488-24.354-11.538-5.934c23.303-18.767,42.345-6.712,22.932,4.45c2.645,0.936,9.709,4.437,6.3,10.728
	c-3.409,6.291-11.69,4.523-11.69,4.523s4.119,6.077-1.581,8.855c-5.7,2.778-12.378,1.656-12.378,1.656s-0.306,5.05-5.924,3.394
	c-5.618-1.657-6.525-3.647-6.525-3.647s6.764,3.413,9.184,1.366c2.421-2.048-1.098-4.683-1.098-4.683s6.163,3.571,11.69,1.609
	C160.99,193.624,164.618,188.989,154.298,184.921"/>
<path style="fill:none;stroke:#000000;stroke-width:2.0001;stroke-linecap:round;stroke-linejoin:round;stroke-miterlimit:22.9256;" d="
	M97.282,51.223c-15.477,3.253-19.15,10.963-22.869,18.026c-1.925,3.656-3.049,7.649-7.548,9.685c3.377-1.557,6.615-3.102,9.915-4.73
	c3.345-1.682,6.926-3.587,9.705-5.324c4.002-2.502,8.923-3.49,13.96-4.287c9.35-1.48,19.102-2.301,24.133-10.913
	c0.023-0.039-24.534-0.601-32.659,7.171C94.722,58.162,96.945,54.153,97.282,51.223z"/>
<path style="fill-rule:evenodd;clip-rule:evenodd;fill:#FF0000;" d="M97.282,51.223c-15.477,3.253-19.15,10.963-22.869,18.026
	c-1.925,3.656-3.049,7.649-7.548,9.685c3.377-1.557,6.615-3.102,9.915-4.73c3.345-1.682,6.926-3.587,9.705-5.324
	c4.002-2.502,8.923-3.49,13.96-4.287c9.35-1.48,19.102-2.301,24.133-10.913c0.023-0.039-24.534-0.601-32.659,7.171
	C94.722,58.162,96.945,54.153,97.282,51.223"/>
<path style="fill-rule:evenodd;clip-rule:evenodd;fill:#A83600;" d="M66.907,78.915c0.762-0.344,5.074-2.299,9.872-4.711
	c2.809-1.413,5.784-2.982,8.312-4.478c0.482-0.285,0.948-0.568,1.394-0.846c4.002-2.502,8.923-3.49,13.96-4.287
	c9.35-1.48,19.102-2.301,24.133-10.913c0.001-0.003-0.106-0.008-0.31-0.012c-4.027,4.165-14.156,8.067-19.89,8.774
	c-6.766,0.834-18.141,4.464-23.731,7.152c-5.59,2.688-6.161,0.719-6.19-0.022c-0.012-0.32,0.109-0.612,0.109-0.612
	C72.13,73.814,72.952,74.982,66.907,78.915"/>
<path style="fill:none;stroke:#000000;stroke-width:2.0001;stroke-linecap:round;stroke-linejoin:round;stroke-miterlimit:22.9256;" d="
	M60.954,77.183c0,0,0.067,4.466,3.161,3.463c2.944-0.955,9.943-6.001,9.112-9.683c-0.274-1.217-1.688-2.651-3.338-1.941
	C69.206,70.586,62.838,77.84,60.954,77.183z"/>
<path style="fill-rule:evenodd;clip-rule:evenodd;fill:#EDA354;" d="M60.954,77.183c0,0,0.067,4.466,3.161,3.463
	c2.944-0.955,9.943-6.001,9.112-9.683c-0.274-1.217-1.688-2.651-3.338-1.941C69.206,70.586,62.838,77.84,60.954,77.183"/>
<path style="fill-rule:evenodd;clip-rule:evenodd;fill:#F7CF78;" d="M60.953,77.183c0,0,0.067,4.467,3.161,3.463
	c0.631-0.204,1.447-0.597,2.333-1.123c-1.68-0.597-2.756-2.78-1.577-4.62C63.278,76.374,61.732,77.454,60.953,77.183"/>
<path style="fill:none;stroke:#000000;stroke-width:2.0001;stroke-linecap:round;stroke-linejoin:round;stroke-miterlimit:22.9256;" d="
	M59.766,71.519c-2.22,1.356-0.831,4.499,1.188,5.663c1.884,0.658,8.253-6.596,8.934-8.161c0.119-0.275,0.194-0.526,0.213-0.745
	c0.174-1.987-1.853-5.407-4.235-2.721C63.983,67.732,59.766,71.519,59.766,71.519z"/>
<path style="fill-rule:evenodd;clip-rule:evenodd;fill:#EDA354;" d="M59.766,71.519c-2.22,1.356-0.831,4.499,1.188,5.663
	c1.884,0.658,8.253-6.596,8.934-8.161c0.119-0.275,0.194-0.526,0.213-0.745c0.174-1.987-1.853-5.407-4.235-2.721
	C63.983,67.732,59.766,71.519,59.766,71.519"/>
<path style="fill-rule:evenodd;clip-rule:evenodd;fill:#F7CF78;" d="M59.521,71.687c-1.824,1.402-0.563,4.251,1.31,5.421
	c0.041,0.026,0.082,0.051,0.123,0.075c0.779,0.272,2.325-0.809,3.918-2.28c-0.576,0.249-1.057,0.288-1.461,0.178
	c-1.725-0.469-2.039-3.65-2.227-4.859c-0.832,0.772-1.417,1.298-1.417,1.298C59.685,71.586,59.603,71.642,59.521,71.687"/>
<path style="fill:none;stroke:#000000;stroke-width:2.0001;stroke-linecap:round;stroke-linejoin:round;stroke-miterlimit:22.9256;" d="
	M58.839,64.664c-0.902,0.945-1.69,1.376-2.377,1.446c-1.024,2.187,1.338,7.028,3.303,5.41c0,0,4.218-3.787,6.101-5.964
	c0.284-0.328,0.514-0.619,0.67-0.856c1.009-1.536-1.254-5.386-3.449-4.406C62.24,61.703,60.398,63.03,58.839,64.664z"/>
<path style="fill-rule:evenodd;clip-rule:evenodd;fill:#EDA354;" d="M58.839,64.664c-0.902,0.945-1.69,1.376-2.377,1.446
	c-1.024,2.187,1.338,7.028,3.303,5.41c0,0,4.218-3.787,6.101-5.964c0.284-0.328,0.514-0.619,0.67-0.856
	c1.009-1.536-1.254-5.386-3.449-4.406C62.24,61.703,60.398,63.03,58.839,64.664"/>
<path style="fill-rule:evenodd;clip-rule:evenodd;fill:#F7CF78;" d="M56.463,66.11c-0.982,2.096,1.149,6.632,3.058,5.577
	c0.076-0.058,0.158-0.115,0.245-0.168c0,0,0.585-0.526,1.417-1.298c-1.868,0.998-2.948-4.667-2.479-5.419
	C57.859,65.651,57.115,66.043,56.463,66.11"/>
<path style="fill:none;stroke:#000000;stroke-width:2.0001;stroke-linecap:round;stroke-linejoin:round;stroke-miterlimit:22.9256;" d="
	M54.837,60.996c-1.131,0.934,0.303,5.31,1.626,5.114c0.687-0.07,1.475-0.501,2.377-1.446c1.559-1.634,3.401-2.961,4.249-4.371
	c0.344-1.405-1.291-5.1-3.801-3.859c-0.789,1.49-3.185,4.021-4.237,4.481C53.997,61.374,54.906,60.973,54.837,60.996z"/>
<path style="fill-rule:evenodd;clip-rule:evenodd;fill:#EDA354;" d="M54.837,60.996c-1.131,0.934,0.303,5.31,1.626,5.114
	c0.687-0.07,1.475-0.501,2.377-1.446c1.559-1.634,3.401-2.961,4.249-4.371c0.344-1.405-1.291-5.1-3.801-3.859
	c-0.789,1.49-3.185,4.021-4.237,4.481C53.997,61.374,54.906,60.973,54.837,60.996"/>
<path style="fill-rule:evenodd;clip-rule:evenodd;fill:#F7CF78;" d="M54.811,61.019c-1.081,0.98,0.34,5.285,1.652,5.091
	c0.652-0.067,1.396-0.459,2.241-1.308c0.02-0.031,0.042-0.054,0.066-0.067c-2,0.633-2.738-3.929-2.506-4.695
	c-0.471,0.419-0.902,0.738-1.214,0.874C54.955,60.956,54.876,60.991,54.811,61.019"/>
<path style="fill:none;stroke:#000000;stroke-width:2.0001;stroke-linecap:round;stroke-linejoin:round;stroke-miterlimit:22.9256;" d="
	M52.899,56.792c-0.817,1.259,0.646,4.755,1.938,4.204c0.069-0.022-0.84,0.378,0.213-0.081c1.053-0.459,3.448-2.991,4.237-4.481
	c1.31-1.913-1.592-5.914-3.038-3.614c-0.009,0.016-0.018,0.03-0.026,0.042c-0.021,0.033-0.035,0.049-0.035,0.049
	S54.863,56.408,52.899,56.792z"/>
<path style="fill-rule:evenodd;clip-rule:evenodd;fill:#EDA354;" d="M52.899,56.792c-0.817,1.259,0.646,4.755,1.938,4.204
	c0.069-0.022-0.84,0.378,0.213-0.081c1.053-0.459,3.448-2.991,4.237-4.481c1.31-1.913-1.592-5.914-3.038-3.614
	c-0.009,0.016-0.018,0.03-0.026,0.042c-0.021,0.033-0.035,0.049-0.035,0.049S54.863,56.408,52.899,56.792"/>
<path style="fill-rule:evenodd;clip-rule:evenodd;fill:#F7CF78;" d="M52.899,56.792c-0.817,1.259,0.646,4.755,1.938,4.204
	c0.007-0.002,0.004,0-0.005,0.005c-0.007,0.006-0.014,0.012-0.021,0.018c0.065-0.028,0.144-0.063,0.24-0.104
	c0.312-0.136,0.742-0.455,1.214-0.874c-0.537-0.489-2.146-3.04-2.189-3.867C53.718,56.481,53.323,56.709,52.899,56.792"/>
<path style="fill:none;stroke:#000000;stroke-width:2.0001;stroke-linecap:round;stroke-linejoin:round;stroke-miterlimit:22.9256;" d="
	M50.328,50.033c1.279,2.887,1.239,7.019,2.572,6.759c1.963-0.384,3.289-3.88,3.289-3.88s0.014-0.016,0.035-0.049
	c0.009-0.015,0.019-0.03,0.028-0.045c0.863-1.473-2.437-4.008-4.492-5.418C49.854,46.091,49.278,47.663,50.328,50.033z"/>
<path style="fill-rule:evenodd;clip-rule:evenodd;fill:#EDA354;" d="M50.328,50.033c1.279,2.887,1.239,7.019,2.572,6.759
	c1.963-0.384,3.289-3.88,3.289-3.88s0.014-0.016,0.035-0.049c0.009-0.015,0.019-0.03,0.028-0.045
	c0.863-1.473-2.437-4.008-4.492-5.418C49.854,46.091,49.278,47.663,50.328,50.033"/>
<path style="fill-rule:evenodd;clip-rule:evenodd;fill:#F7CF78;" d="M50.328,50.033c1.279,2.887,1.239,7.019,2.572,6.759
	c0.424-0.083,0.819-0.311,1.176-0.618c-0.01-0.195,0.067-0.294,0.265-0.247c-1.52-0.514-2.818-6.79-4.021-8.957
	C49.651,47.214,49.624,48.444,50.328,50.033"/>
<path style="fill:none;stroke:#000000;stroke-width:2.0001;stroke-linecap:round;stroke-linejoin:round;stroke-miterlimit:22.9256;" d="
	M153.745,249.27c0,0,11.705,11.283,52.857,11.469c41.152,0.185,51.718,33.181,38.372,45.786c-7.257,6.854-18.349,14.529-22.194,22.4
	c0,0,34.799-8.914,40.73-25.412c5.614-15.614,13.553-55.804-43.446-57.864c-12.984,2.6-29.513,5.598-42.565,6.932
	C165.892,253.769,158.428,251.78,153.745,249.27z"/>
<path style="fill-rule:evenodd;clip-rule:evenodd;fill:#0880C2;" d="M153.745,249.27c0,0,11.705,11.283,52.857,11.469
	c41.152,0.185,51.718,33.181,38.372,45.786c-7.257,6.854-18.349,14.529-22.194,22.4c0,0,34.799-8.914,40.73-25.412
	c5.614-15.614,13.553-55.804-43.446-57.864c-12.984,2.6-29.513,5.598-42.565,6.932C165.892,253.769,158.428,251.78,153.745,249.27"
	/>
<path style="fill:none;stroke:#000000;stroke-width:2.0001;stroke-linecap:round;stroke-linejoin:round;stroke-miterlimit:22.9256;" d="
	M200.67,272.973c32.468,6.861,25.499,20.977,12.651,34.159c-1.382,1.418-2.833,2.826-4.31,4.213
	c-15.201,14.273-2.781,46.157,25.952,37.444c-29.659-14.273-3.337-29.659,10.01-42.264c13.347-12.605,2.781-45.601-38.372-45.786
	c-41.152-0.186-52.857-11.469-52.857-11.469S164.708,265.373,200.67,272.973z"/>
<path style="fill-rule:evenodd;clip-rule:evenodd;fill:#80BF40;" d="M200.67,272.973c32.468,6.861,25.499,20.977,12.651,34.159
	c-1.382,1.418-2.833,2.826-4.31,4.213c-15.201,14.273-2.781,46.157,25.952,37.444c-29.659-14.273-3.337-29.659,10.01-42.264
	c13.347-12.605,2.781-45.601-38.372-45.786c-41.152-0.186-52.857-11.469-52.857-11.469S164.708,265.373,200.67,272.973"/>
<path style="fill:none;stroke:#000000;stroke-width:2.0001;stroke-linecap:round;stroke-linejoin:round;stroke-miterlimit:22.9256;" d="
	M181.577,234.045c-6.673,7.786-19.649,12.605-35.035,8.527c0,0,0.53,1.201,2.009,2.784c1.123,1.203,2.793,2.627,5.194,3.914
	c4.683,2.51,12.147,4.499,23.754,3.312c25.396-2.595,63.953-11.493,63.953-11.493c-19.413-14.395-33.604-8.21-51.348-2.224
	c1.854-6.388,13.027-9.69,17.796-14.273C207.9,224.592,188.25,226.259,181.577,234.045z"/>
<path style="fill-rule:evenodd;clip-rule:evenodd;fill:#8F03AD;" d="M181.577,234.045c-6.673,7.786-19.649,12.605-35.035,8.527
	c0,0,0.53,1.201,2.009,2.784c1.123,1.203,2.793,2.627,5.194,3.914c4.683,2.51,12.147,4.499,23.754,3.312
	c25.396-2.595,63.953-11.493,63.953-11.493c-19.413-14.395-33.604-8.21-51.348-2.224c1.854-6.388,13.027-9.69,17.796-14.273
	C207.9,224.592,188.25,226.259,181.577,234.045"/>
</svg>
