<?xml version="1.0" encoding="utf-8"?>
<!-- Generator: Adobe Illustrator 22.0.1, SVG Export Plug-In . SVG Version: 6.00 Build 0)  -->
<svg version="1.1" id="Слой_1" xmlns="http://www.w3.org/2000/svg" xmlns:xlink="http://www.w3.org/1999/xlink" x="0px" y="0px"
	 viewBox="0 0 340 366" style="enable-background:new 0 0 340 366;" xml:space="preserve">
<style type="text/css">
	.st0{fill:none;stroke:#000000;stroke-width:2.0001;stroke-linecap:round;stroke-linejoin:round;stroke-miterlimit:22.9256;}
	.st1{fill-rule:evenodd;clip-rule:evenodd;fill:#A8A696;}
	.st2{fill-rule:evenodd;clip-rule:evenodd;fill:#3B1717;}
	.st3{fill-rule:evenodd;clip-rule:evenodd;fill:#664545;}
	.st4{fill-rule:evenodd;clip-rule:evenodd;fill:#DEDBD4;}
	.st5{fill-rule:evenodd;clip-rule:evenodd;fill:#8C8778;}
	.st6{fill-rule:evenodd;clip-rule:evenodd;fill:#FFFFFF;}
	.st7{fill:none;stroke:#FF0000;stroke-width:2.0001;stroke-linecap:round;stroke-linejoin:round;stroke-miterlimit:22.9256;}
	.st8{fill-rule:evenodd;clip-rule:evenodd;fill:#FFFAE5;}
	.st9{fill:none;stroke:#FCFAF0;stroke-width:0.216;stroke-miterlimit:22.9256;}
	.st10{fill-rule:evenodd;clip-rule:evenodd;}
	.st11{fill:none;stroke:#000000;stroke-width:1.0001;stroke-linecap:round;stroke-linejoin:round;stroke-miterlimit:22.9256;}
</style>
<path class="st0" d="M99.2,233.8c-2.3,1.3-2.4,3.9-0.7,4.5c1.7,0.6,6.3,6,8.8,10.7c2.4,4.7,5.9,10.2,5.7,11.6
	c-0.1,1.4,1.3,2.3,2.3,1.5c1-0.8,2.6,0.7,3.1-1.1c0.5-1.7-8.8-19.9-11.9-22.6c-3.1-2.7-3.5-2.7-3.6-4.5
	C102.8,232.1,101.2,230,99.2,233.8z"/>
<path class="st1" d="M99.2,233.8c-2.3,1.3-2.4,3.9-0.7,4.5c1.7,0.6,6.3,6,8.8,10.7c2.4,4.7,5.9,10.2,5.7,11.6
	c-0.1,1.4,1.3,2.3,2.3,1.5c1-0.8,2.6,0.7,3.1-1.1c0.5-1.7-8.8-19.9-11.9-22.6c-3.1-2.7-3.5-2.7-3.6-4.5
	C102.8,232.1,101.2,230,99.2,233.8"/>
<path class="st0" d="M113.6,231.9c-2.6-1.4-6.5-1.5-6.3,1.1c0.2,2.5,2.1,1.9,1.2,3.6c-0.9,1.7,0.9,4.1,2.6,3.3
	c1.7-0.8,0.3-2.6,5.6-2.7c5.3-0.2,19-1.6,20.8-0.8c1.9,0.8,3.8-1.2,3.1-3.1c-0.8-1.9-1.8-6.1-4.9-4.6c-3,1.5-2.4,2.4-5.5,2.6
	C127,231.2,118.2,231.6,113.6,231.9z"/>
<path class="st1" d="M113.6,231.9c-2.6-1.4-6.5-1.5-6.3,1.1c0.2,2.5,2.1,1.9,1.2,3.6c-0.9,1.7,0.9,4.1,2.6,3.3
	c1.7-0.8,0.3-2.6,5.6-2.7c5.3-0.2,19-1.6,20.8-0.8c1.9,0.8,3.8-1.2,3.1-3.1c-0.8-1.9-1.8-6.1-4.9-4.6c-3,1.5-2.4,2.4-5.5,2.6
	C127,231.2,118.2,231.6,113.6,231.9"/>
<path class="st0" d="M116.1,280.9c-2.3,0.1-8.4,0.5-8.7,2.1c-0.3,1.7-2.4,3.3,3.6,3.1C117.1,286,119.3,283.5,116.1,280.9z"/>
<path class="st1" d="M116.1,280.9c-2.3,0.1-8.4,0.5-8.7,2.1c-0.3,1.7-2.4,3.3,3.6,3.1C117.1,286,119.3,283.5,116.1,280.9"/>
<path class="st0" d="M119.6,280.1c-1.3,1.2-2.5,3-0.5,3.7c2,0.7,4.5-0.5,4.5-1.1C123.6,282.1,121.6,281,119.6,280.1z"/>
<path class="st1" d="M119.6,280.1c-1.3,1.2-2.5,3-0.5,3.7c2,0.7,4.5-0.5,4.5-1.1C123.6,282.1,121.6,281,119.6,280.1"/>
<path class="st0" d="M99.9,281.2c-1.1,0.4-0.7,3.9,0.8,5.3c1.5,1.4,4.2-0.1,5.1-0.3c0.9-0.2,1.1-2.1,1.7-3.5
	c0.6-1.4,4.9-18.5,6.5-19.9c1.6-1.3,4.2-3.2,3.2-4.3c-1-1.2-1.3,0.5-2.6-0.4c-1.3-0.9-1.4-2.2-3.4,0.9c-3.8,5.8-4.7,12.6-7.1,17.1
	C103,277.9,102.4,280.2,99.9,281.2z"/>
<path class="st1" d="M99.9,281.2c-1.1,0.4-0.7,3.9,0.8,5.3c1.5,1.4,4.2-0.1,5.1-0.3c0.9-0.2,1.1-2.1,1.7-3.5
	c0.6-1.4,4.9-18.5,6.5-19.9c1.6-1.3,4.2-3.2,3.2-4.3c-1-1.2-1.3,0.5-2.6-0.4c-1.3-0.9-1.4-2.2-3.4,0.9c-3.8,5.8-4.7,12.6-7.1,17.1
	C103,277.9,102.4,280.2,99.9,281.2"/>
<path class="st0" d="M89.9,283.1c-1.7,0.1-3.5,1.7-1.5,2.6c2,0.9,1.6,0.4,4.9,0c3.3-0.3,4.7-1.4,4-2.3
	C96.7,282.5,93.9,283.5,89.9,283.1z"/>
<path class="st1" d="M89.9,283.1c-1.7,0.1-3.5,1.7-1.5,2.6c2,0.9,1.6,0.4,4.9,0c3.3-0.3,4.7-1.4,4-2.3
	C96.7,282.5,93.9,283.5,89.9,283.1"/>
<path class="st0" d="M92.1,286.6c-1.4,0.6-3,0.2-2,2.3c0.9,2.1,2.9,1.6,6.1,1c3.2-0.6,2.9-2.5,2.5-3.1
	C98.3,286.1,96.4,286.1,92.1,286.6z"/>
<path class="st1" d="M92.1,286.6c-1.4,0.6-3,0.2-2,2.3c0.9,2.1,2.9,1.6,6.1,1c3.2-0.6,2.9-2.5,2.5-3.1
	C98.3,286.1,96.4,286.1,92.1,286.6"/>
<path class="st0" d="M78.6,290.5c-3.2,0.7-4,1.6-3,3.5c1,1.9,2.7,0.4,6.8-0.6c4-1,6.6-2.9,5.3-4.1C86.2,288,85.1,288.2,78.6,290.5z"
	/>
<path class="st1" d="M78.6,290.5c-3.2,0.7-4,1.6-3,3.5c1,1.9,2.7,0.4,6.8-0.6c4-1,6.6-2.9,5.3-4.1C86.2,288,85.1,288.2,78.6,290.5"
	/>
<path class="st0" d="M71.4,284.5c-1.3,1.4-1.7,3.5,1.2,3.9c2.9,0.3,8.6-0.1,11.6-1c3-0.9,3.2-2.4,1.3-3.3
	C83.5,283.2,78.2,283.7,71.4,284.5z"/>
<path class="st1" d="M71.4,284.5c-1.3,1.4-1.7,3.5,1.2,3.9c2.9,0.3,8.6-0.1,11.6-1c3-0.9,3.2-2.4,1.3-3.3
	C83.5,283.2,78.2,283.7,71.4,284.5"/>
<path class="st0" d="M68,283.9c-1.5,0.1-3.5,2.5-3.7,3.4c-0.2,0.8,3.4,1.6,4.2,1.2C69.3,288,70,284.3,68,283.9z"/>
<path class="st1" d="M68,283.9c-1.5,0.1-3.5,2.5-3.7,3.4c-0.2,0.8,3.4,1.6,4.2,1.2C69.3,288,70,284.3,68,283.9"/>
<path class="st0" d="M72.4,292.9c-2.3,0.9-3.4,3.3-3.4,3.3s4.8,1.5,5.6,0.4C75.5,295.6,73.7,291.8,72.4,292.9z"/>
<path class="st1" d="M72.4,292.9c-2.3,0.9-3.4,3.3-3.4,3.3s4.8,1.5,5.6,0.4C75.5,295.6,73.7,291.8,72.4,292.9"/>
<path class="st0" d="M141.5,297c-2.5,1.1-9.3,4.3-8.9,6.3c0.4,2-1.3,4.8,5.5,1.9C144.9,302.3,146.3,298.5,141.5,297z"/>
<path class="st1" d="M141.5,297c-2.5,1.1-9.3,4.3-8.9,6.3c0.4,2-1.3,4.8,5.5,1.9C144.9,302.3,146.3,298.5,141.5,297"/>
<path class="st0" d="M145,294.6c-0.9,1.9-1.5,4.5,1.1,4.4c2.6,0,4.9-2.6,4.6-3.3C150.5,295,147.7,294.7,145,294.6z"/>
<path class="st1" d="M145,294.6c-0.9,1.9-1.5,4.5,1.1,4.4c2.6,0,4.9-2.6,4.6-3.3C150.5,295,147.7,294.7,145,294.6"/>
<path class="st0" d="M158.1,158.6c1.7,1.4,1.6,1,1.5,2.9c-0.1,1.9,1,3.4,1.9,2.1c1-1.3,0.9-3.2,2.2-2.2c1.4,1,3.6,2.8,2.5-0.3
	c-1.1-3.1-4.7-10.9-5.5-9.2c-0.8,1.7,1.6,4-0.1,3.6c-1.7-0.4-1.3-5.1-3-3.2C155.8,154.2,155.9,156.5,158.1,158.6z M170.9,135.4
	c-1.2-1.8-1.1-5.4-2.3-2.1c-1.2,3.3-0.9,4.6,0.6,7.8c1.5,3.2-0.6,3.6-1,4.9c-0.4,1.3,2.4,5.1,3.7,3.9c1.3-1.3,1.9-1.9,2.4-1.2
	c0.6,0.6,2.8,4.3,3.3,0.9c0.5-3.4,1.7-5.6-1.5-6c-3.1-0.5-4.2,1.6-3.3-1.9C173.6,138.2,173.4,137.5,170.9,135.4z M153.2,117.6
	c-2,0.8-2.6,2.1-0.3,4.8c2.3,2.7,4.5,2.6,4.3,1C157,121.7,155.8,117.5,153.2,117.6z M187.6,103.6c0-2,1.7-3.4-1.9-4.4
	c-3.6-0.9-6.6-1.9-6.9,0.4c-0.3,2.3,1,3,2.4,4.7c1.4,1.7,1.7,0.8,0.7,2.8c-1.1,1.9-0.5,3,0.5,2.1c1.1-0.9,1-3.2,3.3-1.5
	c2.3,1.8,3.3,5.1,5.1,3.1c1.8-2,4-3.2,1.3-4.5C189.6,105.2,187.3,106,187.6,103.6z M167.9,88.8c-0.2,2.6,1.6,7.1,3.4,5.6
	c1.7-1.5,0.7-5.5,2.1-2.7c1.4,2.7,2.8,6.5,4,2.4C178.5,89.9,173.2,88.3,167.9,88.8z M193.2,76.6c-5.6-0.6-4.9,2.1-1.8,2.9
	c3.1,0.8,5,0,5.4,2.5c0.4,2.5,2.7,5.6,3.6,3.5C201.3,83.5,200.3,78.7,193.2,76.6z M202.3,100.1c-0.6,2.5,2.3,1,1,3.5
	c-1.3,2.5-0.7,4.7,0.7,3.8c1.4-0.9,0-2.3,2.9-2.1c2.9,0.1,2.9,0.2,1.2-1.7c-1.7-1.9-0.4-3.6-3-3.3
	C202.6,100.5,202.3,100.1,202.3,100.1z M119.8,160.9c0,0,2.2-2.2,7.7-0.7c5.5,1.6,7.3,4.9,10.2,2.6c2.9-2.3-2.1-3.7,1.1-4.7
	c3.2-1,4.6,2.2,3.9-4.5c-0.7-6.7-1.4-5.8-1.7-9.1c-0.3-3.4,4.2-0.1,1-5.6c-3.2-5.4-5.7-3.6-5.6-7.3c0-3.7,2.9-11.5,4.5-7.1
	c1.5,4.4,0.9,11.6,4.8,14.9c3.9,3.2,8.8-0.3,7.6,5.4c-1.2,5.7-4.3,6-0.9,12.1c3.4,6.1,3.8,13.7,7.3,13.5c3.5-0.3-0.4-6.7,4.4-4.8
	c4.8,2,6.9,0.6,7.6-0.6c0.7-1.2,2.4,5.5,6,2.5c3.6-3,3.3-2.3,4.3-5.8c1.1-3.5,2.8-3.8,1.2-6.2c-1.6-2.4-2.3-6.9,0.3-8.8
	c2.6-1.9,1.7-3.1,0.3-6c-1.4-2.9-4.2-5.4-0.2-7c3.9-1.6,4.9-3,4.9-4.7c0-1.7-0.3-3,1.6-3c1.9,0,3.1-1.2,3.7-3.3
	c0.6-2.1,2.8-4.7,4.8-2.8c1.9,1.9,1.2,4.2,4.3,4.1c3.1-0.1,0.7,0.3,2.6,3.3c1.9,2.9,1.8,0.9,5.3,2.4c3.5,1.5,6.4,7.9,8.2,4.8
	c1.8-3.1,5-5.3,1.4-8.9c-3.6-3.7-3-5.1-3-7c0.1-1.8-1.7-2.1-4.4-4.2c-2.7-2.1,0-4.8-1.3-7.3c-1.3-2.4-1.9-2.2-0.8-4.5
	c1.1-2.2,3.1-0.2,0.4-3.2c-2.7-3-6.2-4.8-2-7.9c4.2-3.1,4.7-3.9,4.7-3.9l-22.8-15.6l-25.9-0.2L127.5,77l-7.4,3l10.4,47.5l2.5,23.5
	L119.8,160.9z"/>
<path class="st2" d="M158.1,158.6c1.7,1.4,1.6,1,1.5,2.9c-0.1,1.9,1,3.4,1.9,2.1c1-1.3,0.9-3.2,2.2-2.2c1.4,1,3.6,2.8,2.5-0.3
	c-1.1-3.1-4.7-10.9-5.5-9.2c-0.8,1.7,1.6,4-0.1,3.6c-1.7-0.4-1.3-5.1-3-3.2C155.8,154.2,155.9,156.5,158.1,158.6 M170.9,135.4
	c-1.2-1.8-1.1-5.4-2.3-2.1c-1.2,3.3-0.9,4.6,0.6,7.8c1.5,3.2-0.6,3.6-1,4.9c-0.4,1.3,2.4,5.1,3.7,3.9c1.3-1.3,1.9-1.9,2.4-1.2
	c0.6,0.6,2.8,4.3,3.3,0.9c0.5-3.4,1.7-5.6-1.5-6c-3.1-0.5-4.2,1.6-3.3-1.9C173.6,138.2,173.4,137.5,170.9,135.4z M153.2,117.6
	c-2,0.8-2.6,2.1-0.3,4.8c2.3,2.7,4.5,2.6,4.3,1C157,121.7,155.8,117.5,153.2,117.6z M187.6,103.6c0-2,1.7-3.4-1.9-4.4
	c-3.6-0.9-6.6-1.9-6.9,0.4c-0.3,2.3,1,3,2.4,4.7c1.4,1.7,1.7,0.8,0.7,2.8c-1.1,1.9-0.5,3,0.5,2.1c1.1-0.9,1-3.2,3.3-1.5
	c2.3,1.8,3.3,5.1,5.1,3.1c1.8-2,4-3.2,1.3-4.5C189.6,105.2,187.3,106,187.6,103.6z M167.9,88.8c-0.2,2.6,1.6,7.1,3.4,5.6
	c1.7-1.5,0.7-5.5,2.1-2.7c1.4,2.7,2.8,6.5,4,2.4C178.5,89.9,173.2,88.3,167.9,88.8z M193.2,76.6c-5.6-0.6-4.9,2.1-1.8,2.9
	c3.1,0.8,5,0,5.4,2.5c0.4,2.5,2.7,5.6,3.6,3.5C201.3,83.5,200.3,78.7,193.2,76.6z M202.3,100.1c-0.6,2.5,2.3,1,1,3.5
	c-1.3,2.5-0.7,4.7,0.7,3.8c1.4-0.9,0-2.3,2.9-2.1c2.9,0.1,2.9,0.2,1.2-1.7c-1.7-1.9-0.4-3.6-3-3.3
	C202.6,100.5,202.3,100.1,202.3,100.1z M119.8,160.9c0,0,2.2-2.2,7.7-0.7c5.5,1.6,7.3,4.9,10.2,2.6c2.9-2.3-2.1-3.7,1.1-4.7
	c3.2-1,4.6,2.2,3.9-4.5c-0.7-6.7-1.4-5.8-1.7-9.1c-0.3-3.4,4.2-0.1,1-5.6c-3.2-5.4-5.7-3.6-5.6-7.3c0-3.7,2.9-11.5,4.5-7.1
	c1.5,4.4,0.9,11.6,4.8,14.9c3.9,3.2,8.8-0.3,7.6,5.4c-1.2,5.7-4.3,6-0.9,12.1c3.4,6.1,3.8,13.7,7.3,13.5c3.5-0.3-0.4-6.7,4.4-4.8
	c4.8,2,6.9,0.6,7.6-0.6c0.7-1.2,2.4,5.5,6,2.5c3.6-3,3.3-2.3,4.3-5.8c1.1-3.5,2.8-3.8,1.2-6.2c-1.6-2.4-2.3-6.9,0.3-8.8
	c2.6-1.9,1.7-3.1,0.3-6c-1.4-2.9-4.2-5.4-0.2-7c3.9-1.6,4.9-3,4.9-4.7c0-1.7-0.3-3,1.6-3c1.9,0,3.1-1.2,3.7-3.3
	c0.6-2.1,2.8-4.7,4.8-2.8c1.9,1.9,1.2,4.2,4.3,4.1c3.1-0.1,0.7,0.3,2.6,3.3c1.9,2.9,1.8,0.9,5.3,2.4c3.5,1.5,6.4,7.9,8.2,4.8
	c1.8-3.1,5-5.3,1.4-8.9c-3.6-3.7-3-5.1-3-7c0.1-1.8-1.7-2.1-4.4-4.2c-2.7-2.1,0-4.8-1.3-7.3c-1.3-2.4-1.9-2.2-0.8-4.5
	c1.1-2.2,3.1-0.2,0.4-3.2c-2.7-3-6.2-4.8-2-7.9c4.2-3.1,4.7-3.9,4.7-3.9l-22.8-15.6l-25.9-0.2L127.5,77l-7.4,3l10.4,47.5l2.5,23.5
	L119.8,160.9z"/>
<path class="st0" d="M116.5,79.1c0,0-2.5-7.6,0.3-14c2.8-6.3,8.2-11,11.5-13C117,70.8,122.6,73,121.8,77
	C121.4,79.3,120,80.6,116.5,79.1z"/>
<path class="st1" d="M116.5,79.1c0,0-2.5-7.6,0.3-14c2.8-6.3,8.2-11,11.5-13C117,70.8,122.6,73,121.8,77
	C121.4,79.3,120,80.6,116.5,79.1"/>
<path class="st0" d="M125.7,82.5c3,2.6,1.1-0.6,5.3,2.5c4.2,3.2,38.9,30.8,40,32.1c1,1.2,0.6,3.1,1.6,3.4c1,0.3,1.9-1.3,3.1-2.7
	c1.1-1.3-0.1-3.3-1.4-3.4c-1.3-0.1-14.7-9-22.3-15.4c-7.6-6.4-23.6-19.6-25-19.1C125.5,80.3,123.8,81.3,125.7,82.5z"/>
<path class="st1" d="M125.7,82.5c3,2.6,1.1-0.6,5.3,2.5c4.2,3.2,38.9,30.8,40,32.1c1,1.2,0.6,3.1,1.6,3.4c1,0.3,1.9-1.3,3.1-2.7
	c1.1-1.3-0.1-3.3-1.4-3.4c-1.3-0.1-14.7-9-22.3-15.4c-7.6-6.4-23.6-19.6-25-19.1C125.5,80.3,123.8,81.3,125.7,82.5"/>
<path class="st0" d="M199.9,160.7c-0.2,0-2.8,0.3-1.6,1.7c1.2,1.4,3.1,11.3,3.4,16.5c0.3,5.2-0.4,11.4-0.2,11
	c0.2-0.4,3.5-14,2.5-21.6C202.9,160.8,202.7,159.4,199.9,160.7z"/>
<path class="st1" d="M199.9,160.7c-0.2,0-2.8,0.3-1.6,1.7c1.2,1.4,3.1,11.3,3.4,16.5c0.3,5.2-0.4,11.4-0.2,11
	c0.2-0.4,3.5-14,2.5-21.6C202.9,160.8,202.7,159.4,199.9,160.7"/>
<path class="st0" d="M175.5,118.9c0,0-3.1,2.5-1.7,3.6c1.5,1.1,2.8,0.6,4,2.2c1.2,1.6,11.3,18.4,13.8,23.3c2.5,4.8,7,10,6.3,11.4
	c-0.7,1.4,0.3,1.6,1.8,1.4c1.6-0.2,2.9-0.2,0.7-4.5c-2.2-4.3-21.8-33.8-20.9-35C180.5,120,178,114.9,175.5,118.9z"/>
<path class="st1" d="M175.5,118.9c0,0-3.1,2.5-1.7,3.6c1.5,1.1,2.8,0.6,4,2.2c1.2,1.6,11.3,18.4,13.8,23.3c2.5,4.8,7,10,6.3,11.4
	c-0.7,1.4,0.3,1.6,1.8,1.4c1.6-0.2,2.9-0.2,0.7-4.5c-2.2-4.3-21.8-33.8-20.9-35C180.5,120,178,114.9,175.5,118.9"/>
<path class="st0" d="M152.7,131.9c0,0-3.1,2.5-1.7,3.6c1.5,1.1,2.8,0.6,4,2.2c1.2,1.6,11.3,18.4,13.8,23.3c2.5,4.8,3.9,6.7,3.2,8.1
	c-0.7,1.4,0.3,1.6,1.8,1.4c1.6-0.2,2.9-0.2,0.7-4.5c-2.2-4.3-18.6-30.6-17.8-31.8C157.7,133,158.5,126.4,152.7,131.9z"/>
<path class="st1" d="M152.7,131.9c0,0-3.1,2.5-1.7,3.6c1.5,1.1,2.8,0.6,4,2.2c1.2,1.6,11.3,18.4,13.8,23.3c2.5,4.8,3.9,6.7,3.2,8.1
	c-0.7,1.4,0.3,1.6,1.8,1.4c1.6-0.2,2.9-0.2,0.7-4.5c-2.2-4.3-18.6-30.6-17.8-31.8C157.7,133,158.5,126.4,152.7,131.9"/>
<path class="st0" d="M174,170.5c-0.2,0-2.8,0.3-1.6,1.7c1.2,1.4,3.1,11.3,3.4,16.5c0.3,5.2-0.4,11.4-0.2,11c0.2-0.4,3.5-14,2.5-21.6
	C177.1,170.5,176.9,169.1,174,170.5z"/>
<path class="st1" d="M174,170.5c-0.2,0-2.8,0.3-1.6,1.7c1.2,1.4,3.1,11.3,3.4,16.5c0.3,5.2-0.4,11.4-0.2,11c0.2-0.4,3.5-14,2.5-21.6
	C177.1,170.5,176.9,169.1,174,170.5"/>
<path class="st0" d="M123.9,85.7c2,3.7,7.2,9.4,10.1,14.1c2.9,4.7,15.5,27.2,16.1,28.7c0.6,1.6-0.3,3.2,0.5,3.9
	c0.8,0.6,2.2-0.5,3.6-1.3c1.5-0.8,0.9-3.2-0.3-3.8c-1.2-0.6-5.1-7.9-10.1-17c-5-9.1-16.5-26.4-18-26.6
	C124.4,83.5,122.6,83.8,123.9,85.7z"/>
<path class="st1" d="M123.9,85.7c2,3.7,7.2,9.4,10.1,14.1c2.9,4.7,15.5,27.2,16.1,28.7c0.6,1.6-0.3,3.2,0.5,3.9
	c0.8,0.6,2.2-0.5,3.6-1.3c1.5-0.8,0.9-3.2-0.3-3.8c-1.2-0.6-5.1-7.9-10.1-17c-5-9.1-16.5-26.4-18-26.6
	C124.4,83.5,122.6,83.8,123.9,85.7"/>
<path class="st0" d="M219.7,141.6c-0.2,0-2.8,0.1-1.7,1.6c1.1,1.5,2.3,11.5,2.4,16.7c0,5.2-1.1,11.4-0.9,11
	c0.2-0.4,4.4-13.7,3.8-21.4C222.7,142,222.6,140.5,219.7,141.6z"/>
<path class="st1" d="M219.7,141.6c-0.2,0-2.8,0.1-1.7,1.6c1.1,1.5,2.3,11.5,2.4,16.7c0,5.2-1.1,11.4-0.9,11
	c0.2-0.4,4.4-13.7,3.8-21.4C222.7,142,222.6,140.5,219.7,141.6"/>
<path class="st0" d="M128.1,79.4c3.7,1.3-1.4-0.5,3.5,0.9c4.9,1.4,56.9,18.5,58.3,19.2c1.3,0.7,1.5,2.6,2.5,2.5c1-0.1,1.5-2,2.1-3.7
	c0.7-1.7-1.1-3-2.4-2.6c-1.3,0.4-27.4-8-36.4-11.1c-9.1-3.1-26-9.2-27.2-8.2C127.3,77.5,125.9,79,128.1,79.4z"/>
<path class="st1" d="M128.1,79.4c3.7,1.3-1.4-0.5,3.5,0.9c4.9,1.4,56.9,18.5,58.3,19.2c1.3,0.7,1.5,2.6,2.5,2.5c1-0.1,1.5-2,2.1-3.7
	c0.7-1.7-1.1-3-2.4-2.6c-1.3,0.4-27.4-8-36.4-11.1c-9.1-3.1-26-9.2-27.2-8.2C127.3,77.5,125.9,79,128.1,79.4"/>
<path class="st0" d="M194.3,99.1c0,0-3.1,2.5-1.7,3.6c1.5,1.1,2.8,0.6,4,2.2c1.2,1.6,11.3,18.4,13.8,23.3c2.5,4.8,7,10,6.3,11.4
	c-0.7,1.4,0.3,1.6,1.8,1.4c1.6-0.2,2.9-0.2,0.7-4.5c-2.2-4.3-21.8-33.8-20.9-35C199.3,100.2,196.8,95.1,194.3,99.1z"/>
<path class="st1" d="M194.3,99.1c0,0-3.1,2.5-1.7,3.6c1.5,1.1,2.8,0.6,4,2.2c1.2,1.6,11.3,18.4,13.8,23.3c2.5,4.8,7,10,6.3,11.4
	c-0.7,1.4,0.3,1.6,1.8,1.4c1.6-0.2,2.9-0.2,0.7-4.5c-2.2-4.3-21.8-33.8-20.9-35C199.3,100.2,196.8,95.1,194.3,99.1"/>
<path class="st0" d="M228.1,98.6c-0.2,0.1-2.6,1.3-1,2.2c1.6,0.9,6.1,9.4,7.8,14.2c1.8,4.7,2.8,10.8,2.8,10.4
	c0-0.4-0.5-14.4-3.6-21.1C231.1,97.6,230.4,96.3,228.1,98.6z"/>
<path class="st1" d="M228.1,98.6c-0.2,0.1-2.6,1.3-1,2.2c1.6,0.9,6.1,9.4,7.8,14.2c1.8,4.7,2.8,10.8,2.8,10.4
	c0-0.4-0.5-14.4-3.6-21.1C231.1,97.6,230.4,96.3,228.1,98.6"/>
<path class="st0" d="M127.5,77c3.9-0.4-1.5,0.1,3.6-0.7c5.1-0.8,54.6-3.6,56.1-3.4c1.5,0.1,2.3,1.8,3.2,1.3c0.9-0.5,0.7-2.4,0.9-4.3
	c0.1-1.8-2-2.3-3.1-1.4c-1.1,0.9-23.3,0.8-32.9,1.8c-9.6,1-27.5,2.5-28.4,3.9C126.1,75.6,125.4,77.6,127.5,77z"/>
<path class="st1" d="M127.5,77c3.9-0.4-1.5,0.1,3.6-0.7c5.1-0.8,54.6-3.6,56.1-3.4c1.5,0.1,2.3,1.8,3.2,1.3c0.9-0.5,0.7-2.4,0.9-4.3
	c0.1-1.8-2-2.3-3.1-1.4c-1.1,0.9-23.3,0.8-32.9,1.8c-9.6,1-27.5,2.5-28.4,3.9C126.1,75.6,125.4,77.6,127.5,77"/>
<path class="st0" d="M191.3,71.2c0,0-2.1,3.7-0.4,4c1.7,0.3,2.8-0.7,4.5,0.2c1.7,0.9,16.7,11.8,20.7,15.1c4,3.3,9.9,6,9.7,7.6
	c-0.2,1.6,0.8,1.3,2.2,0.5c1.4-0.9,2.7-1.5-0.8-4.4c-3.5-2.9-31.7-21.3-31.3-22.7C196.3,70,192.2,66.4,191.3,71.2z"/>
<path class="st1" d="M191.3,71.2c0,0-2.1,3.7-0.4,4c1.7,0.3,2.8-0.7,4.5,0.2c1.7,0.9,16.7,11.8,20.7,15.1c4,3.3,9.9,6,9.7,7.6
	c-0.2,1.6,0.8,1.3,2.2,0.5c1.4-0.9,2.7-1.5-0.8-4.4c-3.5-2.9-31.7-21.3-31.3-22.7C196.3,70,192.2,66.4,191.3,71.2"/>
<path class="st0" d="M130.3,148.2c-0.4,3.1,0.9,4.2,2.5,3.6c1.7-0.5,1.2-2.4,2.6-1.9c1.5,0.5,2.2,1.9,2.2-0.7
	c0-2.6-4.8-24.2-6.9-37.7c-2.1-13.5-9.9-27.2-6-27.8c3.9-0.6,12.6-6.2,9.5-8.5c-3.1-2.3-9.4-0.3-12.3,0.5c-2.8,0.8-1.1,0.9-2,2.8
	c-0.9,1.9-7.9-1.2-3.2,1.4C121.5,82.5,132,136.5,130.3,148.2z"/>
<path class="st1" d="M130.3,148.2c-0.4,3.1,0.9,4.2,2.5,3.6c1.7-0.5,1.2-2.4,2.6-1.9c1.5,0.5,2.2,1.9,2.2-0.7
	c0-2.6-4.8-24.2-6.9-37.7c-2.1-13.5-9.9-27.2-6-27.8c3.9-0.6,12.6-6.2,9.5-8.5c-3.1-2.3-9.4-0.3-12.3,0.5c-2.8,0.8-1.1,0.9-2,2.8
	c-0.9,1.9-7.9-1.2-3.2,1.4C121.5,82.5,132,136.5,130.3,148.2"/>
<path class="st0" d="M108.3,162.7c-6.7,2.5,1.5,8.7,2,8.9c1.4,0.4,3.8-1.6,6.5-5.7c2.7-4.1,14.5-7.4,17.3-8.6
	c2.7-1.3,4.6-4.3,3.5-5.9c-1-1.6-2.5-0.4-3.3-1.5c-0.8-1.1-3.6-4.8-4.5-1.8C128,154.4,112.4,161.2,108.3,162.7z"/>
<path class="st1" d="M108.3,162.7c-6.7,2.5,1.5,8.7,2,8.9c1.4,0.4,3.8-1.6,6.5-5.7c2.7-4.1,14.5-7.4,17.3-8.6
	c2.7-1.3,4.6-4.3,3.5-5.9c-1-1.6-2.5-0.4-3.3-1.5c-0.8-1.1-3.6-4.8-4.5-1.8C128,154.4,112.4,161.2,108.3,162.7"/>
<path class="st0" d="M165.9,178.1c1.8,2.1,1.7,1.5,1.2,3.6c-0.6,2,0.5,3.9,1.9,2.8c1.5-1.1,1.8-3.2,3.2-1.7c1.5,1.5,3.8,4.1,3.1,0.4
	c-0.7-3.7-3.4-13.2-4.8-11.6c-1.4,1.5,1.1,4.8-0.9,3.9c-2-0.9-0.4-5.9-3-4.4C164.1,172.6,163.8,175.2,165.9,178.1z M186.7,156.7
	c-1-2.3-0.2-6.1-2.4-3c-2.2,3.2-2.1,4.7-0.9,8.6c1.2,3.9-1.5,3.7-2.3,5c-0.8,1.3,1.8,6.3,3.7,5.3c1.9-1,2.7-1.5,3.3-0.6
	c0.6,0.8,2.5,5.5,3.8,2c1.3-3.5,3.3-5.5-0.5-7c-3.8-1.5-5.5,0.5-3.7-3C189.6,160.5,189.5,159.8,186.7,156.7z M168.9,132.2
	c-2.6,0.3-3.7,1.5-1.4,5.1c2.3,3.6,5,4.2,5.1,2.3C172.7,137.8,172.2,132.8,168.9,132.2z M214.3,127.2c0.4-2.2,2.8-3.2-1.4-5.3
	c-4.2-2.1-7.7-4-8.6-1.6c-0.8,2.4,0.6,3.6,2,5.9c1.4,2.3,2,1.4,0.2,3.2c-1.7,1.8-1.3,3.1,0.2,2.4c1.5-0.7,2-3.2,4.4-0.6
	c2.4,2.6,3,6.5,5.6,4.9c2.6-1.6,5.6-2.3,2.6-4.5C216.5,129.5,213.4,129.8,214.3,127.2z M193.3,105.4c-0.8,2.7,0.5,8.2,2.9,7
	s2.1-5.7,3.2-2.3c1.1,3.4,2.1,7.9,4.4,3.8C206.1,109.7,200,106.4,193.3,105.4z M227.1,99.6c-6.8-2.3-6.5,0.8-2.8,2.6
	c3.7,1.8,6.2,1.5,6.1,4.3c-0.1,2.8,2.2,6.8,3.7,4.9C235.5,109.5,235.4,104,227.1,99.6z M233.1,127.8c-1.3,2.6,2.6,1.8,0.4,4.1
	c-2.2,2.3-1.9,4.9,0.1,4.3c2-0.6,0.5-2.5,4.1-1.5c3.6,1,3.6,1.1,1.8-1.5c-1.7-2.6,0.2-4-3-4.5C233.4,128.3,233.1,127.8,233.1,127.8z
	 M118.3,169.2c0,0,3.2-1.8,9.7,1.6c6.5,3.4,8,7.5,12,5.9c4-1.6-1.8-4.7,2.3-4.8c4.1-0.1,5.2,3.8,5.8-3.8c0.7-7.5-0.5-6.7-0.1-10.4
	c0.4-3.8,5.2,1.1,2.4-5.7c-2.7-6.8-6.2-5.5-5.3-9.6c0.8-4,6.1-11.6,7-6.4c0.9,5.3-1.4,12.8,2.7,17.5c4.1,4.7,10.9,2.3,8.2,8.2
	c-2.7,5.8-6.7,5.3-3.8,12.8c2.9,7.6,1.7,16,6,16.8c4.3,0.8,1-7.4,6.5-3.8c5.4,3.6,8.3,2.7,9.5,1.6c1.1-1.1,1.8,6.7,6.8,4.5
	c5.1-2.2,4.5-1.5,6.6-5c2.1-3.5,4.2-3.3,2.8-6.4c-1.4-3.1-1.3-8.2,2.2-9.5c3.6-1.3,2.8-2.8,1.7-6.4c-1.1-3.6-3.9-7.1,1.3-7.6
	c5.2-0.5,6.7-1.8,7.1-3.6c0.4-1.9,0.3-3.4,2.6-2.8c2.3,0.6,4-0.4,5.3-2.4c1.2-2.1,4.5-4.2,6.5-1.6c2,2.6,0.6,4.9,4.4,5.7
	c3.8,0.8,0.8,0.6,2.5,4.3c1.7,3.7,2,1.5,6,4.1c4,2.6,6.2,10.5,9.1,7.7c2.9-2.8,7.3-4.2,3.7-9.3c-3.7-5.1-2.6-6.5-2.2-8.4
	c0.5-2-1.6-2.8-4.5-5.9c-2.9-3.1,1-5.3,0-8.3c-1-3-1.9-3,0-5.1c1.9-2.1,3.8,0.7,1.2-3.4c-2.6-4-6.6-7-0.8-9.2
	c5.8-2.2,6.7-2.8,6.7-2.8l-24.7-23.7l-31.8-7.9l-47.6-5.7l-9.7,1l2.4,54.6l-2.1,26.3L118.3,169.2z"/>
<path class="st3" d="M165.9,178.1c1.8,2.1,1.7,1.5,1.2,3.6c-0.6,2,0.5,3.9,1.9,2.8c1.5-1.1,1.8-3.2,3.2-1.7c1.5,1.5,3.8,4.1,3.1,0.4
	c-0.7-3.7-3.4-13.2-4.8-11.6c-1.4,1.5,1.1,4.8-0.9,3.9c-2-0.9-0.4-5.9-3-4.4C164.1,172.6,163.8,175.2,165.9,178.1 M186.7,156.7
	c-1-2.3-0.2-6.1-2.4-3c-2.2,3.2-2.1,4.7-0.9,8.6c1.2,3.9-1.5,3.7-2.3,5c-0.8,1.3,1.8,6.3,3.7,5.3c1.9-1,2.7-1.5,3.3-0.6
	c0.6,0.8,2.5,5.5,3.8,2c1.3-3.5,3.3-5.5-0.5-7c-3.8-1.5-5.5,0.5-3.7-3C189.6,160.5,189.5,159.8,186.7,156.7z M168.9,132.2
	c-2.6,0.3-3.7,1.5-1.4,5.1c2.3,3.6,5,4.2,5.1,2.3C172.7,137.8,172.2,132.8,168.9,132.2z M214.3,127.2c0.4-2.2,2.8-3.2-1.4-5.3
	c-4.2-2.1-7.7-4-8.6-1.6c-0.8,2.4,0.6,3.6,2,5.9c1.4,2.3,2,1.4,0.2,3.2c-1.7,1.8-1.3,3.1,0.2,2.4c1.5-0.7,2-3.2,4.4-0.6
	c2.4,2.6,3,6.5,5.6,4.9c2.6-1.6,5.6-2.3,2.6-4.5C216.5,129.5,213.4,129.8,214.3,127.2z M193.3,105.4c-0.8,2.7,0.5,8.2,2.9,7
	s2.1-5.7,3.2-2.3c1.1,3.4,2.1,7.9,4.4,3.8C206.1,109.7,200,106.4,193.3,105.4z M227.1,99.6c-6.8-2.3-6.5,0.8-2.8,2.6
	c3.7,1.8,6.2,1.5,6.1,4.3c-0.1,2.8,2.2,6.8,3.7,4.9C235.5,109.5,235.4,104,227.1,99.6z M233.1,127.8c-1.3,2.6,2.6,1.8,0.4,4.1
	c-2.2,2.3-1.9,4.9,0.1,4.3c2-0.6,0.5-2.5,4.1-1.5c3.6,1,3.6,1.1,1.8-1.5c-1.7-2.6,0.2-4-3-4.5C233.4,128.3,233.1,127.8,233.1,127.8z
	 M118.3,169.2c0,0,3.2-1.8,9.7,1.6c6.5,3.4,8,7.5,12,5.9c4-1.6-1.8-4.7,2.3-4.8c4.1-0.1,5.2,3.8,5.8-3.8c0.7-7.5-0.5-6.7-0.1-10.4
	c0.4-3.8,5.2,1.1,2.4-5.7c-2.7-6.8-6.2-5.5-5.3-9.6c0.8-4,6.1-11.6,7-6.4c0.9,5.3-1.4,12.8,2.7,17.5c4.1,4.7,10.9,2.3,8.2,8.2
	c-2.7,5.8-6.7,5.3-3.8,12.8c2.9,7.6,1.7,16,6,16.8c4.3,0.8,1-7.4,6.5-3.8c5.4,3.6,8.3,2.7,9.5,1.6c1.1-1.1,1.8,6.7,6.8,4.5
	c5.1-2.2,4.5-1.5,6.6-5c2.1-3.5,4.2-3.3,2.8-6.4c-1.4-3.1-1.3-8.2,2.2-9.5c3.6-1.3,2.8-2.8,1.7-6.4c-1.1-3.6-3.9-7.1,1.3-7.6
	c5.2-0.5,6.7-1.8,7.1-3.6c0.4-1.9,0.3-3.4,2.6-2.8c2.3,0.6,4-0.4,5.3-2.4c1.2-2.1,4.5-4.2,6.5-1.6c2,2.6,0.6,4.9,4.4,5.7
	c3.8,0.8,0.8,0.6,2.5,4.3c1.7,3.7,2,1.5,6,4.1c4,2.6,6.2,10.5,9.1,7.7c2.9-2.8,7.3-4.2,3.7-9.3c-3.7-5.1-2.6-6.5-2.2-8.4
	c0.5-2-1.6-2.8-4.5-5.9c-2.9-3.1,1-5.3,0-8.3c-1-3-1.9-3,0-5.1c1.9-2.1,3.8,0.7,1.2-3.4c-2.6-4-6.6-7-0.8-9.2
	c5.8-2.2,6.7-2.8,6.7-2.8l-24.7-23.7l-31.8-7.9l-47.6-5.7l-9.7,1l2.4,54.6l-2.1,26.3L118.3,169.2z"/>
<path class="st2" d="M118.3,169.2c0,0,3.2-1.8,9.7,1.6c6.5,3.4,8,7.5,12,5.9c4-1.6-1.8-4.7,2.3-4.8c2.5-0.1,3.8,1.3,4.7,0.8
	c0.1-0.1,0.2-0.2,0.3-0.2c0.4-0.5,0.7-1.8,0.9-4.3c0.7-7.5-0.5-6.7-0.1-10.4c0.4-3.8,5.2,1.1,2.4-5.7c-2.7-6.8-6.2-5.5-5.3-9.6
	c0.5-2.6,2.9-6.6,4.7-7.8c-0.9-5.4-2.5-7.5,3.9-1.7c8.1,7.4,12.9,8.2,12.9,8.2s-4.3-17,1.9-14.4c6.2,2.6,22.2,10.1,22.2,10.1
	l-17.5-23c0,0-2.3-5.8,9.1-1.5c6.1,2.3,15.5,4.8,23.1,6.9c1-0.2,2.5,0.4,4.3,1.2c4.4,1.3,7.6,2.3,8.1,3c1.2,1.8,5.9-2.2,5.9-2.2
	s-9.4-4.6-19.6-9.7c0.1,0.7,0,1.5-0.5,2.3c-2.3,4.1-3.3-0.4-4.4-3.8c-0.2-0.7-0.4-1.1-0.5-1.2l-0.1,0c-0.5-0.1-0.7,2.7-2.6,3.6
	c-2.2,1-3.4-3.5-3.1-6.3c-8-3.9-14.4-7.1-14-6.9c0.9,0.6,4.8-4.5,24.9-0.8c20.2,3.8,19.4-4.8,19.4-4.8l0,0l-52.3-10.1l-25-3
	l-7.5,0.8c-0.7,4.2-1.7,12-1.7,12s5.9,53.3,3.5,53.1c-0.4,0-1.3,0.5-2.5,1.3l-1.1,14.6L118.3,169.2z"/>
<path class="st0" d="M95.6,166.4l2.8,4.7c-16-5.7-35.7,18.9-34.9,16.4C64.2,184.9,74.1,166,95.6,166.4z"/>
<path class="st1" d="M95.6,166.4l2.8,4.7c-16-5.7-35.7,18.9-34.9,16.4C64.2,184.9,74.1,166,95.6,166.4"/>
<path class="st0" d="M104.5,175.9l3.2,4.1c-9.8,1.4-14.4,0.9-20.8,5.2c-8.1,5.5-11.5,11.9-11.1,10.5c0.4-1.5,4.9-11.2,9.6-13.5
	C90.7,179.6,96.3,178.1,104.5,175.9z"/>
<path class="st1" d="M104.5,175.9l3.2,4.1c-9.8,1.4-14.4,0.9-20.8,5.2c-8.1,5.5-11.5,11.9-11.1,10.5c0.4-1.5,4.9-11.2,9.6-13.5
	C90.7,179.6,96.3,178.1,104.5,175.9"/>
<path class="st0" d="M112.2,186.4l3.2,4.1c-9.8,1.4-14.4,0.9-20.8,5.2c-8.1,5.5-11.5,11.9-11.1,10.5c0.4-1.5,4.9-11.2,9.6-13.5
	C98.4,190,103.9,188.6,112.2,186.4z"/>
<path class="st1" d="M112.2,186.4l3.2,4.1c-9.8,1.4-14.4,0.9-20.8,5.2c-8.1,5.5-11.5,11.9-11.1,10.5c0.4-1.5,4.9-11.2,9.6-13.5
	C98.4,190,103.9,188.6,112.2,186.4"/>
<path class="st0" d="M124.4,197.7l3.2,4.1c-9.8,1.4-14.4,0.9-20.8,5.2c-8.1,5.5-11.5,11.9-11.1,10.5c0.4-1.5,4.9-11.2,9.6-13.5
	C110.7,201.3,116.2,199.9,124.4,197.7z"/>
<path class="st1" d="M124.4,197.7l3.2,4.1c-9.8,1.4-14.4,0.9-20.8,5.2c-8.1,5.5-11.5,11.9-11.1,10.5c0.4-1.5,4.9-11.2,9.6-13.5
	C110.7,201.3,116.2,199.9,124.4,197.7"/>
<path class="st0" d="M39.9,194.9c0.9,0,15-10.3,21.4-7.7c6.4,2.6,38.2,36.8,43.3,40.9s16.7,13.3,13.1,14.4
	c-3.6,1.1-13.1,6.9-27.8,0.8C75.3,237.1,39.9,194.9,39.9,194.9z"/>
<path class="st1" d="M39.9,194.9c0.9,0,15-10.3,21.4-7.7c6.4,2.6,38.2,36.8,43.3,40.9s16.7,13.3,13.1,14.4
	c-3.6,1.1-13.1,6.9-27.8,0.8C75.3,237.1,39.9,194.9,39.9,194.9"/>
<path class="st0" d="M66.3,192.2c0,0,8.2,1.2,19.1-3c11-4.2,16.3-13.4,16.3-13.4s-1.3-3.8-2.8-2.2c-0.8,0.8-4.2,5.2-10.5,9.2
	C82.4,186.5,73.8,189.8,66.3,192.2z"/>
<path class="st4" d="M66.3,192.2c0,0,8.2,1.2,19.1-3c11-4.2,16.3-13.4,16.3-13.4s-1.3-3.8-2.8-2.2c-0.8,0.8-4.2,5.2-10.5,9.2
	C82.4,186.5,73.8,189.8,66.3,192.2"/>
<path class="st1" d="M85.4,189.2c11-4.2,16.3-13.4,16.3-13.4c-0.7-1.4-1.1-2.2-1.2-1.8c-5,13.2-31,18.4-31,18.4
	C72.9,192.4,78.6,191.8,85.4,189.2"/>
<path class="st0" d="M75.8,198.3c0,0,15.5,3.4,21,1.2c5.5-2.2,15.1-12.5,15.1-12.5l-4.2-3.2c0,0-5.3,11.2-13.6,12.5
	C85.7,197.6,75.8,198.3,75.8,198.3z"/>
<path class="st4" d="M75.8,198.3c0,0,15.5,3.4,21,1.2c5.5-2.2,15.1-12.5,15.1-12.5l-4.2-3.2c0,0-5.3,11.2-13.6,12.5
	C85.7,197.6,75.8,198.3,75.8,198.3"/>
<path class="st1" d="M97.7,197.1c-2.9,1.7-15.7,2.3-16.4,2.2c5,0.8,12.1,1.5,15.5,0.2c5.5-2.2,15.1-12.5,15.1-12.5
	c0,0-0.1-0.1-0.1-0.1l-1.9-1.4C106.6,188.8,99.9,195.8,97.7,197.1"/>
<path class="st0" d="M85.1,207.2c0,0,15.5,3.4,21,1.2c5.5-2.2,15.1-12.5,15.1-12.5l-4.2-3.2c0,0-5.3,11.2-13.6,12.5
	S85.1,207.2,85.1,207.2z"/>
<path class="st4" d="M85.1,207.2c0,0,15.5,3.4,21,1.2c5.5-2.2,15.1-12.5,15.1-12.5l-4.2-3.2c0,0-5.3,11.2-13.6,12.5
	S85.1,207.2,85.1,207.2"/>
<path class="st1" d="M107,206c-2.9,1.7-15.7,2.3-16.4,2.2c5,0.8,12.1,1.5,15.5,0.2c5.5-2.2,15.1-12.5,15.1-12.5c0,0-0.1-0.1-0.1-0.1
	l-1.9-1.4C115.9,197.7,109.2,204.7,107,206"/>
<path class="st0" d="M98.7,218.7c0,0,18.5,0.7,24-1.5c5.5-2.2,10.7-9.3,10.7-9.3l-4.2-3.2c-9.6,11.7-13.2,9.8-20.7,11.5
	C103.1,217.5,98.7,218.7,98.7,218.7z"/>
<path class="st4" d="M98.7,218.7c0,0,18.5,0.7,24-1.5c5.5-2.2,10.7-9.3,10.7-9.3l-4.2-3.2c-9.6,11.7-13.2,9.8-20.7,11.5
	C103.1,217.5,98.7,218.7,98.7,218.7"/>
<path class="st1" d="M123.6,214.8c-2.6,1.5-17.4,4.1-18.1,4c6.5-0.1,12,0.3,17.2-1.6c5.2-1.9,11.2-9.3,10.7-9.3c0,0-0.3-0.2-2-1.5
	C128.2,209.8,126.2,213.3,123.6,214.8"/>
<path class="st0" d="M97.3,130.5c0,0-1.1,2.4-4,1.6c-3-0.8-5.5-2.7-6.7,0.6c-0.8,2.1,0.1,10.9,0.7,10c0-0.1,0.1-0.2,0.1-0.4
	c0.9-3.4,3.6-1.8,6.6-1.2c1.8,0.3,2.8-0.4,3.4-1.1C97.7,138.7,97.4,136.2,97.3,130.5z"/>
<path class="st1" d="M97.3,130.5c0,0-1.1,2.4-4,1.6c-3-0.8-5.5-2.7-6.7,0.6c-0.8,2.1,0.1,10.9,0.7,10c0-0.1,0.1-0.2,0.1-0.4
	c0.9-3.4,3.6-1.8,6.6-1.2c1.8,0.3,2.8-0.4,3.4-1.1C97.7,138.7,97.4,136.2,97.3,130.5"/>
<path class="st0" d="M97.9,139.5c0,0-0.8,2.5-3.8,2c-3-0.5-5.7-2.1-6.6,1.2c-0.6,2.1,1.1,10.7,1.7,9.8c0-0.1,0-0.3,0-0.4
	c0.6-3.4,3.4-2.1,6.5-1.8c1.8,0.2,2.8-0.7,3.3-1.4C99.1,147.5,98.5,145.1,97.9,139.5z"/>
<path class="st1" d="M97.9,139.5c0,0-0.8,2.5-3.8,2c-3-0.5-5.7-2.1-6.6,1.2c-0.6,2.1,1.1,10.7,1.7,9.8c0-0.1,0-0.3,0-0.4
	c0.6-3.4,3.4-2.1,6.5-1.8c1.8,0.2,2.8-0.7,3.3-1.4C99.1,147.5,98.5,145.1,97.9,139.5"/>
<path class="st0" d="M99,147.5c0,0-0.2,2.6-3.2,2.9c-3.1,0.2-6.1-0.6-6.1,2.9c0,2.2,3.8,10.1,4.1,9.1c0-0.1,0-0.3,0-0.4
	c-0.3-3.5,2.8-2.9,5.8-3.4c1.8-0.3,2.5-1.4,2.8-2.2C102.1,155,101,152.8,99,147.5z"/>
<path class="st1" d="M99,147.5c0,0-0.2,2.6-3.2,2.9c-3.1,0.2-6.1-0.6-6.1,2.9c0,2.2,3.8,10.1,4.1,9.1c0-0.1,0-0.3,0-0.4
	c-0.3-3.5,2.8-2.9,5.8-3.4c1.8-0.3,2.5-1.4,2.8-2.2C102.1,155,101,152.8,99,147.5"/>
<path class="st0" d="M102.3,155.7c0,0,0.4,2.6-2.6,3.5c-3,0.8-6.1,0.6-5.4,4c0.4,2.2,5.8,9.1,5.8,8.1c0-0.1-0.1-0.2-0.1-0.4
	c-1-3.3,2.2-3.4,5-4.5c1.7-0.7,2.2-1.9,2.3-2.7C106.9,162.3,105.3,160.4,102.3,155.7z"/>
<path class="st1" d="M102.3,155.7c0,0,0.4,2.6-2.6,3.5c-3,0.8-6.1,0.6-5.4,4c0.4,2.2,5.8,9.1,5.8,8.1c0-0.1-0.1-0.2-0.1-0.4
	c-1-3.3,2.2-3.4,5-4.5c1.7-0.7,2.2-1.9,2.3-2.7C106.9,162.3,105.3,160.4,102.3,155.7"/>
<path class="st0" d="M107.2,163.9c0,0,0.4,2.6-2.6,3.5c-3,0.8-6.1,0.6-5.4,4c0.4,2.2,5.8,9.1,5.8,8.1c0-0.1-0.1-0.2-0.1-0.4
	c-1-3.3,2.2-3.4,5-4.5c1.7-0.7,2.2-1.9,2.3-2.7C111.9,170.5,110.3,168.6,107.2,163.9z"/>
<path class="st1" d="M107.2,163.9c0,0,0.4,2.6-2.6,3.5c-3,0.8-6.1,0.6-5.4,4c0.4,2.2,5.8,9.1,5.8,8.1c0-0.1-0.1-0.2-0.1-0.4
	c-1-3.3,2.2-3.4,5-4.5c1.7-0.7,2.2-1.9,2.3-2.7C111.9,170.5,110.3,168.6,107.2,163.9"/>
<path class="st4" d="M101.1,152.8c-0.5-1.3-1.2-3-2.1-5.3c0,0,0,0.1,0,0.2c-0.1,0.6-0.6,2.3-2.9,2.6c-0.1,0-0.2,0-0.3,0
	c-0.6,0-1.1,0-1.7,0.1c0,0.8,0.1,1.9,0.6,3.3c0.8,2.5,1.3,5.4,2.7,3.4C98.2,155.8,100,154.1,101.1,152.8"/>
<path class="st4" d="M98.5,144.6c-0.2-1.3-0.4-3-0.6-5.1c0,0-0.8,2.5-3.8,2c-1-0.2-2-0.5-2.9-0.7c-1.5,3.5-1.4,5,1.6,5.7
	C94.4,146.8,96.6,145.8,98.5,144.6"/>
<path class="st0" d="M112.7,171.5c0,0,0.7,2.5-2.1,3.8c-2.8,1.2-5.9,1.4-4.8,4.7c0.7,2.1,6.9,8.3,6.9,7.2c-0.1-0.1-0.1-0.2-0.2-0.3
	c-1.4-3.2,1.7-3.6,4.4-5.1c1.6-0.9,1.9-2.1,1.9-3C118.1,177.5,116.3,175.8,112.7,171.5z"/>
<path class="st1" d="M112.7,171.5c0,0,0.7,2.5-2.1,3.8c-2.8,1.2-5.9,1.4-4.8,4.7c0.7,2.1,6.9,8.3,6.9,7.2c-0.1-0.1-0.1-0.2-0.2-0.3
	c-1.4-3.2,1.7-3.6,4.4-5.1c1.6-0.9,1.9-2.1,1.9-3C118.1,177.5,116.3,175.8,112.7,171.5"/>
<path class="st4" d="M118.8,178.7c-0.6-1.3-2.5-3-6.1-7.2c0,0,0.7,2.5-2.1,3.8c-2.8,1.2-5.9,1.4-4.8,4.7c0.2,0.7,1,1.7,2,2.9
	c0.2-0.1,0.3-0.2,0.5-0.4c2.4-1.9,9.3-4,10-2C118.7,179.9,118.8,179.2,118.8,178.7"/>
<path class="st0" d="M119.5,178.2c0,0,0.7,2.5-2.1,3.8c-2.8,1.2-5.9,1.4-4.8,4.7c0.7,2.1,6.9,8.3,6.9,7.2c-0.1-0.1-0.1-0.2-0.2-0.3
	c-1.4-3.2,1.7-3.6,4.4-5.1c1.6-0.9,1.9-2.1,1.9-3C125,184.2,123.2,182.5,119.5,178.2z"/>
<path class="st1" d="M119.5,178.2c0,0,0.7,2.5-2.1,3.8c-2.8,1.2-5.9,1.4-4.8,4.7c0.7,2.1,6.9,8.3,6.9,7.2c-0.1-0.1-0.1-0.2-0.2-0.3
	c-1.4-3.2,1.7-3.6,4.4-5.1c1.6-0.9,1.9-2.1,1.9-3C125,184.2,123.2,182.5,119.5,178.2"/>
<path class="st4" d="M125.6,185.5c-0.6-1.3-2.4-3-6.1-7.2c0,0,0.7,2.5-2.1,3.8c-2.8,1.2-5.9,1.4-4.8,4.7c0.1,0.3,0.3,0.6,0.5,0.9
	c0.6,0.1,1.3-0.1,2-0.9c1.5-1.8,8.1-3,10.3,0.1C125.6,186.4,125.6,185.9,125.6,185.5"/>
<path class="st0" d="M126,185.2c0,0,0.7,2.5-2.1,3.8c-2.8,1.2-5.9,1.4-4.8,4.7c0.7,2.1,6.9,8.3,6.9,7.2c-0.1-0.1-0.1-0.2-0.2-0.3
	c-1.4-3.2,1.7-3.6,4.4-5.1c1.6-0.9,1.9-2.1,1.9-3C131.5,191.1,129.6,189.5,126,185.2z"/>
<path class="st1" d="M126,185.2c0,0,0.7,2.5-2.1,3.8c-2.8,1.2-5.9,1.4-4.8,4.7c0.7,2.1,6.9,8.3,6.9,7.2c-0.1-0.1-0.1-0.2-0.2-0.3
	c-1.4-3.2,1.7-3.6,4.4-5.1c1.6-0.9,1.9-2.1,1.9-3C131.5,191.1,129.6,189.5,126,185.2"/>
<path class="st4" d="M132.1,192.4c-0.6-1.3-2.5-3-6.1-7.2c0,0,0.3,1.2-0.3,2.3c-0.3,0.5-0.9,1.1-1.8,1.5c-1.9,0.8-3.9,1.2-4.7,2.4
	c-0.2,0.3-0.4,0.8-0.3,1.3c0.1,0.1,0.1,0.1,0.2,0.2c0.7,0.6,1.8,0.9,3.5,0.7c2-0.2,6.1,0.7,8.5,1.4
	C131.9,194,132.1,193.1,132.1,192.4"/>
<path class="st0" d="M133.3,192.4c0,0,0.4,2.6-2.6,3.5c-3,0.8-6.1,0.6-5.4,4c0.4,2.2,5.8,9.1,5.8,8.1c0-0.1-0.1-0.2-0.1-0.4
	c-1-3.3,2.2-3.4,5-4.5c1.7-0.7,2.2-1.9,2.3-2.7C137.9,199,136.3,197.1,133.3,192.4z"/>
<path class="st1" d="M133.3,192.4c0,0,0.4,2.6-2.6,3.5c-3,0.8-6.1,0.6-5.4,4c0.4,2.2,5.8,9.1,5.8,8.1c0-0.1-0.1-0.2-0.1-0.4
	c-1-3.3,2.2-3.4,5-4.5c1.7-0.7,2.2-1.9,2.3-2.7C137.9,199,136.3,197.1,133.3,192.4"/>
<path class="st4" d="M138.4,200.4c-0.5-1.4-2-3.3-5.1-8c0,0,0.3,1.7-1.3,2.8c-0.3,0.2-0.8,0.5-1.3,0.6c-0.9,0.3-1.8,0.4-2.6,0.6
	c-1.6,0.4-2.8,0.9-2.9,2.5c0.1,0.2,0.1,0.4,0.2,0.5c0.6,1.1,1.6,1.3,4,0.6c2.5-0.7,5.8,0.9,8,2.3
	C138.1,201.7,138.3,200.9,138.4,200.4"/>
<path class="st0" d="M138.5,199.9c0,0,0.4,2.6-2.6,3.5c-3,0.8-6.1,0.6-5.4,4c0.4,2.2,5.8,9.1,5.8,8.1c0-0.1-0.1-0.2-0.1-0.4
	c-1-3.3,2.2-3.4,5-4.5c1.7-0.7,2.2-1.9,2.3-2.7C143.1,206.6,141.5,204.7,138.5,199.9z"/>
<path class="st1" d="M138.5,199.9c0,0,0.4,2.6-2.6,3.5c-3,0.8-6.1,0.6-5.4,4c0.4,2.2,5.8,9.1,5.8,8.1c0-0.1-0.1-0.2-0.1-0.4
	c-1-3.3,2.2-3.4,5-4.5c1.7-0.7,2.2-1.9,2.3-2.7C143.1,206.6,141.5,204.7,138.5,199.9"/>
<path class="st4" d="M143.5,208c-0.5-1.4-2-3.3-5.1-8c0,0,0.2,1.4-0.8,2.5c-0.4,0.4-0.9,0.8-1.7,1c-1,0.3-2,0.4-2.9,0.7
	c-0.9,0.2-1.6,0.5-2.1,1c0,0.2,0,0.3,0.1,0.5c0.3,0.8,1.2,1.5,4,1.9c4.1,0.5,6.4,1.8,7.4,2.6C143.2,209.3,143.5,208.6,143.5,208"/>
<path class="st0" d="M144.1,208.5c0,0-0.2,2.6-3.2,2.9c-3.1,0.2-6.1-0.6-6.1,2.9c0,2.2,3.8,10.1,4.1,9.1c0-0.1,0-0.3,0-0.4
	c-0.3-3.5,2.8-2.9,5.8-3.4c1.8-0.3,2.5-1.4,2.8-2.2C147.3,215.9,146.2,213.7,144.1,208.5z"/>
<path class="st1" d="M144.1,208.5c0,0-0.2,2.6-3.2,2.9c-3.1,0.2-6.1-0.6-6.1,2.9c0,2.2,3.8,10.1,4.1,9.1c0-0.1,0-0.3,0-0.4
	c-0.3-3.5,2.8-2.9,5.8-3.4c1.8-0.3,2.5-1.4,2.8-2.2C147.3,215.9,146.2,213.7,144.1,208.5"/>
<path class="st4" d="M147.2,216.1c-0.5-1.5-1.5-3.7-3.1-7.7c0,0-0.1,1.2-1.1,2c-0.5,0.4-1.2,0.7-2.2,0.8c-0.7,0-1.3,0-1.9,0.1
	C140.7,214.9,144.2,217.8,147.2,216.1"/>
<path class="st4" d="M105.3,160.2c-0.8-1.1-1.8-2.6-3-4.5c0,0,0,0.2,0,0.5c0,0.1,0,0.1,0,0.2c0,0.1,0,0.1-0.1,0.2
	c-0.2,0.8-0.7,2-2.5,2.6c-1.5,0.4-3,0.6-4.1,1.1c-0.8,3,0.7,6.3,4.6,4.9C103.4,164,104.1,161.5,105.3,160.2"/>
<path class="st0" d="M103.9,167.7c-8.8,0.7-0.1,9.9,0.6,10.3c1.6,0.9,5-0.7,9.2-4.3c4.2-3.6,19.5-3.7,23.1-4.2
	c3.6-0.6,6.6-3.3,5.6-5.3c-0.9-2.1-3-1.2-3.7-2.6c-0.7-1.4-3.3-6.3-5.1-3.3C129.8,164.5,109.2,167.3,103.9,167.7z"/>
<path class="st4" d="M103.9,167.7c-8.8,0.7-0.1,9.9,0.6,10.3c1.6,0.9,5-0.7,9.2-4.3c4.2-3.6,19.5-3.7,23.1-4.2
	c3.6-0.6,6.6-3.3,5.6-5.3c-0.9-2.1-3-1.2-3.7-2.6c-0.7-1.4-3.3-6.3-5.1-3.3C129.8,164.5,109.2,167.3,103.9,167.7"/>
<path class="st1" d="M113.6,173.7c4.2-3.6,20.9-3.9,23.1-4.2c2.2-0.3,1.4-0.3,2.1-0.6c0.2-1.9,0.6-4.1-0.3-5
	c-0.9-0.9-4.7-0.9-5.8,1.4c-1,2.3-23.4,5.9-24.8,5.7c-3-0.4-4.3,1.6-4.3,3.6c0,0.8-1.4,2.3,0.7,3.4
	C106,178.9,109.4,177.3,113.6,173.7"/>
<path class="st0" d="M40.9,188.1c1.9-22.5,31-30.5,36.3-31.5c5.3-1,11.9-3.8,11.8-0.1c-0.1,3.7-17.8,18.8-28.8,26.4
	c-11,7.6-21.7,11.4-21.7,11.4s2.6-5.8,9.7-10.2c7-4.4,13.5-6.3,19.8-11.1c6.3-4.8,19.4-15.6,14.6-14.8c-4.8,0.8-19.1,6.7-24.8,10.2
	c-5.7,3.6-9,8.2-10.8,11.8C45.2,184,43.7,187.7,40.9,188.1z"/>
<path class="st4" d="M40.9,188.1c1.9-22.5,31-30.5,36.3-31.5c5.3-1,11.9-3.8,11.8-0.1c-0.1,3.7-17.8,18.8-28.8,26.4
	c-11,7.6-21.7,11.4-21.7,11.4s2.6-5.8,9.7-10.2c7-4.4,13.5-6.3,19.8-11.1c6.3-4.8,19.4-15.6,14.6-14.8c-4.8,0.8-19.1,6.7-24.8,10.2
	c-5.7,3.6-9,8.2-10.8,11.8C45.2,184,43.7,187.7,40.9,188.1"/>
<path class="st0" d="M61,125.2c0,0,17.3-2.6,24.5-1.3c2.4,0.4,5.5,1,8.6,1.4c5,0,9.8-2.3,9.7,0.8c1.1,0,2-0.1,2.7-0.3v-5.5
	c-0.2-0.5-0.3-1-0.4-1.7c-0.8-4.4-1.5-6.7,0.3-8.3c-0.9-0.5-1.5-1.3-2-2.3c-1.2,1.6-2.9,3.3-4.7,2.6c-2.8-1.2-0.2-7.4-0.2-7.4
	c-0.2,0.2-0.4,0.4-0.7,0.6c-1.6,1.6-2.9,2.5-2.9,2.5s-4.9,5.7-15,4.5c-9.3-1.1-18.8-9.7-12.9-24.2c-4,2.7-5.5,6.3-6.2,10.4
	c-0.8,4.3-0.9,9.3-1.2,11.7c0.6,2.4,0.9,5.2,1,8.4C61.5,119.5,61.4,122.2,61,125.2z M99.3,103.1c0,0-0.2,0.2-0.7,0.6c0,0,0,0,0,0
	C98.9,103.6,99.1,103.4,99.3,103.1z M100.6,117.3c0.8,3,1.4,5.9-3.4,4.5c-17.1-5-15.9-4.2-35.2-4.1l-0.5-1.2c4.9,0,27-1.7,35.9-2.1
	C100.2,114.3,100.4,116.4,100.6,117.3z"/>
<path class="st1" d="M61,125.2c0,0,17.3-2.6,24.5-1.3c2.4,0.4,5.5,1,8.6,1.4c5,0,9.8-2.3,9.7,0.8c1.1,0,2-0.1,2.7-0.3v-5.5
	c-0.2-0.5-0.3-1-0.4-1.7c-0.8-4.4-1.5-6.7,0.3-8.3c-0.9-0.5-1.5-1.3-2-2.3c-1.2,1.6-2.9,3.3-4.7,2.6c-2.8-1.2-0.2-7.4-0.2-7.4
	c-0.2,0.2-0.4,0.4-0.7,0.6c-1.6,1.6-2.9,2.5-2.9,2.5s-4.9,5.7-15,4.5c-9.3-1.1-18.8-9.7-12.9-24.2c-4,2.7-5.5,6.3-6.2,10.4
	c-0.8,4.3-0.9,9.3-1.2,11.7c0.6,2.4,0.9,5.2,1,8.4C61.5,119.5,61.4,122.2,61,125.2 M99.3,103.1c0,0-0.2,0.2-0.7,0.6c0,0,0,0,0,0
	C98.9,103.6,99.1,103.4,99.3,103.1z M100.6,117.3c0.8,3,1.4,5.9-3.4,4.5c-17.1-5-15.9-4.2-35.2-4.1l-0.5-1.2c4.9,0,27-1.7,35.9-2.1
	C100.2,114.3,100.4,116.4,100.6,117.3z"/>
<path class="st0" d="M95.8,106.3c0,0,3.6-2.7,6.7-6.6c-0.3-2.8-0.6-6-1.2-9.3c-2.3-11.3-15.8-9.8-25.9-7c-3.2,0.9-5.6,2-7.4,3.2
	c-5.9,14.5,3.5,23.1,12.9,24.2C90.9,112,95.8,106.3,95.8,106.3z"/>
<path class="st5" d="M95.8,106.3c0,0,3.6-2.7,6.7-6.6c-0.3-2.8-0.6-6-1.2-9.3c-2.3-11.3-15.8-9.8-25.9-7c-3.2,0.9-5.6,2-7.4,3.2
	c-5.9,14.5,3.5,23.1,12.9,24.2C90.9,112,95.8,106.3,95.8,106.3"/>
<path class="st0" d="M81.4,86.2c-1.4,0.5-6.8,3-8,7.3c-1.2,4.3,0.8,13,7,13.3c6.3,0.3,13.5-3.6,15.8-8.7c2.3-5.1-0.3-12.7-6.6-13
	C83.3,84.7,81.4,86.2,81.4,86.2z"/>
<path class="st6" d="M81.4,86.2c-1.4,0.5-6.8,3-8,7.3c-1.2,4.3,0.8,13,7,13.3c6.3,0.3,13.5-3.6,15.8-8.7c2.3-5.1-0.3-12.7-6.6-13
	C83.3,84.7,81.4,86.2,81.4,86.2"/>
<path class="st7" d="M61,125.2c3.4-29.1-13.7-33-13.7-33s-18.7,17.1-20.9,34.3"/>
<path class="st7" d="M60.1,110.1c0.7-0.1,0.5-7.2,1.6-13.2c1.1-6,3.7-10.8,13.7-13.6c10-2.8,23.5-4.3,25.9,7
	c2.3,11.3-0.1,21.6,9.8,20.8c9.8-0.8,9.1-11.5,6.3-19.1c-2.8-7.6-6.7-20.2-23.2-23.3C77.6,65.5,62,67.5,47.3,92.2"/>
<path class="st0" d="M60.5,108.6c-3.2-14.1-13.2-16.4-13.2-16.4s-18.7,17.1-20.9,34.3l34.6-1.3C61.8,118.4,61.5,112.9,60.5,108.6z"
	/>
<path class="st4" d="M60.5,108.6c-3.2-14.1-13.2-16.4-13.2-16.4s-18.7,17.1-20.9,34.3l34.6-1.3C61.8,118.4,61.5,112.9,60.5,108.6"/>
<path class="st1" d="M58.5,102.7c1.3,9.1-2,19.1-11,19.6c-7.6,0.4-13.9,2.3-18.4,4.1l31.9-1.2c0.8-6.8,0.5-12.3-0.5-16.6
	C60,106.3,59.3,104.4,58.5,102.7"/>
<path class="st8" d="M34,115.6c-0.9,2.2-0.7,1.2,2.5-0.1c3.2-1.3,7.7-7.6,11.3-10.3s3.4-7.8-1.1-5.8C42.3,101.3,36.8,107.2,34,115.6
	"/>
<path class="st0" d="M94.1,68.7C77.6,65.5,62,67.5,47.3,92.2c0,0,10,2.3,13.2,16.4c0.3-2.4,0.4-7.3,1.2-11.7
	c0.8-4.1,2.2-7.6,6.2-10.4c1.9-1.3,4.3-2.3,7.4-3.2c10-2.8,23.5-4.3,25.9,7c1.5,7.1,1.1,13.8,3,17.6c0.5,1,1.2,1.8,2.1,2.3
	c1.1,0.7,2.6,1,4.7,0.8c9.8-0.8,9.1-11.5,6.3-19.1C114.5,84.4,110.6,71.8,94.1,68.7z"/>
<path class="st4" d="M94.1,68.7C77.6,65.5,62,67.5,47.3,92.2c0,0,10,2.3,13.2,16.4c0.3-2.4,0.4-7.3,1.2-11.7
	c0.8-4.1,2.2-7.6,6.2-10.4c1.9-1.3,4.3-2.3,7.4-3.2c10-2.8,23.5-4.3,25.9,7c1.5,7.1,1.1,13.8,3,17.6c0.5,1,1.2,1.8,2.1,2.3
	c1.1,0.7,2.6,1,4.7,0.8c9.8-0.8,9.1-11.5,6.3-19.1C114.5,84.4,110.6,71.8,94.1,68.7"/>
<path class="st8" d="M53.7,87.4c2.7,3.3,3.5,3.7,6.1,1.1C62.5,86,78,74.3,81.3,73.6c3.3-0.7-0.2-2.9-6.8-1.9
	C67.9,72.7,63.6,76.5,53.7,87.4z"/>
<path class="st9" d="M53.7,87.4c2.7,3.3,3.5,3.7,6.1,1.1C62.5,86,78,74.3,81.3,73.6c3.3-0.7-0.2-2.9-6.8-1.9
	C67.9,72.7,63.6,76.5,53.7,87.4z"/>
<path class="st0" d="M59.1,127.8c0,0,9.8,6,15.8,4.5c6-1.5,14.2-6.9,19.2-6.9c5,0,9.8-2.3,9.7,0.8c-0.1,3.1-6.1,2.4-8.9,3.2
	c-2.8,0.8-14.9,5.3-16.6,6.7s-16.5,2.7-18.9,0C56.9,133.4,58.7,128,59.1,127.8z"/>
<path class="st1" d="M59.1,127.8c0,0,9.8,6,15.8,4.5c6-1.5,14.2-6.9,19.2-6.9c5,0,9.8-2.3,9.7,0.8c-0.1,3.1-6.1,2.4-8.9,3.2
	c-2.8,0.8-14.9,5.3-16.6,6.7s-16.5,2.7-18.9,0C56.9,133.4,58.7,128,59.1,127.8"/>
<path class="st0" d="M33.6,130.3c12,11.1,25.8,5.8,25.8,5.8l-0.2-8.3C59.1,127.8,50.8,132.3,33.6,130.3z"/>
<path class="st1" d="M33.6,130.3c12,11.1,25.8,5.8,25.8,5.8l-0.2-8.3C59.1,127.8,50.8,132.3,33.6,130.3"/>
<path class="st10" d="M80.1,90.8c2.6,0,4.7,2.1,4.7,4.7s-2.1,4.7-4.7,4.7c-2.6,0-4.7-2.1-4.7-4.7S77.5,90.8,80.1,90.8"/>
<path class="st6" d="M77.7,93c0.8,0,1.4,0.6,1.4,1.4c0,0.8-0.6,1.4-1.4,1.4c-0.8,0-1.4-0.6-1.4-1.4C76.3,93.7,76.9,93,77.7,93"/>
<path class="st0" d="M146.8,216.6c-2,1.5-1.5,3.5-4.2,2.5c-2.7-0.9-4.5-2.3-5.2,2.1c-0.7,4.3-2.9,9.8-4,12.9
	c-1.1,3.2,2.1,9.1,5,14.3c2.9,5.3,9,14.8,9.9,11c0.9-3.8,2.2-13.3,6.5-13.2c4.3,0.1,5.8,0.8,3.7-4.4
	C156.3,236.6,146.8,216.6,146.8,216.6z"/>
<path class="st1" d="M146.8,216.6c-2,1.5-1.5,3.5-4.2,2.5c-2.7-0.9-4.5-2.3-5.2,2.1c-0.7,4.3-2.9,9.8-4,12.9
	c-1.1,3.2,2.1,9.1,5,14.3c2.9,5.3,9,14.8,9.9,11c0.9-3.8,2.2-13.3,6.5-13.2c4.3,0.1,5.8,0.8,3.7-4.4
	C156.3,236.6,146.8,216.6,146.8,216.6"/>
<path class="st4" d="M146.8,216.6c-2,1.5-1.5,3.5-4.2,2.5c-1.7-0.6-3.1-1.4-4-0.7c-0.1,1.4-0.1,3.1,0.1,4.9
	c0.4,4.2,1.7,8.9,5.3,11.7c6.6,5,2.3,12.2,15,8c-0.1-0.4-0.3-0.8-0.5-1.2c-1.9-4.4-9.1-19.9-11.1-24.1
	C147,217,146.8,216.6,146.8,216.6"/>
<path class="st0" d="M165.8,250.6c0,0-2.7-6-5.7-4.3c-3,1.7-4.7,6.4-4.7,11.6c0,5.3,0.3,8.7,4.2,7.2c3.9-1.5,4.6-4.5,11.8-3.3
	c7.2,1.2,17.4,2,14.1-1.3C182.1,257.3,173.9,254.6,165.8,250.6z"/>
<path class="st1" d="M165.8,250.6c0,0-2.7-6-5.7-4.3c-3,1.7-4.7,6.4-4.7,11.6c0,5.3,0.3,8.7,4.2,7.2c3.9-1.5,4.6-4.5,11.8-3.3
	c7.2,1.2,17.4,2,14.1-1.3C182.1,257.3,173.9,254.6,165.8,250.6"/>
<path class="st4" d="M161.4,248.6c-1.5,1.5-4.5,4.5-0.8,5.8c3.7,1.3,2.8,0.1,6.5,1.9s8.7,2.4,9.5,2.3c0.8-0.1,3.1-0.1-1.2-2.1
	C171.2,254.4,161.4,248.6,161.4,248.6"/>
<path class="st11" d="M171.7,253.4c1,0.5-2.8,0.6-1.7,3.1c1.2,2.4,2.6,4.6-0.4,5.2 M165.8,250.6c-0.3,0.5-3.2,0.8-2.2,3
	c1,2.3,2.8,1.7,1.5,2.6c-1.3,0.9-3.1,4.8-1.5,6.5"/>
<path class="st0" d="M132.2,79.6c0,0-1.4-9,3.5-15c4.9-6,12.5-9.5,17-10.7c-18,16.9-11.7,21-13.5,25
	C138.1,81.2,136.1,82.3,132.2,79.6z"/>
<path class="st4" d="M132.2,79.6c0,0-1.4-9,3.5-15c4.9-6,12.5-9.5,17-10.7c-18,16.9-11.7,21-13.5,25
	C138.1,81.2,136.1,82.3,132.2,79.6"/>
<path class="st0" d="M134,158.6c-1.2,3.2,0.2,4.8,2.3,4.7c2.2-0.1,2-2.3,3.7-1.2c1.7,1,2.3,2.7,2.9-0.1c0.6-2.8-0.7-27.7-0.3-42.9
	c0.4-15.3-6.3-32.4-1.3-31.9c5,0.6,16.9-3,13.6-6.4c-3.3-3.4-11.5-3.1-15.2-3.1s-1.6,0.7-3.1,2.4c-1.5,1.8-9.5-3.6-4.2,0.6
	C137.6,84.7,138.7,146.3,134,158.6z"/>
<path class="st4" d="M134,158.6c-1.2,3.2,0.2,4.8,2.3,4.7c2.2-0.1,2-2.3,3.7-1.2c1.7,1,2.3,2.7,2.9-0.1c0.6-2.8-0.7-27.7-0.3-42.9
	c0.4-15.3-6.3-32.4-1.3-31.9c5,0.6,16.9-3,13.6-6.4c-3.3-3.4-11.5-3.1-15.2-3.1s-1.6,0.7-3.1,2.4c-1.5,1.8-9.5-3.6-4.2,0.6
	C137.6,84.7,138.7,146.3,134,158.6"/>
<path class="st0" d="M116.7,246c-2.9-0.7-6.7,0.3-5.8,2.7c0.9,2.4,2.5,1.3,2.1,3.1c-0.4,1.9,2,3.7,3.4,2.4c1.4-1.3-0.4-2.6,4.7-4.2
	c5.1-1.6,17.8-6.7,19.8-6.5c2,0.3,3.4-2.2,2.1-3.8c-1.3-1.6-3.4-5.3-6-3.1c-2.5,2.3-1.6,3-4.6,4C129.5,241.7,121.1,244.4,116.7,246z
	"/>
<path class="st4" d="M116.7,246c-2.9-0.7-6.7,0.3-5.8,2.7c0.9,2.4,2.5,1.3,2.1,3.1c-0.4,1.9,2,3.7,3.4,2.4c1.4-1.3-0.4-2.6,4.7-4.2
	c5.1-1.6,17.8-6.7,19.8-6.5c2,0.3,3.4-2.2,2.1-3.8c-1.3-1.6-3.4-5.3-6-3.1c-2.5,2.3-1.6,3-4.6,4C129.5,241.7,121.1,244.4,116.7,246"
	/>
<path class="st0" d="M116.9,257c-2.3,1.3-2.4,3.9-0.7,4.5c1.7,0.6,6.3,6,8.8,10.7c2.4,4.7,5.9,10.2,5.7,11.6
	c-0.1,1.4,1.3,2.3,2.3,1.5c1-0.8,2.6,0.7,3.1-1.1c0.5-1.7-8.8-19.9-11.9-22.6c-3.1-2.7-3.5-2.7-3.6-4.5
	C120.5,255.3,118.9,253.2,116.9,257z"/>
<path class="st4" d="M116.9,257c-2.3,1.3-2.4,3.9-0.7,4.5c1.7,0.6,6.3,6,8.8,10.7c2.4,4.7,5.9,10.2,5.7,11.6
	c-0.1,1.4,1.3,2.3,2.3,1.5c1-0.8,2.6,0.7,3.1-1.1c0.5-1.7-8.8-19.9-11.9-22.6c-3.1-2.7-3.5-2.7-3.6-4.5
	C120.5,255.3,118.9,253.2,116.9,257"/>
<path class="st0" d="M126.5,301.5c0,0-2.2,2.2-3.3,3.1c-1.1,1,0.9,4.7,3.3,5.6c2.3,0.9,4.7-2,5.6-2.6c0.9-0.7,0.4-2.9,0.4-4.7
	c0-1.9,1-8.3,2.2-10.5c1.2-2.2,3.3-5.5,1.6-6.3c-1.7-0.9-1.2,1.1-3.1,0.7c-1.9-0.4-2.6-1.9-3.5,2.5
	C129,293.6,128.6,297.2,126.5,301.5z"/>
<path class="st4" d="M126.5,301.5c0,0-2.2,2.2-3.3,3.1c-1.1,1,0.9,4.7,3.3,5.6c2.3,0.9,4.7-2,5.6-2.6c0.9-0.7,0.4-2.9,0.4-4.7
	c0-1.9,1-8.3,2.2-10.5c1.2-2.2,3.3-5.5,1.6-6.3c-1.7-0.9-1.2,1.1-3.1,0.7c-1.9-0.4-2.6-1.9-3.5,2.5
	C129,293.6,128.6,297.2,126.5,301.5"/>
<path class="st1" d="M113.1,251.8c-0.4,1.9,2,3.7,3.4,2.4c1.4-1.3-0.4-2.6,4.7-4.2c3.5-1.1,10.5-3.8,15.2-5.4
	c2.2-0.7,3.9-1.2,4.6-1.1c2,0.3,3.4-2.2,2.1-3.8c-0.1-0.2-0.3-0.4-0.4-0.6c0.7,2.5-2.6,3.3-4.1,3.3c-0.4,0-1.5,0.3-2.9,0.7
	c-5.1,1.5-14.9,5.2-16.9,6.4c-2.6,1.6-3,3.6-4.2,2.3c-1.2-1.3,0-2.2-1.5-1.1C113.2,251.2,113.2,251.4,113.1,251.8"/>
<path class="st1" d="M137.2,91.9c0.3,5.7,1.7,13.4,2.4,17.9c0.4,2.4,0.5,8.1,0.5,15c0,7-0.2,15.2-0.6,22c-0.4,6.5-0.9,11.7-1.5,13.4
	c-0.1,0.2-0.2,0.4-0.3,0.5c-0.2,0.3-0.5,0.4-0.8,0.5c-1.1,0.4-2.3-0.6-3.2-1.6c-0.4,1.8,0.2,3,1.4,3.4c0.4,0.1,0.8,0.2,1.3,0.2
	c1.5-0.1,1.8-1.1,2.5-1.4c0.3-0.2,0.6-0.1,1.2,0.2c0.4,0.3,0.8,0.6,1.1,0.8c0.3,0.2,0.5,0.5,0.8,0.5c0.4,0.2,0.8-0.1,1-1.5
	c0.6-2.8-0.7-27.7-0.3-42.9c0.3-12.6-4.1-26.4-3-30.6c-0.7-1.8,1.1-1.7,2.7-1.2c0.4,0,0.9,0,1.4-0.1c-0.3-0.3-0.7-0.6-1.1-1.2
	c-2.1-1.8,0.2-2.4,2.1-2.5c0.4,0,1.8,1.1,3.6,2.9c0.9-0.2,1.8-0.5,2.6-0.8c-0.2-0.1-0.3-0.2-0.4-0.2c-5.7-2.9,0.1,0.5-4.1-2
	c-2.2-0.9-1.1-1.9,0.3-2.7c-0.2,0-0.3-0.1-0.5-0.1c-2.5,0-1.6-1.6-0.5-2.8c-0.9-0.1-1.8-0.1-2.7-0.1c-0.1,1.1-0.6,2.3-1.3,3.4
	c-0.9,1.4-2.2,2.7-3.5,3.6C137.1,85.4,136.9,88.2,137.2,91.9"/>
<path class="st0" d="M142.7,85.9c3.2,3.7,1.5-0.3,5.9,4.3c4.4,4.7,41.2,45,42.2,46.6c1,1.6,0.1,3.6,1.2,4.1c1.1,0.6,2.7-0.9,4.4-2
	c1.7-1.1,0.6-3.6-1-4.1c-1.6-0.5-16.1-14.1-24-23.3c-7.9-9.2-24.7-28.2-26.6-28.1C142.9,83.6,140.6,84.1,142.7,85.9z"/>
<path class="st4" d="M142.7,85.9c3.2,3.7,1.5-0.3,5.9,4.3c4.4,4.7,41.2,45,42.2,46.6c1,1.6,0.1,3.6,1.2,4.1c1.1,0.6,2.7-0.9,4.4-2
	c1.7-1.1,0.6-3.6-1-4.1c-1.6-0.5-16.1-14.1-24-23.3c-7.9-9.2-24.7-28.2-26.6-28.1C142.9,83.6,140.6,84.1,142.7,85.9"/>
<path class="st0" d="M216.9,192.8c-0.2,0-3.5-0.5-2.3,1.4c1.2,1.9,1.3,13.1,0.6,18.8s-3,12.2-2.7,11.9c0.3-0.4,7.4-14.2,7.8-22.6
	C220.7,193.8,220.7,192.1,216.9,192.8z"/>
<path class="st4" d="M216.9,192.8c-0.2,0-3.5-0.5-2.3,1.4c1.2,1.9,1.3,13.1,0.6,18.8s-3,12.2-2.7,11.9c0.3-0.4,7.4-14.2,7.8-22.6
	C220.7,193.8,220.7,192.1,216.9,192.8"/>
<path class="st0" d="M196.1,140.2c0,0-4.4,1.8-2.8,3.4c1.6,1.6,3.3,1.5,4.5,3.6s9.8,23.3,11.9,29.3c2.1,6,6.5,12.9,5.3,14.2
	c-1.2,1.3,0,1.8,2,2.1c2,0.2,3.7,0.6,1.9-4.7c-1.8-5.3-19.4-43.2-18.1-44.2C202,142.9,199.9,136.6,196.1,140.2z"/>
<path class="st4" d="M196.1,140.2c0,0-4.4,1.8-2.8,3.4c1.6,1.6,3.3,1.5,4.5,3.6s9.8,23.3,11.9,29.3c2.1,6,6.5,12.9,5.3,14.2
	c-1.2,1.3,0,1.8,2,2.1c2,0.2,3.7,0.6,1.9-4.7c-1.8-5.3-19.4-43.2-18.1-44.2C202,142.9,199.9,136.6,196.1,140.2"/>
<path class="st0" d="M165.1,147.6c0,0-4.4,1.8-2.8,3.4c1.6,1.6,3.3,1.5,4.5,3.6c1.1,2.1,9.8,23.3,11.9,29.3c2.1,6,3.3,8.4,2.1,9.8
	c-1.2,1.3,0,1.8,2,2.1c2,0.2,3.7,0.6,1.9-4.7c-1.8-5.3-16.2-38.7-14.9-39.7C171,150.2,173.5,143.2,165.1,147.6z"/>
<path class="st4" d="M165.1,147.6c0,0-4.4,1.8-2.8,3.4c1.6,1.6,3.3,1.5,4.5,3.6c1.1,2.1,9.8,23.3,11.9,29.3c2.1,6,3.3,8.4,2.1,9.8
	c-1.2,1.3,0,1.8,2,2.1c2,0.2,3.7,0.6,1.9-4.7c-1.8-5.3-16.2-38.7-14.9-39.7C171,150.2,173.5,143.2,165.1,147.6"/>
<path class="st0" d="M183,195.6c-0.2,0-3.5-0.5-2.3,1.4c1.2,1.9,1.3,13.1,0.6,18.8c-0.7,5.7-3,12.2-2.7,11.9
	c0.3-0.4,7.4-14.2,7.8-22.6C186.8,196.6,186.8,195,183,195.6z"/>
<path class="st4" d="M183,195.6c-0.2,0-3.5-0.5-2.3,1.4c1.2,1.9,1.3,13.1,0.6,18.8c-0.7,5.7-3,12.2-2.7,11.9
	c0.3-0.4,7.4-14.2,7.8-22.6C186.8,196.6,186.8,195,183,195.6"/>
<path class="st0" d="M139.9,88.9c1.7,4.6,6.8,12.4,9.4,18.3c2.5,5.9,13.1,34,13.5,35.9c0.4,1.9-1.1,3.4-0.3,4.3
	c0.8,0.9,2.8,0.1,4.8-0.4c2-0.5,1.8-3.2,0.5-4.2c-1.3-1-4.5-10-8.7-21.4c-4.2-11.3-14.5-33.6-16.3-34.1
	C140.9,86.7,138.6,86.4,139.9,88.9z"/>
<path class="st4" d="M139.9,88.9c1.7,4.6,6.8,12.4,9.4,18.3c2.5,5.9,13.1,34,13.5,35.9c0.4,1.9-1.1,3.4-0.3,4.3
	c0.8,0.9,2.8,0.1,4.8-0.4c2-0.5,1.8-3.2,0.5-4.2c-1.3-1-4.5-10-8.7-21.4c-4.2-11.3-14.5-33.6-16.3-34.1
	C140.9,86.7,138.6,86.4,139.9,88.9"/>
<path class="st0" d="M245.4,178c-0.2,0-3.5-0.7-2.4,1.3c1.1,2,0.4,13.2-0.7,18.8c-1.1,5.7-3.8,12-3.5,11.6c0.3-0.4,8.4-13.6,9.4-22
	C249.1,179.2,249.2,177.6,245.4,178z"/>
<path class="st4" d="M245.4,178c-0.2,0-3.5-0.7-2.4,1.3c1.1,2,0.4,13.2-0.7,18.8c-1.1,5.7-3.8,12-3.5,11.6c0.3-0.4,8.4-13.6,9.4-22
	C249.1,179.2,249.2,177.6,245.4,178"/>
<path class="st0" d="M146.4,83.3c4.2,2.5-1.6-0.9,4.1,2c5.7,2.9,66,37,67.5,38.2c1.5,1.2,1.3,3.3,2.5,3.5c1.2,0.2,2.2-1.7,3.4-3.3
	c1.2-1.6-0.7-3.6-2.3-3.5c-1.7,0-31.9-16.8-42.4-22.8c-10.5-6-30-17.7-31.7-17C145.8,81,143.8,82.3,146.4,83.3z"/>
<path class="st4" d="M146.4,83.3c4.2,2.5-1.6-0.9,4.1,2c5.7,2.9,66,37,67.5,38.2c1.5,1.2,1.3,3.3,2.5,3.5c1.2,0.2,2.2-1.7,3.4-3.3
	c1.2-1.6-0.7-3.6-2.3-3.5c-1.7,0-31.9-16.8-42.4-22.8c-10.5-6-30-17.7-31.7-17C145.8,81,143.8,82.3,146.4,83.3"/>
<path class="st0" d="M223.5,124.4c0,0-4.4,1.8-2.8,3.4c1.6,1.6,3.3,1.5,4.5,3.6c1.1,2.1,9.8,23.3,11.9,29.3c2.1,6,6.5,12.9,5.3,14.2
	c-1.2,1.3,0,1.8,2,2.1c2,0.2,3.7,0.6,1.9-4.7c-1.8-5.3-19.4-43.2-18.1-44.2C229.4,127,227.4,120.7,223.5,124.4z"/>
<path class="st4" d="M223.5,124.4c0,0-4.4,1.8-2.8,3.4c1.6,1.6,3.3,1.5,4.5,3.6c1.1,2.1,9.8,23.3,11.9,29.3c2.1,6,6.5,12.9,5.3,14.2
	c-1.2,1.3,0,1.8,2,2.1c2,0.2,3.7,0.6,1.9-4.7c-1.8-5.3-19.4-43.2-18.1-44.2C229.4,127,227.4,120.7,223.5,124.4"/>
<path class="st0" d="M265.2,133.9c-0.2,0-3.5,0.6-1.7,2.1c1.8,1.4,5.4,12,6.5,17.7c1.1,5.6,1.1,12.5,1.2,12.1
	c0.1-0.4,2.6-15.8,0.2-23.9C269.1,133.6,268.5,132.1,265.2,133.9z"/>
<path class="st4" d="M265.2,133.9c-0.2,0-3.5,0.6-1.7,2.1c1.8,1.4,5.4,12,6.5,17.7c1.1,5.6,1.1,12.5,1.2,12.1
	c0.1-0.4,2.6-15.8,0.2-23.9C269.1,133.6,268.5,132.1,265.2,133.9"/>
<path class="st0" d="M146.2,80.6c4.8,0.7-1.8-0.3,4.6,0.3c6.4,0.6,68,12.4,69.8,13c1.8,0.6,2.4,2.6,3.6,2.3c1.2-0.3,1.4-2.4,2-4.4
	c0.5-1.9-1.9-3.1-3.5-2.4c-1.5,0.7-28.9-6-40.9-7.8c-12-1.8-34.4-5.5-35.7-4.2C144.8,78.6,143.4,80.5,146.2,80.6z"/>
<path class="st4" d="M146.2,80.6c4.8,0.7-1.8-0.3,4.6,0.3c6.4,0.6,68,12.4,69.8,13c1.8,0.6,2.4,2.6,3.6,2.3c1.2-0.3,1.4-2.4,2-4.4
	c0.5-1.9-1.9-3.1-3.5-2.4c-1.5,0.7-28.9-6-40.9-7.8c-12-1.8-34.4-5.5-35.7-4.2C144.8,78.6,143.4,80.5,146.2,80.6"/>
<path class="st0" d="M225.9,93.2c0,0-3.4,3.3-1.3,4.2c2.1,0.9,3.6,0.1,5.5,1.6c1.8,1.5,18,17.8,22.2,22.6
	c4.2,4.8,10.9,9.5,10.3,11.1c-0.6,1.7,0.7,1.7,2.6,1.2c1.9-0.5,3.6-0.8-0.1-5c-3.7-4.2-34.4-32.5-33.6-34
	C232.3,93.4,228.1,88.3,225.9,93.2z"/>
<path class="st4" d="M225.9,93.2c0,0-3.4,3.3-1.3,4.2c2.1,0.9,3.6,0.1,5.5,1.6c1.8,1.5,18,17.8,22.2,22.6
	c4.2,4.8,10.9,9.5,10.3,11.1c-0.6,1.7,0.7,1.7,2.6,1.2c1.9-0.5,3.6-0.8-0.1-5c-3.7-4.2-34.4-32.5-33.6-34
	C232.3,93.4,228.1,88.3,225.9,93.2"/>
<path d="M184,263.2c-0.2-0.2-2-0.4-2.2-0.3s-0.2,0.5-0.1,0.7c0,0,2.6,3.2,11.2,7.8c4.9,2.6,10,4.2,14.9,5.6c0,0.5-0.1,1.5-0.3,3.3
	c-0.4,3.6,2.8,9.6,2.8,9.6s-2.2-8.6-1.5-11.1c0.2-0.7,0.3-1.2,0.3-1.5l1,0.3l0.3,0.1c0,0.5-0.1,1.5-0.3,3.3
	c-0.4,3.6,1.4,10.9,6.1,14.9c-4.1-4.7-5.7-12.4-4.6-17.8c2.7,0.7,3.2,0.7,8.1,2.4c0,0.4-0.1,1.4-0.3,3.5
	c-0.4,3.6,9.5,12.3,12.2,13.3c-6.7-6.6-11.9-11.2-11.2-13.7c0.4-1.3,0.5-2.2,0.5-2.7c8,2.9,14.3,7.7,17.3,21.2
	c0.1,0.3,0.7,2.1,1,2.1c0.3-0.1-0.3-1.8-0.4-2.1c-4.4-19.8-15.4-21.7-28.6-25.4c-5.6-1.6-11.4-3.2-16.9-6.2
	C185,266,184,263.2,184,263.2"/>
<path class="st0" d="M112.8,311.2c-1.8,0.9-3.1,3.5-0.5,3.7c2.6,0.1,2-0.3,5.6-2.2c3.6-1.9,4.7-3.7,3.5-4.5
	C120.2,307.5,117.5,309.9,112.8,311.2z"/>
<path class="st4" d="M112.8,311.2c-1.8,0.9-3.1,3.5-0.5,3.7c2.6,0.1,2-0.3,5.6-2.2c3.6-1.9,4.7-3.7,3.5-4.5
	C120.2,307.5,117.5,309.9,112.8,311.2"/>
<path class="st0" d="M116.8,314.2c-1.4,1.3-3.3,1.5-1.3,3.5c2,1.9,4,0.6,7.4-1.6c3.4-2.2,2.2-4.2,1.5-4.7
	C123.6,310.9,121.5,311.8,116.8,314.2z"/>
<path class="st4" d="M116.8,314.2c-1.4,1.3-3.3,1.5-1.3,3.5c2,1.9,4,0.6,7.4-1.6c3.4-2.2,2.2-4.2,1.5-4.7
	C123.6,310.9,121.5,311.8,116.8,314.2"/>
<path class="st0" d="M103.3,324.6c-3.3,2.2-3.8,3.7-1.9,5.3c2,1.7,3.3-0.8,7.4-3.8c4.1-3,6.2-6.3,4.1-7
	C110.9,318.5,109.6,319.1,103.3,324.6z"/>
<path class="st4" d="M103.3,324.6c-3.3,2.2-3.8,3.7-1.9,5.3c2,1.7,3.3-0.8,7.4-3.8c4.1-3,6.2-6.3,4.1-7
	C110.9,318.5,109.6,319.1,103.3,324.6"/>
<path class="st0" d="M92.5,321.1c-0.8,2.2-0.4,4.8,3,3.8c3.4-0.9,9.8-3.9,12.7-6.3c3-2.3,2.6-4.2,0-4.4
	C105.6,314.2,99.8,317.1,92.5,321.1z"/>
<path class="st4" d="M92.5,321.1c-0.8,2.2-0.4,4.8,3,3.8c3.4-0.9,9.8-3.9,12.7-6.3c3-2.3,2.6-4.2,0-4.4
	C105.6,314.2,99.8,317.1,92.5,321.1"/>
<path class="st0" d="M88.4,322c-1.6,0.8-2.9,4.5-2.7,5.5c0.2,1,4.6,0.3,5.3-0.6C91.6,326,90.8,321.5,88.4,322z"/>
<path class="st4" d="M88.4,322c-1.6,0.8-2.9,4.5-2.7,5.5c0.2,1,4.6,0.3,5.3-0.6C91.6,326,90.8,321.5,88.4,322"/>
<path class="st0" d="M97.4,330.2c-2.2,2.1-2.3,5.3-2.3,5.3s6-0.5,6.6-2.1C102.1,331.8,98.4,328.3,97.4,330.2z"/>
<path class="st4" d="M97.4,330.2c-2.2,2.1-2.3,5.3-2.3,5.3s6-0.5,6.6-2.1C102.1,331.8,98.4,328.3,97.4,330.2"/>
<path class="st1" d="M133.9,289.3c-1.5,1-2.2,7.7-2.8,11.2c-0.6,3.6-2,5.6-4.8,6.8c-0.9,0.4-1.9,0.3-2.8,0c0.7,1.2,1.8,2.4,3,2.9
	c2.3,0.9,4.7-2,5.6-2.6c0.9-0.7,0.4-2.9,0.4-4.7c0-1.9,1-8.3,2.2-10.5c1.2-2.2,3.3-5.5,1.6-6.3c0,0-0.1,0-0.1-0.1
	C137,287.5,135.2,288.4,133.9,289.3"/>
<path class="st1" d="M119.8,260c-1,1.8,2,2.3,5.9,5.9c3.9,3.7,8,17.7,7.1,17.6c-0.9-0.1-1.2,1.3-0.7,2.1c0.3,0,0.5-0.1,0.8-0.3
	c1-0.8,2.6,0.7,3.1-1.1c0.5-1.7-8.8-19.9-11.9-22.6c-2.4-2.1-3.2-2.6-3.4-3.5C120.4,258.8,120.1,259.5,119.8,260"/>
<path class="st1" d="M99.4,330c-0.2,1.1-0.7,2.8-2.3,3.6c-0.7,0.4-1.4,0.5-1.9,0.5c-0.2,0.8-0.2,1.3-0.2,1.3s6-0.5,6.6-2.1
	C101.9,332.4,100.7,330.8,99.4,330"/>
<path class="st1" d="M101.4,330c2,1.7,3.3-0.8,7.4-3.8c2.9-2.1,4.9-4.5,4.9-5.9c-0.5,0.9-1.5,2.2-3.3,3.4c-3.3,2.3-6.5,4.8-8.6,5.2
	c-0.5,0.1-0.9,0.1-1.2,0.2C100.8,329.4,101.1,329.7,101.4,330"/>
<path class="st1" d="M115.5,317.7c2,1.9,4,0.6,7.4-1.6c2.3-1.5,2.5-2.9,2.1-3.8c-1.4,1.9-6,4.5-8.3,4.8c-0.7,0.1-1.3,0.1-1.7,0.1
	C115.1,317.3,115.3,317.5,115.5,317.7"/>
<path class="st1" d="M85.7,326.6c-0.1,0.4-0.1,0.7,0,0.9c0.2,1,4.6,0.3,5.3-0.6c0.3-0.4,0.3-1.3,0.1-2.2c-0.4,0.3-1.2,0.8-2.2,1.3
	C87.7,326.4,86.7,326.8,85.7,326.6"/>
<path class="st1" d="M112.3,314.9c2.6,0.1,2-0.3,5.6-2.2c3.1-1.6,4.3-3.1,3.9-4c-1.7,1.2-5.4,3.7-6.9,4.3c-1.4,0.5-2.8,1.2-3.6,1.5
	C111.5,314.8,111.9,314.9,112.3,314.9"/>
<path class="st0" d="M219.2,293.1c0.8-0.3,1.9,0.5,5.2,2.6c-3-3.3-8.2-10.3-8-12.6c0.2-2.4,0.3-3.2,0.3-3.6
	c-0.7-0.2-1.4-0.4-2.2-0.6C214.7,286.4,214.6,286.9,219.2,293.1z"/>
<path class="st3" d="M219.2,293.1c0.8-0.3,1.9,0.5,5.2,2.6c-3-3.3-8.2-10.3-8-12.6c0.2-2.4,0.3-3.2,0.3-3.6
	c-0.7-0.2-1.4-0.4-2.2-0.6C214.7,286.4,214.6,286.9,219.2,293.1"/>
<path d="M180.4,258.9c-0.2,0-1.7-0.9-1.7-1.1c0-0.2,0.1-0.5,0.4-0.5c0,0,3.7-0.7,12.4,1.1c5,1,9.4,2.9,13.7,4.7
	c0.3-0.4,0.8-1.1,1.8-2.5c1.8-2.7,7.5-5.1,7.5-5.1s-6.6,4.7-7.5,6.8c-0.3,0.6-0.5,1-0.6,1.2l0.8,0.4l0.3,0.1
	c0.3-0.4,0.8-1.1,1.7-2.5c1.8-2.7,7.3-6.8,13-6.8c-5.6,0.9-11.3,5.3-13.6,9.8c2.3,1.1,2.6,1.4,7.1,3.1c0.2-0.3,0.8-1,1.8-2.6
	c1.8-2.7,13.9-3.1,16.3-2.2c-8.5,0.7-14.9,0.9-15.8,3c-0.5,1.2-1,1.8-1.3,2.2c7.3,2.6,14.5,3,24.5-4.7c0.2-0.2,1.8-1.1,1.9-0.9
	c0.2,0.2-1.3,1.1-1.5,1.3c-14.6,11.3-23.5,6.1-34.8,1c-4.8-2.1-9.8-4.4-15.4-5.5C182.7,257.5,180.4,258.9,180.4,258.9"/>
<path d="M173.1,261.7c0.2,1.5,0.6,4.4,2.1,7.7c1.1,2.5,2.8,5.2,5.4,7.9c7.3,7.7,13.6,8.8,13.6,8.8c0.3,0,4.4,0.4,4.4,0.2
	c0-0.3-4-1.1-4.3-1.1c0,0-5.9-1-13-8.5c-2.5-2.6-4.1-5.2-5.2-7.6c-1.4-3.1-1.9-5.8-2-7.2H173.1z"/>
<path d="M183.2,261.1c-0.3,0-0.5,0.2-0.6,0.4c0,0.3,0.2,0.5,0.4,0.6c0.1,0,22.4,2.4,37.2,13c15.1,10.8,39.8,0,39.9-0.1
	c0.3-0.1,8.1-4.4,8-4.6c-0.1-0.3-8.1,3.6-8.4,3.7c-0.1,0-24.3,10.7-39,0.2C205.9,263.5,183.3,261.1,183.2,261.1"/>
<path class="st0" d="M187.2,281.7c1-1,2.4-2.1,3.9-2.7c-3.4-1.8-5.6-5-6.8-7.3c-3.2,0.5-7.2-2.7-8.5-3.7c0.1,0.3,0.3,0.7,0.4,1
	c1.1,2.4,2.7,5,5.2,7.6C183.4,278.8,185.4,280.5,187.2,281.7z"/>
<path class="st3" d="M187.2,281.7c1-1,2.4-2.1,3.9-2.7c-3.4-1.8-5.6-5-6.8-7.3c-3.2,0.5-7.2-2.7-8.5-3.7c0.1,0.3,0.3,0.7,0.4,1
	c1.1,2.4,2.7,5,5.2,7.6C183.4,278.8,185.4,280.5,187.2,281.7"/>
<path class="st0" d="M194,280.2c-2.7,0.4-4.3,1.5-5.2,2.5c3.3,2,5.5,2.4,5.6,2.4c0.3,0,4.3,0.9,4.3,1.1c0,0.1-0.8,0.1-1.6,0.1
	c1.9,0.5,4.5,1.4,6.2,2.2C201.3,285.9,198,281.9,194,280.2z"/>
<path class="st3" d="M194,280.2c-2.7,0.4-4.3,1.5-5.2,2.5c3.3,2,5.5,2.4,5.6,2.4c0.3,0,4.3,0.9,4.3,1.1c0,0.1-0.8,0.1-1.6,0.1
	c1.9,0.5,4.5,1.4,6.2,2.2C201.3,285.9,198,281.9,194,280.2"/>
<path class="st10" d="M179.2,274.2l-0.8-1.2c0,0-1.6-0.9-1.1,5.2c0.5,6.1,2,7.6,2,7.6S177.1,275.2,179.2,274.2"/>
<path class="st10" d="M181.2,277l-0.8-1.2c0,0-1.3-0.1-0.8,4.5c0.4,4.5,2.9,7.1,2.9,7.1S179.1,278,181.2,277"/>
<path class="st10" d="M186.5,281.9l-0.5-0.7c0,0-0.9-0.5-0.6,2.9c0.3,3.4,1.1,4.3,1.1,4.3S185.4,282.5,186.5,281.9"/>
<path class="st10" d="M188.5,283.3l-0.5-0.7c0,0-0.9-0.5-0.6,2.9c0.3,3.4,1.1,4.3,1.1,4.3S187.3,283.9,188.5,283.3"/>
<path class="st10" d="M175.1,266.8l-0.8-1.2c0,0-1.6-0.9-1.1,5.2c0.5,6.1,2,7.6,2,7.6S173,267.8,175.1,266.8"/>
<path class="st0" d="M228.7,272.3c-0.1,0-0.2,0.1-0.3,0.1c-3.1,1.4-5.8,1.8-7.4,2c8.3,5.8,21.2,4.8,30.9,2.7c4-3.8,3.2-1.3,7.9-9.3
	c-3.2,2.2-6.4,1.8-9,2.9c-0.8,2.6-2.2,5.6-4.9,7c0,0.2,0.3-2.8,0.5-5.7c-4,0.9-8,0.8-13.3,0.5c-2.2,1.5-4.2,3-4.2,3l1.5-3.1
	L228.7,272.3z"/>
<path class="st3" d="M228.7,272.3c-0.1,0-0.2,0.1-0.3,0.1c-3.1,1.4-5.8,1.8-7.4,2c8.3,5.8,21.2,4.8,30.9,2.7c4-3.8,3.2-1.3,7.9-9.3
	c-3.2,2.2-6.4,1.8-9,2.9c-0.8,2.6-2.2,5.6-4.9,7c0,0.2,0.3-2.8,0.5-5.7c-4,0.9-8,0.8-13.3,0.5c-2.2,1.5-4.2,3-4.2,3l1.5-3.1
	L228.7,272.3z"/>
<path class="st10" d="M209.3,257.7c0.2-0.3,1-0.8,3.4-1.2c4.3-0.8,5.6,0,5.6,0s-7.1,0.4-8,1.8c4.2,2.8,6.1,5,6.1,5
	c0.3,0,6.8,3.6,6.8,3.9c0,0.3-6.6-2.9-6.9-2.9c0,0-5.8-6.9-20.3-11.6c-9.5-3.1-15.6-0.3-18.3,1.5c-2,1.4-1.4,0.9-1.5,1.1l-0.9-1
	c0.6-0.4,0.9-0.1,1.9-1c1.5-1,3.9-2.3,7.3-2.8c-0.1-0.4,0.2-1.4,4.5-2.9c5.8-2,7.8-1.1,7.8-1.1s-8.5,1.8-10.4,3.8
	c1.2-0.1,2.6-0.1,4,0.1c0-0.5,0.7-1.3,4.9-2.1c6-1.1,7.9,0,7.9,0s-9,0.5-11,2.3c1.3,0.2,2.7,0.6,4.2,1.1c3.3,1.1,6.2,2.3,8.6,3.5
	c0.2-0.4,1-1,4-1.5c4.9-0.9,6.5,0,6.5,0s-8.2,0.5-9.2,2.1C207.3,256.5,208.3,257.1,209.3,257.7"/>
<path class="st0" d="M197.9,272.6c0,0,5.4-3.6,7.7-4c2.3-0.3,6.5-0.4,6.5-0.4s-4.8,1.5-3.2,2.6c1.8,1.2-5.1,3.4-5.2,3.8
	C203.6,275.1,197.9,272.6,197.9,272.6z"/>
<path class="st3" d="M197.9,272.6c0,0,5.4-3.6,7.7-4c2.3-0.3,6.5-0.4,6.5-0.4s-4.8,1.5-3.2,2.6c1.8,1.2-5.1,3.4-5.2,3.8
	C203.6,275.1,197.9,272.6,197.9,272.6"/>
<path class="st0" d="M199.6,260.8c0.9-1.2,2.6-3.1,4.9-4.7c0.6-0.4,1.3-0.9,2-1.2c-0.2-0.1-0.4-0.2-0.6-0.3
	c-0.2-0.1-0.4-0.2-0.6-0.3c-4,0.5-10.6,1.6-10.6,1.6s5.4-1.8,8.3-2.8c-1.1-0.6-2.2-1.1-3.1-1.5c-0.9,0.1-1.9,0.3-2.8,0.5
	c-0.6,0.1-1.2,0.3-1.8,0.5c-5.9,1.7-11.4,4.8-11.4,4.8c1.9,0.1,4.4,0.5,7.7,1.1C194.3,259,197,259.8,199.6,260.8z"/>
<path class="st3" d="M199.6,260.8c0.9-1.2,2.6-3.1,4.9-4.7c0.6-0.4,1.3-0.9,2-1.2c-0.2-0.1-0.4-0.2-0.6-0.3
	c-0.2-0.1-0.4-0.2-0.6-0.3c-4,0.5-10.6,1.6-10.6,1.6s5.4-1.8,8.3-2.8c-1.1-0.6-2.2-1.1-3.1-1.5c-0.9,0.1-1.9,0.3-2.8,0.5
	c-0.6,0.1-1.2,0.3-1.8,0.5c-5.9,1.7-11.4,4.8-11.4,4.8c1.9,0.1,4.4,0.5,7.7,1.1C194.3,259,197,259.8,199.6,260.8"/>
<path class="st0" d="M219.1,268.9c0.9-0.5,2-1.2,2.8-2.1c-1-0.4-2.3-1-3.4-1.5c-0.3-0.1-0.6-0.3-0.9-0.4c-0.7-0.3-1.2-0.5-1.3-0.5
	c0,0-1.4-1.7-4.6-3.9c-0.3-0.2-0.6-0.4-0.9-0.6c-0.3-0.2-0.6-0.4-0.9-0.6c0,0,0,0,0,0c-0.8,0.1-1.5,0.3-2.1,0.5
	c-2.2,0.7-3.7,1.7-4.8,2.5C208.4,264.4,213.4,267.4,219.1,268.9z"/>
<path class="st3" d="M219.1,268.9c0.9-0.5,2-1.2,2.8-2.1c-1-0.4-2.3-1-3.4-1.5c-0.3-0.1-0.6-0.3-0.9-0.4c-0.7-0.3-1.2-0.5-1.3-0.5
	c0,0-1.4-1.7-4.6-3.9c-0.3-0.2-0.6-0.4-0.9-0.6c-0.3-0.2-0.6-0.4-0.9-0.6c0,0,0,0,0,0c-0.8,0.1-1.5,0.3-2.1,0.5
	c-2.2,0.7-3.7,1.7-4.8,2.5C208.4,264.4,213.4,267.4,219.1,268.9"/>
<path class="st10" d="M227.4,282.9c1.3-0.6,10.2-1.3,14.8-0.4c-7.6-1.8-14.7-0.7-15.9-0.2C227,282.7,226.6,282.5,227.4,282.9"/>
<path class="st10" d="M231.1,286.2c1-0.2,7.3,0.4,10.5,1.6c-5.1-2.2-10.2-2.4-11.1-2.2C230.9,286,230.6,285.8,231.1,286.2"/>
<path class="st10" d="M233.7,289.8c1,0,7,2.2,9.7,4.2c-4.4-3.4-9.3-4.9-10.2-4.9C233.6,289.5,233.4,289.2,233.7,289.8"/>
</svg>
